<svg width="960" height="1080" viewBox="0 0 960 1080" fill="none" xmlns="http://www.w3.org/2000/svg">
<g clip-path="url(#clip0_2574_1881)">
<rect width="960" height="1080" fill="#F5F7FF"/>
<path d="M603.093 767.43C739.97 780.434 870.352 756.126 992.602 691.264C992.648 744.736 997.113 799.806 1001.58 854.853L1001.58 854.866C1006.06 910.21 1010.55 965.53 1010.55 1019.22C1010.55 1025.66 1009.34 1030.02 1006.77 1033.57C1004.19 1037.14 1000.2 1039.94 994.501 1043.19C886.892 1095.23 772.75 1118.01 655.32 1126.14C557.447 1132.65 461.236 1131.02 365.037 1108.25L365.035 1108.25C135.175 1054.59 -24.5738 880.593 -58.8089 648.043C-78.3784 506.509 -66.9579 368.266 -3.38023 239.795L-3.37968 239.794C81.3891 67.418 224.833 -31.7813 410.706 -69.1904C516.688 -90.3349 624.315 -85.4583 730.361 -75.6934C816.8 -67.5587 901.607 -49.6625 983.151 -22.0052L983.154 -22.0043C988.046 -20.3776 991.605 -18.7817 993.958 -16.2389C996.289 -13.72 997.497 -10.2004 997.497 -4.57453C997.497 54.8344 998.72 116.277 999.944 177.713L999.944 177.732C1001.16 238.928 1002.38 300.117 1002.39 359.295C986.262 353.172 970.513 346.491 954.805 339.828C947.717 336.821 940.637 333.817 933.535 330.87C910.484 321.306 887.211 312.345 862.707 305.826C769.66 278.143 674.939 265.104 578.567 284.657C482.081 304.234 415.034 379.284 401.954 477.144L401.953 477.151C393.787 545.58 400.312 610.816 437.924 669.543L437.93 669.551C477.175 728.276 534.42 760.906 603.093 767.43Z" stroke="black" stroke-opacity="0.1"/>
</g>
<defs>
<clipPath id="clip0_2574_1881">
<rect width="960" height="1080" fill="white"/>
</clipPath>
</defs>
</svg>
