<svg width="1918" height="947" viewBox="0 0 1918 947" fill="none" xmlns="http://www.w3.org/2000/svg">
<g clip-path="url(#clip0_2563_4712)">
<rect width="1920" height="950" transform="matrix(-1 0 0 1 1920 0)" fill="#1E1F45"/>
<g opacity="0.4" clip-path="url(#clip1_2563_4712)">
<path opacity="0.2" d="M1455.55 181.155C1465.07 160.636 1475 140.584 1487.08 121.824C1557.86 12.6184 1657.93 -40.2387 1789.12 -33.4141V-33.414L1789.13 -33.4135C1817.96 -32.2739 1846.76 -29.6167 1875.6 -26.9567C1889.72 -25.6536 1903.85 -24.3498 1918 -23.2235V445.029C1910.53 442.877 1904.38 440.733 1898.21 438.579C1894.94 437.437 1891.65 436.292 1888.16 435.142C1799.73 404.296 1711.25 395.713 1621.02 418.009L1621.01 418.01L1621.01 418.012C1535.83 440.347 1483.67 495.357 1454.15 574.309C1450.62 583.041 1450.62 591.757 1450.62 600.259V600.336V601.469V602.602V603.735V604.868V606V607.133V608.266V609.399V610.532V611.665V612.797V613.93V615.063V616.196V617.329V618.461V619.594V620.727V621.86V622.993V624.125V625.258V626.391V627.524V628.657V629.79V630.922V632.055V633.188V634.321V635.454V636.586V637.719V638.852V639.985V641.118V642.25V643.383V644.516V645.649V646.782V647.915V649.047V650.18V651.313V652.446V653.579V654.711V655.844V656.977V658.11V659.243V660.375V661.508V662.641V663.774V664.907V666.04V667.172V668.305V669.438V670.571V671.704V672.836V673.969V675.102V676.235V677.368V678.5V679.633V680.766V681.899V683.032V684.164V685.297V686.43V687.563V688.696V689.829V690.961V692.094V693.227V694.36V695.493V696.625V697.758V698.891V700.024V701.157V702.289V703.422V704.555V705.688V706.821V707.954V709.086V710.219V711.352V712.485V713.618V714.75V715.883V717.016V718.149V719.282V720.414V721.547V722.68V723.813V724.946V726.079V727.211V728.344V729.477V730.61V731.743V732.875V734.008V735.141V736.274V737.407V738.539V739.672V740.805V741.938V743.071V744.204V745.336V746.469V747.602V748.735V749.868V751V752.133V753.266V754.399V755.532V756.664V757.797V758.93V760.063V761.196V762.329V763.461V764.594V765.727V766.86V767.993V769.125V770.258V771.391V772.524V773.657V774.789V775.922V777.055V778.188V779.321V780.454V781.586V782.719V783.852V784.985V786.118V787.25V788.383V789.516V790.649V791.782V792.914V794.047V795.18V796.313V797.446V798.579V799.711V800.844V801.977V803.11V804.243V805.375V806.508V807.641V808.774V809.907V811.039V812.172V813.305V814.438V815.571V816.704V817.836V818.969V820.102V821.235V822.368V823.5V824.633V825.766V826.899V828.032V829.164V830.297V831.43V832.563V833.696V834.829V835.961V837.094V838.227V839.36V840.493V841.625V842.758V843.891V845.024V846.157V847.289V848.422V849.555V850.688V851.821V852.954V854.086V855.219V856.352V857.485V858.618V859.75V860.883V862.016V863.149V864.282V865.414V866.547V867.68V868.813V869.946V871.078V872.211V873.344V874.477V875.61V876.743V877.875V879.008V880.141V881.274V882.407V883.539V884.672V885.805V886.938V888.071V889.203V890.336V891.469V892.602V893.735V894.868V896V897.133V898.266V899.399V900.532V901.664V902.797V903.93V905.063V906.196V907.328V908.461V909.594V910.727V911.86V912.993V914.125V915.258V916.391V917.524V918.657V919.789V920.922V922.055V923.188V924.321V925.453V926.586V927.719V928.852V929.985V931.118V932.25V933.383V934.516V935.649V936.782V937.914V939.047V940.18V941.313V942.446V943.578V944.711V945.844V946.977V948.11V949.243V950.375V951.508V952.641V953.774V954.907V956.039V957.172V958.305V959.438V960.571V961.703V962.836V963.969V965.102V966.235V967.368V968.5V969.633V970.766V971.899V973.032V974.164V975.297V976.43V977.563V978.696V979.828V980.961V982.094V983.227V984.36V985.493V986.625V987.758V988.891V990.024V991.157V992.289V993.422V994.555V995.688V996.821V997.953V999.086V1000.22V1001.35V1002.48V1003.62V1004.75V1005.88V1007.02V1008.15V1009.28V1010.41V1011.55V1012.68V1013.81V1014.95V1016.08V1017.21V1018.34V1019.48V1020.61V1021.74V1022.88V1024.01V1025.14V1026.27V1027.41V1028.54V1029.67V1030.81V1031.94V1033.07V1034.2V1035.34V1036.47V1037.6V1038.73V1039.87V1041V1042.13V1043.27V1044.4V1045.53V1046.66V1047.8V1048.93V1050.06V1051.2V1052.33V1053.46V1054.59V1055.73V1056.86V1057.99V1059.13V1060.26V1061.39V1062.52V1063.66V1064.79V1065.92V1067.06V1068.19V1069.32V1070.45V1071.59V1072.72V1073.85V1074.98V1076.12V1077.25V1078.38V1079.52V1080.65V1081.78V1082.91V1084.05V1085.18V1086.31V1087.45V1088.58V1089.71V1090.84V1091.98V1093.11V1094.24V1095.38V1096.51V1097.64V1098.77V1099.91V1101.04V1102.17V1103.31V1104.44V1105.57V1106.7V1107.84V1108.97V1110.1V1111.23V1112.37V1113.5V1114.63V1115.77V1116.9V1118.03V1119.16V1120.3V1121.43V1122.56V1123.7V1124.83V1125.96V1127.09V1128.23V1129.36V1130.49V1131.63V1132.76V1133.89V1135.02V1136.16V1137.29V1138.42V1139.56V1140.69V1141.82V1142.95V1144.09V1145.22V1146.35V1147.48V1148.62V1149.75V1150.88V1152.02V1153.15V1154.28V1155.41V1156.55V1157.68V1158.81V1159.95V1161.08V1162.21V1163.34V1164.48V1165.61V1166.74V1167.88V1169.01V1170.14V1171.27V1172.41V1173.54V1174.67V1175.8V1176.94V1178.07V1179.2V1180.34V1205H961V-4.32721H1379.81C1395.34 79.2364 1410.86 162.781 1424.67 242.925L1425.18 245.904L1426.54 243.207C1433.87 228.731 1440.55 214.032 1447.18 199.441C1449.97 193.319 1452.74 187.215 1455.55 181.155Z" stroke="white" stroke-width="2"/>
</g>
</g>
<defs>
<clipPath id="clip0_2563_4712">
<rect width="1918" height="947" fill="white"/>
</clipPath>
<clipPath id="clip1_2563_4712">
<rect width="959" height="950" fill="white" transform="translate(960)"/>
</clipPath>
</defs>
</svg>
