<svg width="234" height="777" viewBox="0 0 234 777" fill="none" xmlns="http://www.w3.org/2000/svg">
<g clip-path="url(#clip0_1711_12985)">
<path d="M74.6834 693.981C71.2357 692.39 67.8796 690.736 64.7437 688.727C46.4703 676.941 37.6401 660.304 38.7817 638.466L38.7817 638.466L38.782 638.46C38.9733 633.643 39.4189 628.838 39.8659 624.017C40.0759 621.752 40.2863 619.483 40.4707 617.209L118.489 617.209C118.172 618.261 117.857 619.158 117.539 620.066C117.346 620.616 117.152 621.169 116.956 621.763C111.75 636.614 110.297 651.49 114.066 666.667L114.067 666.674C117.856 681.05 127.197 689.855 140.561 694.829C142.088 695.442 143.607 695.442 145.022 695.442L145.058 695.442L145.249 695.442L145.439 695.442L145.63 695.442L145.821 695.442L146.011 695.442L146.202 695.442L146.392 695.442L146.583 695.442L146.773 695.442L146.964 695.442L147.154 695.442L147.345 695.442L147.536 695.442L147.726 695.442L147.917 695.442L148.107 695.442L148.298 695.442L148.488 695.442L148.679 695.442L148.869 695.442L149.06 695.442L149.251 695.442L149.441 695.442L149.632 695.442L149.822 695.442L150.013 695.442L150.203 695.442L150.394 695.442L150.585 695.442L150.775 695.442L150.966 695.442L151.156 695.442L151.347 695.442L151.537 695.442L151.728 695.442L151.918 695.442L152.109 695.442L152.3 695.442L152.49 695.442L152.681 695.442L152.871 695.442L153.062 695.442L153.252 695.442L153.443 695.442L153.633 695.442L153.824 695.442L154.015 695.442L154.205 695.442L154.396 695.442L154.586 695.442L154.777 695.442L154.967 695.442L155.158 695.442L155.348 695.442L155.539 695.442L155.73 695.442L155.92 695.442L156.111 695.442L156.301 695.442L156.492 695.442L156.682 695.442L156.873 695.442L157.064 695.442L157.254 695.442L157.445 695.442L157.635 695.442L157.826 695.442L158.016 695.442L158.207 695.442L158.397 695.442L158.588 695.442L158.779 695.442L158.969 695.442L159.16 695.442L159.35 695.442L159.541 695.442L159.731 695.442L159.922 695.442L160.112 695.442L160.303 695.442L160.494 695.442L160.684 695.442L160.875 695.442L161.065 695.442L161.256 695.442L161.446 695.442L161.637 695.442L161.827 695.442L162.018 695.442L162.209 695.442L162.399 695.442L162.59 695.442L162.78 695.442L162.971 695.442L163.161 695.442L163.352 695.442L163.543 695.442L163.733 695.442L163.924 695.442L164.114 695.442L164.305 695.442L164.495 695.442L164.686 695.442L164.876 695.442L165.067 695.442L165.258 695.442L165.448 695.442L165.639 695.442L165.829 695.442L166.02 695.442L166.21 695.442L166.401 695.442L166.591 695.442L166.782 695.442L166.973 695.442L167.163 695.442L167.354 695.442L167.544 695.442L167.735 695.442L167.925 695.442L168.116 695.442L168.306 695.442L168.497 695.442L168.688 695.442L168.878 695.442L169.069 695.442L169.259 695.442L169.45 695.442L169.64 695.442L169.831 695.442L170.022 695.442L170.212 695.442L170.403 695.442L170.593 695.442L170.784 695.442L170.974 695.442L171.165 695.442L171.355 695.442L171.546 695.442L171.737 695.442L171.927 695.442L172.118 695.442L172.308 695.442L172.499 695.442L172.689 695.442L172.88 695.442L173.07 695.442L173.261 695.442L173.452 695.442L173.642 695.442L173.833 695.442L174.023 695.442L174.214 695.442L174.404 695.442L174.595 695.442L174.786 695.442L174.976 695.442L175.167 695.442L175.357 695.442L175.548 695.442L175.738 695.442L175.929 695.442L176.119 695.442L176.31 695.442L176.501 695.442L176.691 695.442L176.882 695.442L177.072 695.442L177.263 695.442L177.453 695.442L177.644 695.442L177.834 695.442L178.025 695.442L178.216 695.442L178.406 695.442L178.597 695.442L178.787 695.442L178.978 695.442L179.168 695.442L179.359 695.442L179.549 695.442L179.74 695.442L179.931 695.442L180.121 695.442L180.312 695.442L180.502 695.442L180.693 695.442L180.883 695.442L181.074 695.442L181.265 695.442L181.455 695.442L181.646 695.442L181.836 695.442L182.027 695.442L182.217 695.442L182.408 695.442L182.598 695.442L182.789 695.442L182.98 695.442L183.17 695.442L183.361 695.442L183.551 695.442L183.742 695.442L183.932 695.442L184.123 695.442L184.313 695.442L184.504 695.442L184.695 695.442L184.885 695.442L185.076 695.442L185.266 695.442L185.457 695.442L185.647 695.442L185.838 695.442L186.028 695.442L186.219 695.442L186.41 695.442L186.6 695.442L186.791 695.442L186.981 695.442L187.172 695.442L187.362 695.442L187.553 695.442L187.744 695.442L187.934 695.442L188.125 695.442L188.315 695.442L188.506 695.442L188.696 695.442L188.887 695.442L189.077 695.442L189.268 695.442L189.459 695.442L189.649 695.442L189.84 695.442L190.03 695.442L190.221 695.442L190.411 695.442L190.602 695.442L190.792 695.442L190.983 695.442L191.174 695.442L191.364 695.442L191.555 695.442L191.745 695.442L191.936 695.442L192.126 695.442L192.317 695.442L192.507 695.442L192.698 695.442L192.889 695.442L193.079 695.442L193.27 695.442L193.46 695.442L193.651 695.442L193.841 695.442L194.032 695.442L194.223 695.442L194.413 695.442L194.604 695.442L194.794 695.442L194.985 695.442L195.175 695.442L195.366 695.442L195.556 695.442L195.747 695.442L195.938 695.442L196.128 695.442L196.319 695.442L196.509 695.442L196.7 695.442L196.89 695.442L197.081 695.442L197.271 695.442L197.462 695.442L197.653 695.442L197.843 695.442L198.034 695.442L198.224 695.442L198.415 695.442L198.605 695.442L198.796 695.442L198.986 695.442L199.177 695.442L199.368 695.442L199.558 695.442L199.749 695.442L199.939 695.442L200.13 695.442L200.32 695.442L200.511 695.442L200.702 695.442L200.892 695.442L201.083 695.442L201.273 695.442L201.464 695.442L201.654 695.442L201.845 695.442L202.035 695.442L202.226 695.442L202.417 695.442L202.607 695.442L202.798 695.442L202.988 695.442L203.179 695.442L203.369 695.442L203.56 695.442L203.75 695.442L203.941 695.442L204.132 695.442L204.322 695.442L204.513 695.442L204.703 695.442L204.894 695.442L205.084 695.442L205.275 695.442L205.465 695.442L205.656 695.442L205.847 695.442L206.037 695.442L206.228 695.442L206.418 695.442L206.609 695.442L206.799 695.442L206.99 695.442L207.181 695.442L207.371 695.442L207.562 695.442L207.752 695.442L207.943 695.442L208.133 695.442L208.324 695.442L208.514 695.442L208.705 695.442L208.896 695.442L209.086 695.442L209.277 695.442L209.467 695.442L209.658 695.442L209.848 695.442L210.039 695.442L210.229 695.442L210.42 695.442L210.611 695.442L210.801 695.442L210.992 695.442L211.182 695.442L211.373 695.442L211.563 695.442L211.754 695.442L211.944 695.442L212.135 695.442L212.326 695.442L212.516 695.442L212.707 695.442L212.897 695.442L213.088 695.442L213.278 695.442L213.469 695.442L213.66 695.442L213.85 695.442L214.041 695.442L214.231 695.442L214.422 695.442L214.612 695.442L214.803 695.442L214.993 695.442L215.184 695.442L215.375 695.442L215.565 695.442L215.756 695.442L215.946 695.442L216.137 695.442L216.327 695.442L216.518 695.442L216.708 695.442L216.899 695.442L217.09 695.442L217.28 695.442L217.471 695.442L217.661 695.442L217.852 695.442L218.042 695.442L218.233 695.442L218.423 695.442L218.614 695.442L218.805 695.442L218.995 695.442L219.186 695.442L219.376 695.442L219.567 695.442L219.757 695.442L219.948 695.442L220.139 695.442L220.329 695.442L220.52 695.442L220.71 695.442L220.901 695.442L221.091 695.442L221.282 695.442L221.472 695.442L221.663 695.442L221.854 695.442L222.044 695.442L222.235 695.442L222.425 695.442L222.616 695.442L222.806 695.442L222.997 695.442L223.187 695.442L223.378 695.442L223.569 695.442L223.759 695.442L223.95 695.442L224.14 695.442L224.331 695.442L224.521 695.442L224.712 695.442L224.902 695.442L225.093 695.442L225.284 695.442L225.474 695.442L225.665 695.442L225.855 695.442L226.046 695.442L226.236 695.442L226.427 695.442L226.618 695.442L226.808 695.442L226.999 695.442L227.189 695.442L227.38 695.442L227.57 695.442L227.761 695.442L227.951 695.442L228.142 695.442L228.333 695.442L228.523 695.442L228.714 695.442L228.904 695.442L229.095 695.442L229.285 695.442L229.476 695.442L229.666 695.442L229.857 695.442L230.048 695.442L230.238 695.442L230.429 695.442L230.619 695.442L230.81 695.442L231 695.442L231.191 695.442L231.381 695.442L231.572 695.442L231.763 695.442L231.953 695.442L232.144 695.442L232.334 695.442L232.525 695.442L232.715 695.442L232.906 695.442L233.097 695.442L233.287 695.442L233.478 695.442L233.668 695.442L233.859 695.442L234.049 695.442L234.24 695.442L234.43 695.442L234.621 695.442L234.812 695.442L235.002 695.442L235.193 695.442L235.383 695.442L235.574 695.442L235.764 695.442L235.955 695.442L236.145 695.442L236.336 695.442L236.527 695.442L236.717 695.442L236.908 695.442L237.098 695.442L237.289 695.442L237.479 695.442L237.67 695.442L237.86 695.442L238.051 695.442L238.242 695.442L238.432 695.442L238.623 695.442L238.813 695.442L239.004 695.442L239.194 695.442L239.385 695.442L239.576 695.442L239.766 695.442L239.957 695.442L240.147 695.442L240.338 695.442L240.528 695.442L240.719 695.442L240.909 695.442L241.1 695.442L241.291 695.442L241.481 695.442L241.672 695.442L241.862 695.442L242.053 695.442L242.243 695.442L242.434 695.442L242.624 695.442L246.442 695.442L246.442 776.732L43.6751 776.732L43.6751 707.238C57.6417 704.656 71.599 702.076 84.9914 699.781L86.4883 699.525L85.1317 698.842C82.6902 697.613 80.2074 696.49 77.7504 695.378C76.7219 694.913 75.698 694.449 74.6834 693.981Z" stroke="#1E1F45" stroke-opacity="0.2"/>
<path d="M146.513 406.849C154.627 406.703 161.976 405.17 168.323 401.792C174.675 398.411 179.996 393.194 184.068 385.726L184.069 385.725C187.565 379.273 189.307 371.952 189.597 364.644L189.597 364.637C190.175 341.681 186.135 319.861 174.862 299.487C174.657 299.074 174.458 298.672 174.26 298.169C174.704 298.141 175.094 298.091 175.457 298.042L175.539 298.031C176.052 297.962 176.501 297.901 177.01 297.901L177.119 297.901L177.229 297.901L177.339 297.901L177.448 297.901L177.558 297.901L177.667 297.901L177.777 297.901L177.887 297.901L177.996 297.901L178.106 297.901L178.216 297.901L178.325 297.901L178.435 297.901L178.544 297.901L178.654 297.901L178.764 297.901L178.873 297.901L178.983 297.901L179.092 297.901L179.202 297.901L179.312 297.901L179.421 297.901L179.531 297.901L179.641 297.901L179.75 297.901L179.86 297.901L179.969 297.901L180.079 297.901L180.189 297.901L180.298 297.901L180.408 297.901L180.517 297.901L180.627 297.901L180.737 297.901L180.846 297.901L180.956 297.901L181.065 297.901L181.175 297.901L181.285 297.901L181.394 297.901L181.504 297.901L181.614 297.901L181.723 297.901L181.833 297.901L181.942 297.901L182.052 297.901L182.162 297.901L182.271 297.901L182.381 297.901L182.49 297.901L182.6 297.901L182.71 297.901L182.819 297.901L182.929 297.901L183.039 297.901L183.148 297.901L183.258 297.901L183.367 297.901L183.477 297.901L183.587 297.901L183.696 297.901L183.806 297.901L183.915 297.901L184.025 297.901L184.135 297.901L184.244 297.901L184.354 297.901L184.464 297.901L184.573 297.901L184.683 297.901L184.792 297.901L184.902 297.901L185.012 297.901L185.121 297.901L185.231 297.901L185.34 297.901L185.45 297.901L185.56 297.901L185.669 297.901L185.779 297.901L185.888 297.901L185.998 297.901L186.108 297.901L186.217 297.901L186.327 297.901L186.437 297.901L186.546 297.901L186.656 297.901L186.765 297.901L186.875 297.901L186.985 297.901L187.094 297.901L187.204 297.901L187.313 297.901L187.423 297.901L187.533 297.901L187.642 297.901L187.752 297.901L187.862 297.901L187.971 297.901L188.081 297.901L188.19 297.901L188.3 297.901L188.41 297.901L188.519 297.901L188.629 297.901L188.738 297.901L188.848 297.901L188.958 297.901L189.067 297.901L189.177 297.901L189.287 297.901L189.396 297.901L189.506 297.901L189.615 297.901L189.725 297.901L189.835 297.901L189.944 297.901L190.054 297.901L190.163 297.901L190.273 297.901L190.383 297.901L190.492 297.901L190.602 297.901L190.711 297.901L190.821 297.901L190.931 297.901L191.04 297.901L191.15 297.901L191.26 297.901L191.369 297.901L191.479 297.901L191.588 297.901L191.698 297.901L191.808 297.901L191.917 297.901L192.027 297.901L192.136 297.901L192.246 297.901L192.356 297.901L192.465 297.901L192.575 297.901L192.685 297.901L192.794 297.901L192.904 297.901L193.013 297.901L193.123 297.901L193.233 297.901L193.342 297.901L193.452 297.901L193.561 297.901L193.671 297.901L193.781 297.901L193.89 297.901L194 297.901L194.109 297.901L194.219 297.901L194.329 297.901L194.438 297.901L194.548 297.901L194.658 297.901L194.767 297.901L194.877 297.901L194.986 297.901L195.096 297.901L195.206 297.901L195.315 297.901L195.425 297.901L195.534 297.901L195.644 297.901L195.754 297.901L195.863 297.901L195.973 297.901L196.083 297.901L196.192 297.901L196.302 297.901L196.411 297.901L196.521 297.901L196.631 297.901L196.74 297.901L196.85 297.901L196.959 297.901L197.069 297.901L197.179 297.901L197.288 297.901L197.398 297.901L197.508 297.901L197.617 297.901L197.727 297.901L197.836 297.901L197.946 297.901L198.056 297.901L198.165 297.901L198.275 297.901L198.384 297.901L198.494 297.901L198.604 297.901L198.713 297.901L198.823 297.901L198.932 297.901L199.042 297.901L199.152 297.901L199.261 297.901L199.371 297.901L199.481 297.901L199.59 297.901L199.7 297.901L199.809 297.901L199.919 297.901L200.029 297.901L200.138 297.901L200.248 297.901L200.357 297.901L200.467 297.901L200.577 297.901L200.686 297.901L200.796 297.901L200.906 297.901L201.015 297.901L201.125 297.901L201.234 297.901L201.344 297.901L201.454 297.901L201.563 297.901L201.673 297.901L201.782 297.901L201.892 297.901L202.002 297.901L202.111 297.901L202.221 297.901L202.331 297.901L202.44 297.901L202.55 297.901L202.659 297.901L202.769 297.901L202.879 297.901L202.988 297.901L203.098 297.901L203.207 297.901L203.317 297.901L203.427 297.901L203.536 297.901L203.646 297.901L203.755 297.901L203.865 297.901L203.975 297.901L204.084 297.901L204.194 297.901L204.304 297.901L204.413 297.901L204.523 297.901L204.632 297.901L204.742 297.901L204.852 297.901L204.961 297.901L205.071 297.901L205.18 297.901L205.29 297.901L205.4 297.901L205.509 297.901L205.619 297.901L205.729 297.901L205.838 297.901L205.948 297.901L206.057 297.901L206.167 297.901L206.277 297.901L206.386 297.901L206.496 297.901L206.605 297.901L206.715 297.901L206.825 297.901L206.934 297.901L207.044 297.901L207.154 297.901L207.263 297.901L207.373 297.901L207.482 297.901L207.592 297.901L207.702 297.901L207.811 297.901L207.921 297.901L208.03 297.901L208.14 297.901L208.25 297.901L208.359 297.901L208.469 297.901L208.578 297.901L208.688 297.901L208.798 297.901L208.907 297.901L209.017 297.901L209.127 297.901L209.236 297.901L209.346 297.901L209.455 297.901L209.565 297.901L209.675 297.901L209.784 297.901L209.894 297.901L210.003 297.901L210.113 297.901L210.223 297.901L210.332 297.901L210.442 297.901L210.552 297.901L210.661 297.901L210.771 297.901L210.88 297.901L210.99 297.901L211.1 297.901L211.209 297.901L211.319 297.901L211.428 297.901L211.538 297.901L211.648 297.901L211.757 297.901L211.867 297.901L211.976 297.901L212.086 297.901L212.196 297.901L212.305 297.901L212.415 297.901L212.525 297.901L212.634 297.901L212.744 297.901L212.853 297.901L212.963 297.901L213.073 297.901L213.182 297.901L213.292 297.901L213.401 297.901L213.511 297.901L213.621 297.901L213.73 297.901L213.84 297.901L213.95 297.901L214.059 297.901L214.169 297.901L214.278 297.901L214.388 297.901L214.498 297.901L214.607 297.901L214.717 297.901L214.826 297.901L214.936 297.901L215.046 297.901L215.155 297.901L215.265 297.901L215.375 297.901L215.484 297.901L215.594 297.901L215.703 297.901L215.813 297.901L215.923 297.901L216.032 297.901L216.142 297.901L216.251 297.901L216.361 297.901L216.471 297.901L216.58 297.901L216.69 297.901L216.799 297.901L216.909 297.901L217.019 297.901L217.128 297.901L217.238 297.901L217.348 297.901L217.457 297.901L217.567 297.901L217.676 297.901L217.786 297.901L217.896 297.901L218.005 297.901L218.115 297.901L218.224 297.901L218.334 297.901L218.444 297.901L218.553 297.901L218.663 297.901L218.773 297.901L218.882 297.901L218.992 297.901L219.101 297.901L219.211 297.901L219.321 297.901L219.43 297.901L219.54 297.901L219.649 297.901L219.759 297.901L219.869 297.901L219.978 297.901L220.088 297.901L220.198 297.901L220.307 297.901L220.417 297.901L220.526 297.901L220.636 297.901L220.746 297.901L220.855 297.901L220.965 297.901L221.074 297.901L221.184 297.901L221.294 297.901L221.403 297.901L221.513 297.901L221.622 297.901L221.732 297.901L221.842 297.901L221.951 297.901L222.061 297.901L222.171 297.901L222.28 297.901L222.39 297.901L222.499 297.901L222.609 297.901L222.719 297.901L222.828 297.901L222.938 297.901L223.047 297.901L223.157 297.901L223.267 297.901L223.376 297.901L223.486 297.901L223.596 297.901L223.705 297.901L223.815 297.901L223.924 297.901L224.034 297.901L224.144 297.901L224.253 297.901L224.363 297.901L224.472 297.901L224.582 297.901L224.692 297.901L224.801 297.901L224.911 297.901L225.02 297.901L225.13 297.901L225.24 297.901L225.349 297.901L225.459 297.901L225.569 297.901L225.678 297.901L225.788 297.901L225.897 297.901L226.007 297.901L226.117 297.901L226.226 297.901L226.336 297.901L226.445 297.901L226.555 297.901L226.665 297.901L226.774 297.901L226.884 297.901L226.994 297.901L227.103 297.901L227.213 297.901L227.322 297.901L227.432 297.901L227.542 297.901L227.651 297.901L227.761 297.901L227.87 297.901L227.98 297.901L228.09 297.901L228.199 297.901L228.309 297.901L228.419 297.901L228.528 297.901L228.638 297.901L228.747 297.901L228.857 297.901L228.967 297.901L229.076 297.901L229.186 297.901L229.295 297.901L229.405 297.901L229.515 297.901L229.624 297.901L229.734 297.901L229.843 297.901L229.953 297.901L230.063 297.901L230.172 297.901L230.282 297.901L230.392 297.901L230.501 297.901L230.611 297.901L230.72 297.901L230.83 297.901L230.94 297.901L231.049 297.901L231.159 297.901L231.268 297.901L231.378 297.901L231.488 297.901L231.597 297.901L231.707 297.901L231.817 297.901L231.926 297.901L232.036 297.901L232.145 297.901L232.255 297.901L232.365 297.901L232.474 297.901L232.584 297.901L232.693 297.901L232.803 297.901L232.913 297.901L233.022 297.901L233.132 297.901C234.218 297.901 234.977 298.105 235.592 298.508C236.213 298.914 236.738 299.555 237.294 300.531C246.462 319.576 250.48 339.786 251.916 360.601C253.066 377.672 252.776 395.001 248.763 411.738L248.762 411.742C239.31 452.689 208.966 480.929 167.443 486.695L167.442 486.695C143.052 490.162 119.269 488.136 96.9289 477.468C65.9989 462.474 47.9601 437.404 41.3684 403.645L41.3681 403.644C37.6413 384.884 38.4983 365.82 40.2243 346.706C41.6593 331.681 44.816 316.943 49.409 302.49C49.8334 301.353 50.225 300.673 50.7555 300.258C51.2754 299.851 52.0062 299.64 53.2533 299.64L53.3713 299.64L53.4894 299.64L53.6075 299.64L53.7255 299.64L53.8436 299.64L53.9617 299.64L54.0798 299.64L54.1979 299.64L54.316 299.64L54.4341 299.64L54.5522 299.64L54.6703 299.64L54.7884 299.64L54.9066 299.64L55.0247 299.64L55.1428 299.64L55.261 299.64L55.3792 299.64L55.4973 299.64L55.6155 299.64L55.7337 299.64L55.8518 299.64L55.97 299.64L56.0882 299.64L56.2064 299.64L56.3246 299.64L56.4428 299.64L56.5611 299.64L56.6793 299.64L56.7975 299.64L56.9157 299.64L57.034 299.64L57.1522 299.64L57.2705 299.64L57.3887 299.64L57.507 299.64L57.6253 299.64L57.7435 299.64L57.8618 299.64L57.9801 299.64L58.0984 299.64L58.2167 299.64L58.335 299.64L58.4533 299.64L58.5716 299.64L58.6899 299.64L58.8083 299.64L58.9266 299.64L59.0449 299.64L59.1633 299.64L59.2816 299.64L59.4 299.64L59.5183 299.64L59.6367 299.64L59.755 299.64L59.8734 299.64L59.9918 299.64L60.1102 299.64L60.2286 299.64L60.3469 299.64L60.4653 299.64L60.5837 299.64L60.7022 299.64L60.8206 299.64L60.939 299.64L61.0574 299.64L61.1758 299.64L61.2943 299.64L61.4127 299.64L61.5311 299.64L61.6496 299.64L61.768 299.64L61.8865 299.64L62.0049 299.64L62.1234 299.64L62.2419 299.64L62.3604 299.64L62.4788 299.64L62.5973 299.64L62.7158 299.64L62.8343 299.64L62.9528 299.64L63.0713 299.64L63.1898 299.64L63.3083 299.64L63.4268 299.64L63.5453 299.64L63.6639 299.64L63.7824 299.64L63.9009 299.64L64.0195 299.64L64.138 299.64L64.2565 299.64L64.3751 299.64L64.4936 299.64L64.6122 299.64L64.7308 299.64L64.8493 299.64L64.9679 299.64L65.0865 299.64L65.2051 299.64L65.3236 299.64L65.4422 299.64L65.5608 299.64L65.6794 299.64L65.798 299.64L65.9166 299.64L66.0352 299.64L66.1538 299.64L66.2724 299.64L66.391 299.64L66.5097 299.64L66.6283 299.64L66.7469 299.64L66.8655 299.64L66.9842 299.64L67.1028 299.64L67.2215 299.64L67.3401 299.64L67.4588 299.64L67.5774 299.64L67.6961 299.64L67.8147 299.64L67.9334 299.64L68.052 299.64L68.1707 299.64L68.2894 299.64L68.4081 299.64L68.5267 299.64L68.6454 299.64L68.7641 299.64L68.8828 299.64L69.0015 299.64L69.1202 299.64L69.2389 299.64L69.3576 299.64L69.4763 299.64L69.595 299.64L69.7137 299.64L69.8324 299.64L69.9511 299.64L70.0699 299.64L70.1886 299.64L70.3073 299.64L70.426 299.64L70.5448 299.64L70.6635 299.64L70.7822 299.64L70.901 299.64L71.0197 299.64L71.1385 299.64L71.2572 299.64L71.376 299.64L71.4947 299.64L71.6135 299.64L71.7322 299.64L71.851 299.64L71.9698 299.64L72.0885 299.64L72.2073 299.64L72.3261 299.64L72.4448 299.64L72.5636 299.64L72.6824 299.64L72.8012 299.64L72.92 299.64L73.0387 299.64L73.1575 299.64L73.2763 299.64L73.3951 299.64L73.5139 299.64L73.6327 299.64L73.7515 299.64L73.8703 299.64L73.9891 299.64L74.1079 299.64L74.2267 299.64L74.3455 299.64L74.4643 299.64L74.5832 299.64L74.702 299.64L74.8208 299.64L74.9396 299.64L75.0584 299.64L75.1773 299.64L75.2961 299.64L75.4149 299.64L75.5337 299.64L75.6526 299.64L75.7714 299.64L75.8902 299.64L76.0091 299.64L76.1279 299.64L76.2467 299.64L76.3656 299.64L76.4844 299.64L76.6033 299.64L76.7221 299.64L76.841 299.64L76.9598 299.64L77.0786 299.64L77.1975 299.64L77.3163 299.64L77.4352 299.64L77.5541 299.64L77.6729 299.64L77.7918 299.64L77.9106 299.64L78.0295 299.64L78.1483 299.64L78.2672 299.64L78.3861 299.64L78.5049 299.64L78.6238 299.64L78.7427 299.64L78.8615 299.64L78.9804 299.64L79.0993 299.64L79.2181 299.64L79.337 299.64L79.4559 299.64L79.5748 299.64L79.6936 299.64L79.8125 299.64L79.9314 299.64L80.0503 299.64L80.1691 299.64L80.288 299.64L80.4069 299.64L80.5258 299.64L80.6447 299.64L80.7635 299.64L80.8824 299.64L81.0013 299.64L81.1202 299.64L81.2391 299.64L81.358 299.64L81.4768 299.64L81.5957 299.64L81.7146 299.64L81.8335 299.64L81.9524 299.64L82.0713 299.64L82.1901 299.64L82.309 299.64L82.4279 299.64L82.5468 299.64L82.6657 299.64L82.7846 299.64L82.9035 299.64L83.0224 299.64L83.1412 299.64L83.2601 299.64L83.379 299.64L83.4979 299.64L83.6168 299.64L83.7357 299.64L83.8546 299.64L83.9735 299.64L84.0924 299.64L84.2112 299.64L84.3301 299.64L84.449 299.64L84.5679 299.64L84.6868 299.64L84.8057 299.64L84.9246 299.64L85.0435 299.64L85.1623 299.64L85.2812 299.64L85.4001 299.64L85.519 299.64L85.6379 299.64L85.7568 299.64L85.8757 299.64L85.9945 299.64L86.1134 299.64L86.2323 299.64L86.3512 299.64L86.4701 299.64L86.5889 299.64L86.7078 299.64L86.8267 299.64L86.9456 299.64L87.0645 299.64L87.1833 299.64L87.3022 299.64L87.4211 299.64L87.54 299.64L87.6588 299.64L87.7777 299.64L87.8966 299.64L88.0155 299.64L88.1343 299.64L88.2532 299.64L88.3721 299.64L88.4909 299.64L88.6098 299.64L88.7287 299.64L88.8475 299.64L88.9664 299.64L89.0853 299.64L89.2041 299.64L89.323 299.64L89.4418 299.64L89.5607 299.64L89.6795 299.64L89.7984 299.64L89.9173 299.64L90.0361 299.64L90.155 299.64L90.2738 299.64L90.3927 299.64L90.5115 299.64L90.6303 299.64L90.7492 299.64L90.868 299.64L90.9869 299.64L91.1057 299.64L91.2245 299.64L91.3434 299.64L91.4622 299.64L91.581 299.64L91.6999 299.64L91.8187 299.64L91.9375 299.64L92.0564 299.64L92.1752 299.64L92.294 299.64L92.4128 299.64L92.5316 299.64L92.6504 299.64L92.7693 299.64L92.8881 299.64L93.0069 299.64L93.1257 299.64L93.2445 299.64L93.3633 299.64L93.4821 299.64L93.6009 299.64L93.7197 299.64L93.8385 299.64L93.9573 299.64L94.0761 299.64L94.1949 299.64L94.3136 299.64L94.4324 299.64L94.5512 299.64L94.67 299.64L94.7888 299.64L94.9075 299.64L95.0263 299.64L95.1451 299.64L95.2638 299.64L95.3826 299.64L95.5014 299.64L95.6201 299.64L95.7389 299.64L95.8576 299.64L95.9764 299.64L96.0951 299.64L96.2139 299.64L96.3326 299.64L96.4514 299.64L96.5701 299.64L96.6888 299.64L96.8076 299.64L96.9263 299.64L97.045 299.64L97.1637 299.64L97.2825 299.64L97.4012 299.64L97.5199 299.64L97.6386 299.64L97.7573 299.64L97.876 299.64L97.9947 299.64L98.1134 299.64L98.2321 299.64L98.3508 299.64L98.4695 299.64L98.5882 299.64L98.7069 299.64L98.8255 299.64L98.9442 299.64L99.0629 299.64L99.1816 299.64L99.3002 299.64L99.4189 299.64L99.5375 299.64L99.6562 299.64L99.7748 299.64L99.8935 299.64L100.012 299.64L100.131 299.64L100.249 299.64L100.368 299.64L100.487 299.64L100.605 299.64L100.724 299.64L100.843 299.64L100.961 299.64L101.08 299.64L101.198 299.64L101.317 299.64L101.436 299.64L101.554 299.64L101.673 299.64L101.791 299.64L101.91 299.64L102.029 299.64L102.147 299.64L102.266 299.64L102.384 299.64L102.503 299.64L102.621 299.64L102.74 299.64L102.859 299.64L102.977 299.64L103.096 299.64L103.214 299.64L103.333 299.64L103.451 299.64L103.57 299.64L103.688 299.64L103.807 299.64L103.925 299.64L104.044 299.64L104.162 299.64L104.281 299.64L104.399 299.64L104.518 299.64L104.636 299.64L104.755 299.64L104.873 299.64L104.992 299.64L105.11 299.64L105.229 299.64L105.347 299.64L105.466 299.64L105.584 299.64L105.702 299.64L105.821 299.64L105.939 299.64L106.058 299.64L106.176 299.64L106.295 299.64L106.413 299.64L106.531 299.64L106.65 299.64L106.768 299.64L106.887 299.64L107.005 299.64L107.123 299.64L107.242 299.64L107.36 299.64L107.479 299.64L107.597 299.64L107.715 299.64L107.834 299.64L107.952 299.64L108.07 299.64L108.189 299.64L108.307 299.64L108.425 299.64L108.544 299.64L108.662 299.64L108.78 299.64L108.899 299.64L109.017 299.64L109.135 299.64L109.254 299.64L109.372 299.64L109.49 299.64L109.608 299.64L109.727 299.64L109.845 299.64L109.963 299.64L110.081 299.64L110.2 299.64L110.318 299.64L110.436 299.64L110.554 299.64L110.673 299.64L110.791 299.64L110.909 299.64L111.027 299.64L111.145 299.64L111.264 299.64L111.382 299.64L111.5 299.64L111.618 299.64L111.736 299.64L111.854 299.64L111.973 299.64L112.091 299.64L112.209 299.64L112.327 299.64L112.445 299.64L112.563 299.64L112.681 299.64L112.8 299.64L112.918 299.64L113.036 299.64L113.154 299.64L113.272 299.64L113.39 299.64L113.508 299.64L113.626 299.64L113.744 299.64L113.862 299.64L113.98 299.64L116.312 299.64C114.467 303.086 112.861 306.102 111.507 309.373C103.127 327.995 99.9485 347.491 101.682 367.854C102.699 380.138 107.643 390.044 115.489 396.804C123.332 403.561 134.035 407.141 146.513 406.849ZM146.513 406.849C146.513 406.849 146.512 406.849 146.511 406.849L146.502 406.349L146.514 406.849C146.514 406.849 146.514 406.849 146.513 406.849Z" stroke="#1E1F45" stroke-opacity="0.2"/>
<path d="M136.936 197.351L136.943 197.352C149.099 198.809 160.741 197.651 171.234 190.902L171.242 190.896C181.733 183.855 187.565 173.576 188.729 161.263C191.041 136.831 186.706 113.552 175.147 91.7307L175.135 91.7091L175.122 91.6887C174.855 91.2863 174.652 90.8792 174.44 90.4163C174.38 90.2858 174.319 90.1494 174.255 90.0074C174.186 89.8543 174.115 89.6946 174.039 89.5286C174.344 89.4992 174.627 89.4571 174.889 89.4165L174.979 89.4025C175.42 89.334 175.784 89.2775 176.144 89.2775L176.255 89.2775L176.366 89.2775L176.478 89.2775L176.589 89.2775L176.7 89.2775L176.812 89.2775L176.923 89.2775L177.034 89.2775L177.145 89.2775L177.257 89.2775L177.368 89.2775L177.479 89.2775L177.59 89.2775L177.701 89.2775L177.813 89.2775L177.924 89.2775L178.035 89.2775L178.146 89.2775L178.257 89.2775L178.369 89.2775L178.48 89.2775L178.591 89.2775L178.702 89.2775L178.813 89.2775L178.924 89.2775L179.035 89.2775L179.147 89.2775L179.258 89.2775L179.369 89.2775L179.48 89.2775L179.591 89.2775L179.702 89.2775L179.813 89.2775L179.924 89.2775L180.035 89.2775L180.147 89.2775L180.258 89.2775L180.369 89.2775L180.48 89.2775L180.591 89.2775L180.702 89.2775L180.813 89.2775L180.924 89.2775L181.035 89.2775L181.146 89.2775L181.257 89.2775L181.368 89.2775L181.479 89.2775L181.59 89.2775L181.701 89.2775L181.812 89.2775L181.923 89.2775L182.034 89.2775L182.145 89.2775L182.256 89.2775L182.367 89.2775L182.478 89.2775L182.589 89.2775L182.7 89.2775L182.811 89.2775L182.922 89.2775L183.033 89.2775L183.144 89.2775L183.255 89.2775L183.366 89.2775L183.477 89.2775L183.587 89.2775L183.698 89.2775L183.809 89.2775L183.92 89.2775L184.031 89.2775L184.142 89.2775L184.253 89.2775L184.364 89.2775L184.475 89.2775L184.585 89.2775L184.696 89.2775L184.807 89.2775L184.918 89.2775L185.029 89.2775L185.14 89.2775L185.251 89.2775L185.361 89.2775L185.472 89.2775L185.583 89.2775L185.694 89.2775L185.805 89.2775L185.916 89.2775L186.026 89.2775L186.137 89.2775L186.248 89.2775L186.359 89.2775L186.47 89.2775L186.58 89.2775L186.691 89.2775L186.802 89.2775L186.913 89.2775L187.024 89.2775L187.134 89.2775L187.245 89.2775L187.356 89.2775L187.467 89.2775L187.577 89.2775L187.688 89.2775L187.799 89.2775L187.91 89.2775L188.02 89.2775L188.131 89.2775L188.242 89.2775L188.353 89.2775L188.463 89.2775L188.574 89.2775L188.685 89.2775L188.796 89.2775L188.906 89.2775L189.017 89.2775L189.128 89.2775L189.238 89.2775L189.349 89.2775L189.46 89.2775L189.571 89.2775L189.681 89.2775L189.792 89.2775L189.903 89.2775L190.013 89.2775L190.124 89.2775L190.235 89.2775L190.345 89.2775L190.456 89.2775L190.567 89.2775L190.677 89.2775L190.788 89.2775L190.899 89.2775L191.009 89.2775L191.12 89.2775L191.23 89.2775L191.341 89.2775L191.452 89.2775L191.562 89.2775L191.673 89.2775L191.784 89.2775L191.894 89.2775L192.005 89.2775L192.116 89.2775L192.226 89.2775L192.337 89.2775L192.447 89.2775L192.558 89.2775L192.669 89.2775L192.779 89.2775L192.89 89.2775L193 89.2775L193.111 89.2775L193.222 89.2775L193.332 89.2775L193.443 89.2775L193.553 89.2775L193.664 89.2775L193.774 89.2775L193.885 89.2775L193.996 89.2775L194.106 89.2775L194.217 89.2775L194.327 89.2775L194.438 89.2775L194.548 89.2775L194.659 89.2775L194.77 89.2775L194.88 89.2775L194.991 89.2775L195.101 89.2775L195.212 89.2775L195.322 89.2775L195.433 89.2775L195.543 89.2775L195.654 89.2775L195.765 89.2775L195.875 89.2775L195.986 89.2775L196.096 89.2775L196.207 89.2775L196.317 89.2775L196.428 89.2775L196.538 89.2775L196.649 89.2775L196.759 89.2775L196.87 89.2775L196.98 89.2775L197.091 89.2775L197.201 89.2775L197.312 89.2775L197.422 89.2775L197.533 89.2775L197.643 89.2775L197.754 89.2775L197.864 89.2775L197.975 89.2775L198.085 89.2775L198.196 89.2775L198.306 89.2775L198.417 89.2775L198.527 89.2775L198.638 89.2775L198.748 89.2775L198.859 89.2775L198.969 89.2775L199.08 89.2775L199.19 89.2775L199.301 89.2775L199.411 89.2775L199.522 89.2775L199.632 89.2775L199.743 89.2775L199.853 89.2775L199.964 89.2775L200.074 89.2775L200.185 89.2775L200.295 89.2775L200.406 89.2775L200.516 89.2775L200.627 89.2775L200.737 89.2775L200.847 89.2775L200.958 89.2775L201.068 89.2775L201.179 89.2775L201.289 89.2775L201.4 89.2775L201.51 89.2775L201.621 89.2775L201.731 89.2775L201.842 89.2775L201.952 89.2775L202.063 89.2775L202.173 89.2775L202.284 89.2775L202.394 89.2775L202.504 89.2775L202.615 89.2775L202.725 89.2775L202.836 89.2775L202.946 89.2775L203.057 89.2775L203.167 89.2775L203.278 89.2775L203.388 89.2775L203.499 89.2775L203.609 89.2775L203.72 89.2775L203.83 89.2775L203.94 89.2775L204.051 89.2775L204.161 89.2775L204.272 89.2775L204.382 89.2775L204.493 89.2775L204.603 89.2775L204.714 89.2775L204.824 89.2775L204.935 89.2775L205.045 89.2775L205.155 89.2775L205.266 89.2775L205.376 89.2775L205.487 89.2775L205.597 89.2775L205.708 89.2775L205.818 89.2775L205.929 89.2775L206.039 89.2775L206.15 89.2775L206.26 89.2775L206.37 89.2775L206.481 89.2775L206.591 89.2775L206.702 89.2775L206.812 89.2775L206.923 89.2775L207.033 89.2775L207.144 89.2775L207.254 89.2775L207.365 89.2775L207.475 89.2775L207.586 89.2775L207.696 89.2775L207.807 89.2775L207.917 89.2775L208.027 89.2775L208.138 89.2775L208.248 89.2775L208.359 89.2775L208.469 89.2775L208.58 89.2775L208.69 89.2775L208.801 89.2775L208.911 89.2775L209.022 89.2775L209.132 89.2775L209.243 89.2775L209.353 89.2775L209.464 89.2775L209.574 89.2775L209.685 89.2775L209.795 89.2775L209.906 89.2775L210.016 89.2775L210.127 89.2775L210.237 89.2775L210.348 89.2775L210.458 89.2775L210.569 89.2775L210.679 89.2775L210.79 89.2775L210.9 89.2775L211.011 89.2775L211.121 89.2775L211.232 89.2775L211.342 89.2775L211.453 89.2775L211.563 89.2775L211.674 89.2775L211.784 89.2775L211.895 89.2775L212.005 89.2775L212.116 89.2775L212.226 89.2775L212.337 89.2775L212.447 89.2775L212.558 89.2775L212.668 89.2775L212.779 89.2775L212.889 89.2775L213 89.2775L213.11 89.2775L213.221 89.2775L213.331 89.2775L213.442 89.2775L213.553 89.2775L213.663 89.2775L213.774 89.2775L213.884 89.2775L213.995 89.2775L214.105 89.2775L214.216 89.2775L214.326 89.2775L214.437 89.2775L214.548 89.2775L214.658 89.2775L214.769 89.2775L214.879 89.2775L214.99 89.2775L215.1 89.2775L215.211 89.2775L215.322 89.2775L215.432 89.2775L215.543 89.2775L215.653 89.2775L215.764 89.2775L215.874 89.2775L215.985 89.2775L216.096 89.2775L216.206 89.2775L216.317 89.2775L216.427 89.2775L216.538 89.2775L216.649 89.2775L216.759 89.2775L216.87 89.2775L216.981 89.2775L217.091 89.2775L217.202 89.2775L217.312 89.2775L217.423 89.2775L217.534 89.2775L217.644 89.2775L217.755 89.2775L217.866 89.2775L217.976 89.2775L218.087 89.2775L218.198 89.2775L218.308 89.2775L218.419 89.2775L218.53 89.2775L218.64 89.2775L218.751 89.2775L218.862 89.2775L218.972 89.2775L219.083 89.2775L219.194 89.2775L219.304 89.2775L219.415 89.2775L219.526 89.2775L219.636 89.2775L219.747 89.2775L219.858 89.2775L219.968 89.2775L220.079 89.2775L220.19 89.2775L220.301 89.2775L220.411 89.2775L220.522 89.2775L220.633 89.2775L220.743 89.2775L220.854 89.2775L220.965 89.2775L221.076 89.2775L221.186 89.2775L221.297 89.2775L221.408 89.2775L221.519 89.2775L221.629 89.2775L221.74 89.2775L221.851 89.2775L221.962 89.2775L222.073 89.2775L222.183 89.2775L222.294 89.2775L222.405 89.2775L222.516 89.2775L222.627 89.2775L222.737 89.2775L222.848 89.2775L222.959 89.2775L223.07 89.2775L223.181 89.2775L223.291 89.2775L223.402 89.2775L223.513 89.2775L223.624 89.2775L223.735 89.2775L223.846 89.2775L223.956 89.2775L224.067 89.2775L224.178 89.2775L224.289 89.2775L224.4 89.2775L224.511 89.2775L224.622 89.2775L224.733 89.2775L224.843 89.2775L224.954 89.2775L225.065 89.2775L225.176 89.2775L225.287 89.2775L225.398 89.2775L225.509 89.2775L225.62 89.2775L225.731 89.2775L225.842 89.2775L225.953 89.2775L226.064 89.2775L226.175 89.2775L226.285 89.2775L226.396 89.2775L226.507 89.2775L226.618 89.2775L226.729 89.2775L226.84 89.2775L226.951 89.2775L227.062 89.2775L227.173 89.2775L227.284 89.2775L227.395 89.2775L227.506 89.2775L227.617 89.2775L227.728 89.2775L227.839 89.2775L227.95 89.2775L228.061 89.2775L228.172 89.2775L228.284 89.2775L228.395 89.2775L228.506 89.2775L228.617 89.2775L228.728 89.2775L228.839 89.2775L228.95 89.2775L229.061 89.2775L229.172 89.2775L229.283 89.2775L229.394 89.2775L229.505 89.2775L229.617 89.2775L229.728 89.2775L229.839 89.2775L229.95 89.2775L230.061 89.2775L230.172 89.2775L230.283 89.2775L230.395 89.2775L230.506 89.2775L230.617 89.2775L230.728 89.2775L230.839 89.2775L230.95 89.2775L231.062 89.2775L231.173 89.2775L231.284 89.2775L231.395 89.2775L231.506 89.2775L231.618 89.2775L231.729 89.2775L231.84 89.2775L231.951 89.2775L232.063 89.2775L232.174 89.2775L232.285 89.2775L232.396 89.2775L232.508 89.2775L232.619 89.2775L232.73 89.2775L232.842 89.2775C233.927 89.2775 234.603 89.4813 235.138 89.87C235.689 90.2711 236.147 90.908 236.716 91.9072C245.884 110.952 249.902 131.162 251.338 151.978C252.487 169.337 252.198 186.378 248.184 203.405L248.184 203.407C238.733 244.062 208.102 272.306 167.151 278.361C142.183 281.828 117.828 279.801 95.2052 268.557L95.204 268.556C64.8522 253.566 47.3829 228.208 40.7899 195.31C37.0631 176.549 37.9203 157.485 39.6462 138.661C41.0817 123.342 44.2397 108.313 49.1196 93.8633L49.1205 93.8605C49.4074 92.9941 49.6637 92.4537 50.0296 92.1137C50.3712 91.7962 50.8759 91.5955 51.8118 91.5955L51.9349 91.5955L52.058 91.5955L52.1811 91.5955L52.3042 91.5955L52.4274 91.5955L52.5505 91.5955L52.6736 91.5955L52.7968 91.5955L52.92 91.5955L53.0431 91.5955L53.1663 91.5955L53.2895 91.5955L53.4127 91.5955L53.5358 91.5955L53.659 91.5955L53.7823 91.5955L53.9055 91.5955L54.0287 91.5955L54.1519 91.5955L54.2751 91.5955L54.3984 91.5955L54.5216 91.5955L54.6448 91.5955L54.7681 91.5955L54.8914 91.5955L55.0146 91.5955L55.1379 91.5955L55.2612 91.5955L55.3844 91.5955L55.5077 91.5955L55.631 91.5955L55.7543 91.5955L55.8776 91.5955L56.0009 91.5955L56.1243 91.5955L56.2476 91.5955L56.3709 91.5955L56.4942 91.5955L56.6176 91.5955L56.7409 91.5955L56.8643 91.5955L56.9876 91.5955L57.111 91.5955L57.2344 91.5955L57.3577 91.5955L57.4811 91.5955L57.6045 91.5955L57.7279 91.5955L57.8513 91.5955L57.9747 91.5955L58.0981 91.5955L58.2215 91.5955L58.3449 91.5955L58.4683 91.5955L58.5917 91.5955L58.7152 91.5955L58.8386 91.5955L58.9621 91.5955L59.0855 91.5955L59.2089 91.5955L59.3324 91.5955L59.4559 91.5955L59.5793 91.5955L59.7028 91.5955L59.8263 91.5955L59.9498 91.5955L60.0732 91.5955L60.1967 91.5955L60.3202 91.5955L60.4437 91.5955L60.5672 91.5955L60.6907 91.5955L60.8143 91.5955L60.9378 91.5955L61.0613 91.5955L61.1848 91.5955L61.3084 91.5955L61.4319 91.5955L61.5554 91.5955L61.679 91.5955L61.8025 91.5955L61.9261 91.5955L62.0497 91.5955L62.1732 91.5955L62.2968 91.5955L62.4204 91.5955L62.5439 91.5955L62.6675 91.5955L62.7911 91.5955L62.9147 91.5955L63.0383 91.5955L63.1619 91.5955L63.2855 91.5955L63.4091 91.5955L63.5327 91.5955L63.6563 91.5955L63.78 91.5955L63.9036 91.5955L64.0272 91.5955L64.1508 91.5955L64.2745 91.5955L64.3981 91.5955L64.5218 91.5955L64.6454 91.5955L64.7691 91.5955L64.8927 91.5955L65.0164 91.5955L65.14 91.5955L65.2637 91.5955L65.3874 91.5955L65.5111 91.5955L65.6347 91.5955L65.7584 91.5955L65.8821 91.5955L66.0058 91.5955L66.1295 91.5955L66.2532 91.5955L66.3769 91.5955L66.5006 91.5955L66.6243 91.5955L66.748 91.5955L66.8717 91.5955L66.9954 91.5955L67.1192 91.5955L67.2429 91.5955L67.3666 91.5955L67.4904 91.5955L67.6141 91.5955L67.7378 91.5955L67.8616 91.5955L67.9853 91.5955L68.1091 91.5955L68.2328 91.5955L68.3566 91.5955L68.4803 91.5955L68.6041 91.5955L68.7279 91.5955L68.8516 91.5955L68.9754 91.5955L69.0992 91.5955L69.2229 91.5955L69.3467 91.5955L69.4705 91.5955L69.5943 91.5955L69.7181 91.5955L69.8419 91.5955L69.9657 91.5955L70.0895 91.5955L70.2132 91.5955L70.3371 91.5955L70.4609 91.5955L70.5847 91.5955L70.7085 91.5955L70.8323 91.5955L70.9561 91.5955L71.0799 91.5955L71.2037 91.5955L71.3276 91.5955L71.4514 91.5955L71.5752 91.5955L71.699 91.5955L71.8229 91.5955L71.9467 91.5955L72.0705 91.5955L72.1944 91.5955L72.3182 91.5955L72.4421 91.5955L72.5659 91.5955L72.6898 91.5955L72.8136 91.5955L72.9375 91.5955L73.0613 91.5955L73.1852 91.5955L73.3091 91.5955L73.4329 91.5955L73.5568 91.5955L73.6806 91.5955L73.8045 91.5955L73.9284 91.5955L74.0523 91.5955L74.1761 91.5955L74.3 91.5955L74.4239 91.5955L74.5478 91.5955L74.6716 91.5955L74.7955 91.5955L74.9194 91.5955L75.0433 91.5955L75.1672 91.5955L75.2911 91.5955L75.415 91.5955L75.5389 91.5955L75.6628 91.5955L75.7867 91.5955L75.9106 91.5955L76.0345 91.5955L76.1584 91.5955L76.2823 91.5955L76.4062 91.5955L76.5301 91.5955L76.654 91.5955L76.7779 91.5955L76.9018 91.5955L77.0257 91.5955L77.1496 91.5955L77.2735 91.5955L77.3975 91.5955L77.5214 91.5955L77.6453 91.5955L77.7692 91.5955L77.8931 91.5955L78.0171 91.5955L78.141 91.5955L78.2649 91.5955L78.3888 91.5955L78.5128 91.5955L78.6367 91.5955L78.7606 91.5955L78.8845 91.5955L79.0085 91.5955L79.1324 91.5955L79.2563 91.5955L79.3803 91.5955L79.5042 91.5955L79.6281 91.5955L79.7521 91.5955L79.876 91.5955L79.9999 91.5955L80.1239 91.5955L80.2478 91.5955L80.3718 91.5955L80.4957 91.5955L80.6196 91.5955L80.7436 91.5955L80.8675 91.5955L80.9915 91.5955L81.1154 91.5955L81.2394 91.5955L81.3633 91.5955L81.4872 91.5955L81.6112 91.5955L81.7351 91.5955L81.8591 91.5955L81.983 91.5955L82.107 91.5955L82.2309 91.5955L82.3549 91.5955L82.4788 91.5955L82.6028 91.5955L82.7267 91.5955L82.8507 91.5955L82.9746 91.5955L83.0985 91.5955L83.2225 91.5955L83.3464 91.5955L83.4704 91.5955L83.5943 91.5955L83.7183 91.5955L83.8422 91.5955L83.9662 91.5955L84.0901 91.5955L84.2141 91.5955L84.338 91.5955L84.462 91.5955L84.5859 91.5955L84.7099 91.5955L84.8338 91.5955L84.9578 91.5955L85.0817 91.5955L85.2056 91.5955L85.3296 91.5955L85.4535 91.5955L85.5775 91.5955L85.7014 91.5955L85.8254 91.5955L85.9493 91.5955L86.0732 91.5955L86.1972 91.5955L86.3211 91.5955L86.4451 91.5955L86.569 91.5955L86.693 91.5955L86.8169 91.5955L86.9408 91.5955L87.0648 91.5955L87.1887 91.5955L87.3126 91.5955L87.4366 91.5955L87.5605 91.5955L87.6844 91.5955L87.8084 91.5955L87.9323 91.5955L88.0562 91.5955L88.1802 91.5955L88.3041 91.5955L88.428 91.5955L88.5519 91.5955L88.6759 91.5955L88.7998 91.5955L88.9237 91.5955L89.0476 91.5955L89.1716 91.5955L89.2955 91.5955L89.4194 91.5955L89.5433 91.5955L89.6672 91.5955L89.7911 91.5955L89.9151 91.5955L90.039 91.5955L90.1629 91.5955L90.2868 91.5955L90.4107 91.5955L90.5346 91.5955L90.6585 91.5955L90.7824 91.5955L90.9063 91.5955L91.0302 91.5955L91.1541 91.5955L91.278 91.5955L91.4019 91.5955L91.5258 91.5955L91.6497 91.5955L91.7736 91.5955L91.8975 91.5955L92.0214 91.5955L92.1452 91.5955L92.2691 91.5955L92.393 91.5955L92.5169 91.5955L92.6408 91.5955L92.7646 91.5955L92.8885 91.5955L93.0124 91.5955L93.1363 91.5955L93.2601 91.5955L93.384 91.5955L93.5079 91.5955L93.6317 91.5955L93.7556 91.5955L93.8794 91.5955L94.0033 91.5955L94.1272 91.5955L94.251 91.5955L94.3749 91.5955L94.4987 91.5955L94.6225 91.5955L94.7464 91.5955L94.8702 91.5955L94.9941 91.5955L95.1179 91.5955L95.2417 91.5955L95.3656 91.5955L95.4894 91.5955L95.6132 91.5955L95.737 91.5955L95.8609 91.5955L95.9847 91.5955L96.1085 91.5955L96.2323 91.5955L96.3561 91.5955L96.4799 91.5955L96.6037 91.5955L96.7275 91.5955L96.8513 91.5955L96.9751 91.5955L97.0989 91.5955L97.2227 91.5955L97.3465 91.5955L97.4703 91.5955L97.5941 91.5955L97.7178 91.5955L97.8416 91.5955L97.9654 91.5955L98.0892 91.5955L98.2129 91.5955L98.3367 91.5955L98.4604 91.5955L98.5842 91.5955L98.708 91.5955L98.8317 91.5955L98.9555 91.5955L99.0792 91.5955L99.2029 91.5955L99.3267 91.5955L99.4504 91.5955L99.5742 91.5955L99.6979 91.5955L99.8216 91.5955L99.9453 91.5955L100.069 91.5955L100.193 91.5955L100.316 91.5955L100.44 91.5955L100.564 91.5955L100.688 91.5955L100.811 91.5955L100.935 91.5955L101.059 91.5955L101.182 91.5955L101.306 91.5955L101.43 91.5955L101.553 91.5955L101.677 91.5955L101.801 91.5955L101.924 91.5955L102.048 91.5955L102.172 91.5955L102.295 91.5955L102.419 91.5955L102.543 91.5955L102.666 91.5955L102.79 91.5955L102.914 91.5955L103.037 91.5955L103.161 91.5955L103.284 91.5955L103.408 91.5955L103.532 91.5955L103.655 91.5955L103.779 91.5955L103.902 91.5955L104.026 91.5955L104.15 91.5955L104.273 91.5955L104.397 91.5955L104.52 91.5955L104.644 91.5955L104.768 91.5955L104.891 91.5955L105.015 91.5955L105.138 91.5955L105.262 91.5955L105.385 91.5955L105.509 91.5955L105.632 91.5955L105.756 91.5955L105.879 91.5955L106.003 91.5955L106.127 91.5955L106.25 91.5955L106.374 91.5955L106.497 91.5955L106.621 91.5955L106.744 91.5955L106.868 91.5955L106.991 91.5955L107.114 91.5955L107.238 91.5955L107.361 91.5955L107.485 91.5955L107.608 91.5955L107.732 91.5955L107.855 91.5955L107.979 91.5955L108.102 91.5955L108.226 91.5955L108.349 91.5955L108.472 91.5955L108.596 91.5955L108.719 91.5955L108.843 91.5955L108.966 91.5955L109.089 91.5955L109.213 91.5955L109.336 91.5955L109.46 91.5955L109.583 91.5955L109.706 91.5955L109.83 91.5955L109.953 91.5955L110.076 91.5955L110.2 91.5955L110.323 91.5955L110.447 91.5955L110.57 91.5955L110.693 91.5955L110.817 91.5955L110.94 91.5955L111.063 91.5955L111.186 91.5955L111.31 91.5955L111.433 91.5955L111.556 91.5955L111.68 91.5955L111.803 91.5955L111.926 91.5955L112.049 91.5955L112.173 91.5955L112.296 91.5955L112.419 91.5955L112.542 91.5955L112.666 91.5955L112.789 91.5955L112.912 91.5955L113.035 91.5955L113.159 91.5955L113.282 91.5955L113.405 91.5955L113.528 91.5955L113.651 91.5955L113.774 91.5955L113.898 91.5955L114.021 91.5955L114.144 91.5955L114.267 91.5955L114.39 91.5955L114.513 91.5955L114.637 91.5955L114.76 91.5955L114.883 91.5955L115.006 91.5955L115.129 91.5955L115.218 91.5955C114.294 93.9567 113.315 96.2765 112.334 98.5971C111.802 99.8576 111.269 101.118 110.746 102.386C109.053 106.483 107.461 110.634 106.301 115.01C101.396 131.569 99.0761 148.46 102.551 165.661C106.049 182.975 119.466 195.006 136.936 197.351Z" stroke="#1E1F45" stroke-opacity="0.2"/>
<path d="M246.442 592.738L43.6758 592.738L43.6758 512.027L246.442 512.027L246.442 592.738Z" stroke="#1E1F45" stroke-opacity="0.2"/>
<path d="M246.442 64.8071L43.6758 64.8071L43.6758 -15.9035L246.442 -15.9035L246.442 64.8071Z" stroke="#1E1F45" stroke-opacity="0.2"/>
<path d="M32.3871 592.564L0.652344 592.564L0.65234 511.669L32.3871 511.669L32.3871 592.564Z" stroke="#1E1F45" stroke-opacity="0.2"/>
<path d="M32.2122 65.2173L0.652344 65.2173L0.65234 -15.6131L32.2122 -15.6131L32.2122 65.2173Z" stroke="#1E1F45" stroke-opacity="0.2"/>
</g>
<defs>
<clipPath id="clip0_1711_12985">
<rect width="777" height="253" fill="white" transform="translate(0 777) rotate(-90)"/>
</clipPath>
</defs>
</svg>
