<?xml version="1.0" encoding="UTF-8"?><svg id="_Слой_1" xmlns="http://www.w3.org/2000/svg" viewBox="0 0 1986.05 1125"><defs><style>.cls-1{fill:#1e1f45;}.cls-2{fill:none;isolation:isolate;opacity:.2;stroke:#fff;}</style></defs><rect class="cls-1" width="1985.42" height="1125"/><path class="cls-2" d="M1662.7,1118.25h-.01c-88.91,6.46-177.09,4.31-264.52-15.8l-1.4-.69-.05-.03h-.06c-208.83-48.85-355.51-209.02-385.14-421.63l-.49.07.49-.07c-18.07-129.34-7.22-255.78,51.31-374.3h0c77.32-158.02,206.65-248.52,377.22-283.01,96.85-19.4,193.71-14.37,291.35-5.03,78.8,7.91,155.43,24.43,230.62,49.59h0c4.34,1.44,7.67,2.85,9.93,5.18,2.23,2.3,3.47,5.57,3.47,10.89v328.57h0v.02h0v.02h0v.02h0v.02h0v.02h0v.02h0v.02h0v.02h0v.02h0v.02h0v.02h0v.02h0v.02h0v.02h0v.02h0v.02h0v.02h0v.02h0v.02h0v.02h0v.02h0v.02h0v.02h0v.02h0v.02h0v.02h0v.02h0v.02h0v.02h0v.02h0v.02h0v.02h0v.02h0v.02h0v.02h0v.02h0v.02h0v.02h0v.02h0v.02h0v.02h0v.02h0v.02h0v.02h0v.02h0v.02h0v.02h0v.02h0v.02h0v.02h0v.02h0v.02h0v.02h0v.02h0v.02h0v.02h0v.02h0v.02h0v.02h0v.02h0v.02h0v.02h0v.02h0v.02h0v.02h0v.02h0v.02h0v.02h0v.02h0v.02h0v.02h0v.02h0v.02h0v.02h0v.02h0v.02h0v.02h0v.02h0v.02h0v.02h0v.02h0v.02h0v.02h0v.02h0v.02h0v.02h0v.02h0v.02h0v.02h0v.02h0v.02h0v.02h0v.02h0v.02h0v.02h0v.02h0v.02h0v.02h0v.02h0v.02h0v.02h0v.02h0v.02h0v.02h0v.02h0v.02h0v.02h0v.02h0v.02h0v.02h0v.02h0v.02h0v.02h0v.02h0v.02h0v.02h0v.02h0v.02h0v.02h0v.02h0v.02h0c-14.31-5.55-28.48-11.52-42.64-17.48-27.74-11.68-55.42-23.34-84.02-31.87h0c-84.67-24.46-170.83-36.7-258.46-18.7-88.46,18.02-149.37,85.78-160.97,176.58-7.97,62.63-1.46,122.43,33.34,176.48h.01c35.53,54.78,87.75,83.61,150.81,90.1h.01c125.22,12.23,244.66-10.79,356.14-69.79,4.22-2.09,8.42-4.19,14.62-6.94,1.29,5.45,1.29,10.23,1.29,14.4v294.06c0,5.69-1.07,9.71-3.34,12.93-2.28,3.22-5.81,5.69-10.85,8.19-97.57,47.42-200.94,68.98-308.66,76.17Z"/><path class="cls-2" d="M662.57,1118.25h-.01c-88.91,6.46-177.09,4.31-264.52-15.8l-1.4-.69-.05-.03h-.06c-208.83-48.85-355.51-209.02-385.14-421.63l-.49.07.49-.07c-18.07-129.34-7.22-255.78,51.31-374.3h0C140.02,147.78,269.35,57.28,439.92,22.79c96.85-19.4,193.71-14.37,291.35-5.03,78.8,7.91,155.43,24.43,230.62,49.59h0c4.34,1.44,7.67,2.85,9.93,5.18,2.23,2.3,3.47,5.57,3.47,10.89v328.57h0v.02h0v.02h0v.02h0v.02h0v.02h0v.02h0v.02h0v.02h0v.02h0v.02h0v.02h0v.02h0v.02h0v.02h0v.02h0v.02h0v.02h0v.02h0v.02h0v.02h0v.02h0v.02h0v.02h0v.02h0v.02h0v.02h0v.02h0v.02h0v.02h0v.02h0v.02h0v.02h0v.02h0v.02h0v.02h0v.02h0v.02h0v.02h0v.02h0v.02h0v.02h0v.02h0v.02h0v.02h0v.02h0v.02h0v.02h0v.02h0v.02h0v.02h0v.02h0v.02h0v.02h0v.02h0v.02h0v.02h0v.02h0v.02h0v.02h0v.02h0v.02h0v.02h0v.02h0v.02h0v.02h0v.02h0v.02h0v.02h0v.02h0v.02h0v.02h0v.02h0v.02h0v.02h0v.02h0v.02h0v.02h0v.02h0v.02h0v.02h0v.02h0v.02h0v.02h0v.02h0v.02h0v.02h0v.02h0v.02h0v.02h0v.02h0v.02h0v.02h0v.02h0v.02h0v.02h0v.02h0v.02h0v.02h0v.02h0v.02h0v.02h0v.02h0v.02h0v.02h0v.02h0v.02h0v.02h0v.02h0v.02h0v.02h0v.02h0v.02h0v.02h0v.02h0v.02h0v.02h0v.02h0v.02h0v.02h0v.02h0v.02h0c-14.31-5.55-28.48-11.52-42.64-17.48-27.74-11.68-55.42-23.34-84.02-31.87h0c-84.67-24.46-170.83-36.7-258.46-18.7-88.46,18.02-149.37,85.78-160.97,176.58-7.97,62.63-1.46,122.43,33.34,176.48h.01c35.53,54.78,87.75,83.61,150.81,90.1h.01c125.22,12.23,244.66-10.79,356.14-69.79,4.22-2.09,8.42-4.19,14.62-6.94,1.29,5.45,1.29,10.23,1.29,14.4v294.06c0,5.69-1.07,9.71-3.34,12.93-2.28,3.22-5.81,5.69-10.85,8.19-97.57,47.42-200.94,68.98-308.66,76.17Z"/></svg>