<svg width="1920" height="995" viewBox="0 0 1920 995" fill="none" xmlns="http://www.w3.org/2000/svg">
<g clip-path="url(#clip0_2550_1812)">
<rect width="1920" height="995" fill="white"/>
<g filter="url(#filter0_d_2550_1812)">
<rect width="1920" height="995" fill="#1E1F45"/>
<path opacity="0.2" d="M1634.02 1056.92C1543.48 1062.95 1454.44 1061.44 1365.4 1040.34M1634.02 1056.92C1742.67 1049.38 1848.31 1028.28 1947.91 980.029M1634.02 1056.92L1633.99 1056.42M1634.02 1056.92L1633.99 1056.42C1633.99 1056.42 1633.99 1056.42 1633.99 1056.42M1365.4 1040.34L1946.4 652.859C1949.32 650.912 1952.25 649.593 1955.58 648.091C1957.26 647.332 1959.05 646.526 1960.99 645.568C1960.99 645.754 1961 645.938 1961 646.121M1365.4 1040.34C1152.62 990.583 1004.73 829.259 973.043 613.659M1365.4 1040.34L973.043 613.659M1947.91 980.029C1958.47 973.998 1963 969.475 1963 957.413V660.397C1963 658.298 1962.67 656.199 1962.33 653.949C1961.95 651.501 1961.54 648.875 1961.5 645.877C1961.33 645.959 1961.16 646.041 1961 646.121M1947.91 980.029L1947.69 979.579C1947.69 979.582 1947.68 979.584 1947.68 979.587M1947.91 980.029L1947.66 979.595C1947.67 979.592 1947.67 979.589 1947.68 979.587M1961 646.121C1959.13 647.038 1957.4 647.818 1955.77 648.551C1955.02 648.889 1954.3 649.217 1953.59 649.544C1951.14 650.671 1948.91 651.789 1946.68 653.275L1946.66 653.289L1946.64 653.3C1833.36 713.656 1712.54 736.289 1585.68 724.218C1522.16 718.174 1469.2 687.943 1432.9 633.536L1432.89 633.528C1398.1 579.12 1392.06 518.682 1399.62 455.292L1399.62 455.285C1411.72 364.623 1473.74 295.09 1562.99 276.953C1652.14 258.839 1739.75 270.919 1825.81 296.562M1961 646.121C1961.06 648.847 1961.41 651.264 1961.75 653.5L1961.83 654.016C1962.18 656.276 1962.5 658.338 1962.5 660.397V660.98V661.563V662.146V662.729V663.312V663.895V664.478V665.061V665.643V666.226V666.809V667.392V667.974V668.557V669.139V669.722V670.304V670.887V671.469V672.052V672.634V673.216V673.799V674.381V674.963V675.546V676.128V676.71V677.292V677.874V678.456V679.038V679.62V680.202V680.784V681.366V681.948V682.53V683.112V683.693V684.275V684.857V685.439V686.02V686.602V687.184V687.765V688.347V688.928V689.51V690.091V690.673V691.254V691.836V692.417V692.998V693.58V694.161V694.742V695.323V695.905V696.486V697.067V697.648V698.229V698.81V699.391V699.972V700.553V701.134V701.715V702.296V702.877V703.458V704.039V704.62V705.201V705.781V706.362V706.943V707.523V708.104V708.685V709.266V709.846V710.427V711.007V711.588V712.168V712.749V713.329V713.91V714.49V715.071V715.651V716.231V716.812V717.392V717.972V718.553V719.133V719.713V720.293V720.874V721.454V722.034V722.614V723.194V723.774V724.354V724.935V725.515V726.095V726.675V727.255V727.835V728.415V728.994V729.574V730.154V730.734V731.314V731.894V732.474V733.053V733.633V734.213V734.793V735.372V735.952V736.532V737.112V737.691V738.271V738.851V739.43V740.01V740.589V741.169V741.748V742.328V742.908V743.487V744.067V744.646V745.225V745.805V746.384V746.964V747.543V748.122V748.702V749.281V749.861V750.44V751.019V751.599V752.178V752.757V753.336V753.916V754.495V755.074V755.653V756.233V756.812V757.391V757.97V758.549V759.128V759.707V760.287V760.866V761.445V762.024V762.603V763.182V763.761V764.34V764.919V765.498V766.077V766.656V767.235V767.814V768.393V768.972V769.551V770.13V770.709V771.288V771.867V772.446V773.025V773.603V774.182V774.761V775.34V775.919V776.498V777.077V777.656V778.234V778.813V779.392V779.971V780.55V781.128V781.707V782.286V782.865V783.443V784.022V784.601V785.18V785.758V786.337V786.916V787.495V788.073V788.652V789.231V789.81V790.388V790.967V791.546V792.124V792.703V793.282V793.86V794.439V795.018V795.596V796.175V796.754V797.333V797.911V798.49V799.068V799.647V800.226V800.804V801.383V801.962V802.54V803.119V803.698V804.276V804.855V805.434V806.012V806.591V807.169V807.748V808.327V808.905V809.484V810.063V810.641V811.22V811.799V812.377V812.956V813.535V814.113V814.692V815.27V815.849V816.428V817.006V817.585V818.164V818.742V819.321V819.9V820.478V821.057V821.636V822.214V822.793V823.372V823.95V824.529V825.108V825.686V826.265V826.844V827.423V828.001V828.58V829.159V829.737V830.316V830.895V831.474V832.052V832.631V833.21V833.789V834.367V834.946V835.525V836.104V836.682V837.261V837.84V838.419V838.998V839.577V840.155V840.734V841.313V841.892V842.471V843.05V843.629V844.207V844.786V845.365V845.944V846.523V847.102V847.681V848.26V848.839V849.418V849.997V850.576V851.155V851.734V852.313V852.892V853.471V854.05V854.629V855.208V855.787V856.366V856.945V857.524V858.103V858.683V859.262V859.841V860.42V860.999V861.578V862.158V862.737V863.316V863.895V864.474V865.054V865.633V866.212V866.792V867.371V867.95V868.53V869.109V869.688V870.268V870.847V871.427V872.006V872.585V873.165V873.744V874.324V874.903V875.483V876.062V876.642V877.222V877.801V878.381V878.96V879.54V880.12V880.699V881.279V881.859V882.438V883.018V883.598V884.178V884.757V885.337V885.917V886.497V887.077V887.657V888.237V888.816V889.396V889.976V890.556V891.136V891.716V892.296V892.876V893.456V894.036V894.617V895.197V895.777V896.357V896.937V897.517V898.098V898.678V899.258V899.838V900.419V900.999V901.579V902.16V902.74V903.321V903.901V904.482V905.062V905.643V906.223V906.804V907.384V907.965V908.545V909.126V909.707V910.287V910.868V911.449V912.03V912.61V913.191V913.772V914.353V914.934V915.515V916.096V916.677V917.258V917.839V918.42V919.001V919.582V920.163V920.744V921.325V921.906V922.487V923.069V923.65V924.231V924.813V925.394V925.975V926.557V927.138V927.72V928.301V928.883V929.464V930.046V930.627V931.209V931.791V932.372V932.954V933.536V934.117V934.699V935.281V935.863V936.445V937.027V937.609V938.191V938.773V939.355V939.937V940.519V941.101V941.683V942.265V942.848V943.43V944.012V944.594V945.177V945.759V946.342V946.924V947.506V948.089V948.671V949.254V949.837V950.419V951.002V951.585V952.167V952.75V953.333V953.916V954.499V955.082V955.664V956.247V956.83V957.413C1962.5 963.379 1961.38 967.41 1959.01 970.69C1956.63 973.986 1952.94 976.578 1947.68 979.587M1825.81 296.562C1848.48 302.601 1870 310.903 1891.32 319.762C1897.89 322.492 1904.44 325.274 1911 328.06C1925.56 334.248 1940.16 340.451 1955.12 346.134C1955.1 346.016 1955.07 345.86 1954.99 345.663C1954.67 344.852 1953.63 343.413 1950.63 341.166L1950.43 341.016V340.766V340.121V339.476V338.831V338.186V337.541V336.896V336.251V335.606V334.961V334.315V333.67V333.025V332.38V331.734V331.089V330.443V329.798V329.152V328.507V327.861V327.216V326.57V325.925V325.279V324.633V323.988V323.342V322.696V322.05V321.404V320.758V320.113V319.467V318.821V318.175V317.529V316.883V316.236V315.59V314.944V314.298V313.652V313.005V312.359V311.713V311.067V310.42V309.774V309.127V308.481V307.835V307.188V306.542V305.895V305.248V304.602V303.955V303.309V302.662V302.015V301.368V300.722V300.075V299.428V298.781V298.134V297.487V296.841V296.194V295.547V294.9V294.253V293.606V292.959V292.311V291.664V291.017V290.37V289.723V289.076V288.428V287.781V287.134V286.487V285.839V285.192V284.545V283.897V283.25V282.602V281.955V281.307V280.66V280.012V279.365V278.717V278.07V277.422V276.774V276.127V275.479V274.831V274.184V273.536V272.888V272.24V271.592V270.945V270.297V269.649V269.001V268.353V267.705V267.057V266.409V265.761V265.113V264.465V263.817V263.169V262.521V261.873V261.225V260.577V259.929V259.28V258.632V257.984V257.336V256.688V256.039V255.391V254.743V254.095V253.446V252.798V252.15V251.501V250.853V250.204V249.556V248.908V248.259V247.611V246.962V246.314V245.665V245.017V244.368V243.72V243.071V242.423V241.774V241.125V240.477V239.828V239.179V238.531V237.882V237.233V236.585V235.936V235.287V234.639V233.99V233.341V232.692V232.044V231.395V230.746V230.097V229.448V228.799V228.151V227.502V226.853V226.204V225.555V224.906V224.257V223.608V222.959V222.31V221.661V221.013V220.364V219.715V219.066V218.417V217.768V217.119V216.469V215.82V215.171V214.522V213.873V213.224V212.575V211.926V211.277V210.628V209.979V209.33V208.681V208.031V207.382V206.733V206.084V205.435V204.786V204.136V203.487V202.838V202.189V201.54V200.891V200.241V199.592V198.943V198.294V197.644V196.995V196.346V195.697V195.047V194.398V193.749V193.1V192.45V191.801V191.152V190.503V189.853V189.204V188.555V187.906V187.256V186.607V185.958V185.308V184.659V184.01V183.361V182.711V182.062V181.413V180.763V180.114V179.465V178.815V178.166V177.517V176.867V176.218V175.569V174.92V174.27V173.621V172.972V172.322V171.673V171.024V170.374V169.725V169.076V168.426V167.777V167.128V166.479V165.829V165.18V164.531V163.881V163.232V162.583V161.934V161.284V160.635V159.986V159.336V158.687V158.038V157.389V156.739V156.09V155.441V154.792V154.142V153.493V152.844V152.195V151.545V150.896V150.247V149.598V148.949V148.299V147.65V147.001V146.352V145.703V145.053V144.404V143.755V143.106V142.457V141.808V141.159V140.509V139.86V139.211V138.562V137.913V137.264V136.615V135.966V135.317V134.668V134.019V133.37V132.721V132.072V131.423V130.773V130.124V129.476V128.827V128.178V127.529V126.88V126.231V125.582V124.933V124.284V123.635V122.986V122.337V121.688V121.04V120.391V119.742V119.093V118.444V117.796V117.147V116.498V115.849V115.2V114.552V113.903V113.254V112.606V111.957V111.308V110.66V110.011V109.362V108.714V108.065V107.417V106.768V106.119V105.471V104.822V104.174V103.525V102.877V102.228V101.58V100.931V100.283V99.6346V98.9862V98.3378V97.6895V97.0411V96.3928V95.7445V95.0962V94.4479V93.7996V93.1514V92.5031V91.8549V91.2067V90.5585V89.9104V89.2622V88.6141V87.966V87.3179V86.6698V86.0218V85.3737V84.7257V84.0777V83.4298V82.7818V82.1339V81.4859V80.838V80.1902V79.5423V78.8944V78.2466V77.5988V76.951V76.3033V75.6555V75.0078V74.3601V73.7124V73.0648V72.4171V71.7695V71.1219V70.4743V69.8268V69.1792V68.5317V67.8843V67.2368V66.5894V65.9419V65.2945V64.6472V63.9998V63.3525V62.7052V62.0579V61.4106V60.7634V60.1162V59.469V58.8218V58.1747V57.5276V56.8805V56.2334V55.5864V54.9394V54.2924V53.6454V52.9985V52.3516V51.7047V51.0578V50.411V49.7642V49.1174V48.4706V47.8239V47.1772V46.5305V45.8838V45.2372V44.5906V43.944V43.2975V42.651V42.0045V41.358V40.7116V40.0652V39.4188V38.7724V38.1261V37.4798V36.8335V36.1873V35.5411V34.8949V34.2488V33.6026V32.9566V32.3105V31.6645V31.0185V30.3725V29.7265V29.0806V28.4347V27.7889V27.1431V26.4973V25.8515V25.2058V24.5601V23.9144V23.2688V22.6232V21.9776V21.3321V20.6866V20.0411V19.3956V18.7502V18.1049V17.4595V16.8142V16.1689V15.5237V14.8784V14.2333V13.5881V12.943V12.2979V11.6529V11.0079V10.3629V9.71793V9.07302C1950.43 3.86687 1949.31 0.616989 1947.16 -1.70692C1945 -4.05467 1941.71 -5.53061 1937.19 -7.03725L1937.18 -7.03819C1861.77 -32.6561 1783.34 -49.2327 1703.39 -56.7677M1825.81 296.562C1825.81 296.562 1825.81 296.563 1825.82 296.564L1825.67 297.043L1825.8 296.56C1825.8 296.56 1825.81 296.561 1825.81 296.562ZM1947.68 979.587C1848.16 1027.79 1742.59 1048.89 1633.99 1056.42M1633.99 1056.42C1543.47 1062.45 1454.49 1060.94 1365.52 1039.85L1365.52 1039.85C1152.94 990.143 1005.2 828.985 973.538 613.588M973.538 613.588C955.439 482.49 966.002 354.443 1024.8 235.449L1024.8 235.448C1103.2 75.7872 1235.86 -16.0945 1407.76 -50.7445M973.538 613.588C973.538 613.589 973.538 613.59 973.538 613.59L973.043 613.659M973.538 613.588C973.538 613.588 973.538 613.587 973.538 613.586L973.043 613.659M1407.76 -50.7445C1505.77 -70.3297 1605.31 -65.813 1703.39 -56.7677M1407.76 -50.7445L1407.66 -51.2348M1407.76 -50.7445C1407.76 -50.7445 1407.76 -50.7446 1407.76 -50.7447L1407.66 -51.2348M1703.39 -56.7677C1703.39 -56.7677 1703.39 -56.7677 1703.39 -56.7678L1703.44 -57.2656M1703.39 -56.7677L1703.44 -57.2656M1703.44 -57.2656C1605.35 -66.3117 1505.75 -70.8348 1407.66 -51.2348M1703.44 -57.2656C1783.42 -49.7271 1861.89 -33.1425 1937.35 -7.51163C1946.4 -4.49624 1950.93 -1.48085 1950.93 9.07302V340.766L1407.66 -51.2348M1407.66 -51.2348C1235.62 -16.5578 1102.82 75.4116 1024.35 235.227C965.497 354.335 954.934 482.489 973.043 613.659M1407.66 -51.2348L973.043 613.659" stroke="white"/>
<path opacity="0.2" d="M434.617 455.285L434.616 455.292C427.063 518.683 433.099 579.12 467.891 633.529L467.897 633.537C504.201 687.943 557.157 718.174 620.682 724.219C747.539 736.289 868.364 713.656 981.635 653.3L981.657 653.289L981.677 653.275C983.909 651.789 986.145 650.671 988.589 649.544C989.297 649.217 990.024 648.889 990.774 648.551C992.399 647.818 994.129 647.038 996 646.121C996.058 648.847 996.407 651.264 996.751 653.5L996.831 654.016C997.181 656.276 997.5 658.338 997.5 660.397V660.981V661.564V662.146V662.729V663.312V663.895V664.478V665.061V665.644V666.226V666.809V667.392V667.974V668.557V669.139V669.722V670.305V670.887V671.469V672.052V672.634V673.217V673.799V674.381V674.963V675.546V676.128V676.71V677.292V677.874V678.456V679.038V679.62V680.202V680.784V681.366V681.948V682.53V683.112V683.693V684.275V684.857V685.439V686.02V686.602V687.184V687.765V688.347V688.928V689.51V690.091V690.673V691.254V691.836V692.417V692.998V693.58V694.161V694.742V695.323V695.905V696.486V697.067V697.648V698.229V698.81V699.391V699.972V700.553V701.134V701.715V702.296V702.877V703.458V704.039V704.62V705.201V705.781V706.362V706.943V707.524V708.104V708.685V709.266V709.846V710.427V711.007V711.588V712.168V712.749V713.329V713.91V714.49V715.071V715.651V716.232V716.812V717.392V717.973V718.553V719.133V719.713V720.294V720.874V721.454V722.034V722.614V723.194V723.774V724.355V724.935V725.515V726.095V726.675V727.255V727.835V728.415V728.995V729.574V730.154V730.734V731.314V731.894V732.474V733.054V733.633V734.213V734.793V735.373V735.952V736.532V737.112V737.691V738.271V738.851V739.43V740.01V740.589V741.169V741.749V742.328V742.908V743.487V744.067V744.646V745.226V745.805V746.384V746.964V747.543V748.123V748.702V749.281V749.861V750.44V751.019V751.599V752.178V752.757V753.336V753.916V754.495V755.074V755.653V756.233V756.812V757.391V757.97V758.549V759.128V759.708V760.287V760.866V761.445V762.024V762.603V763.182V763.761V764.34V764.919V765.498V766.077V766.656V767.235V767.814V768.393V768.972V769.551V770.13V770.709V771.288V771.867V772.446V773.025V773.604V774.182V774.761V775.34V775.919V776.498V777.077V777.656V778.234V778.813V779.392V779.971V780.55V781.128V781.707V782.286V782.865V783.444V784.022V784.601V785.18V785.759V786.337V786.916V787.495V788.074V788.652V789.231V789.81V790.388V790.967V791.546V792.125V792.703V793.282V793.861V794.439V795.018V795.597V796.175V796.754V797.333V797.911V798.49V799.069V799.647V800.226V800.805V801.383V801.962V802.54V803.119V803.698V804.276V804.855V805.434V806.012V806.591V807.17V807.748V808.327V808.906V809.484V810.063V810.641V811.22V811.799V812.377V812.956V813.535V814.113V814.692V815.271V815.849V816.428V817.007V817.585V818.164V818.742V819.321V819.9V820.478V821.057V821.636V822.214V822.793V823.372V823.951V824.529V825.108V825.687V826.265V826.844V827.423V828.001V828.58V829.159V829.738V830.316V830.895V831.474V832.052V832.631V833.21V833.789V834.367V834.946V835.525V836.104V836.683V837.261V837.84V838.419V838.998V839.577V840.155V840.734V841.313V841.892V842.471V843.05V843.629V844.208V844.786V845.365V845.944V846.523V847.102V847.681V848.26V848.839V849.418V849.997V850.576V851.155V851.734V852.313V852.892V853.471V854.05V854.629V855.208V855.787V856.366V856.945V857.524V858.104V858.683V859.262V859.841V860.42V860.999V861.578V862.158V862.737V863.316V863.895V864.475V865.054V865.633V866.212V866.792V867.371V867.95V868.53V869.109V869.688V870.268V870.847V871.427V872.006V872.586V873.165V873.744V874.324V874.903V875.483V876.062V876.642V877.222V877.801V878.381V878.96V879.54V880.12V880.699V881.279V881.859V882.438V883.018V883.598V884.178V884.758V885.337V885.917V886.497V887.077V887.657V888.237V888.817V889.396V889.976V890.556V891.136V891.716V892.296V892.876V893.456V894.037V894.617V895.197V895.777V896.357V896.937V897.518V898.098V898.678V899.258V899.839V900.419V900.999V901.58V902.16V902.74V903.321V903.901V904.482V905.062V905.643V906.223V906.804V907.384V907.965V908.545V909.126V909.707V910.287V910.868V911.449V912.03V912.61V913.191V913.772V914.353V914.934V915.515V916.096V916.677V917.258V917.839V918.42V919.001V919.582V920.163V920.744V921.325V921.906V922.488V923.069V923.65V924.231V924.813V925.394V925.975V926.557V927.138V927.72V928.301V928.883V929.464V930.046V930.627V931.209V931.791V932.372V932.954V933.536V934.118V934.699V935.281V935.863V936.445V937.027V937.609V938.191V938.773V939.355V939.937V940.519V941.101V941.683V942.265V942.848V943.43V944.012V944.594V945.177V945.759V946.342V946.924V947.507V948.089V948.672V949.254V949.837V950.419V951.002V951.585V952.167V952.75V953.333V953.916V954.499V955.082V955.665V956.248V956.831V957.414C997.5 963.379 996.381 967.41 994.011 970.69C991.628 973.986 987.943 976.579 982.675 979.587C883.156 1027.79 777.594 1048.89 668.987 1056.42C578.468 1062.45 489.487 1060.94 400.519 1039.85L400.518 1039.85C187.938 990.143 40.1995 828.985 8.53793 613.588C-9.56094 482.49 1.00171 354.443 59.7998 235.449L59.8004 235.448C138.196 75.7872 270.856 -16.0945 442.756 -50.7445C540.772 -70.3296 640.311 -65.813 738.391 -56.7678C818.334 -49.2329 896.768 -32.6562 972.185 -7.03819L972.188 -7.03724C976.712 -5.5306 979.995 -4.05466 982.165 -1.70692C984.312 0.616997 985.427 3.86687 985.427 9.07303V9.71794V10.3629V11.0079V11.6529V12.2979V12.943V13.5881V14.2333V14.8784V15.5237V16.1689V16.8142V17.4595V18.1049V18.7502V19.3956V20.0411V20.6866V21.3321V21.9776V22.6232V23.2688V23.9144V24.5601V25.2058V25.8515V26.4973V27.1431V27.7889V28.4348V29.0806V29.7265V30.3725V31.0185V31.6645V32.3105V32.9566V33.6027V34.2488V34.8949V35.5411V36.1873V36.8336V37.4798V38.1261V38.7724V39.4188V40.0652V40.7116V41.358V42.0045V42.651V43.2975V43.944V44.5906V45.2372V45.8838V46.5305V47.1772V47.8239V48.4706V49.1174V49.7642V50.411V51.0578V51.7047V52.3516V52.9985V53.6454V54.2924V54.9394V55.5864V56.2334V56.8805V57.5276V58.1747V58.8219V59.469V60.1162V60.7634V61.4107V62.0579V62.7052V63.3525V63.9998V64.6472V65.2945V65.9419V66.5894V67.2368V67.8843V68.5318V69.1793V69.8268V70.4743V71.1219V71.7695V72.4171V73.0648V73.7124V74.3601V75.0078V75.6555V76.3033V76.951V77.5988V78.2466V78.8945V79.5423V80.1902V80.838V81.4859V82.1339V82.7818V83.4298V84.0778V84.7258V85.3738V86.0218V86.6699V87.3179V87.966V88.6141V89.2623V89.9104V90.5586V91.2067V91.8549V92.5032V93.1514V93.7996V94.4479V95.0962V95.7445V96.3928V97.0411V97.6895V98.3378V98.9862V99.6346V100.283V100.931V101.58V102.228V102.877V103.525V104.174V104.822V105.471V106.119V106.768V107.417V108.065V108.714V109.362V110.011V110.66V111.308V111.957V112.606V113.254V113.903V114.552V115.201V115.849V116.498V117.147V117.796V118.444V119.093V119.742V120.391V121.04V121.688V122.337V122.986V123.635V124.284V124.933V125.582V126.231V126.88V127.529V128.178V128.827V129.476V130.125V130.774V131.423V132.072V132.721V133.37V134.019V134.668V135.317V135.966V136.615V137.264V137.913V138.562V139.211V139.86V140.509V141.159V141.808V142.457V143.106V143.755V144.404V145.053V145.703V146.352V147.001V147.65V148.299V148.949V149.598V150.247V150.896V151.545V152.195V152.844V153.493V154.142V154.792V155.441V156.09V156.739V157.389V158.038V158.687V159.336V159.986V160.635V161.284V161.934V162.583V163.232V163.881V164.531V165.18V165.829V166.479V167.128V167.777V168.426V169.076V169.725V170.374V171.024V171.673V172.322V172.972V173.621V174.27V174.92V175.569V176.218V176.867V177.517V178.166V178.815V179.465V180.114V180.763V181.413V182.062V182.711V183.361V184.01V184.659V185.308V185.958V186.607V187.256V187.906V188.555V189.204V189.853V190.503V191.152V191.801V192.451V193.1V193.749V194.398V195.047V195.697V196.346V196.995V197.644V198.294V198.943V199.592V200.241V200.891V201.54V202.189V202.838V203.487V204.136V204.786V205.435V206.084V206.733V207.382V208.031V208.681V209.33V209.979V210.628V211.277V211.926V212.575V213.224V213.873V214.522V215.171V215.82V216.47V217.119V217.768V218.417V219.066V219.715V220.364V221.013V221.661V222.31V222.959V223.608V224.257V224.906V225.555V226.204V226.853V227.502V228.151V228.799V229.448V230.097V230.746V231.395V232.044V232.692V233.341V233.99V234.639V235.287V235.936V236.585V237.233V237.882V238.531V239.179V239.828V240.477V241.125V241.774V242.423V243.071V243.72V244.368V245.017V245.665V246.314V246.962V247.611V248.259V248.908V249.556V250.204V250.853V251.501V252.15V252.798V253.446V254.095V254.743V255.391V256.039V256.688V257.336V257.984V258.632V259.281V259.929V260.577V261.225V261.873V262.521V263.169V263.817V264.465V265.113V265.761V266.409V267.057V267.705V268.353V269.001V269.649V270.297V270.945V271.592V272.24V272.888V273.536V274.184V274.831V275.479V276.127V276.774V277.422V278.07V278.717V279.365V280.012V280.66V281.307V281.955V282.602V283.25V283.897V284.545V285.192V285.839V286.487V287.134V287.781V288.428V289.076V289.723V290.37V291.017V291.664V292.311V292.959V293.606V294.253V294.9V295.547V296.194V296.841V297.488V298.134V298.781V299.428V300.075V300.722V301.368V302.015V302.662V303.309V303.955V304.602V305.248V305.895V306.542V307.188V307.835V308.481V309.128V309.774V310.42V311.067V311.713V312.359V313.006V313.652V314.298V314.944V315.59V316.236V316.883V317.529V318.175V318.821V319.467V320.113V320.758V321.404V322.05V322.696V323.342V323.988V324.633V325.279V325.925V326.57V327.216V327.861V328.507V329.153V329.798V330.443V331.089V331.734V332.38V333.025V333.67V334.315V334.961V335.606V336.251V336.896V337.541V338.186V338.831V339.476V340.121V340.766V341.016L985.628 341.166C988.626 343.413 989.666 344.852 989.99 345.663C990.069 345.86 990.104 346.016 990.117 346.134C975.161 340.451 960.56 334.248 945.997 328.06C939.44 325.274 932.892 322.492 926.322 319.762C905.002 310.903 883.475 302.601 860.809 296.562C774.748 270.919 687.136 258.839 597.994 276.953C508.739 295.09 446.717 364.623 434.617 455.285Z" stroke="white"/>
</g>
</g>
<defs>
<filter id="filter0_d_2550_1812" x="-4" y="-65" width="1971" height="1133" filterUnits="userSpaceOnUse" color-interpolation-filters="sRGB">
<feFlood flood-opacity="0" result="BackgroundImageFix"/>
<feColorMatrix in="SourceAlpha" type="matrix" values="0 0 0 0 0 0 0 0 0 0 0 0 0 0 0 0 0 0 127 0" result="hardAlpha"/>
<feOffset dy="4"/>
<feGaussianBlur stdDeviation="2"/>
<feComposite in2="hardAlpha" operator="out"/>
<feColorMatrix type="matrix" values="0 0 0 0 0 0 0 0 0 0 0 0 0 0 0 0 0 0 0.25 0"/>
<feBlend mode="normal" in2="BackgroundImageFix" result="effect1_dropShadow_2550_1812"/>
<feBlend mode="normal" in="SourceGraphic" in2="effect1_dropShadow_2550_1812" result="shape"/>
</filter>
<clipPath id="clip0_2550_1812">
<rect width="1920" height="995" fill="white"/>
</clipPath>
</defs>
</svg>
