<svg width="80" height="80" viewBox="0 0 80 80" fill="none" xmlns="http://www.w3.org/2000/svg">
<path fill-rule="evenodd" clip-rule="evenodd" d="M32.2792 15.3898H14.7607V65.8461H35.2349V64.7771V40.618C35.2349 40.2616 35.2349 39.9053 35.3791 39.549C36.6047 36.2707 38.7675 33.9902 42.3 33.0638C46.0488 32.1373 49.7255 32.4936 53.4022 33.7764C53.5464 33.8239 53.6826 33.8714 53.8187 33.919C54.0911 34.014 54.3634 34.109 54.6999 34.204V14.6059C54.0991 14.5584 53.4983 14.5029 52.8975 14.4475C51.696 14.3366 50.4945 14.2258 49.2929 14.1783C43.8139 13.8932 39.6326 16.1025 36.6768 20.6635C36.0228 21.6793 35.5202 22.785 35.012 23.9028C34.7359 24.5102 34.4581 25.1212 34.1536 25.7234C33.5769 22.3744 32.9282 18.8829 32.2795 15.3915L32.2792 15.3898ZM45.0336 54.7692H63.9916V65.8461H45.0336V54.7692Z" fill="white"/>
</svg>
