<svg width="386" height="108" viewBox="0 0 386 108" fill="none" xmlns="http://www.w3.org/2000/svg">
<g clip-path="url(#clip0_901_2919)">
<path d="M216.507 42.6207C216.095 43.0345 216.095 43.0345 215.683 43.4483C215.683 43.4483 215.27 43.8621 214.858 43.8621C214.445 43.8621 214.033 43.8621 213.621 43.4483C213.208 43.0345 212.796 43.0345 211.971 42.6207C211.146 42.2069 210.734 41.7931 209.497 41.7931C208.672 41.3793 207.435 41.3793 206.197 41.3793C204.548 41.3793 202.898 41.7931 201.661 42.2069C200.424 42.6207 199.187 43.8621 198.362 44.6897C197.537 45.931 196.712 47.1724 196.3 48.8276C195.888 50.4828 195.475 52.1379 195.475 54.2069C195.475 56.2759 195.888 58.3448 196.3 60C196.712 61.6552 197.537 62.8966 198.362 64.1379C199.187 65.3793 200.424 66.2069 201.661 66.6207C202.898 67.0345 204.136 67.4483 205.785 67.4483C207.435 67.4483 208.672 67.4483 209.497 67.0345C210.321 66.6207 211.146 66.2069 211.971 65.7931C212.796 65.3793 213.208 64.9655 213.621 64.5517C214.033 64.1379 214.445 64.1379 214.858 64.1379C215.27 64.1379 215.683 64.5517 216.095 64.9655L218.157 67.4483C217.332 68.2759 216.507 69.5172 215.27 69.931C214.445 70.7586 213.208 71.1724 211.971 71.5862C210.734 72 209.497 72.4138 208.259 72.4138C207.022 72.8276 205.785 72.8276 204.548 72.8276C202.486 72.8276 200.012 72.4138 198.362 71.5862C196.3 70.7586 194.65 69.5172 193.413 67.8621C192.176 66.2069 190.939 64.1379 190.114 62.069C189.289 59.5862 188.877 57.1034 188.877 54.2069C188.877 51.7241 189.289 49.2414 190.114 46.7586C190.939 44.2759 191.764 42.6207 193.413 40.9655C195.063 39.3103 196.712 38.069 198.774 37.2414C200.836 36.4138 203.311 36 206.197 36C208.672 36 211.146 36.4138 213.208 37.2414C215.27 37.2414 216.92 38.4828 218.569 40.1379L216.507 42.6207Z" fill="#1E1F45"/>
<path d="M224.341 40.9655C226.403 38.8965 228.465 37.6551 230.94 36.8276C233.414 36 235.888 35.5862 238.775 35.5862C240.837 35.5862 242.487 36 244.136 36.4138C245.786 37.2414 247.023 38.0689 248.26 39.3103C249.497 40.5517 250.322 41.7931 250.734 43.862C251.147 45.5172 251.559 47.5862 251.559 49.6551V72.8276H248.672C247.848 72.8276 247.435 72.8276 247.023 72.4138C246.61 72 246.198 71.5862 246.198 71.1724L245.373 67.862C244.549 68.6896 243.724 69.5172 242.487 69.931C241.662 70.7586 240.837 71.1724 239.6 71.5862C238.775 72 237.538 72.4138 236.301 72.8276C235.063 73.2414 233.826 73.2414 232.589 73.2414C231.352 73.2414 229.702 73.2414 228.465 72.8276C227.228 72.4138 225.991 72 225.166 71.1724C224.341 70.3448 223.516 69.5172 223.104 68.2758C222.692 67.0345 222.279 65.7931 222.279 64.1379C222.279 62.8965 222.692 61.2414 223.516 60C224.341 58.7586 225.578 57.5172 227.228 56.2758C228.878 55.0345 231.352 54.2069 234.239 53.7931C237.125 52.9655 240.425 52.5517 244.549 52.5517V50.0689C244.549 47.1724 244.136 45.1034 242.899 43.862C241.662 42.6207 240.012 41.7931 237.95 41.7931C236.301 41.7931 235.063 41.7931 234.239 42.2069C233.414 42.6207 232.177 43.0345 231.764 43.4482C230.94 43.862 230.527 44.2758 229.702 44.6896C229.29 45.1034 228.465 45.1034 228.053 45.1034C227.64 45.1034 227.228 45.1034 226.816 44.6896C226.403 44.2758 225.991 44.2758 225.991 43.862L224.341 40.9655ZM244.549 55.862C241.662 55.862 239.187 56.2758 237.538 56.6896C235.476 57.1034 233.826 57.5172 232.589 57.931C231.352 58.3448 230.527 59.1724 230.115 60C229.702 60.8276 229.29 61.6551 229.29 62.4827C229.29 63.3103 229.29 64.1379 229.702 64.9655C230.115 65.7931 230.527 66.2069 230.94 66.6207C231.352 67.0345 232.177 67.4482 232.589 67.4482C233.414 67.4482 233.826 67.862 234.651 67.862C235.888 67.862 236.713 67.862 237.538 67.4482C238.363 67.0345 239.187 67.0345 240.012 66.6207C240.837 66.2069 241.662 65.7931 242.074 65.3793C242.899 64.9655 243.311 64.1379 244.136 63.3103V55.862H244.549Z" fill="#1E1F45"/>
<path d="M267.231 41.3793C268.056 40.5517 268.881 39.7241 269.705 38.8965C270.53 38.0689 271.355 37.2413 272.18 36.8275C273.005 36.4137 274.242 36 275.479 35.5862C276.716 35.1724 277.953 35.1724 279.19 35.1724C281.252 35.1724 283.314 35.5862 284.964 36.4137C286.614 37.2413 288.263 38.4827 289.088 40.1379C290.325 41.7931 291.15 43.4482 291.975 45.931C292.799 48.4137 292.799 50.8965 292.799 53.7931C292.799 56.2758 292.387 59.1724 291.562 61.2413C290.737 63.7241 289.913 65.3793 288.676 67.0344C287.438 68.6896 285.789 69.931 283.727 71.1724C281.665 72 279.603 72.4137 277.129 72.4137C275.067 72.4137 273.005 72 271.767 71.1724C270.118 70.3448 268.881 69.5172 267.643 68.2758V83.9999H260.633V35.9999H264.757C265.582 35.9999 266.406 36.4137 266.406 37.2413L267.231 41.3793ZM267.643 63.3103C268.881 64.9655 270.118 65.7931 271.355 66.6206C272.592 67.0344 274.242 67.4482 275.891 67.4482C279.191 67.4482 281.665 66.2068 283.314 64.1379C284.964 61.6551 285.789 58.3448 285.789 54.2068C285.789 51.7241 285.789 50.0689 285.376 48.4137C284.964 46.7586 284.552 45.5172 283.727 44.2758C282.902 43.4482 282.077 42.6206 280.84 41.7931C279.603 41.3793 278.366 40.9655 277.129 40.9655C275.067 40.9655 273.417 41.3793 271.767 42.2068C270.118 43.0344 268.881 44.2758 267.643 45.931V63.3103Z" fill="#1E1F45"/>
<path d="M308.883 24.8276C308.883 25.6552 308.883 26.069 308.471 26.4827C308.058 26.8965 308.058 27.7241 307.234 28.1379C307.234 28.5517 306.821 28.9655 305.996 28.9655C305.584 29.3793 304.759 29.3793 304.347 29.3793C303.522 29.3793 303.11 29.3793 302.697 28.9655C301.873 28.9655 301.46 28.5517 301.048 28.1379C300.635 27.7241 300.223 27.3103 300.223 26.4827C299.811 26.069 299.811 25.2414 299.811 24.8276C299.811 24 299.811 23.5862 300.223 22.7586C300.635 22.3448 300.635 21.5172 301.048 21.1034C301.46 20.6896 301.873 20.2759 302.697 20.2759C303.11 19.8621 303.935 19.8621 304.347 19.8621C305.172 19.8621 305.584 19.8621 305.996 20.2759C306.409 20.6896 307.234 20.6896 307.646 21.1034C308.058 21.5172 308.471 21.931 308.883 22.7586C308.883 23.1724 308.883 24 308.883 24.8276ZM307.646 72H300.635V36H307.646V72Z" fill="#1E1F45"/>
<path d="M329.09 72.4138C326.203 72.4138 323.729 71.5862 322.492 69.9311C320.842 68.2759 320.017 65.7931 320.017 62.8966V41.3793H315.893C315.481 41.3793 315.069 41.3793 315.069 40.9655C314.656 40.5517 314.656 40.138 314.656 39.7242V37.2414L320.43 36.4138L321.667 25.6552C321.667 25.2414 322.079 24.8276 322.079 24.8276C322.492 24.4138 322.904 24.4138 323.316 24.4138H327.028V36.4138H337.338V41.3793H327.028V62.4828C327.028 63.7242 327.44 64.9655 328.265 65.7931C329.09 66.6207 329.915 67.0345 330.74 67.0345C331.564 67.0345 331.977 67.0345 332.389 66.6207C332.802 66.6207 333.214 66.2069 333.626 66.2069C334.039 66.2069 334.039 65.7931 334.451 65.7931C334.863 65.7931 334.864 65.3793 335.276 65.3793C335.688 65.3793 335.688 65.3793 335.688 65.3793L336.101 65.7931L338.163 69.1035C336.925 70.3449 335.688 70.7586 334.039 71.5862C332.389 72.4138 330.74 72.4138 329.09 72.4138Z" fill="#1E1F45"/>
<path d="M342.287 40.9655C344.349 38.8965 346.411 37.6551 348.885 36.8276C351.359 36 353.834 35.5862 356.72 35.5862C358.782 35.5862 360.432 36 362.081 36.4138C363.731 37.2414 364.968 38.0689 366.205 39.3103C367.443 40.5517 368.267 41.7931 368.68 43.862C369.092 45.5172 369.505 47.5862 369.505 49.6551V72.8276H366.618C365.793 72.8276 365.381 72.8276 364.968 72.4138C364.556 72 364.143 71.5862 364.143 71.1724L363.319 67.862C362.494 68.6896 361.669 69.5172 360.432 69.931C359.607 70.7586 358.782 71.1724 357.545 71.5862C356.72 72 355.483 72.4138 354.246 72.8276C353.009 73.2414 351.772 73.2414 350.534 73.2414C349.297 73.2414 347.648 73.2414 346.411 72.8276C345.173 72.4138 343.936 72 343.111 71.1724C342.287 70.3448 341.462 69.5172 341.049 68.2758C340.637 67.0345 340.225 65.7931 340.225 64.1379C340.225 62.8965 340.637 61.2414 341.462 60C342.287 58.7586 343.524 57.5172 345.173 56.2758C346.823 55.0345 349.297 54.2069 352.184 53.7931C355.071 52.9655 358.37 52.5517 362.494 52.5517V50.0689C362.494 47.1724 362.081 45.1034 360.844 43.862C359.607 42.6207 357.958 41.7931 355.896 41.7931C354.246 41.7931 353.009 41.7931 352.184 42.2069C351.359 42.6207 350.122 43.0345 349.71 43.4482C348.885 43.862 348.472 44.2758 347.648 44.6896C347.235 45.1034 346.411 45.1034 345.998 45.1034C345.586 45.1034 345.173 45.1034 344.761 44.6896C344.349 44.2758 343.936 44.2758 343.936 43.862L342.287 40.9655ZM362.906 55.862C360.019 55.862 357.545 56.2758 355.896 56.6896C353.834 57.1034 352.184 57.5172 350.947 57.931C349.71 58.3448 348.885 59.1724 348.472 60C348.06 60.8276 347.648 61.6551 347.648 62.4827C347.648 63.3103 347.648 64.1379 348.06 64.9655C348.472 65.7931 348.885 66.2069 349.297 66.6207C349.71 67.0345 350.534 67.4482 350.947 67.4482C351.772 67.4482 352.184 67.862 353.009 67.862C354.246 67.862 355.071 67.862 355.896 67.4482C356.72 67.0345 357.545 67.0345 358.37 66.6207C359.195 66.2069 360.019 65.7931 360.432 65.3793C361.257 64.9655 361.669 64.1379 362.494 63.3103V55.862H362.906Z" fill="#1E1F45"/>
<path d="M386.001 19.4482H378.99V72H386.001V19.4482Z" fill="#1E1F45"/>
<path d="M0 36.8276H13.1966C13.609 39.3104 14.0214 42.207 14.4338 44.6897C15.2585 43.4483 15.6709 42.207 16.4957 40.9656C18.5577 37.2414 21.8568 35.5863 25.5684 36.0001C26.8056 36.0001 28.0427 36.4139 29.6923 36.4139V51.3104C29.2799 51.3104 28.8675 50.8966 28.8675 50.8966C25.9808 49.6552 23.5064 49.6552 20.6197 50.069C18.1453 50.8966 16.4957 52.5518 15.2585 55.0345C15.2585 55.4483 15.2585 55.4483 15.2585 55.8621C15.2585 62.069 15.2585 67.8621 15.2585 74.069V74.8966H0V36.8276Z" fill="#1E1F45"/>
<path d="M88.6646 50.4827C87.8398 50.0689 87.4274 49.6551 86.6026 49.6551C83.3035 48 79.5919 47.5862 75.8804 48C71.3441 48.4137 68.4573 51.7241 68.8697 56.2758C68.8697 59.1724 70.1069 61.6551 72.5812 63.3103C73.8184 64.1379 75.0556 64.1379 76.2928 64.1379C80.4167 64.1379 84.5406 63.3103 88.2522 61.2413H88.6646C88.6646 61.6551 88.6646 61.6551 88.6646 62.0689C88.6646 65.3793 88.6646 69.1034 88.6646 72.4137C88.6646 72.8275 88.6646 73.2413 88.2522 73.2413C84.5406 74.8965 80.8291 75.7241 77.1176 76.1379C73.8184 76.5517 70.9317 76.1379 67.6325 75.7241C60.2094 74.0689 54.8483 68.2758 53.6112 60.4137C52.7864 55.862 53.1988 51.3103 55.2607 47.1724C58.1475 41.3793 62.6838 38.0689 68.8697 36.8275C72.5812 36 75.8804 36.4137 79.5919 36.8275C82.4787 37.2413 84.953 37.6551 87.8398 38.4827C88.2522 38.4827 88.2522 38.8965 88.2522 39.3103C88.2522 43.0344 88.2522 46.7586 88.2522 50.8965V50.4827H88.6646Z" fill="#1E1F45"/>
<path d="M127.43 50.4828C125.781 50.069 124.543 49.2414 122.894 48.8276C120.007 48 116.708 47.5862 113.409 48C110.11 48.8276 108.048 50.8966 107.635 54.2069C107.223 56.2759 107.635 58.7586 108.873 60.4138C110.11 62.4828 112.172 63.3104 114.234 63.7242C118.77 64.138 122.894 63.3104 127.018 61.2414C127.018 61.2414 127.43 61.2414 127.43 60.8276C127.43 61.2414 127.43 61.2414 127.43 61.2414C127.43 64.9655 127.43 68.2759 127.43 72C127.43 72.4138 127.43 72.8276 127.018 72.8276C123.306 74.4828 119.595 75.3104 115.883 75.7242C112.584 76.138 109.285 75.7242 106.398 75.3104C98.9751 73.6552 93.614 67.8621 92.3768 60C91.552 55.4483 91.9644 50.8966 94.0264 46.3449C96.9131 40.5517 101.449 37.2414 107.635 36C110.934 35.1724 114.646 35.5862 118.358 36C121.244 36.4138 124.131 36.8276 126.605 37.6552C127.018 37.6552 127.018 37.6552 127.018 38.069C127.43 42.6207 127.43 46.3449 127.43 50.4828Z" fill="#1E1F45"/>
<path d="M49.4871 36.8276H34.2285V74.8966H49.4871V36.8276Z" fill="#1E1F45"/>
<path d="M147.223 36.8276H131.965V74.8966H147.223V36.8276Z" fill="#1E1F45"/>
<path d="M49.4871 21.931H34.2285V32.6897H49.4871V21.931Z" fill="#1E1F45"/>
<path d="M147.223 21.9312H131.965V32.6898H147.223V21.9312Z" fill="#1E1F45"/>
<path d="M172.793 0H167.02V108H172.793V0Z" fill="#1E1F45"/>
</g>
<defs>
<clipPath id="clip0_901_2919">
<rect width="386" height="108" fill="white"/>
</clipPath>
</defs>
</svg>
