<svg width="58" height="19" viewBox="0 0 58 19" fill="none" xmlns="http://www.w3.org/2000/svg">
<path d="M49.0848 3.02621L52.222 11.6537H45.9475L49.0848 3.02621ZM57.1893 18.7125L50.392 0.411828H48.039L40.9802 18.7125H43.3331L45.1632 13.7452H53.0063L54.8364 18.7125H57.1893ZM36.5357 12.438C36.7972 11.6537 37.0586 10.3465 37.0586 9.03928H34.7057C34.7057 11.1308 34.1828 12.6994 33.6599 13.4837L29.9998 9.03928C31.0455 8.5164 32.0913 7.99353 32.8756 7.20921C33.6599 6.4249 34.1828 5.37915 34.1828 4.3334C34.1828 3.02621 33.6599 1.98046 32.8756 1.19614C32.0913 0.411829 31.0455 0.150391 29.4769 0.150391C28.1697 0.150391 26.8625 0.411829 26.0782 1.19614C25.2939 1.98046 24.771 3.02621 24.771 4.3334C24.771 4.85627 24.771 5.37915 25.0325 5.90202C25.0325 6.68634 25.2939 7.20921 25.5554 7.47065C25.8168 7.73209 26.0782 8.25497 26.6011 8.77784C25.2939 9.30072 24.2482 10.085 23.7253 10.8693C23.2024 11.6537 22.6795 12.6994 22.6795 14.0066C22.6795 15.5752 23.2024 16.8824 24.2482 17.6667C25.2939 18.7125 26.6011 18.9739 28.4312 18.9739C30.5227 18.9739 32.3527 18.1896 33.6599 16.8824L35.2286 18.7125H38.6273L35.49 15.0524C35.7514 14.268 36.2743 13.4837 36.5357 12.438ZM28.6926 17.1439C27.6469 17.1439 26.8625 16.8824 26.0782 16.3595C25.5554 15.8367 25.0325 15.0524 25.0325 14.0066C25.0325 13.2223 25.2939 12.438 25.5554 11.9151C26.0782 11.3922 26.6011 10.8693 27.6469 10.3465L32.0913 15.5752C31.307 16.621 29.9998 17.1439 28.6926 17.1439ZM27.124 4.59483C27.124 3.81052 27.3854 3.28765 27.6469 2.76477C28.1697 2.24189 28.6926 2.24189 29.2155 2.24189C30.7841 2.24189 31.307 3.02621 31.307 4.59483C31.307 5.37915 31.0456 5.90202 30.5227 6.4249C29.9998 6.94778 29.2155 7.47065 28.6926 7.73209C27.6469 6.4249 27.124 5.37915 27.124 4.59483ZM14.3135 0.411828L9.60764 16.3595L4.64032 0.411828H0.71875V18.7125H3.07169V2.50333L8.30045 18.7125H10.6534L15.8821 2.50333V18.7125H18.2351V0.411828H14.3135Z" fill="white"/>
</svg>
