<svg width="136" height="34" viewBox="0 0 136 34" fill="none" xmlns="http://www.w3.org/2000/svg">
<path d="M133.979 30.2474C134.763 29.7245 135.025 28.9402 135.025 27.8945C135.025 26.8487 134.763 25.803 133.979 25.2801C133.195 24.7572 132.149 24.4958 130.842 24.4958H128.75V20.8357H127.182V30.7703H131.365C132.41 31.0317 133.195 30.7703 133.979 30.2474ZM130.842 26.0644C131.626 26.0644 132.149 26.0644 132.672 26.3259C133.195 26.5873 133.195 27.1102 133.195 27.633C133.195 28.1559 132.933 28.6788 132.672 28.9402C132.41 29.2017 131.887 29.4631 131.103 29.4631H128.75V26.0644H130.842ZM125.352 22.4043V20.8357H116.724V22.4043H120.123V31.0317H121.691V22.4043H125.352ZM113.325 29.7245C110.711 29.7245 109.665 28.4174 109.665 25.803C109.665 24.7572 109.927 23.7115 110.45 23.1886C110.972 22.6657 111.757 22.4043 113.064 22.4043C113.848 22.4043 114.633 22.4043 115.417 22.9272V21.0971C114.633 20.8357 113.587 20.5742 112.803 20.5742C111.234 20.5742 109.927 21.0971 109.142 21.8814C108.358 22.6657 107.835 23.9729 107.835 25.5415C107.835 27.1102 108.358 28.4174 109.142 29.4631C109.927 30.5089 111.234 30.7703 112.803 30.7703C113.848 30.7703 114.894 30.5089 115.417 30.2474V28.6788C114.894 29.4631 114.11 29.7245 113.325 29.7245ZM104.698 29.7245C105.482 28.9402 106.005 27.633 106.005 25.803C106.005 22.4043 104.437 20.5742 101.299 20.5742C99.7306 20.5742 98.6849 21.0971 97.9006 21.8814C97.1162 22.6657 96.5934 23.9729 96.5934 25.803C96.5934 27.3716 97.1162 28.6788 97.9006 29.7245C98.6849 30.5089 99.9921 31.0317 101.561 31.0317C102.606 31.2932 103.914 30.7703 104.698 29.7245ZM98.9463 28.6788C98.4234 28.1559 98.162 27.1102 98.162 25.803C98.162 23.45 99.2077 22.1428 101.038 22.1428C102.084 22.1428 102.868 22.4043 103.391 22.9272C103.914 23.45 104.175 24.4958 104.175 25.803C104.175 28.1559 103.129 29.4631 101.299 29.4631C100.253 29.7245 99.4692 29.4631 98.9463 28.6788ZM88.7502 27.633L85.8744 20.8357H83.5215V30.7703H85.0901V23.9729V22.6657L85.613 23.9729L87.9659 29.2017H89.5345L91.8875 23.9729L92.4104 22.6657V23.9729V30.7703H93.979V20.8357H91.626L88.7502 27.633ZM78.0313 24.2344L78.5542 23.1886V24.2344V30.7703H80.1228V20.8357H78.5542L73.8483 27.633L73.3254 28.6788V27.3716V20.8357H71.7568V30.7703H73.3254L78.0313 24.2344ZM62.345 20.8357V25.803L58.6849 20.8357H56.5934L60.5149 25.803L56.3319 31.0317H58.4234L62.6064 25.803V31.0317H64.1751V25.803L68.3581 31.0317H70.4496L66.2666 25.803L70.1881 20.8357H68.0966L64.4365 25.803V20.8357H62.345ZM52.4104 24.2344L52.9332 23.1886V24.2344V30.7703H54.5019V20.8357H52.9332L48.2274 27.633L47.7045 28.6788V27.3716V20.8357H46.1359V30.7703H47.7045L52.4104 24.2344ZM42.7372 30.2474C43.5215 29.7245 43.7829 29.2017 43.7829 28.1559C43.7829 27.3716 43.5215 26.8487 43.26 26.5873C42.7372 26.0644 42.2143 26.0644 41.6914 25.803C42.2143 25.5415 42.7372 25.2801 42.9986 25.0187C43.26 24.4958 43.5215 24.2344 43.5215 23.45C43.5215 22.4043 43.26 21.8814 42.4757 21.3585C41.9528 21.0971 40.9071 20.8357 39.5999 20.8357H35.9398V30.7703H39.8613C41.1685 31.0317 41.9528 30.7703 42.7372 30.2474ZM39.3385 26.5873C40.9071 26.5873 41.6914 27.1102 41.6914 28.1559C41.6914 28.6788 41.43 29.2017 41.1685 29.2017C40.9071 29.4631 40.3842 29.4631 39.5999 29.4631H36.9855V26.3259H39.3385V26.5873ZM39.5999 22.4043C40.3842 22.4043 40.6457 22.4043 41.1685 22.6657C41.43 22.9272 41.6914 23.1886 41.6914 23.7115C41.6914 23.9729 41.6914 24.2343 41.43 24.4958C41.43 24.7572 41.1685 24.7572 40.9071 25.0187C40.6457 25.0187 40.3842 25.2801 40.1228 25.2801C39.8613 25.2801 39.5999 25.2801 39.3385 25.2801H37.247V22.6657H39.5999V22.4043ZM26.7894 23.1886C26.7894 23.1886 26.7894 22.9272 26.7894 22.6657C26.7894 22.4043 26.7894 22.4043 26.7894 22.1428H30.1881V29.2017H25.4823C26.528 28.1559 26.7894 26.0644 26.7894 23.1886ZM32.0182 29.4631V20.8357H25.4823V22.4043C25.4823 24.2344 25.2208 25.5415 24.9594 26.5873C24.6979 27.633 24.4365 28.4174 23.9136 29.2017H22.8679V33.6461H24.4365V30.7703H32.0182V33.6461H33.5868V29.2017H32.0182V29.4631ZM17.3777 22.4043C18.162 22.4043 18.9463 22.6657 19.2077 23.1886C19.7306 23.7115 19.9921 24.2344 19.7306 25.2801H14.5019C14.7633 23.1886 15.8091 22.4043 17.3777 22.4043ZM18.162 29.7245C17.1162 29.7245 16.0705 29.4631 15.5476 28.9402C15.0247 28.4174 14.7633 27.633 14.5019 26.5873H21.8221V26.0644C21.8221 24.4958 21.5607 23.1886 20.7764 22.4043C19.9921 21.3585 18.9463 21.0971 17.3777 21.0971C16.0705 21.0971 14.7633 21.62 13.979 22.4043C13.1947 23.45 12.6718 24.4958 12.6718 26.0644C12.6718 27.633 13.1947 28.9402 13.979 29.986C14.7633 30.7703 16.0705 31.2932 17.9006 31.2932C19.2077 31.2932 20.2535 31.0317 20.7764 30.5089V28.9402C20.2535 29.4631 19.2077 29.7245 18.162 29.7245ZM8.75023 20.8357V25.0187H3.52147V20.8357H1.69141V30.7703H3.26003V26.3259H8.48879V30.7703H10.0574V20.8357H8.75023Z" fill="white"/>
<path d="M51.1018 5.14952C50.5789 4.88808 50.5789 4.62665 50.5789 3.84233C50.5789 3.31946 50.8403 2.79658 51.1018 2.53514C51.3632 2.27371 51.8861 2.01227 52.6704 2.01227H55.0233V5.14952H52.9318C52.1475 5.6724 51.3632 5.41096 51.1018 5.14952ZM54.7619 10.9012H56.3305V0.966516H52.1475C51.1018 0.966516 50.056 1.22795 49.5331 1.75083C48.7488 2.27371 48.4874 3.05802 48.4874 4.10377C48.4874 5.6724 49.2717 6.71815 50.8403 6.97959L48.226 10.9012H50.3175L52.6704 6.97959H54.7619V10.9012ZM45.0887 1.75083C44.5658 1.22795 43.5201 0.705078 41.9514 0.705078C40.9057 0.705078 39.8599 0.966516 38.8142 1.22795V2.79658C39.5985 2.27371 40.6443 2.01227 41.69 2.01227C42.4743 2.01227 43.2586 2.27371 43.5201 2.53514C44.0429 2.79658 44.0429 3.31946 44.0429 4.10377V4.62665H43.7815C43.5201 4.62665 43.2586 4.62665 42.9972 4.62665C42.7358 4.62665 42.4743 4.62665 42.2129 4.62665C40.6443 4.62665 39.5985 4.88808 38.8142 5.41096C38.0299 5.93384 37.7684 6.71815 37.7684 7.7639C37.7684 8.80965 38.0299 9.59397 38.5527 10.1168C39.0756 10.6397 39.8599 10.9012 40.9057 10.9012C42.4743 10.9012 43.5201 10.3783 44.3044 9.33253V10.9012H45.873V4.88808C46.1344 3.31946 45.6116 2.27371 45.0887 1.75083ZM43.7815 8.80965C43.2586 9.33253 42.7358 9.59397 41.69 9.59397C41.1671 9.59397 40.6443 9.33253 40.1214 9.07109C39.8599 8.80965 39.5985 8.28678 39.5985 7.7639C39.5985 7.24103 39.8599 6.71815 40.1214 6.45671C40.6443 6.45671 41.4286 6.19527 42.4743 6.19527C43.2586 6.19527 43.7815 6.19527 44.3044 6.19527V6.97959C44.3044 7.7639 44.0429 8.54822 43.7815 8.80965ZM29.6639 9.07109C30.1867 7.7639 30.4482 5.6724 30.4482 2.53514V2.27371H34.1083V10.9012H35.6769V0.966516H28.8795V1.75083C28.8795 4.62665 28.6181 6.71815 28.3567 7.7639C28.0952 9.07109 27.5724 9.59397 27.0495 9.59397C26.788 9.59397 26.788 9.59397 26.5266 9.59397V11.1626C26.788 11.1626 27.0495 11.424 27.3109 11.424C28.3567 11.1626 29.141 10.3783 29.6639 9.07109ZM22.0822 4.10377L22.605 3.05802V4.10377V10.6397H24.1737V0.966516H22.605L17.8992 7.7639L17.3763 8.80965V7.50246V0.966516H15.8076V10.9012H17.3763L22.0822 4.10377ZM6.39588 0.966516V5.93384L2.73575 0.966516H0.64425L4.56582 5.93384L0.382812 11.1626H2.47432L6.65732 5.93384V11.1626H8.22595V5.93384L12.409 11.1626H14.5005L10.3175 5.93384L13.7161 0.966516H11.6246L7.96451 5.6724V0.966516H6.39588Z" fill="white"/>
</svg>
