<svg width="135" height="39" viewBox="0 0 135 39" fill="none" xmlns="http://www.w3.org/2000/svg">
<path d="M0.355188 6.01227C0.616626 5.48939 1.1395 5.22795 1.66238 4.96652C2.18525 4.70508 2.96957 4.70508 3.75388 4.70508C4.27676 4.70508 4.79963 4.70508 5.32251 4.96652C5.84538 4.96652 6.10682 5.22795 6.36826 5.48939C6.6297 5.75083 6.89114 6.01227 7.15257 6.27371C7.41401 6.53514 7.41401 7.05802 7.41401 7.31946C7.41401 7.5809 7.41401 7.84233 7.41401 7.84233C7.41401 8.10377 7.15257 8.36521 7.15257 8.36521C6.89114 8.62665 6.6297 8.88808 6.6297 9.14952C6.36826 9.14952 6.10682 9.41096 5.84538 9.41096C6.36826 9.6724 6.89114 9.93384 7.15257 10.4567C7.41401 10.9796 7.67545 11.5025 7.67545 12.0253C7.67545 12.5482 7.67545 12.8097 7.41401 13.3325C7.15257 13.594 6.89114 13.8554 6.36826 14.1168C6.10682 14.3783 5.58395 14.6397 5.32251 14.9012C4.79963 14.9012 4.27676 14.9012 3.75388 14.9012C3.49244 14.9012 3.231 14.9012 2.70813 14.9012C2.44669 14.9012 1.92382 14.6397 1.66238 14.6397C1.40094 14.3783 1.1395 14.3783 0.878064 14.1168C0.616626 13.8554 0.355188 13.594 0.09375 13.3325L0.616627 12.5482L0.878064 12.2868C0.878064 12.2868 1.1395 12.2868 1.40094 12.5482C1.66238 12.5482 1.66238 12.8097 1.92382 12.8097C2.18525 13.0711 2.44669 13.0711 2.70813 13.3325C2.96957 13.3325 3.231 13.594 3.75388 13.594C4.01532 13.594 4.27676 13.594 4.53819 13.594C4.79963 13.0711 5.06107 13.0711 5.06107 12.8097C5.32251 12.5482 5.32251 12.5482 5.58395 12.2868C5.58395 12.0253 5.84538 11.7639 5.84538 11.7639C5.84538 11.241 5.58395 10.9796 5.32251 10.7182C4.79963 10.4567 4.27676 10.4567 3.49244 10.4567H2.18525V8.88809H3.23101C4.01532 8.88809 4.53819 8.88808 4.79963 8.62665C5.06107 8.36521 5.32251 8.10377 5.32251 7.5809C5.32251 7.31946 5.06107 6.79658 4.79963 6.79658C4.79963 6.53514 4.27676 6.27371 3.49244 6.27371C3.23101 6.27371 2.70813 6.27371 2.44669 6.27371C2.18525 6.27371 1.92382 6.53514 1.92382 6.53514C1.66238 6.53514 1.66238 6.79658 1.40094 6.79658H1.1395H0.878064C0.878064 6.79658 0.616627 6.79658 0.616627 6.53514L0.355188 6.01227Z" fill="#F6F6F6"/>
<path d="M9.50725 6.27371C10.553 5.22795 11.8602 4.70508 13.4288 4.70508C13.9517 4.70508 14.4746 4.70508 14.9974 4.96652C15.5203 5.22795 15.7818 5.48939 16.0432 5.75083C16.3046 6.01227 16.5661 6.53514 16.8275 7.05802C17.089 7.5809 17.089 8.10377 17.089 8.62665V14.9012H16.0432C15.7818 14.9012 15.7818 14.9012 15.5203 14.9012L15.2589 14.6397L14.9974 13.8554C14.736 14.1168 14.4746 14.3783 14.2131 14.3783C14.2131 14.3783 13.9517 14.3783 13.6903 14.6397C13.4288 14.6397 13.1674 14.9012 12.9059 14.9012C12.6445 14.9012 12.3831 14.9012 11.8602 14.9012C11.3373 14.9012 11.0759 14.9012 10.8144 14.6397C10.553 14.6397 10.2916 14.3783 10.0301 14.1168C9.50725 14.1168 9.24581 13.8554 9.24581 13.594C8.98438 13.0711 8.98438 12.8097 8.98438 12.2868C8.98438 12.0253 8.98438 11.5025 9.24581 11.241C9.50725 10.7182 9.76869 10.4567 10.2916 10.1953C10.8144 9.93384 11.3373 9.6724 12.1216 9.41096C12.9059 9.14952 13.9517 9.14952 14.9974 9.14952V8.62665C14.9974 7.84233 14.736 7.31946 14.4746 7.05802C14.2131 6.53514 13.6903 6.27371 13.1674 6.27371C12.6445 6.27371 12.3831 6.27371 12.1216 6.53514C11.8602 6.53514 11.5988 6.79658 11.5988 6.79658C11.3373 6.79658 11.3373 7.05802 11.0759 7.05802C10.8144 7.05802 10.8144 7.31946 10.553 7.31946C10.2916 7.31946 10.2916 7.31946 10.2916 7.31946L10.0301 7.05802L9.50725 6.27371ZM14.9974 10.4567C14.2131 10.4567 13.6903 10.4567 13.1674 10.7182C12.6445 10.7182 12.1216 10.9796 11.8602 10.9796C11.5988 11.241 11.3373 11.241 11.0759 11.5025C11.0759 11.7639 11.0759 12.0253 11.0759 12.2868C11.0759 12.5482 11.0759 12.8097 11.0759 12.8097C11.0759 13.0711 11.3373 13.0711 11.3373 13.3325C11.5988 13.3325 11.5988 13.3325 11.8602 13.3325C12.1216 13.3325 12.1216 13.3325 12.3831 13.3325C12.9059 13.3325 13.4288 13.3325 13.6903 13.0711C14.2131 13.0711 14.736 12.8097 14.9974 12.2868V10.4567Z" fill="#F6F6F6"/>
<path d="M21.5368 6.27538C22.0597 5.7525 22.3211 5.49106 22.844 4.96819C23.3669 4.70675 23.8898 4.44531 24.6741 4.44531C25.1969 4.44531 25.7198 4.44531 26.2427 4.70675C26.7656 5.22963 27.2885 5.49106 27.5499 6.01394C27.8113 6.53682 28.0728 7.05969 28.3342 7.58257C28.5956 8.10544 28.5956 8.88976 28.5956 9.67407C28.5956 10.4584 28.5956 10.9813 28.3342 11.7656C28.0728 12.5499 27.8113 13.0728 27.2885 13.5956C27.027 14.1185 26.5041 14.38 25.9813 14.6414C25.4584 14.9028 24.9355 15.1643 24.1512 15.1643C23.6283 15.1643 23.1054 15.1643 22.5826 14.9028C22.0597 14.6414 21.7983 14.38 21.5368 14.1185V18.3015H19.4453V4.96819H20.7525C21.0139 4.96819 21.2754 5.22963 21.2754 5.49106L21.5368 6.27538ZM21.5368 12.2884C21.7983 12.8113 22.3211 13.0728 22.5826 13.0728C22.844 13.3342 23.3669 13.3342 23.6283 13.3342C24.4126 13.3342 25.1969 13.0728 25.4584 12.5499C25.9813 12.027 26.2427 10.9813 26.2427 9.93551C26.2427 9.41263 26.2427 8.88976 25.9813 8.36688C25.9813 7.84401 25.7198 7.58257 25.4584 7.32113C25.1969 7.05969 24.9355 6.79825 24.6741 6.79825C24.4126 6.79825 24.1512 6.53682 23.6283 6.53682C23.1054 6.53682 22.5826 6.53682 22.3211 6.79825C22.0597 7.05969 21.5368 7.32113 21.2754 7.84401V12.2884H21.5368Z" fill="#F6F6F6"/>
<path d="M39.3133 4.96652L33.8231 17.777C33.8231 18.0384 33.5616 18.0384 33.5616 18.0384C33.5616 18.0384 33.3002 18.0384 33.0388 18.0384H31.4701L33.3002 14.1168L29.1172 4.70508H30.9473C31.2087 4.70508 31.2087 4.70508 31.4701 4.70508L31.7316 4.96652L34.0845 10.7181C34.0845 10.9796 34.0845 10.9796 34.3459 11.241C34.3459 11.5025 34.3459 11.5025 34.6074 11.7639C34.6074 11.5025 34.6074 11.5025 34.8688 11.241C34.8688 10.9796 34.8688 10.9796 35.1303 10.7181L37.2218 5.22795C37.2218 5.22795 37.2218 4.96652 37.4832 4.96652H37.7446H39.3133Z" fill="#F6F6F6"/>
<path d="M46.111 2.87638C45.5881 2.87638 44.8038 3.13782 44.5424 3.13782C44.0195 3.39925 43.7581 3.66069 43.4966 3.92213C43.2352 4.18357 42.9738 4.70644 42.7123 5.22932C42.4509 5.7522 42.4509 6.27507 42.4509 7.05939C42.7123 6.53651 43.2352 6.01363 43.7581 5.7522C44.2809 5.49076 45.0653 5.22932 45.8496 5.22932C46.6339 5.22932 47.1568 5.22932 47.6796 5.49076C48.2025 5.7522 48.7254 6.01363 48.9868 6.53651C49.2483 7.05939 49.5097 7.58226 49.7711 8.10514C50.0326 8.62801 50.0326 9.41233 50.0326 10.1966C50.0326 10.981 50.0326 11.5038 49.7711 12.2881C49.5097 12.811 49.2483 13.3339 48.7254 13.8568C48.2025 14.3796 47.6796 14.6411 47.1568 14.9025C46.6339 15.164 45.8496 15.164 45.0653 15.164C44.2809 15.164 43.7581 15.164 43.2352 14.9025C42.7123 14.6411 42.1894 14.3796 41.6666 13.8568C41.1437 13.3339 40.8823 12.5496 40.6208 11.7653C40.6208 10.7195 40.3594 9.67376 40.3594 8.36658C40.3594 7.32082 40.3594 6.27507 40.6208 5.49076C40.8823 4.70644 41.1437 3.92213 41.6666 3.13782C42.1894 2.3535 42.7123 1.83063 43.2352 1.56919C44.0195 1.04631 44.8038 1.04631 45.8496 0.784875L49.5097 0.523438V1.56919C49.5097 1.83063 49.5097 2.09207 49.5097 2.09207C49.2483 2.61494 49.2483 2.61494 48.9868 2.61494L46.111 2.87638ZM45.3267 13.3339C46.111 13.3339 46.8953 13.0725 47.4182 12.5496C47.9411 12.0267 48.2025 11.2424 48.2025 10.1966C48.2025 9.15089 47.9411 8.36657 47.4182 7.8437C46.8953 7.32082 46.3724 7.05939 45.3267 7.05939C44.5424 7.05939 43.7581 7.32082 43.2352 7.8437C42.7123 8.36657 42.4509 9.15089 42.4509 10.1966C42.4509 11.2424 42.7123 12.2881 43.2352 12.811C43.7581 13.0725 44.5424 13.3339 45.3267 13.3339Z" fill="#F6F6F6"/>
<path d="M53.6894 9.93384C53.6894 10.4567 53.6894 10.9796 53.9509 11.5025C54.2123 12.0253 54.2123 12.2868 54.4738 12.5482C54.9966 12.8097 55.2581 13.0711 55.5195 13.0711C55.7809 13.3325 56.3038 13.3325 56.5653 13.3325C57.0881 13.3325 57.3496 13.3325 57.611 13.0711C58.1339 13.0711 58.3953 13.0711 58.6568 12.8097C58.9182 12.8097 59.1796 12.5482 59.1796 12.5482C59.4411 12.5482 59.4411 12.2868 59.7025 12.2868C59.9639 12.2868 59.964 12.2868 59.964 12.5482L60.4868 13.3325C60.2254 13.594 59.9639 13.8554 59.7025 14.1168C59.4411 14.3783 59.1796 14.3783 58.6568 14.6397C58.3953 14.6397 57.8724 14.9012 57.611 14.9012C57.3496 14.9012 56.8267 14.9012 56.5653 14.9012C55.7809 14.9012 55.2581 14.9012 54.7352 14.6397C54.2123 14.3783 53.6894 14.1168 53.1666 13.594C52.6437 13.0711 52.3823 12.5482 52.1208 12.0253C51.8594 11.241 51.8594 10.7182 51.8594 9.6724C51.8594 8.88809 51.8594 8.36521 52.1208 7.84233C52.3823 7.31946 52.6437 6.79658 53.1666 6.27371C53.428 5.75083 53.9509 5.22795 54.4738 4.96652C54.9966 4.70508 55.7809 4.70508 56.5653 4.70508C57.0881 4.70508 57.8724 4.70508 58.3953 4.96652C58.9182 5.22795 59.4411 5.48939 59.7025 5.75083C59.9639 6.01227 60.4868 6.53514 60.4868 7.05802C60.7483 7.5809 60.7483 8.36521 60.7483 8.88809C60.7483 9.14952 60.7483 9.41096 60.7483 9.6724L60.4868 9.93384H53.6894ZM58.6568 8.62665C58.6568 8.36521 58.6568 8.10377 58.6568 7.84233C58.6568 7.5809 58.3953 7.31946 58.1339 7.05802C57.8724 6.79658 57.611 6.53514 57.3496 6.53514C57.0881 6.53514 56.8267 6.27371 56.3038 6.27371C55.5195 6.27371 54.9966 6.53514 54.4738 7.05802C53.9509 7.5809 53.6894 8.10377 53.6894 8.88809H58.6568V8.62665Z" fill="#F6F6F6"/>
<path d="M76.9603 14.9012H75.3916C75.1302 14.9012 74.6073 14.9012 74.6073 14.6397C74.6073 14.3783 74.3459 14.3783 74.0845 14.1168L72.5158 11.241C72.2544 10.9796 72.2544 10.7182 71.9929 10.7182C71.7315 10.4567 71.4701 10.4567 71.2086 10.4567H70.4243V14.9012H68.3328V10.4567H67.5485C67.2871 10.4567 67.0256 10.4567 66.7642 10.7182C66.5028 10.7182 66.2413 10.9796 66.2413 11.241L64.6727 14.1168C64.6727 14.3783 64.4113 14.6397 64.1498 14.6397C63.8884 14.6397 63.6269 14.9012 63.3655 14.9012H61.7969L63.8884 10.7182C64.1498 10.4567 64.1498 10.1953 64.4113 9.93384C64.6727 9.6724 64.9341 9.6724 65.1956 9.41096C64.9341 9.41096 64.6727 9.14952 64.6727 9.14952C64.4112 8.88808 64.4113 8.88808 64.1498 8.62665L61.7969 4.96652H63.3655C63.6269 4.96652 63.6269 4.96652 63.8884 5.22795C64.1498 5.22795 64.1498 5.48939 64.1498 5.75083L65.9799 8.62665C66.5028 8.62665 66.5028 8.88809 66.7642 8.88809C67.0256 8.88809 67.2871 9.14952 67.5485 9.14952H68.3328V4.96652H70.4243V9.14952H71.2086C71.7315 9.14952 72.2544 8.88808 72.5158 8.62665L74.3459 5.75083C74.0845 5.22795 74.3459 5.22795 74.3459 4.96652C74.6073 4.96652 74.6073 4.70508 74.8688 4.70508H76.4374L74.0845 8.36521C73.823 8.62665 73.823 8.88809 73.5616 8.88809C73.3001 9.14952 73.3001 9.14952 73.0387 9.14952C73.3001 9.14952 73.5616 9.41096 73.823 9.6724C74.0845 10.1953 74.3459 10.4567 74.3459 10.7182L76.9603 14.9012Z" fill="#F6F6F6"/>
<path d="M86.8931 4.9668V14.9014H84.8016V10.1956H80.3571V14.9014H78.2656V4.9668H80.3571V8.62693H84.8016V4.9668H86.8931Z" fill="#F6F6F6"/>
<path d="M89.2494 6.27371C90.2952 5.22795 91.6024 4.70508 93.171 4.70508C93.6939 4.70508 94.2168 4.70508 94.7396 4.96652C95.2625 5.22795 95.5239 5.48939 95.7854 5.75083C96.0468 6.01227 96.3083 6.53514 96.5697 7.05802C96.8311 7.5809 96.8311 8.10377 96.8311 8.62665V14.9012H95.7854C95.5239 14.9012 95.5239 14.9012 95.2625 14.9012L95.0011 14.6397L94.7396 13.8554C94.4782 14.1168 94.2168 14.3783 93.9553 14.3783C93.6939 14.6397 93.4324 14.6397 93.171 14.9012C92.9096 14.9012 92.6481 15.1626 92.3867 15.1626C92.1253 15.1626 91.8638 15.1626 91.3409 15.1626C90.8181 15.1626 90.5566 15.1626 90.2952 14.9012C90.0337 14.9012 89.7723 14.6397 89.5109 14.3783C89.2494 14.1168 88.988 13.8554 88.988 13.594C88.7266 13.3325 88.7266 12.8097 88.7266 12.5482C88.7266 12.2868 88.7266 11.7639 88.988 11.5025C89.2494 10.7182 89.5109 10.4567 90.0338 10.1953C90.5566 9.93384 91.0795 9.6724 91.8638 9.41096C92.6481 9.14952 93.6939 9.14952 94.7396 9.14952V8.62665C94.7396 7.84233 94.4782 7.31946 94.2168 7.05802C93.9553 6.79658 93.4324 6.53514 92.9096 6.53514C92.3867 6.53514 92.1253 6.53514 91.8638 6.79658C91.6024 6.79658 91.3409 7.05802 91.0795 7.05802C90.8181 7.05802 90.8181 7.31946 90.5566 7.31946C90.2952 7.31946 90.2952 7.5809 90.0338 7.5809C89.7723 7.5809 89.7723 7.5809 89.7723 7.5809L89.5109 7.31946L89.2494 6.27371ZM94.7396 10.4567C93.9553 10.4567 93.4324 10.4567 92.9096 10.7182C92.3867 10.7182 91.8638 10.9796 91.6024 10.9796C91.3409 11.241 91.0795 11.241 90.8181 11.5025C90.5566 11.7639 90.5566 12.0253 90.5566 12.2868C90.5566 12.5482 90.5566 12.8097 90.5566 12.8097C90.5566 13.0711 90.8181 13.0711 90.8181 13.3325C91.0795 13.3325 91.0795 13.594 91.3409 13.594C91.6024 13.594 91.6024 13.594 91.8638 13.594C92.3867 13.594 92.9096 13.594 93.171 13.3325C93.6939 13.0711 93.9553 12.8097 94.2168 12.5482V10.4567H94.7396Z" fill="#F6F6F6"/>
<path d="M106.502 4.9668V14.9014H104.411V10.7184H103.888C103.627 10.7184 103.627 10.7184 103.365 10.7184C103.365 10.7184 103.104 10.7184 103.104 10.9799L102.842 11.2413L102.581 11.5027L100.751 14.1171C100.489 14.3786 100.489 14.64 100.228 14.64C99.9665 14.64 99.7051 14.9014 99.4436 14.9014H97.875L100.489 11.2413C101.012 10.7184 101.274 10.457 101.797 10.457C101.274 10.457 101.012 10.1956 100.489 10.1956C100.228 9.93412 99.9665 9.93412 99.7051 9.67268C99.4436 9.41124 99.4436 9.1498 99.1822 8.88837C99.1822 8.62693 98.9208 8.36549 98.9208 8.10405C98.9208 7.84261 98.9208 7.31974 99.1822 7.0583C99.4436 6.79686 99.4436 6.27399 99.9665 6.01255C100.228 5.48967 100.751 5.22823 101.274 5.22823C101.797 4.9668 102.319 4.9668 103.104 4.9668H106.502ZM104.411 9.41124V6.27399H102.842C102.581 6.27399 102.319 6.27399 102.058 6.53542C101.797 6.53542 101.535 6.79686 101.535 6.79686C101.274 7.0583 101.274 7.0583 101.274 7.31974C101.274 7.58118 101.274 7.58118 101.274 7.84261C101.274 8.36549 101.535 8.62693 101.797 8.88837C102.058 9.1498 102.581 9.41124 103.104 9.41124H104.411Z" fill="#F6F6F6"/>
<path d="M9.50636 25.0977V35.0323H7.41485V30.3264H2.97041V35.0323H0.878906V25.0977H2.97041V28.7578H7.41485V25.0977H9.50636Z" fill="#F6F6F6"/>
<path d="M13.4274 30.0647C13.4274 30.5876 13.4274 31.1104 13.6889 31.6333C13.9503 32.1562 13.9503 32.4176 14.2118 32.6791C14.4732 32.9405 14.7346 33.202 14.9961 33.202C15.2575 33.4634 15.7804 33.4634 16.0418 33.4634C16.5647 33.4634 16.8261 33.4634 17.0876 33.202C17.349 33.202 17.6104 32.9405 17.8719 32.9405C18.1333 32.9405 18.3948 32.6791 18.3948 32.6791C18.6562 32.6791 18.6562 32.4176 18.9176 32.4176C19.1791 32.4176 19.1791 32.4176 19.1791 32.6791L19.702 33.4634C19.4405 33.7248 19.1791 33.9863 18.9176 34.2477C18.6562 34.5091 18.3948 34.5091 17.8719 34.7706C17.6104 34.7706 17.0876 35.032 16.8261 35.032C16.5647 35.032 16.0418 35.032 15.7804 35.032C14.9961 35.032 14.4732 35.032 13.9503 34.7706C13.4274 34.5091 12.9046 34.2477 12.3817 33.7248C11.8588 33.2019 11.5974 32.6791 11.3359 32.1562C11.5974 31.3719 11.3359 30.5876 11.3359 29.8033C11.3359 29.0189 11.3359 28.4961 11.5974 27.9732C11.8588 27.4503 12.1203 26.9274 12.6431 26.4046C13.166 25.8817 13.6889 25.3588 14.2118 25.0974C14.7346 24.8359 15.5189 24.8359 16.3033 24.8359C16.8261 24.8359 17.6104 24.8359 18.1333 25.0974C18.6562 25.3588 19.1791 25.6203 19.4405 25.8817C19.702 26.1431 20.2248 26.666 20.2248 27.1889C20.4863 27.7118 20.4863 28.4961 20.4863 29.0189C20.4863 29.2804 20.4863 29.5418 20.4863 29.8033L20.2248 30.0647H13.4274ZM18.6562 28.7575C18.6562 28.4961 18.6562 27.9732 18.3948 27.7118C18.3948 27.4503 18.1333 27.1889 17.8719 26.9274C17.6104 26.666 17.349 26.4046 17.0876 26.4046C16.8261 26.4046 16.5647 26.1431 16.0418 26.1431C15.2575 26.1431 14.7346 26.4046 14.2118 26.9274C13.6889 27.4503 13.4274 27.9732 13.4274 28.7575H18.6562Z" fill="#F6F6F6"/>
<path d="M33.0379 33.4642V37.9087C33.0379 38.1701 33.0379 38.1701 32.7764 38.4316C32.7764 38.4316 32.515 38.693 32.2535 38.693H30.9464V35.2943H23.1032V38.1701C23.1032 38.4316 23.1032 38.4316 22.8418 38.693C22.8418 38.693 22.5803 38.9544 22.3189 38.9544H21.0117V33.9871H21.2732C21.5346 33.9871 21.796 33.9871 22.0575 33.9871C22.3189 33.9871 22.5803 33.7257 22.5803 33.4642C22.8418 33.2028 23.1032 32.9414 23.1032 32.6799C23.3647 32.4185 23.3647 31.8956 23.6261 31.1113C23.8875 30.5884 23.8875 29.8041 23.8875 28.7583C23.8875 27.974 24.149 26.6668 24.149 25.6211H30.6849V33.9871H33.0379V33.4642ZM29.1163 33.4642V26.6668H26.2405C26.2405 27.7126 25.979 28.4969 25.979 29.0198C25.979 29.8041 25.7176 30.327 25.7176 30.8499C25.4562 31.3727 25.4562 31.8956 25.1947 32.4185C24.9333 32.9414 24.9333 33.2028 24.6718 33.4642H29.1163Z" fill="#F6F6F6"/>
<path d="M38.5268 25.0977C39.0496 25.0977 39.5725 25.0977 40.0954 25.3591C40.6183 25.3591 40.8797 25.6205 41.1411 25.882C41.4026 26.1434 41.664 26.4048 41.664 26.6663C41.9254 26.9277 41.9254 27.1892 41.9254 27.712C41.9254 27.9735 41.9254 28.2349 41.9254 28.4963C41.9254 28.7578 41.664 29.0192 41.664 29.2807C41.4026 29.5421 41.4026 29.8035 41.1411 29.8035C40.8797 30.065 40.6183 30.065 40.0954 30.3264C40.8797 30.3264 41.4026 30.5879 41.664 31.1107C42.1869 31.3722 42.1869 31.895 42.1869 32.6794C42.1869 33.2022 42.1869 33.7251 41.9254 33.9865C41.664 34.248 41.4026 34.7709 41.1411 34.7709C40.8797 35.0323 40.3568 35.2937 39.8339 35.2937C39.3111 35.2937 38.7882 35.5552 38.2653 35.5552H34.3438V25.0977H38.5268ZM36.6967 26.4048V29.2807H38.5268C38.7882 29.2807 39.0496 29.2807 39.3111 29.2807C39.5725 29.2807 39.8339 29.0192 39.8339 29.0192C40.0954 28.7578 40.0954 28.7578 40.0954 28.4963C40.0954 28.2349 40.3568 27.9735 40.3568 27.9735C40.3568 27.712 40.3568 27.712 40.3568 27.4506C40.3568 27.1892 40.0954 27.1892 40.0954 26.9277C39.8339 26.9277 39.8339 26.6663 39.5725 26.6663C39.3111 26.6663 39.0496 26.6663 38.7882 26.6663H36.6967V26.4048ZM38.5268 33.4637C39.0496 33.4637 39.5725 33.2022 39.8339 32.9408C40.0954 32.6794 40.3568 32.4179 40.3568 31.895C40.3568 31.6336 40.3568 31.6336 40.3568 31.3722C40.3568 31.1107 40.0954 31.1107 40.0954 30.8493C39.8339 30.8493 39.8339 30.5879 39.5725 30.5879C39.3111 30.5879 39.0496 30.5879 38.7882 30.5879H36.6967V33.4637H38.5268Z" fill="#F6F6F6"/>
<path d="M53.166 25.0977V35.0323H51.0745V28.7578C51.0745 28.4963 51.0745 28.4963 51.0745 28.2349C51.0745 27.9735 51.0745 27.9735 51.0745 27.712C51.0745 27.9735 51.0744 27.9735 50.813 28.2349C50.813 28.2349 50.813 28.4963 50.5516 28.4963L46.1071 34.5094L45.8457 34.7709C45.8457 34.7709 45.5843 35.0323 45.3228 35.0323H44.0156V25.0977H46.1071V31.3722C46.1071 31.6336 46.1071 31.6336 46.1071 31.895C46.1071 32.1565 46.1071 32.1565 46.1071 32.4179C46.3686 32.1565 46.3686 31.895 46.63 31.6336L51.0745 25.6205C51.0745 25.3591 51.3359 25.3591 51.3359 25.3591C51.5973 25.3591 51.5973 25.0977 51.8588 25.0977H53.166Z" fill="#F6F6F6"/>
<path d="M69.8978 35.0323H68.3291C68.0677 35.0323 67.5448 35.0323 67.5448 34.7709C67.2834 34.7709 67.2834 34.5094 67.022 34.248L65.4533 31.3722C65.1919 31.1107 65.1919 30.8493 64.9305 30.8493C64.669 30.8493 64.4076 30.5879 64.1461 30.5879H63.3618V35.0323H61.2703V30.5879H60.486C60.2246 30.5879 59.9631 30.5879 59.7017 30.8493C59.4403 30.8493 59.1788 31.1107 59.1788 31.3722L57.6102 34.248C57.6102 34.5094 57.3488 34.7709 57.0873 34.7709C56.8259 34.7709 56.5644 35.0323 56.303 35.0323H54.7344L57.0873 30.8493C57.3488 30.5879 57.3488 30.3264 57.6102 30.065C57.8716 29.8035 58.1331 29.8035 58.3945 29.5421C58.1331 29.5421 57.8716 29.2807 57.8716 29.2807C57.6102 29.0192 57.6102 29.0192 57.3488 28.7578L54.9958 25.0977H56.5644C56.8259 25.0977 56.8259 25.0977 57.0873 25.3591C57.3488 25.3591 57.3488 25.6205 57.3488 25.882L59.1788 28.7578C59.4403 29.0192 59.4403 29.0192 59.7017 29.2807C59.9631 29.2807 60.2246 29.5421 60.486 29.5421H61.2703V25.0977H63.3618V29.2807H64.1461C64.669 29.2807 65.1919 29.0192 65.4533 28.7578L67.2834 25.882C67.2834 25.6205 67.5448 25.6205 67.5448 25.3591C67.8063 25.3591 67.8063 25.0977 68.0677 25.0977H69.6363L67.2834 28.7578C67.022 29.0192 67.022 29.2807 66.7605 29.2807C66.4991 29.5421 66.4991 29.5421 66.2376 29.5421C66.4991 29.5421 66.7605 29.8035 67.022 30.065C67.2834 30.3264 67.5448 30.5879 67.5448 30.8493L69.8978 35.0323Z" fill="#F6F6F6"/>
<path d="M80.0956 25.0977V35.0323H78.0041V28.7578C78.0041 28.4963 78.0041 28.4963 78.0041 28.2349C78.0041 27.9735 78.0041 27.9735 78.0041 27.712C78.0041 27.9735 78.0041 27.9735 77.7427 28.2349C77.7427 28.2349 77.7427 28.4963 77.4813 28.4963L73.0368 34.5094L72.7754 34.7709C72.7754 34.7709 72.5139 35.0323 72.2525 35.0323H70.9453V25.0977H73.0368V31.3722C73.0368 31.6336 73.0368 31.6336 73.0368 31.895C73.0368 32.1565 73.0368 32.1565 73.0368 32.4179C73.2983 32.1565 73.2983 31.895 73.5597 31.6336L78.0041 25.6205C78.0041 25.3591 78.2656 25.3591 78.2656 25.3591C78.2656 25.3591 78.527 25.0977 78.7885 25.0977H80.0956Z" fill="#F6F6F6"/>
<path d="M94.2145 25.0977V35.0323H92.3844V29.0192C92.3844 28.7578 92.3844 28.4963 92.3844 28.2349C92.3844 27.9735 92.3844 27.712 92.3844 27.4506L89.2472 33.2022L88.9857 33.4637H88.7243H88.4629H88.2014L87.94 33.2022L84.8027 27.4506C84.8027 27.712 84.8027 27.9735 84.8027 28.2349C84.8027 28.4963 84.8027 28.7578 84.8027 29.0192V35.0323H82.9727V25.0977H84.8027C85.0642 25.0977 85.0642 25.0977 85.3256 25.0977C85.587 25.0977 85.587 25.3591 85.587 25.3591L88.2014 30.065C88.2014 30.3264 88.4629 30.3264 88.4629 30.5879C88.4629 30.8493 88.7243 30.8493 88.7243 31.1107C88.7243 30.8493 88.9857 30.8493 88.9857 30.5879C88.9857 30.3264 89.2472 30.3264 89.2472 30.065L91.8615 25.3591C91.8615 25.0977 92.123 25.0977 92.123 25.0977C92.3844 25.0977 92.3844 25.0977 92.6459 25.0977H94.2145Z" fill="#F6F6F6"/>
<path d="M101.014 24.8359C101.799 24.8359 102.321 24.8359 103.106 25.0974C103.629 25.3588 104.151 25.6203 104.674 26.1431C105.197 26.666 105.459 27.1889 105.72 27.7118C105.982 28.2346 105.982 29.0189 105.982 29.8033C105.982 30.5876 105.982 31.3719 105.72 31.8948C105.459 32.4176 105.197 32.9405 104.674 33.4634C104.151 33.9863 103.629 34.2477 103.106 34.5091C102.583 34.7706 101.799 34.7706 101.014 34.7706C100.23 34.7706 99.707 34.7706 98.9227 34.5091C98.3998 34.2477 97.8769 33.9863 97.3541 33.4634C96.8312 32.9405 96.5698 32.4176 96.3083 31.8948C96.0469 31.3719 96.0469 30.5876 96.0469 29.8033C96.0469 29.0189 96.0469 28.2346 96.3083 27.7118C96.5698 27.1889 96.8312 26.666 97.3541 26.1431C97.8769 25.6203 98.3998 25.3588 98.9227 25.0974C99.4456 24.8359 100.23 24.8359 101.014 24.8359ZM101.014 33.4634C101.799 33.4634 102.583 33.202 103.106 32.6791C103.629 32.1562 103.89 31.1104 103.89 30.0647C103.89 29.0189 103.629 27.9732 103.106 27.4503C102.583 26.9274 102.06 26.4046 101.014 26.4046C100.23 26.4046 99.4456 26.666 98.9227 27.4503C98.3998 27.9732 98.1384 29.0189 98.1384 30.0647C98.1384 31.1104 98.3998 32.1562 98.9227 32.6791C99.4456 33.202 99.9684 33.4634 101.014 33.4634Z" fill="#F6F6F6"/>
<path d="M114.87 26.9283C114.609 27.1897 114.609 27.1897 114.347 27.1897H114.086C114.086 27.1897 113.824 26.9283 113.563 26.9283C113.302 26.9283 113.302 26.6668 113.04 26.6668C112.779 26.6668 112.517 26.6668 112.256 26.6668C111.733 26.6668 111.472 26.6668 110.949 26.9283C110.687 27.1897 110.426 27.4512 110.164 27.7126C109.903 27.974 109.641 28.4969 109.641 28.7583C109.641 29.2812 109.38 29.8041 109.38 30.327C109.38 30.8499 109.38 31.3727 109.641 31.8956C109.641 32.4185 109.903 32.6799 110.164 32.9414C110.426 33.2028 110.687 33.4642 110.949 33.7257C111.21 33.9871 111.733 33.9871 111.994 33.9871C112.517 33.9871 112.779 33.9871 113.04 33.7257C113.302 33.4642 113.563 33.4642 113.563 33.4642C113.824 33.4642 113.824 33.2028 114.086 33.2028L114.347 32.9414C114.609 32.9414 114.609 32.9414 114.609 33.2028L115.132 33.9871C114.87 34.2485 114.609 34.51 114.347 34.7714C114.086 35.0329 113.824 35.0329 113.302 35.2943C113.04 35.2943 112.517 35.5557 112.256 35.5557C111.994 35.5557 111.471 35.5557 111.21 35.5557C110.687 35.5557 109.903 35.5557 109.38 35.2943C108.857 35.0329 108.334 34.7714 108.073 34.2485C107.55 33.7257 107.288 33.2028 107.027 32.6799C106.766 32.157 106.766 31.3727 106.766 30.5884C106.766 29.8041 106.766 29.2812 107.027 28.4969C107.288 27.974 107.55 27.4512 108.073 26.9283C108.596 26.4054 108.857 26.144 109.641 25.8825C110.164 25.6211 110.949 25.6211 111.733 25.6211C112.517 25.6211 113.04 25.6211 113.563 25.8825C114.086 26.144 114.609 26.4054 115.132 26.9283H114.87Z" fill="#F6F6F6"/>
<path d="M125.588 26.6663H121.927V35.0323H119.836V26.6663H116.176V25.0977H125.588V26.6663Z" fill="#F6F6F6"/>
<path d="M131.078 28.7578C131.862 28.7578 132.385 28.7578 132.908 29.0192C133.431 29.2807 133.692 29.2807 133.954 29.8035C134.215 30.065 134.477 30.3264 134.477 30.8493C134.477 31.1107 134.738 31.6336 134.738 31.895C134.738 32.4179 134.738 32.6794 134.477 33.2022C134.215 33.4637 133.954 33.9865 133.692 34.248C133.431 34.5094 132.908 34.7709 132.646 34.7709C132.124 35.0323 131.601 35.0323 131.078 35.0323H127.156V25.0977H129.248V28.7578H131.078ZM131.078 33.4637C131.339 33.4637 131.601 33.4637 131.862 33.4637C132.124 33.4637 132.385 33.2022 132.385 33.2022C132.646 32.9408 132.646 32.9408 132.646 32.6794C132.646 32.4179 132.646 32.1565 132.646 32.1565C132.646 31.895 132.646 31.6336 132.646 31.6336C132.646 31.3722 132.385 31.3722 132.385 31.1107C132.124 30.8493 132.124 30.8493 131.862 30.8493C131.601 30.8493 131.339 30.8493 131.078 30.8493H129.248V33.9865H131.078V33.4637Z" fill="#F6F6F6"/>
</svg>
