<svg width="87" height="25" viewBox="0 0 87 25" fill="none" xmlns="http://www.w3.org/2000/svg">
<path d="M16.5364 18.2949V24.1187C16.5364 24.4252 16.5364 24.5784 16.3831 24.7317C16.2298 24.8849 16.0766 24.8849 15.9233 24.8849H14.3908V20.134H2.89651V24.1187C2.89651 24.2719 2.89651 24.4252 2.74325 24.5784C2.58999 24.7317 2.43674 24.7317 2.28348 24.7317H0.597656V18.2949H1.05743C1.36394 18.2949 1.67045 18.2949 1.97697 18.1417C2.28348 17.9884 2.58999 17.8351 2.89651 17.5286C3.20302 17.2221 3.50953 16.7623 3.66279 16.3026C3.9693 15.6895 4.12256 15.0765 4.42907 14.157C4.58233 13.2374 4.88884 12.1646 5.0421 10.9386C5.19536 9.71253 5.34861 8.17996 5.34861 6.49414H13.931V18.2949H16.5364ZM11.6321 18.4482V8.33322H7.34095C7.18769 9.71253 7.18769 10.9386 7.03444 12.0114C6.88118 13.0842 6.72792 14.0037 6.42141 14.9233C6.26815 15.6895 5.96164 16.4558 5.65513 17.0689C5.50187 17.5286 5.19536 17.9884 4.88884 18.4482H11.6321Z" fill="white"/>
<path d="M30.6358 6.49414V20.134H28.1837V10.7853C28.1837 10.6321 28.1837 10.4788 28.1837 10.1723C28.1837 10.019 28.1837 9.71253 28.1837 9.55927C28.3369 9.86579 28.1837 10.019 28.1837 10.1723C28.0304 10.3256 28.0304 10.4788 27.8772 10.6321L21.2871 19.521C21.1339 19.6742 21.1339 19.8275 20.9806 19.9807C20.8274 20.134 20.6741 20.134 20.5208 20.134H18.9883V6.49414H21.4404V15.8428C21.4404 15.9961 21.4404 16.1493 21.4404 16.4558C21.4404 16.6091 21.4404 16.9156 21.4404 17.0689C21.5936 16.9156 21.5936 16.7623 21.7469 16.6091C21.9002 16.4558 21.9002 16.3026 22.0534 16.1493L28.6435 7.10717C28.7967 6.95391 28.7967 6.80065 28.95 6.6474C29.1032 6.49414 29.2565 6.49414 29.4097 6.49414H30.6358Z" fill="white"/>
<path d="M33.5484 7.87332C34.0082 7.41355 34.6212 6.95378 35.3875 6.64727C36.1538 6.34076 37.0734 6.1875 37.9929 6.1875C38.7592 6.1875 39.5255 6.34076 40.1385 6.49401C40.7515 6.64727 41.3645 6.95378 41.6711 7.2603C42.1308 7.56681 42.4373 8.02658 42.5906 8.33309C42.7439 8.79286 42.8971 9.25263 42.8971 9.7124C42.8971 10.0189 42.8971 10.3254 42.7438 10.6319C42.5906 10.9385 42.5906 11.245 42.2841 11.5515C42.1308 11.858 41.8243 12.0113 41.5178 12.3178C41.2113 12.6243 40.7515 12.7775 40.2917 12.9308C41.2113 13.2373 41.8243 13.5438 42.2841 14.1568C42.7439 14.7699 43.0504 15.3829 43.0504 16.3024C43.0504 16.9155 42.8971 17.5285 42.5906 17.9883C42.2841 18.448 41.9776 18.9078 41.3645 19.2143C40.9048 19.5208 40.2917 19.8273 39.6787 19.9806C39.0657 20.1339 38.2994 20.2871 37.6864 20.2871C37.2266 20.2871 36.7668 20.2871 36.3071 20.1339C35.8473 19.9806 35.3875 19.9806 34.9278 19.6741C34.468 19.5208 34.1615 19.2143 33.7017 19.0611C33.2419 18.7545 32.9354 18.448 32.6289 18.1415L33.2419 17.222C33.3952 17.0687 33.5484 17.0687 33.7017 17.0687C33.855 17.0687 34.0082 17.0687 34.1615 17.222C34.3147 17.3752 34.6212 17.5285 34.7745 17.6818C35.081 17.835 35.3875 17.9883 35.694 18.1415C36.1538 18.2948 36.6136 18.2948 37.0734 18.2948C37.5331 18.2948 37.9929 18.2948 38.4527 18.1415C38.9124 17.9883 39.2189 17.835 39.3722 17.6818C39.6787 17.5285 39.832 17.222 39.9852 16.9155C40.1385 16.609 40.1385 16.3024 40.1385 15.9959C40.1385 15.3829 39.832 14.7699 39.2189 14.3101C38.6059 13.8503 37.8396 13.6971 36.6136 13.6971H35.081V12.1645H36.6136C37.0734 12.1645 37.5331 12.1645 37.9929 12.0113C38.4527 11.858 38.7592 11.7047 39.0657 11.5515C39.3722 11.3982 39.5255 11.0917 39.6787 10.9385C39.832 10.6319 39.832 10.4787 39.832 10.1722C39.832 9.86566 39.832 9.7124 39.6787 9.40589C39.5255 9.09938 39.3722 8.94612 39.0657 8.79286C38.7592 8.63961 38.4527 8.48635 38.1461 8.33309C37.8396 8.17984 37.3799 8.17984 36.9201 8.17984C36.3071 8.17984 35.8473 8.17984 35.5408 8.33309C35.2343 8.48635 34.9278 8.48635 34.6212 8.63961C34.3147 8.79286 34.1615 8.94612 34.0082 8.94612C33.855 9.09938 33.7017 9.09938 33.5484 9.09938C33.3952 9.09938 33.3952 9.09938 33.2419 9.09938C33.2419 9.09938 33.0887 8.94612 32.9354 8.79286L33.5484 7.87332Z" fill="white"/>
<path d="M46.2693 8.48635C47.0356 7.72007 47.8018 7.2603 48.7214 6.80053C49.6409 6.49401 50.5605 6.1875 51.6333 6.1875C52.3995 6.1875 53.0126 6.34076 53.6256 6.49401C54.2386 6.80053 54.6984 7.10704 55.1582 7.56681C55.6179 8.02658 55.9244 8.48635 56.0777 9.25263C56.231 9.86566 56.3842 10.6319 56.3842 11.3982V20.1339H55.3114C55.0049 20.1339 54.8516 20.1339 54.6984 19.9806C54.5451 19.9806 54.5451 19.8273 54.3919 19.5208L54.2386 18.2948C53.9321 18.6013 53.4723 18.9078 53.1658 19.2143C52.8593 19.5208 52.3995 19.6741 52.093 19.8273C51.7865 19.9806 51.3267 20.1339 50.867 20.2871C50.4072 20.4404 49.9474 20.4404 49.4877 20.4404C49.0279 20.4404 48.4149 20.4404 47.9551 20.2871C47.4953 20.1339 47.0356 19.9806 46.729 19.6741C46.4225 19.3676 46.116 19.0611 45.9628 18.6013C45.8095 18.1415 45.6562 17.6818 45.6562 16.9155C45.6562 16.3024 45.8095 15.8427 46.116 15.3829C46.4225 14.9231 46.8823 14.4634 47.4953 14.0036C48.1084 13.5438 49.0279 13.2373 50.1007 13.0841C51.1735 12.7775 52.5528 12.6243 54.0854 12.6243V11.5515C54.0854 10.4787 53.9321 9.7124 53.4723 9.09938C53.0126 8.48635 52.3995 8.33309 51.48 8.33309C50.867 8.33309 50.4072 8.33309 49.9474 8.48635C49.4877 8.63961 49.1812 8.79286 48.8746 8.94612C48.5681 9.09938 48.2616 9.25263 48.1084 9.40589C47.9551 9.55915 47.6486 9.55915 47.4953 9.55915C47.3421 9.55915 47.1888 9.55915 47.0356 9.40589C46.8823 9.25263 46.8823 9.25263 46.729 9.09938L46.2693 8.48635ZM54.0854 14.0036C53.0126 14.0036 52.093 14.1568 51.3267 14.3101C50.5605 14.4634 49.9474 14.6166 49.4877 14.9231C49.0279 15.0764 48.5681 15.3829 48.4149 15.6894C48.2616 15.9959 48.1084 16.3024 48.1084 16.7622C48.1084 17.0687 48.1084 17.3752 48.2616 17.6818C48.4149 17.9883 48.5681 18.1415 48.7214 18.2948C48.8746 18.448 49.1812 18.6013 49.4877 18.6013C49.7942 18.7545 50.1007 18.7545 50.4072 18.7545C50.867 18.7545 51.1735 18.7545 51.6333 18.6013C51.9398 18.448 52.2463 18.448 52.5528 18.2948C52.8593 18.1415 53.1658 17.9883 53.4723 17.6818C53.7789 17.5285 54.0854 17.222 54.2386 16.9155V14.0036H54.0854Z" fill="white"/>
<path d="M71.71 6.49472V20.1346H69.2579V10.7859C69.2579 10.6326 69.2579 10.4794 69.2579 10.1729C69.2579 10.0196 69.2579 9.71311 69.2579 9.55985C69.1046 9.71311 69.1046 9.86636 68.9514 10.0196C68.7981 10.1729 68.7981 10.3261 68.6449 10.4794L62.3614 19.5215C62.2081 19.6748 62.2081 19.828 62.0548 19.9813C61.9016 20.1346 61.7483 20.1346 61.5951 20.1346H60.0625V6.49472H62.5146V15.8434C62.5146 15.9966 62.5146 16.1499 62.5146 16.4564C62.5146 16.6097 62.5146 16.9162 62.5146 17.0694C62.6679 16.9162 62.6679 16.7629 62.8211 16.6097C62.9744 16.4564 62.9744 16.3031 63.1276 16.1499L69.7177 7.10774C69.8709 6.95449 69.8709 6.80123 70.0242 6.64797C70.1774 6.49472 70.3307 6.49472 70.484 6.49472H71.71ZM66.0395 3.12307C66.346 3.12307 66.6525 3.12307 66.9591 2.96981C67.2656 2.81656 67.4188 2.81656 67.5721 2.51004C67.7253 2.35679 67.8786 2.05027 67.8786 1.74376C68.0319 1.5905 68.0319 1.28399 68.0319 0.824219H69.4112C69.5644 0.824219 69.7177 0.977476 69.8709 1.13073C70.0242 1.28399 70.0242 1.43725 70.0242 1.5905C70.0242 2.05027 69.8709 2.51004 69.7177 2.81656C69.5644 3.12307 69.2579 3.42958 68.9514 3.7361C68.6449 3.88935 68.1851 4.19587 67.7253 4.19587C67.2656 4.34912 66.6525 4.34912 66.0395 4.34912C65.4265 4.34912 64.8135 4.34912 64.3537 4.19587C63.8939 4.19587 63.4341 3.88935 63.1276 3.7361C62.8211 3.42958 62.5146 3.12307 62.3614 2.81656C62.2081 2.51004 62.0548 2.05027 62.0548 1.5905C62.0548 1.43725 62.0548 1.28399 62.2081 1.13073C62.3614 0.977476 62.3614 0.824219 62.6679 0.824219H64.0472C64.0472 1.28399 64.0472 1.5905 64.2004 1.89702C64.2004 2.20353 64.3537 2.51004 64.5069 2.6633C64.6602 2.81656 64.8135 2.96981 65.12 3.12307C65.4265 3.12307 65.733 3.12307 66.0395 3.12307Z" fill="white"/>
<path d="M86.881 6.49414V20.134H84.4289V13.6972H77.8388V20.134H75.3867V6.49414H77.8388V11.8581H84.4289V6.49414H86.881Z" fill="white"/>
</svg>
