<svg width="160" height="30" viewBox="0 0 160 30" fill="none" xmlns="http://www.w3.org/2000/svg">
<g clip-path="url(#clip0_1123_7835)">
<path d="M16.0493 0L16.2172 0.201455C16.1836 0.335758 16.0997 0.486849 16.1164 0.621153C16.5697 5.45607 16.9223 8.89759 18.8697 13.4303C19.239 14.3033 19.6923 15.3945 20.2798 16.1164C21.5389 10.8282 20.3134 5.33856 20.8338 0H26.5249C27.1125 6.44656 25.8031 13.4975 20.8674 18.0134C21.8747 21.5557 22.6302 25.1987 22.4958 28.9088H16.6704C16.7712 28.7073 16.8215 28.5227 16.8215 28.2876C16.6872 23.2009 15.361 17.4259 13.0443 12.8763C12.9435 12.6917 12.8764 12.4231 12.6413 12.3727C11.3655 17.7952 12.6246 23.4359 12.0873 28.9088H6.39624C6.48018 23.0162 6.12763 14.8237 12.1041 11.6004C10.9122 7.87353 10.4421 3.92837 10.4253 0.0167879H16.0493V0Z" fill="white"/>
<path d="M26.123 28.892L31.8981 11.6676L36.6659 11.6844L42.2394 28.892H37.2366L36.5483 26.4578C36.3637 26.3403 32.6368 26.3235 32.1667 26.3906C31.2601 26.4914 31.4448 28.3212 30.9244 28.892H26.123ZM35.5746 22.7812L34.2484 17.493L32.7878 22.7812H35.5746Z" fill="white"/>
<path d="M55.4345 11.6676V15.915L55.233 16.1164H48.2157V18.1981H54.3265V22.3615H48.2157V28.892H43.3472V11.6676H55.4345Z" fill="white"/>
<path d="M94.8858 26.9447L97.2529 28.6906L95.9602 30.0001L93.5596 28.0862C91.8808 28.9424 90.0509 29.3285 88.1706 29.1774C77.695 28.3381 78.0979 10.0392 90.1013 11.1304C97.6726 11.8355 99.5025 21.9586 94.8858 26.9447ZM89.7487 25.2827L90.9239 23.7885L93.1231 25.417C96.3799 22.0426 95.423 14.0683 90.1684 13.2625C84.4941 12.3895 82.0431 17.9967 83.4197 22.7813C84.4773 26.4074 88.0699 28.0862 91.545 26.6089L89.7487 25.2827Z" fill="white"/>
<path d="M139.424 11.5333C143.553 11.953 145.182 15.6128 143.1 19.1046L141.707 20.3469C144.762 21.6228 143.419 24.8629 143.805 27.2804C143.923 27.9855 144.661 28.0694 144.628 28.7409H141.925L141.74 28.5059C141.186 26.7935 142.042 23.1841 140.599 22.009C140.347 21.8075 139.424 21.371 139.155 21.371H132.692V28.7409H130.324V11.5333H139.424ZM132.675 19.4572H138.718C138.853 19.4572 139.742 19.2222 139.944 19.155C142.042 18.3828 142.194 14.7062 140.179 13.8332C140.011 13.7661 139.121 13.4807 139.004 13.4807H132.675V19.4572Z" fill="white"/>
<path d="M159.216 11.5334V13.6151H149.076V18.6179H158.309C158.746 19.1383 158.427 20.0448 158.511 20.6996H149.076V26.6761H159.283C159.72 27.1965 159.401 28.103 159.485 28.7578H146.709V11.5334H159.216Z" fill="white"/>
<path d="M67.6545 24.0067C67.7888 27.2468 71.6668 27.9855 74.7054 27.1629C76.7368 26.6089 77.7776 24.3761 75.9813 23.2345C72.758 21.1864 65.2706 22.8484 66.1604 17.2412C67.0166 11.8187 78.9528 12.4063 78.5667 18.2317L76.5353 18.2989C76.166 15.4953 72.6741 14.6223 69.9712 15.6128C68.6114 16.1164 67.6545 17.9967 68.7625 19.0039C70.2231 20.3134 75.6288 20.2127 77.8616 21.9586C79.3893 23.1506 79.4396 25.6184 78.3148 27.0454C75.3937 30.7723 64.8006 29.6643 65.556 24.0067H67.6545Z" fill="white"/>
<path d="M101.836 11.5334V23.4192C101.836 24.0739 102.608 25.5681 103.095 26.0381C104.589 27.4987 107.964 27.4819 109.458 26.0381C109.945 25.5681 110.717 24.0571 110.717 23.4024V11.5334H112.866L113.084 12.0202C112.53 18.5675 115.854 29.7818 105.496 29.1942C96.6319 28.6906 100.191 17.7785 99.4523 12.0202L99.6705 11.5334H101.836Z" fill="white"/>
<path d="M113.789 28.7578L120.101 11.6677L122.603 11.5166L128.932 28.7578H126.43L124.785 23.8389L117.835 23.7717L116.156 28.7578H113.789ZM123.929 21.6733L121.36 14.1691L118.658 21.6733H123.929Z" fill="white"/>
<path d="M61.9632 11.6676H57.0947V28.892H61.9632V11.6676Z" fill="white"/>
<path d="M5.84219 16.8047C2.58534 15.7639 1.14158 12.3055 0.604365 9.19978C0.0671516 6.17795 0.0503637 3.0554 0 0H5.62395L5.82541 0.201455V16.8047H5.84219Z" fill="white"/>
</g>
<defs>
<clipPath id="clip0_1123_7835">
<rect width="159.519" height="30" fill="white"/>
</clipPath>
</defs>
</svg>
