<svg width="171" height="30" viewBox="0 0 171 30" fill="none" xmlns="http://www.w3.org/2000/svg">
<g clip-path="url(#clip0_1126_8029)">
<path d="M31.0315 13.0659L22.1777 18.7393V29.2264L20.8883 30L13.6676 26.0458L15.3009 25.0143L20.3725 27.851V19.7708L12.0344 25.1003L0 18.4814V17.0201L8.85387 11.3467V0.773639L10.1433 0L22.1777 6.61891V16.5903L28.8825 12.2923L23.8109 9.45559V7.56447L31.0315 11.5186V12.894V13.0659ZM19.5989 18.2235L9.79943 12.808L2.23496 17.6218L10.2292 22.0917L12.1203 23.1232L19.5989 18.2235ZM20.4585 7.65043L10.5731 2.23496V11.2607L20.3725 16.6762L20.4585 7.65043ZM46.5043 15.1289H48.9112V11.0029H47.6218V3.78223H45.1289V11.0888H40.4011V3.78223H37.9083V13.1519H46.5043V15.1289ZM50.9742 3.78223V13.1519H59.4842V11.1748H53.4671V9.28367H58.0229V7.39255H53.4671V5.67335H59.3983V3.78223H50.9742ZM61.8052 3.78223V13.1519H64.298V9.36963H69.1977V13.1519H71.6905V3.78223H69.1977V7.30659H64.298V3.78223H61.8052ZM77.3639 5.84527V13.1519H79.9427V5.84527H83.639V3.78223H73.6676V5.84527H77.3639ZM85.5301 3.78223V13.1519H88.0229V10.2292H91.8052C92.9226 10.2292 93.7822 9.97135 94.384 9.36963C94.8997 8.76791 95.2436 7.99427 95.2436 6.96275C95.2436 5.93123 94.9857 5.15759 94.384 4.64183C93.8682 4.04011 93.0086 3.78223 91.8052 3.78223H85.5301ZM92.6648 7.13467C92.6648 7.65043 92.4928 8.16619 91.4613 8.16619H88.0229V5.75931H91.4613C92.3209 5.75931 92.6648 6.27507 92.6648 6.79083V7.13467ZM98.9398 3.78223L94.8997 13.1519H97.3066L98.1662 11.0888H102.894L103.754 13.1519H106.418L102.464 3.78223H98.9398ZM99.0258 9.19771L100.573 5.41547L102.12 9.19771H99.0258ZM107.88 10.8309V13.0659H108.567C109.255 13.0659 109.771 12.9799 110.201 12.808C110.63 12.6361 110.974 12.2923 111.232 11.8625C111.49 11.4327 111.662 10.9169 111.748 10.1433C111.834 9.45559 111.92 8.59599 111.92 7.56447V5.84527H115.788V13.1519H118.281V3.78223H109.513V7.65043C109.513 8.76791 109.427 9.62751 109.255 10.1433C109.083 10.659 108.739 10.9169 108.138 10.9169L107.88 10.8309ZM120.516 3.78223V13.1519H126.877C127.994 13.1519 128.854 12.894 129.456 12.2923C129.971 11.6905 130.315 10.9169 130.315 9.97135C130.315 9.02579 130.057 8.16619 129.456 7.56447C128.94 6.96275 128.08 6.70487 126.877 6.70487H123.095V3.78223H120.516ZM127.65 10.0573C127.65 10.4011 127.564 10.5731 127.393 10.8309C127.221 11.0029 126.877 11.0888 126.447 11.0888H123.009V8.68195H126.447C126.877 8.68195 127.135 8.76791 127.393 8.93983C127.564 9.11175 127.65 9.36963 127.65 9.71347V10.0573ZM131.948 3.78223V13.1519H134.441V9.36963H139.341V13.1519H141.834V3.78223H139.341V7.30659H134.441V3.78223H131.948ZM144.241 3.78223V13.1519H150.602C151.719 13.1519 152.579 12.894 153.181 12.2923C153.696 11.6905 154.04 10.9169 154.04 9.97135C154.04 9.02579 153.782 8.16619 153.181 7.56447C152.665 6.96275 151.805 6.70487 150.602 6.70487H146.819V3.78223H144.241ZM151.375 10.0573C151.375 10.4011 151.289 10.5731 151.117 10.8309C150.946 11.0029 150.602 11.0888 150.172 11.0888H146.734V8.68195H150.172C150.602 8.68195 150.86 8.76791 151.117 8.93983C151.289 9.11175 151.375 9.36963 151.375 9.71347V10.0573ZM41.0029 27.0774H43.4957L48.9971 17.7077H46.4183L43.6676 22.4355L40.659 17.7077H37.9083L42.4642 24.6705L41.0029 27.0774ZM50.4585 17.7937V27.1633H52.9513V23.3811H57.851V27.1633H60.3438V17.7937H57.851V21.3181H52.9513V17.7937H50.4585ZM70.5731 20.8883V27.0774H73.0659V17.7937H70.3152L65.3295 23.9828V17.7937H62.8367V27.1633H65.5874L70.5731 20.8883ZM75.5587 17.7937V27.1633H82.0057C83.0373 27.1633 83.8109 26.9054 84.3266 26.4756C84.8424 25.9599 85.1003 25.3582 85.1003 24.4126C85.1003 23.8968 84.9284 23.3811 84.6705 23.0372C84.4126 22.6074 83.8969 22.3496 83.2951 22.1776C83.8969 22.0057 84.2407 21.6619 84.4986 21.3181C84.7565 20.9742 84.8424 20.5444 84.8424 20.0287C84.8424 19.255 84.5845 18.7393 84.0688 18.3095C83.553 17.9656 82.8653 17.7077 81.9198 17.7077L75.5587 17.7937ZM82.2636 20.5444C82.2636 20.8883 82.1777 21.0602 82.0057 21.2321C81.8338 21.404 81.5759 21.49 81.1461 21.49H78.0516V19.4269H81.1461C81.49 19.4269 81.7479 19.5129 82.0057 19.6848C82.1777 19.8567 82.2636 20.0287 82.2636 20.3725V20.5444ZM82.5215 24.4126C82.5215 24.7564 82.4355 25.0143 82.1777 25.1862C81.9198 25.3582 81.6619 25.4441 81.2321 25.4441H77.9656V23.1232H81.2321C81.6619 23.1232 81.9198 23.2092 82.1777 23.3811C82.3496 23.553 82.5215 23.8109 82.5215 24.0688V24.4126ZM87.0774 17.7937V27.1633H95.5874V25.1862H89.5702V23.2951H94.1261V21.404H89.5702V19.6848H95.5014V17.7077H87.0774V17.7937ZM97.6504 17.7937V27.1633H100.143V24.2407H103.926C105.043 24.2407 105.903 23.9828 106.504 23.3811C107.02 22.7794 107.364 22.0057 107.364 20.9742C107.364 19.9427 107.106 19.1691 106.504 18.6533C105.989 18.0516 105.129 17.7937 103.926 17.7937H97.6504ZM104.785 21.1461C104.785 21.49 104.699 21.7479 104.527 21.9198C104.355 22.0917 104.011 22.1776 103.668 22.1776H100.229V19.7708H103.668C104.097 19.7708 104.355 19.8567 104.527 20.0287C104.699 20.2006 104.785 20.4585 104.785 20.8023V21.1461ZM108.739 22.4355C108.739 23.3811 108.825 24.1547 109.083 24.7564C109.341 25.3582 109.685 25.8739 110.115 26.2178C110.544 26.5616 111.146 26.8195 111.834 26.9914C112.521 27.1633 113.295 27.2493 114.069 27.2493C115.616 27.2493 116.819 26.9914 117.765 26.4756C118.625 25.9599 119.226 25.1003 119.312 23.8968H116.734C116.562 24.4126 116.304 24.8424 115.874 25.0143C115.444 25.1862 114.842 25.2722 114.069 25.2722C113.209 25.2722 112.521 25.1003 112.006 24.7564C111.49 24.4126 111.232 23.8109 111.232 22.8653V21.7478C111.232 21.2321 111.318 20.8883 111.49 20.5444C111.662 20.2006 111.834 20.0287 112.092 19.8567C112.35 19.6848 112.607 19.5989 112.951 19.5129C113.295 19.4269 113.639 19.4269 114.069 19.4269C114.842 19.4269 115.444 19.5129 115.96 19.6848C116.39 19.8567 116.734 20.2865 116.819 20.8883H119.398C119.312 19.5989 118.711 18.7393 117.851 18.2235C116.905 17.7077 115.702 17.4499 114.155 17.4499C113.295 17.4499 112.521 17.5358 111.92 17.7077C111.232 17.8797 110.716 18.1375 110.201 18.5673C109.771 18.9971 109.341 19.4269 109.169 20.1146C108.911 20.8023 108.739 21.5759 108.739 22.4355ZM128.94 20.8883V27.0774H131.433V17.7937H128.682L123.696 23.9828V17.7937H121.203V27.1633H123.954L128.94 20.8883ZM136.934 19.8567V27.1633H139.427V19.8567H143.123V17.7937H133.238V19.8567H136.934ZM144.842 17.7937V27.1633H153.352V25.1862H147.335V23.2951H151.891V21.404H147.335V19.6848H153.266V17.7077H144.842V17.7937ZM158.682 19.8567V27.1633H161.175V19.8567H164.871V17.7937H154.986V19.8567H158.682ZM154.9 3.78223V13.1519H157.393V3.78223H154.9ZM165.989 0.687679C165.989 1.37536 165.559 1.7192 164.871 1.7192C164.183 1.7192 163.754 1.46132 163.754 0.687679H161.862C161.948 1.97708 162.722 3.09456 164.785 3.09456C166.934 3.09456 167.708 2.06304 167.708 0.687679H165.989ZM167.278 3.78223L162.292 9.97135V3.78223H159.799V13.1519H162.55L167.536 6.96275V13.1519H170.029V3.78223H167.278Z" fill="#EAEAEE"/>
</g>
<defs>
<clipPath id="clip0_1126_8029">
<rect width="170.029" height="30" fill="white"/>
</clipPath>
</defs>
</svg>
