<svg width="130" height="130" viewBox="0 0 130 130" fill="none" xmlns="http://www.w3.org/2000/svg">
<path fill-rule="evenodd" clip-rule="evenodd" d="M52.4518 25.0085H23.9844V107H57.255V105.263V66.0042C57.255 65.4252 57.255 64.8462 57.4893 64.2671C59.4808 58.94 62.9953 55.2342 68.7356 53.7287C74.8274 52.2232 80.8021 52.8022 86.7767 54.8867C87.011 54.9639 87.2323 55.0412 87.4536 55.1184C87.8962 55.2728 88.3388 55.4272 88.8854 55.5816V23.7346C87.9092 23.6574 86.9329 23.5673 85.9567 23.4772C84.0042 23.2971 82.0517 23.117 80.0992 23.0397C71.1958 22.5765 64.4011 26.1665 59.5979 33.5782C58.5353 35.229 57.7185 37.0256 56.8927 38.8421C56.444 39.8291 55.9926 40.822 55.4977 41.8005C54.5605 36.3576 53.5062 30.6831 52.4518 25.0085L52.4518 25.0085ZM73.1777 89H103.984V107H73.1777V89Z" fill="white"/>
</svg>
