<svg width="555" height="2671" viewBox="0 0 555 2671" fill="none" xmlns="http://www.w3.org/2000/svg">
<g clip-path="url(#clip0_995_5166)">
<path d="M260.499 2391.79C248.847 2386.43 237.457 2380.83 226.801 2374.02C164.774 2334.12 134.752 2277.71 138.628 2203.76L138.628 2203.76L138.628 2203.75C139.275 2187.5 140.784 2171.27 142.295 2155.02C143.036 2147.04 143.778 2139.06 144.419 2131.07L410.445 2131.07C409.215 2135.31 407.989 2138.8 406.758 2142.3C406.109 2144.15 405.459 2146 404.806 2147.96C387.295 2197.79 382.424 2247.64 395.08 2298.47L395.082 2298.48C407.758 2346.46 438.977 2375.84 483.788 2392.47C488.733 2394.45 493.671 2394.45 498.502 2394.45L498.54 2394.45L499.184 2394.45L499.827 2394.45L500.47 2394.45L501.113 2394.45L501.756 2394.45L502.4 2394.45L503.043 2394.45L503.686 2394.45L504.329 2394.45L504.972 2394.45L505.616 2394.45L506.259 2394.45L506.902 2394.45L507.545 2394.45L508.189 2394.45L508.832 2394.45L509.475 2394.45L510.118 2394.45L510.761 2394.45L511.405 2394.45L512.048 2394.45L512.691 2394.45L513.334 2394.45L513.977 2394.45L514.621 2394.45L515.264 2394.45L515.907 2394.45L516.55 2394.45L517.194 2394.45L517.837 2394.45L518.48 2394.45L519.123 2394.45L519.766 2394.45L520.41 2394.45L521.053 2394.45L521.696 2394.45L522.339 2394.45L522.982 2394.45L523.626 2394.45L524.269 2394.45L524.912 2394.45L525.555 2394.45L526.199 2394.45L526.842 2394.45L527.485 2394.45L528.128 2394.45L528.771 2394.45L529.415 2394.45L530.058 2394.45L530.701 2394.45L531.344 2394.45L531.987 2394.45L532.631 2394.45L533.274 2394.45L533.917 2394.45L534.56 2394.45L535.203 2394.45L535.847 2394.45L536.49 2394.45L537.133 2394.45L537.776 2394.45L538.42 2394.45L539.063 2394.45L539.706 2394.45L540.349 2394.45L540.992 2394.45L541.636 2394.45L542.279 2394.45L542.922 2394.45L543.565 2394.45L544.208 2394.45L544.852 2394.45L545.495 2394.45L546.138 2394.45L546.781 2394.45L547.425 2394.45L548.068 2394.45L548.711 2394.45L549.354 2394.45L549.997 2394.45L550.641 2394.45L551.284 2394.45L551.927 2394.45L552.57 2394.45L553.213 2394.45L553.857 2394.45L554.5 2394.45L555.143 2394.45L555.786 2394.45L556.43 2394.45L557.073 2394.45L557.716 2394.45L558.359 2394.45L559.002 2394.45L559.646 2394.45L560.289 2394.45L560.932 2394.45L561.575 2394.45L562.218 2394.45L562.862 2394.45L563.505 2394.45L564.148 2394.45L564.791 2394.45L565.435 2394.45L566.078 2394.45L566.721 2394.45L567.364 2394.45L568.007 2394.45L568.651 2394.45L569.294 2394.45L569.937 2394.45L570.58 2394.45L571.223 2394.45L571.867 2394.45L572.51 2394.45L573.153 2394.45L573.796 2394.45L574.44 2394.45L575.083 2394.45L575.726 2394.45L576.369 2394.45L577.012 2394.45L577.656 2394.45L578.299 2394.45L578.942 2394.45L579.585 2394.45L580.228 2394.45L580.872 2394.45L581.515 2394.45L582.158 2394.45L582.801 2394.45L583.444 2394.45L584.088 2394.45L584.731 2394.45L585.374 2394.45L586.017 2394.45L586.661 2394.45L587.304 2394.45L587.947 2394.45L588.59 2394.45L589.233 2394.45L589.877 2394.45L590.52 2394.45L591.163 2394.45L591.806 2394.45L592.449 2394.45L593.093 2394.45L593.736 2394.45L594.379 2394.45L595.022 2394.45L595.666 2394.45L596.309 2394.45L596.952 2394.45L597.595 2394.45L598.238 2394.45L598.882 2394.45L599.525 2394.45L600.168 2394.45L600.811 2394.45L601.454 2394.45L602.098 2394.45L602.741 2394.45L603.384 2394.45L604.027 2394.45L604.671 2394.45L605.314 2394.45L605.957 2394.45L606.6 2394.45L607.243 2394.45L607.887 2394.45L608.53 2394.45L609.173 2394.45L609.816 2394.45L610.459 2394.45L611.103 2394.45L611.746 2394.45L612.389 2394.45L613.032 2394.45L613.676 2394.45L614.319 2394.45L614.962 2394.45L615.605 2394.45L616.248 2394.45L616.892 2394.45L617.535 2394.45L618.178 2394.45L618.821 2394.45L619.464 2394.45L620.108 2394.45L620.751 2394.45L621.394 2394.45L622.037 2394.45L622.68 2394.45L623.324 2394.45L623.967 2394.45L624.61 2394.45L625.253 2394.45L625.897 2394.45L626.54 2394.45L627.183 2394.45L627.826 2394.45L628.469 2394.45L629.113 2394.45L629.756 2394.45L630.399 2394.45L631.042 2394.45L631.685 2394.45L632.329 2394.45L632.972 2394.45L633.615 2394.45L634.258 2394.45L634.902 2394.45L635.545 2394.45L636.188 2394.45L636.831 2394.45L637.474 2394.45L638.118 2394.45L638.761 2394.45L639.404 2394.45L640.047 2394.45L640.69 2394.45L641.334 2394.45L641.977 2394.45L642.62 2394.45L643.263 2394.45L643.907 2394.45L644.55 2394.45L645.193 2394.45L645.836 2394.45L646.479 2394.45L647.123 2394.45L647.766 2394.45L648.409 2394.45L649.052 2394.45L649.695 2394.45L650.339 2394.45L650.982 2394.45L651.625 2394.45L652.268 2394.45L652.912 2394.45L653.555 2394.45L654.198 2394.45L654.841 2394.45L655.484 2394.45L656.128 2394.45L656.771 2394.45L657.414 2394.45L658.057 2394.45L658.7 2394.45L659.344 2394.45L659.987 2394.45L660.63 2394.45L661.273 2394.45L661.916 2394.45L662.56 2394.45L663.203 2394.45L663.846 2394.45L664.489 2394.45L665.133 2394.45L665.776 2394.45L666.419 2394.45L667.062 2394.45L667.705 2394.45L668.349 2394.45L668.992 2394.45L669.635 2394.45L670.278 2394.45L670.921 2394.45L671.565 2394.45L672.208 2394.45L672.851 2394.45L673.494 2394.45L674.138 2394.45L674.781 2394.45L675.424 2394.45L676.067 2394.45L676.71 2394.45L677.354 2394.45L677.997 2394.45L678.64 2394.45L679.283 2394.45L679.927 2394.45L680.57 2394.45L681.213 2394.45L681.856 2394.45L682.499 2394.45L683.143 2394.45L683.786 2394.45L684.429 2394.45L685.072 2394.45L685.715 2394.45L686.359 2394.45L687.002 2394.45L687.645 2394.45L688.288 2394.45L688.931 2394.45L689.575 2394.45L690.218 2394.45L690.861 2394.45L691.504 2394.45L692.148 2394.45L692.791 2394.45L693.434 2394.45L694.077 2394.45L694.72 2394.45L695.364 2394.45L696.007 2394.45L696.65 2394.45L697.293 2394.45L697.936 2394.45L698.58 2394.45L699.223 2394.45L699.866 2394.45L700.509 2394.45L701.153 2394.45L701.796 2394.45L702.439 2394.45L703.082 2394.45L703.725 2394.45L704.369 2394.45L705.012 2394.45L705.655 2394.45L706.298 2394.45L706.941 2394.45L707.585 2394.45L708.228 2394.45L708.871 2394.45L709.514 2394.45L710.158 2394.45L710.801 2394.45L711.444 2394.45L712.087 2394.45L712.73 2394.45L713.374 2394.45L714.017 2394.45L714.66 2394.45L715.303 2394.45L715.946 2394.45L716.59 2394.45L717.233 2394.45L717.876 2394.45L718.519 2394.45L719.162 2394.45L719.806 2394.45L720.449 2394.45L721.092 2394.45L721.735 2394.45L722.379 2394.45L723.022 2394.45L723.665 2394.45L724.308 2394.45L724.951 2394.45L725.595 2394.45L726.238 2394.45L726.881 2394.45L727.524 2394.45L728.167 2394.45L728.811 2394.45L729.454 2394.45L730.097 2394.45L730.74 2394.45L731.384 2394.45L732.027 2394.45L732.67 2394.45L733.313 2394.45L733.956 2394.45L734.6 2394.45L735.243 2394.45L735.886 2394.45L736.529 2394.45L737.172 2394.45L737.816 2394.45L738.459 2394.45L739.102 2394.45L739.745 2394.45L740.389 2394.45L741.032 2394.45L741.675 2394.45L742.318 2394.45L742.961 2394.45L743.605 2394.45L744.248 2394.45L744.891 2394.45L745.534 2394.45L746.177 2394.45L746.821 2394.45L747.464 2394.45L748.107 2394.45L748.75 2394.45L749.393 2394.45L750.037 2394.45L750.68 2394.45L751.323 2394.45L751.966 2394.45L752.61 2394.45L753.253 2394.45L753.896 2394.45L754.539 2394.45L755.182 2394.45L755.826 2394.45L756.469 2394.45L757.112 2394.45L757.755 2394.45L758.398 2394.45L759.042 2394.45L759.685 2394.45L760.328 2394.45L760.971 2394.45L761.615 2394.45L762.258 2394.45L762.901 2394.45L763.544 2394.45L764.187 2394.45L764.831 2394.45L765.474 2394.45L766.117 2394.45L766.76 2394.45L767.403 2394.45L768.047 2394.45L768.69 2394.45L769.333 2394.45L769.976 2394.45L770.62 2394.45L771.263 2394.45L771.906 2394.45L772.549 2394.45L773.192 2394.45L773.836 2394.45L774.479 2394.45L775.122 2394.45L775.765 2394.45L776.408 2394.45L777.052 2394.45L777.695 2394.45L778.338 2394.45L778.981 2394.45L779.624 2394.45L780.268 2394.45L780.911 2394.45L781.554 2394.45L782.197 2394.45L782.841 2394.45L783.484 2394.45L784.127 2394.45L784.77 2394.45L785.413 2394.45L786.057 2394.45L786.7 2394.45L787.343 2394.45L787.986 2394.45L788.63 2394.45L789.273 2394.45L789.916 2394.45L790.559 2394.45L791.202 2394.45L791.846 2394.45L792.489 2394.45L793.132 2394.45L793.775 2394.45L794.418 2394.45L795.062 2394.45L795.705 2394.45L796.348 2394.45L796.991 2394.45L797.635 2394.45L798.278 2394.45L798.921 2394.45L799.564 2394.45L800.207 2394.45L800.851 2394.45L801.494 2394.45L802.137 2394.45L802.78 2394.45L803.423 2394.45L804.067 2394.45L804.71 2394.45L805.353 2394.45L805.996 2394.45L806.64 2394.45L807.283 2394.45L807.926 2394.45L808.569 2394.45L809.212 2394.45L809.856 2394.45L810.499 2394.45L811.142 2394.45L811.785 2394.45L812.428 2394.45L813.072 2394.45L813.715 2394.45L814.358 2394.45L815.001 2394.45L815.644 2394.45L816.288 2394.45L816.931 2394.45L817.574 2394.45L818.217 2394.45L818.861 2394.45L819.504 2394.45L820.147 2394.45L820.79 2394.45L821.433 2394.45L822.077 2394.45L822.72 2394.45L823.363 2394.45L824.006 2394.45L824.649 2394.45L825.293 2394.45L825.936 2394.45L826.579 2394.45L827.222 2394.45L827.866 2394.45L841.937 2394.45L841.937 2670.5L155.143 2670.5L155.143 2434.37C202.609 2425.61 250.065 2416.86 295.589 2409.08L297.09 2408.82L295.729 2408.14C287.511 2404.01 279.167 2400.25 270.884 2396.51C267.407 2394.94 263.94 2393.38 260.499 2391.79Z" stroke="white" stroke-opacity="0.15"/>
<path d="M629.168 1352.35L629.169 1352.35C640.869 1330.81 646.713 1306.35 647.687 1281.9L647.687 1281.89C649.632 1204.76 636.02 1131.51 598.085 1063.13C597.192 1061.33 596.309 1059.56 595.425 1057.03C597.569 1056.99 599.338 1056.76 600.988 1056.54L601.283 1056.5C602.998 1056.27 604.586 1056.06 606.386 1056.06L606.756 1056.06L607.126 1056.06L607.496 1056.06L607.866 1056.06L608.236 1056.06L608.606 1056.06L608.976 1056.06L609.346 1056.06L609.716 1056.06L610.086 1056.06L610.456 1056.06L610.826 1056.06L611.196 1056.06L611.566 1056.06L611.936 1056.06L612.306 1056.06L612.676 1056.06L613.046 1056.06L613.416 1056.06L613.786 1056.06L614.156 1056.06L614.526 1056.06L614.896 1056.06L615.266 1056.06L615.636 1056.06L616.006 1056.06L616.376 1056.06L616.746 1056.06L617.116 1056.06L617.486 1056.06L617.856 1056.06L618.226 1056.06L618.596 1056.06L618.966 1056.06L619.336 1056.06L619.706 1056.06L620.076 1056.06L620.446 1056.06L620.816 1056.06L621.186 1056.06L621.556 1056.06L621.926 1056.06L622.296 1056.06L622.666 1056.06L623.036 1056.06L623.406 1056.06L623.776 1056.06L624.146 1056.06L624.516 1056.06L624.886 1056.06L625.255 1056.06L625.625 1056.06L625.995 1056.06L626.365 1056.06L626.735 1056.06L627.105 1056.06L627.475 1056.06L627.845 1056.06L628.215 1056.06L628.585 1056.06L628.955 1056.06L629.325 1056.06L629.695 1056.06L630.065 1056.06L630.435 1056.06L630.805 1056.06L631.175 1056.06L631.545 1056.06L631.915 1056.06L632.285 1056.06L632.655 1056.06L633.025 1056.06L633.395 1056.06L633.765 1056.06L634.135 1056.06L634.505 1056.06L634.875 1056.06L635.245 1056.06L635.615 1056.06L635.985 1056.06L636.355 1056.06L636.725 1056.06L637.095 1056.06L637.465 1056.06L637.835 1056.06L638.205 1056.06L638.575 1056.06L638.945 1056.06L639.315 1056.06L639.685 1056.06L640.055 1056.06L640.425 1056.06L640.795 1056.06L641.165 1056.06L641.535 1056.06L641.905 1056.06L642.275 1056.06L642.645 1056.06L643.015 1056.06L643.385 1056.06L643.755 1056.06L644.125 1056.06L644.495 1056.06L644.865 1056.06L645.235 1056.06L645.605 1056.06L645.975 1056.06L646.345 1056.06L646.715 1056.06L647.085 1056.06L647.455 1056.06L647.825 1056.06L648.195 1056.06L648.565 1056.06L648.935 1056.06L649.305 1056.06L649.675 1056.06L650.045 1056.06L650.415 1056.06L650.785 1056.06L651.155 1056.06L651.525 1056.06L651.895 1056.06L652.265 1056.06L652.635 1056.06L653.005 1056.06L653.375 1056.06L653.745 1056.06L654.115 1056.06L654.485 1056.06L654.855 1056.06L655.225 1056.06L655.595 1056.06L655.965 1056.06L656.335 1056.06L656.705 1056.06L657.075 1056.06L657.445 1056.06L657.815 1056.06L658.185 1056.06L658.555 1056.06L658.925 1056.06L659.295 1056.06L659.665 1056.06L660.035 1056.06L660.405 1056.06L660.775 1056.06L661.145 1056.06L661.514 1056.06L661.884 1056.06L662.254 1056.06L662.624 1056.06L662.994 1056.06L663.364 1056.06L663.734 1056.06L664.104 1056.06L664.474 1056.06L664.844 1056.06L665.214 1056.06L665.584 1056.06L665.954 1056.06L666.324 1056.06L666.694 1056.06L667.064 1056.06L667.434 1056.06L667.804 1056.06L668.174 1056.06L668.544 1056.06L668.914 1056.06L669.284 1056.06L669.654 1056.06L670.024 1056.06L670.394 1056.06L670.764 1056.06L671.134 1056.06L671.504 1056.06L671.874 1056.06L672.244 1056.06L672.614 1056.06L672.984 1056.06L673.354 1056.06L673.724 1056.06L674.094 1056.06L674.464 1056.06L674.834 1056.06L675.204 1056.06L675.574 1056.06L675.944 1056.06L676.314 1056.06L676.684 1056.06L677.054 1056.06L677.424 1056.06L677.794 1056.06L678.164 1056.06L678.534 1056.06L678.904 1056.06L679.274 1056.06L679.644 1056.06L680.014 1056.06L680.384 1056.06L680.754 1056.06L681.124 1056.06L681.494 1056.06L681.864 1056.06L682.234 1056.06L682.604 1056.06L682.974 1056.06L683.344 1056.06L683.714 1056.06L684.084 1056.06L684.454 1056.06L684.824 1056.06L685.194 1056.06L685.564 1056.06L685.934 1056.06L686.304 1056.06L686.674 1056.06L687.044 1056.06L687.414 1056.06L687.784 1056.06L688.154 1056.06L688.524 1056.06L688.894 1056.06L689.264 1056.06L689.634 1056.06L690.004 1056.06L690.374 1056.06L690.744 1056.06L691.114 1056.06L691.484 1056.06L691.854 1056.06L692.224 1056.06L692.594 1056.06L692.964 1056.06L693.334 1056.06L693.704 1056.06L694.074 1056.06L694.444 1056.06L694.814 1056.06L695.184 1056.06L695.554 1056.06L695.924 1056.06L696.294 1056.06L696.664 1056.06L697.034 1056.06L697.404 1056.06L697.774 1056.06L698.144 1056.06L698.514 1056.06L698.884 1056.06L699.254 1056.06L699.624 1056.06L699.994 1056.06L700.363 1056.06L700.733 1056.06L701.103 1056.06L701.473 1056.06L701.843 1056.06L702.213 1056.06L702.583 1056.06L702.953 1056.06L703.323 1056.06L703.693 1056.06L704.063 1056.06L704.433 1056.06L704.803 1056.06L705.173 1056.06L705.543 1056.06L705.913 1056.06L706.283 1056.06L706.653 1056.06L707.023 1056.06L707.393 1056.06L707.763 1056.06L708.133 1056.06L708.503 1056.06L708.873 1056.06L709.243 1056.06L709.613 1056.06L709.983 1056.06L710.353 1056.06L710.723 1056.06L711.093 1056.06L711.463 1056.06L711.833 1056.06L712.203 1056.06L712.573 1056.06L712.943 1056.06L713.313 1056.06L713.683 1056.06L714.053 1056.06L714.423 1056.06L714.793 1056.06L715.163 1056.06L715.533 1056.06L715.903 1056.06L716.273 1056.06L716.643 1056.06L717.013 1056.06L717.383 1056.06L717.753 1056.06L718.123 1056.06L718.493 1056.06L718.863 1056.06L719.233 1056.06L719.603 1056.06L719.973 1056.06L720.343 1056.06L720.713 1056.06L721.083 1056.06L721.453 1056.06L721.823 1056.06L722.193 1056.06L722.563 1056.06L722.933 1056.06L723.303 1056.06L723.673 1056.06L724.043 1056.06L724.413 1056.06L724.783 1056.06L725.153 1056.06L725.523 1056.06L725.893 1056.06L726.263 1056.06L726.633 1056.06L727.003 1056.06L727.373 1056.06L727.743 1056.06L728.113 1056.06L728.483 1056.06L728.853 1056.06L729.223 1056.06L729.593 1056.06L729.963 1056.06L730.333 1056.06L730.703 1056.06L731.073 1056.06L731.443 1056.06L731.813 1056.06L732.183 1056.06L732.553 1056.06L732.923 1056.06L733.293 1056.06L733.663 1056.06L734.033 1056.06L734.403 1056.06L734.773 1056.06L735.143 1056.06L735.513 1056.06L735.883 1056.06L736.253 1056.06L736.622 1056.06L736.992 1056.06L737.362 1056.06L737.732 1056.06L738.102 1056.06L738.472 1056.06L738.842 1056.06L739.212 1056.06L739.582 1056.06L739.952 1056.06L740.322 1056.06L740.692 1056.06L741.062 1056.06L741.432 1056.06L741.802 1056.06L742.172 1056.06L742.542 1056.06L742.912 1056.06L743.282 1056.06L743.652 1056.06L744.022 1056.06L744.392 1056.06L744.762 1056.06L745.132 1056.06L745.502 1056.06L745.872 1056.06L746.242 1056.06L746.612 1056.06L746.982 1056.06L747.352 1056.06L747.722 1056.06L748.092 1056.06L748.462 1056.06L748.832 1056.06L749.202 1056.06L749.572 1056.06L749.942 1056.06L750.312 1056.06L750.682 1056.06L751.052 1056.06L751.422 1056.06L751.792 1056.06L752.162 1056.06L752.532 1056.06L752.902 1056.06L753.272 1056.06L753.642 1056.06L754.012 1056.06L754.382 1056.06L754.752 1056.06L755.122 1056.06L755.492 1056.06L755.862 1056.06L756.232 1056.06L756.602 1056.06L756.972 1056.06L757.342 1056.06L757.712 1056.06L758.082 1056.06L758.452 1056.06L758.822 1056.06L759.192 1056.06L759.562 1056.06L759.932 1056.06L760.302 1056.06L760.672 1056.06L761.042 1056.06L761.412 1056.06L761.782 1056.06L762.152 1056.06L762.522 1056.06L762.892 1056.06L763.262 1056.06L763.632 1056.06L764.002 1056.06L764.372 1056.06L764.742 1056.06L765.112 1056.06L765.482 1056.06L765.852 1056.06L766.222 1056.06L766.592 1056.06L766.962 1056.06L767.332 1056.06L767.702 1056.06L768.072 1056.06L768.442 1056.06L768.812 1056.06L769.182 1056.06L769.552 1056.06L769.922 1056.06L770.292 1056.06L770.662 1056.06L771.032 1056.06L771.402 1056.06L771.772 1056.06L772.142 1056.06L772.512 1056.06L772.882 1056.06L773.251 1056.06L773.621 1056.06L773.991 1056.06L774.361 1056.06L774.731 1056.06L775.101 1056.06L775.471 1056.06L775.841 1056.06L776.211 1056.06L776.581 1056.06L776.951 1056.06L777.321 1056.06L777.691 1056.06L778.061 1056.06L778.431 1056.06L778.801 1056.06L779.171 1056.06L779.541 1056.06L779.911 1056.06L780.281 1056.06L780.651 1056.06L781.021 1056.06L781.391 1056.06L781.761 1056.06L782.131 1056.06L782.501 1056.06L782.871 1056.06L783.241 1056.06L783.611 1056.06L783.981 1056.06L784.351 1056.06L784.721 1056.06L785.091 1056.06L785.461 1056.06L785.831 1056.06L786.201 1056.06L786.571 1056.06L786.941 1056.06L787.311 1056.06L787.681 1056.06L788.051 1056.06L788.421 1056.06L788.791 1056.06L789.161 1056.06L789.531 1056.06L789.901 1056.06L790.271 1056.06L790.641 1056.06L791.011 1056.06L791.381 1056.06L791.751 1056.06L792.121 1056.06L792.491 1056.06L792.861 1056.06L793.231 1056.06L793.601 1056.06L793.971 1056.06L794.341 1056.06L794.711 1056.06L795.081 1056.06L795.451 1056.06L795.821 1056.06C799.642 1056.06 802.452 1056.78 804.776 1058.29C807.106 1059.81 808.999 1062.17 810.922 1065.55C841.967 1129.85 855.556 1198.06 860.41 1268.25C864.294 1325.78 863.32 1384.26 849.737 1440.77L849.736 1440.77C817.723 1579.1 714.912 1674.54 574.259 1694.02L574.258 1694.02C491.757 1705.72 411.229 1698.89 335.564 1662.85C230.8 1612.2 169.691 1527.47 147.376 1413.48L147.375 1413.47C134.761 1350.14 137.669 1285.82 143.497 1221.44C148.35 1170.76 159.027 1121.05 174.559 1072.31C176.008 1068.42 177.426 1065.86 179.494 1064.24C181.552 1062.64 184.334 1061.91 188.658 1061.91L189.056 1061.91L189.455 1061.91L189.853 1061.91L190.252 1061.91L190.65 1061.91L191.049 1061.91L191.448 1061.91L191.846 1061.91L192.245 1061.91L192.643 1061.91L193.042 1061.91L193.441 1061.91L193.84 1061.91L194.238 1061.91L194.637 1061.91L195.036 1061.91L195.435 1061.91L195.833 1061.91L196.232 1061.91L196.631 1061.91L197.03 1061.91L197.429 1061.91L197.828 1061.91L198.227 1061.91L198.626 1061.91L199.025 1061.91L199.424 1061.91L199.823 1061.91L200.222 1061.91L200.621 1061.91L201.02 1061.91L201.419 1061.91L201.818 1061.91L202.217 1061.91L202.617 1061.91L203.016 1061.91L203.415 1061.91L203.814 1061.91L204.213 1061.91L204.613 1061.91L205.012 1061.91L205.411 1061.91L205.811 1061.91L206.21 1061.91L206.609 1061.91L207.009 1061.91L207.408 1061.91L207.807 1061.91L208.207 1061.91L208.606 1061.91L209.006 1061.91L209.405 1061.91L209.805 1061.91L210.204 1061.91L210.604 1061.91L211.003 1061.91L211.403 1061.91L211.803 1061.91L212.202 1061.91L212.602 1061.91L213.001 1061.91L213.401 1061.91L213.801 1061.91L214.2 1061.91L214.6 1061.91L215 1061.91L215.4 1061.91L215.799 1061.91L216.199 1061.91L216.599 1061.91L216.999 1061.91L217.399 1061.91L217.798 1061.91L218.198 1061.91L218.598 1061.91L218.998 1061.91L219.398 1061.91L219.798 1061.91L220.198 1061.91L220.598 1061.91L220.998 1061.91L221.398 1061.91L221.798 1061.91L222.198 1061.91L222.598 1061.91L222.998 1061.91L223.398 1061.91L223.798 1061.91L224.198 1061.91L224.598 1061.91L224.998 1061.91L225.398 1061.91L225.798 1061.91L226.198 1061.91L226.599 1061.91L226.999 1061.91L227.399 1061.91L227.799 1061.91L228.199 1061.91L228.6 1061.91L229 1061.91L229.4 1061.91L229.8 1061.91L230.201 1061.91L230.601 1061.91L231.001 1061.91L231.402 1061.91L231.802 1061.91L232.202 1061.91L232.603 1061.91L233.003 1061.91L233.403 1061.91L233.804 1061.91L234.204 1061.91L234.605 1061.91L235.005 1061.91L235.406 1061.91L235.806 1061.91L236.206 1061.91L236.607 1061.91L237.007 1061.91L237.408 1061.91L237.809 1061.91L238.209 1061.91L238.61 1061.91L239.01 1061.91L239.411 1061.91L239.811 1061.91L240.212 1061.91L240.612 1061.91L241.013 1061.91L241.414 1061.91L241.814 1061.91L242.215 1061.91L242.616 1061.91L243.016 1061.91L243.417 1061.91L243.818 1061.91L244.218 1061.91L244.619 1061.91L245.02 1061.91L245.421 1061.91L245.821 1061.91L246.222 1061.91L246.623 1061.91L247.024 1061.91L247.424 1061.91L247.825 1061.91L248.226 1061.91L248.627 1061.91L249.028 1061.91L249.428 1061.91L249.829 1061.91L250.23 1061.91L250.631 1061.91L251.032 1061.91L251.433 1061.91L251.833 1061.91L252.234 1061.91L252.635 1061.91L253.036 1061.91L253.437 1061.91L253.838 1061.91L254.239 1061.91L254.64 1061.91L255.041 1061.91L255.442 1061.91L255.843 1061.91L256.244 1061.91L256.645 1061.91L257.046 1061.91L257.447 1061.91L257.848 1061.91L258.249 1061.91L258.65 1061.91L259.051 1061.91L259.452 1061.91L259.853 1061.91L260.254 1061.91L260.655 1061.91L261.056 1061.91L261.457 1061.91L261.858 1061.91L262.259 1061.91L262.66 1061.91L263.061 1061.91L263.462 1061.91L263.863 1061.91L264.264 1061.91L264.666 1061.91L265.067 1061.91L265.468 1061.91L265.869 1061.91L266.27 1061.91L266.671 1061.91L267.072 1061.91L267.473 1061.91L267.875 1061.91L268.276 1061.91L268.677 1061.91L269.078 1061.91L269.479 1061.91L269.88 1061.91L270.282 1061.91L270.683 1061.91L271.084 1061.91L271.485 1061.91L271.886 1061.91L272.287 1061.91L272.689 1061.91L273.09 1061.91L273.491 1061.91L273.892 1061.91L274.294 1061.91L274.695 1061.91L275.096 1061.91L275.497 1061.91L275.898 1061.91L276.3 1061.91L276.701 1061.91L277.102 1061.91L277.503 1061.91L277.905 1061.91L278.306 1061.91L278.707 1061.91L279.108 1061.91L279.51 1061.91L279.911 1061.91L280.312 1061.91L280.713 1061.91L281.115 1061.91L281.516 1061.91L281.917 1061.91L282.319 1061.91L282.72 1061.91L283.121 1061.91L283.522 1061.91L283.924 1061.91L284.325 1061.91L284.726 1061.91L285.128 1061.91L285.529 1061.91L285.93 1061.91L286.331 1061.91L286.733 1061.91L287.134 1061.91L287.535 1061.91L287.937 1061.91L288.338 1061.91L288.739 1061.91L289.14 1061.91L289.542 1061.91L289.943 1061.91L290.344 1061.91L290.746 1061.91L291.147 1061.91L291.548 1061.91L291.95 1061.91L292.351 1061.91L292.752 1061.91L293.153 1061.91L293.555 1061.91L293.956 1061.91L294.357 1061.91L294.759 1061.91L295.16 1061.91L295.561 1061.91L295.962 1061.91L296.364 1061.91L296.765 1061.91L297.166 1061.91L297.568 1061.91L297.969 1061.91L298.37 1061.91L298.771 1061.91L299.173 1061.91L299.574 1061.91L299.975 1061.91L300.377 1061.91L300.778 1061.91L301.179 1061.91L301.58 1061.91L301.982 1061.91L302.383 1061.91L302.784 1061.91L303.185 1061.91L303.587 1061.91L303.988 1061.91L304.389 1061.91L304.79 1061.91L305.192 1061.91L305.593 1061.91L305.994 1061.91L306.395 1061.91L306.797 1061.91L307.198 1061.91L307.599 1061.91L308 1061.91L308.402 1061.91L308.803 1061.91L309.204 1061.91L309.605 1061.91L310.006 1061.91L310.408 1061.91L310.809 1061.91L311.21 1061.91L311.611 1061.91L312.012 1061.91L312.414 1061.91L312.815 1061.91L313.216 1061.91L313.617 1061.91L314.018 1061.91L314.419 1061.91L314.82 1061.91L315.222 1061.91L315.623 1061.91L316.024 1061.91L316.425 1061.91L316.826 1061.91L317.227 1061.91L317.628 1061.91L318.029 1061.91L318.431 1061.91L318.832 1061.91L319.233 1061.91L319.634 1061.91L320.035 1061.91L320.436 1061.91L320.837 1061.91L321.238 1061.91L321.639 1061.91L322.04 1061.91L322.441 1061.91L322.842 1061.91L323.243 1061.91L323.644 1061.91L324.045 1061.91L324.446 1061.91L324.847 1061.91L325.248 1061.91L325.649 1061.91L326.05 1061.91L326.451 1061.91L326.852 1061.91L327.253 1061.91L327.654 1061.91L328.055 1061.91L328.456 1061.91L328.857 1061.91L329.258 1061.91L329.659 1061.91L330.06 1061.91L330.46 1061.91L330.861 1061.91L331.262 1061.91L331.663 1061.91L332.064 1061.91L332.465 1061.91L332.866 1061.91L333.266 1061.91L333.667 1061.91L334.068 1061.91L334.469 1061.91L334.87 1061.91L335.27 1061.91L335.671 1061.91L336.072 1061.91L336.473 1061.91L336.873 1061.91L337.274 1061.91L337.675 1061.91L338.075 1061.91L338.476 1061.91L338.877 1061.91L339.278 1061.91L339.678 1061.91L340.079 1061.91L340.48 1061.91L340.88 1061.91L341.281 1061.91L341.681 1061.91L342.082 1061.91L342.483 1061.91L342.883 1061.91L343.284 1061.91L343.684 1061.91L344.085 1061.91L344.485 1061.91L344.886 1061.91L345.286 1061.91L345.687 1061.91L346.087 1061.91L346.488 1061.91L346.888 1061.91L347.289 1061.91L347.689 1061.91L348.09 1061.91L348.49 1061.91L348.89 1061.91L349.291 1061.91L349.691 1061.91L350.092 1061.91L350.492 1061.91L350.892 1061.91L351.293 1061.91L351.693 1061.91L352.093 1061.91L352.494 1061.91L352.894 1061.91L353.294 1061.91L353.694 1061.91L354.095 1061.91L354.495 1061.91L354.895 1061.91L355.295 1061.91L355.695 1061.91L356.095 1061.91L356.496 1061.91L356.896 1061.91L357.296 1061.91L357.696 1061.91L358.096 1061.91L358.496 1061.91L358.896 1061.91L359.296 1061.91L359.696 1061.91L360.096 1061.91L360.496 1061.91L360.896 1061.91L361.296 1061.91L361.696 1061.91L362.096 1061.91L362.496 1061.91L362.896 1061.91L363.296 1061.91L363.696 1061.91L364.096 1061.91L364.496 1061.91L364.895 1061.91L365.295 1061.91L365.695 1061.91L366.095 1061.91L366.495 1061.91L366.894 1061.91L367.294 1061.91L367.694 1061.91L368.093 1061.91L368.493 1061.91L368.893 1061.91L369.292 1061.91L369.692 1061.91L370.092 1061.91L370.491 1061.91L370.891 1061.91L371.29 1061.91L371.69 1061.91L372.09 1061.91L372.489 1061.91L372.889 1061.91L373.288 1061.91L373.688 1061.91L374.087 1061.91L374.486 1061.91L374.886 1061.91L375.285 1061.91L375.685 1061.91L376.084 1061.91L376.483 1061.91L376.883 1061.91L377.282 1061.91L377.681 1061.91L378.08 1061.91L378.48 1061.91L378.879 1061.91L379.278 1061.91L379.677 1061.91L380.076 1061.91L380.476 1061.91L380.875 1061.91L381.274 1061.91L381.673 1061.91L382.072 1061.91L382.471 1061.91L382.87 1061.91L383.269 1061.91L383.668 1061.91L384.067 1061.91L384.466 1061.91L384.865 1061.91L385.264 1061.91L385.663 1061.91L386.062 1061.91L386.46 1061.91L386.859 1061.91L387.258 1061.91L387.657 1061.91L388.056 1061.91L388.454 1061.91L388.853 1061.91L389.252 1061.91L389.65 1061.91L390.049 1061.91L390.448 1061.91L390.846 1061.91L391.245 1061.91L391.644 1061.91L392.042 1061.91L392.441 1061.91L392.839 1061.91L393.238 1061.91L393.636 1061.91L403.487 1061.91C403.293 1062.27 403.099 1062.63 402.907 1062.99C396.526 1074.89 391.011 1085.17 386.377 1096.33C358.171 1158.84 347.473 1224.28 353.308 1292.65C356.718 1333.74 373.284 1366.79 399.503 1389.32C425.72 1411.85 461.548 1423.83 503.423 1422.85C530.679 1422.36 555.289 1417.23 576.505 1405.96C597.727 1394.7 615.524 1377.31 629.168 1352.35Z" stroke="white" stroke-opacity="0.15"/>
<path d="M471.286 717.544L471.293 717.545C512.162 722.431 551.151 718.529 586.255 696.008L586.263 696.003C621.365 672.504 640.871 638.223 644.77 597.108C652.551 515.071 637.962 436.932 599.055 363.678L599.044 363.657L599.03 363.636C598.08 362.205 597.364 360.77 596.639 359.192C596.43 358.737 596.22 358.269 596.003 357.786C595.562 356.806 595.094 355.764 594.552 354.645C596.209 354.59 597.688 354.375 599.054 354.164L599.384 354.113C600.844 353.886 602.159 353.682 603.471 353.682L603.847 353.682L604.222 353.682L604.598 353.682L604.974 353.682L605.349 353.682L605.725 353.682L606.1 353.682L606.476 353.682L606.851 353.682L607.227 353.682L607.602 353.682L607.978 353.682L608.353 353.682L608.729 353.682L609.104 353.682L609.479 353.682L609.855 353.682L610.23 353.682L610.605 353.682L610.98 353.682L611.356 353.682L611.731 353.682L612.106 353.682L612.481 353.682L612.856 353.682L613.232 353.682L613.607 353.682L613.982 353.682L614.357 353.682L614.732 353.682L615.107 353.682L615.482 353.682L615.857 353.682L616.232 353.682L616.607 353.682L616.982 353.682L617.357 353.682L617.732 353.682L618.107 353.682L618.482 353.682L618.856 353.682L619.231 353.682L619.606 353.682L619.981 353.682L620.356 353.682L620.73 353.682L621.105 353.682L621.48 353.682L621.855 353.682L622.229 353.682L622.604 353.682L622.979 353.682L623.353 353.682L623.728 353.682L624.102 353.682L624.477 353.682L624.852 353.682L625.226 353.682L625.601 353.682L625.975 353.682L626.35 353.682L626.724 353.682L627.099 353.682L627.473 353.682L627.847 353.682L628.222 353.682L628.596 353.682L628.971 353.682L629.345 353.682L629.719 353.682L630.094 353.682L630.468 353.682L630.842 353.682L631.217 353.682L631.591 353.682L631.965 353.682L632.339 353.682L632.714 353.682L633.088 353.682L633.462 353.682L633.836 353.682L634.21 353.682L634.584 353.682L634.959 353.682L635.333 353.682L635.707 353.682L636.081 353.682L636.455 353.682L636.829 353.682L637.203 353.682L637.577 353.682L637.951 353.682L638.325 353.682L638.699 353.682L639.073 353.682L639.447 353.682L639.821 353.682L640.195 353.682L640.569 353.682L640.943 353.682L641.317 353.682L641.69 353.682L642.064 353.682L642.438 353.682L642.812 353.682L643.186 353.682L643.56 353.682L643.933 353.682L644.307 353.682L644.681 353.682L645.055 353.682L645.428 353.682L645.802 353.682L646.176 353.682L646.55 353.682L646.923 353.682L647.297 353.682L647.671 353.682L648.044 353.682L648.418 353.682L648.792 353.682L649.165 353.682L649.539 353.682L649.912 353.682L650.286 353.682L650.66 353.682L651.033 353.682L651.407 353.682L651.78 353.682L652.154 353.682L652.527 353.682L652.901 353.682L653.274 353.682L653.648 353.682L654.021 353.682L654.395 353.682L654.768 353.682L655.142 353.682L655.515 353.682L655.888 353.682L656.262 353.682L656.635 353.682L657.009 353.682L657.382 353.682L657.755 353.682L658.129 353.682L658.502 353.682L658.876 353.682L659.249 353.682L659.622 353.682L659.996 353.682L660.369 353.682L660.742 353.682L661.115 353.682L661.489 353.682L661.862 353.682L662.235 353.682L662.608 353.682L662.982 353.682L663.355 353.682L663.728 353.682L664.101 353.682L664.475 353.682L664.848 353.682L665.221 353.682L665.594 353.682L665.967 353.682L666.341 353.682L666.714 353.682L667.087 353.682L667.46 353.682L667.833 353.682L668.206 353.682L668.58 353.682L668.953 353.682L669.326 353.682L669.699 353.682L670.072 353.682L670.445 353.682L670.818 353.682L671.191 353.682L671.564 353.682L671.937 353.682L672.31 353.682L672.684 353.682L673.057 353.682L673.43 353.682L673.803 353.682L674.176 353.682L674.549 353.682L674.922 353.682L675.295 353.682L675.668 353.682L676.041 353.682L676.414 353.682L676.787 353.682L677.16 353.682L677.533 353.682L677.906 353.682L678.279 353.682L678.652 353.682L679.025 353.682L679.398 353.682L679.771 353.682L680.143 353.682L680.516 353.682L680.889 353.682L681.262 353.682L681.635 353.682L682.008 353.682L682.381 353.682L682.754 353.682L683.127 353.682L683.5 353.682L683.873 353.682L684.246 353.682L684.619 353.682L684.991 353.682L685.364 353.682L685.737 353.682L686.11 353.682L686.483 353.682L686.856 353.682L687.229 353.682L687.602 353.682L687.975 353.682L688.347 353.682L688.72 353.682L689.093 353.682L689.466 353.682L689.839 353.682L690.212 353.682L690.585 353.682L690.957 353.682L691.33 353.682L691.703 353.682L692.076 353.682L692.449 353.682L692.822 353.682L693.195 353.682L693.567 353.682L693.94 353.682L694.313 353.682L694.686 353.682L695.059 353.682L695.432 353.682L695.805 353.682L696.177 353.682L696.55 353.682L696.923 353.682L697.296 353.682L697.669 353.682L698.042 353.682L698.414 353.682L698.787 353.682L699.16 353.682L699.533 353.682L699.906 353.682L700.279 353.682L700.651 353.682L701.024 353.682L701.397 353.682L701.77 353.682L702.143 353.682L702.516 353.682L702.888 353.682L703.261 353.682L703.634 353.682L704.007 353.682L704.38 353.682L704.753 353.682L705.126 353.682L705.498 353.682L705.871 353.682L706.244 353.682L706.617 353.682L706.99 353.682L707.363 353.682L707.735 353.682L708.108 353.682L708.481 353.682L708.854 353.682L709.227 353.682L709.6 353.682L709.973 353.682L710.346 353.682L710.718 353.682L711.091 353.682L711.464 353.682L711.837 353.682L712.21 353.682L712.583 353.682L712.956 353.682L713.329 353.682L713.702 353.682L714.074 353.682L714.447 353.682L714.82 353.682L715.193 353.682L715.566 353.682L715.939 353.682L716.312 353.682L716.685 353.682L717.058 353.682L717.431 353.682L717.804 353.682L718.177 353.682L718.55 353.682L718.923 353.682L719.296 353.682L719.668 353.682L720.041 353.682L720.414 353.682L720.787 353.682L721.16 353.682L721.533 353.682L721.906 353.682L722.279 353.682L722.652 353.682L723.025 353.682L723.398 353.682L723.771 353.682L724.144 353.682L724.517 353.682L724.891 353.682L725.264 353.682L725.637 353.682L726.01 353.682L726.383 353.682L726.756 353.682L727.129 353.682L727.502 353.682L727.875 353.682L728.248 353.682L728.621 353.682L728.994 353.682L729.367 353.682L729.741 353.682L730.114 353.682L730.487 353.682L730.86 353.682L731.233 353.682L731.606 353.682L731.98 353.682L732.353 353.682L732.726 353.682L733.099 353.682L733.472 353.682L733.845 353.682L734.219 353.682L734.592 353.682L734.965 353.682L735.338 353.682L735.712 353.682L736.085 353.682L736.458 353.682L736.831 353.682L737.205 353.682L737.578 353.682L737.951 353.682L738.325 353.682L738.698 353.682L739.071 353.682L739.445 353.682L739.818 353.682L740.191 353.682L740.565 353.682L740.938 353.682L741.311 353.682L741.685 353.682L742.058 353.682L742.432 353.682L742.805 353.682L743.178 353.682L743.552 353.682L743.925 353.682L744.299 353.682L744.672 353.682L745.046 353.682L745.419 353.682L745.793 353.682L746.166 353.682L746.54 353.682L746.913 353.682L747.287 353.682L747.661 353.682L748.034 353.682L748.408 353.682L748.781 353.682L749.155 353.682L749.529 353.682L749.902 353.682L750.276 353.682L750.65 353.682L751.023 353.682L751.397 353.682L751.771 353.682L752.144 353.682L752.518 353.682L752.892 353.682L753.265 353.682L753.639 353.682L754.013 353.682L754.387 353.682L754.761 353.682L755.134 353.682L755.508 353.682L755.882 353.682L756.256 353.682L756.63 353.682L757.004 353.682L757.377 353.682L757.751 353.682L758.125 353.682L758.499 353.682L758.873 353.682L759.247 353.682L759.621 353.682L759.995 353.682L760.369 353.682L760.743 353.682L761.117 353.682L761.491 353.682L761.865 353.682L762.239 353.682L762.613 353.682L762.987 353.682L763.362 353.682L763.736 353.682L764.11 353.682L764.484 353.682L764.858 353.682L765.232 353.682L765.607 353.682L765.981 353.682L766.355 353.682L766.729 353.682L767.103 353.682L767.478 353.682L767.852 353.682L768.226 353.682L768.601 353.682L768.975 353.682L769.349 353.682L769.724 353.682L770.098 353.682L770.473 353.682L770.847 353.682L771.222 353.682L771.596 353.682L771.97 353.682L772.345 353.682L772.719 353.682L773.094 353.682L773.469 353.682L773.843 353.682L774.218 353.682L774.592 353.682L774.967 353.682L775.342 353.682L775.716 353.682L776.091 353.682L776.466 353.682L776.84 353.682L777.215 353.682L777.59 353.682L777.964 353.682L778.339 353.682L778.714 353.682L779.089 353.682L779.464 353.682L779.839 353.682L780.213 353.682L780.588 353.682L780.963 353.682L781.338 353.682L781.713 353.682L782.088 353.682L782.463 353.682L782.838 353.682L783.213 353.682L783.588 353.682L783.963 353.682L784.338 353.682L784.713 353.682L785.088 353.682L785.464 353.682L785.839 353.682L786.214 353.682L786.589 353.682L786.964 353.682L787.34 353.682L787.715 353.682L788.09 353.682L788.466 353.682L788.841 353.682L789.216 353.682L789.592 353.682L789.967 353.682L790.342 353.682L790.718 353.682L791.093 353.682L791.469 353.682L791.844 353.682L792.22 353.682L792.595 353.682L792.971 353.682L793.346 353.682L793.722 353.682L794.098 353.682L794.473 353.682L794.849 353.682C798.669 353.682 801.226 354.4 803.299 355.904C805.388 357.419 807.042 359.77 808.978 363.17C840.023 427.475 853.612 495.688 858.466 565.877C862.351 624.383 861.377 681.883 847.793 739.371L847.792 739.372C815.781 876.719 711.999 972.168 573.285 992.624C488.839 1004.32 406.373 997.493 329.741 959.504L329.74 959.503C226.921 908.853 167.749 823.148 145.432 712.073C132.818 648.739 135.726 584.415 141.554 521.016C146.408 469.352 157.086 418.664 173.588 369.926L173.589 369.924C174.559 367 175.499 364.917 176.975 363.548C178.428 362.202 180.471 361.486 183.8 361.486L184.216 361.486L184.631 361.486L185.047 361.486L185.462 361.486L185.878 361.486L186.294 361.486L186.709 361.486L187.125 361.486L187.541 361.486L187.956 361.486L188.372 361.486L188.788 361.486L189.204 361.486L189.62 361.486L190.035 361.486L190.451 361.486L190.867 361.486L191.283 361.486L191.699 361.486L192.115 361.486L192.531 361.486L192.947 361.486L193.363 361.486L193.779 361.486L194.195 361.486L194.611 361.486L195.027 361.486L195.443 361.486L195.859 361.486L196.276 361.486L196.692 361.486L197.108 361.486L197.524 361.486L197.94 361.486L198.357 361.486L198.773 361.486L199.189 361.486L199.605 361.486L200.022 361.486L200.438 361.486L200.854 361.486L201.271 361.486L201.687 361.486L202.104 361.486L202.52 361.486L202.936 361.486L203.353 361.486L203.769 361.486L204.186 361.486L204.602 361.486L205.019 361.486L205.436 361.486L205.852 361.486L206.269 361.486L206.685 361.486L207.102 361.486L207.519 361.486L207.935 361.486L208.352 361.486L208.769 361.486L209.185 361.486L209.602 361.486L210.019 361.486L210.436 361.486L210.852 361.486L211.269 361.486L211.686 361.486L212.103 361.486L212.52 361.486L212.936 361.486L213.353 361.486L213.77 361.486L214.187 361.486L214.604 361.486L215.021 361.486L215.438 361.486L215.855 361.486L216.272 361.486L216.689 361.486L217.106 361.486L217.523 361.486L217.94 361.486L218.357 361.486L218.774 361.486L219.191 361.486L219.608 361.486L220.026 361.486L220.443 361.486L220.86 361.486L221.277 361.486L221.694 361.486L222.111 361.486L222.529 361.486L222.946 361.486L223.363 361.486L223.78 361.486L224.198 361.486L224.615 361.486L225.032 361.486L225.449 361.486L225.867 361.486L226.284 361.486L226.702 361.486L227.119 361.486L227.536 361.486L227.954 361.486L228.371 361.486L228.788 361.486L229.206 361.486L229.623 361.486L230.041 361.486L230.458 361.486L230.876 361.486L231.293 361.486L231.711 361.486L232.128 361.486L232.546 361.486L232.963 361.486L233.381 361.486L233.798 361.486L234.216 361.486L234.634 361.486L235.051 361.486L235.469 361.486L235.886 361.486L236.304 361.486L236.722 361.486L237.139 361.486L237.557 361.486L237.975 361.486L238.392 361.486L238.81 361.486L239.228 361.486L239.646 361.486L240.063 361.486L240.481 361.486L240.899 361.486L241.317 361.486L241.734 361.486L242.152 361.486L242.57 361.486L242.988 361.486L243.405 361.486L243.823 361.486L244.241 361.486L244.659 361.486L245.077 361.486L245.495 361.486L245.913 361.486L246.33 361.486L246.748 361.486L247.166 361.486L247.584 361.486L248.002 361.486L248.42 361.486L248.838 361.486L249.256 361.486L249.674 361.486L250.092 361.486L250.51 361.486L250.928 361.486L251.346 361.486L251.764 361.486L252.182 361.486L252.6 361.486L253.018 361.486L253.436 361.486L253.854 361.486L254.272 361.486L254.69 361.486L255.108 361.486L255.526 361.486L255.944 361.486L256.362 361.486L256.78 361.486L257.198 361.486L257.616 361.486L258.035 361.486L258.453 361.486L258.871 361.486L259.289 361.486L259.707 361.486L260.125 361.486L260.543 361.486L260.961 361.486L261.38 361.486L261.798 361.486L262.216 361.486L262.634 361.486L263.052 361.486L263.47 361.486L263.889 361.486L264.307 361.486L264.725 361.486L265.143 361.486L265.562 361.486L265.98 361.486L266.398 361.486L266.816 361.486L267.234 361.486L267.653 361.486L268.071 361.486L268.489 361.486L268.907 361.486L269.326 361.486L269.744 361.486L270.162 361.486L270.58 361.486L270.999 361.486L271.417 361.486L271.835 361.486L272.254 361.486L272.672 361.486L273.09 361.486L273.508 361.486L273.927 361.486L274.345 361.486L274.763 361.486L275.182 361.486L275.6 361.486L276.018 361.486L276.437 361.486L276.855 361.486L277.273 361.486L277.692 361.486L278.11 361.486L278.528 361.486L278.947 361.486L279.365 361.486L279.783 361.486L280.202 361.486L280.62 361.486L281.038 361.486L281.457 361.486L281.875 361.486L282.293 361.486L282.712 361.486L283.13 361.486L283.549 361.486L283.967 361.486L284.385 361.486L284.804 361.486L285.222 361.486L285.64 361.486L286.059 361.486L286.477 361.486L286.895 361.486L287.314 361.486L287.732 361.486L288.151 361.486L288.569 361.486L288.987 361.486L289.406 361.486L289.824 361.486L290.242 361.486L290.661 361.486L291.079 361.486L291.498 361.486L291.916 361.486L292.334 361.486L292.753 361.486L293.171 361.486L293.589 361.486L294.008 361.486L294.426 361.486L294.845 361.486L295.263 361.486L295.681 361.486L296.1 361.486L296.518 361.486L296.936 361.486L297.355 361.486L297.773 361.486L298.191 361.486L298.61 361.486L299.028 361.486L299.446 361.486L299.865 361.486L300.283 361.486L300.702 361.486L301.12 361.486L301.538 361.486L301.957 361.486L302.375 361.486L302.793 361.486L303.212 361.486L303.63 361.486L304.048 361.486L304.467 361.486L304.885 361.486L305.303 361.486L305.722 361.486L306.14 361.486L306.558 361.486L306.976 361.486L307.395 361.486L307.813 361.486L308.231 361.486L308.65 361.486L309.068 361.486L309.486 361.486L309.905 361.486L310.323 361.486L310.741 361.486L311.159 361.486L311.578 361.486L311.996 361.486L312.414 361.486L312.832 361.486L313.251 361.486L313.669 361.486L314.087 361.486L314.505 361.486L314.924 361.486L315.342 361.486L315.76 361.486L316.178 361.486L316.596 361.486L317.015 361.486L317.433 361.486L317.851 361.486L318.269 361.486L318.687 361.486L319.106 361.486L319.524 361.486L319.942 361.486L320.36 361.486L320.778 361.486L321.196 361.486L321.615 361.486L322.033 361.486L322.451 361.486L322.869 361.486L323.287 361.486L323.705 361.486L324.123 361.486L324.541 361.486L324.959 361.486L325.377 361.486L325.796 361.486L326.214 361.486L326.632 361.486L327.05 361.486L327.468 361.486L327.886 361.486L328.304 361.486L328.722 361.486L329.14 361.486L329.558 361.486L329.976 361.486L330.394 361.486L330.812 361.486L331.23 361.486L331.648 361.486L332.066 361.486L332.484 361.486L332.902 361.486L333.319 361.486L333.737 361.486L334.155 361.486L334.573 361.486L334.991 361.486L335.409 361.486L335.827 361.486L336.245 361.486L336.663 361.486L337.08 361.486L337.498 361.486L337.916 361.486L338.334 361.486L338.752 361.486L339.169 361.486L339.587 361.486L340.005 361.486L340.423 361.486L340.841 361.486L341.258 361.486L341.676 361.486L342.094 361.486L342.511 361.486L342.929 361.486L343.347 361.486L343.765 361.486L344.182 361.486L344.6 361.486L345.018 361.486L345.435 361.486L345.853 361.486L346.27 361.486L346.688 361.486L347.106 361.486L347.523 361.486L347.941 361.486L348.358 361.486L348.776 361.486L349.193 361.486L349.611 361.486L350.028 361.486L350.446 361.486L350.863 361.486L351.281 361.486L351.698 361.486L352.116 361.486L352.533 361.486L352.951 361.486L353.368 361.486L353.785 361.486L354.203 361.486L354.62 361.486L355.037 361.486L355.455 361.486L355.872 361.486L356.289 361.486L356.707 361.486L357.124 361.486L357.541 361.486L357.958 361.486L358.376 361.486L358.793 361.486L359.21 361.486L359.627 361.486L360.045 361.486L360.462 361.486L360.879 361.486L361.296 361.486L361.713 361.486L362.13 361.486L362.547 361.486L362.964 361.486L363.381 361.486L363.799 361.486L364.216 361.486L364.633 361.486L365.05 361.486L365.467 361.486L365.884 361.486L366.301 361.486L366.717 361.486L367.134 361.486L367.551 361.486L367.968 361.486L368.385 361.486L368.802 361.486L369.219 361.486L369.636 361.486L370.052 361.486L370.469 361.486L370.886 361.486L371.303 361.486L371.72 361.486L372.136 361.486L372.553 361.486L372.97 361.486L373.386 361.486L373.803 361.486L374.22 361.486L374.636 361.486L375.053 361.486L375.469 361.486L375.886 361.486L376.303 361.486L376.719 361.486L377.136 361.486L377.552 361.486L377.969 361.486L378.385 361.486L378.802 361.486L379.218 361.486L379.634 361.486L380.051 361.486L380.467 361.486L380.884 361.486L381.3 361.486L381.716 361.486L382.132 361.486L382.549 361.486L382.965 361.486L383.381 361.486L383.798 361.486L384.214 361.486L384.63 361.486L385.046 361.486L385.462 361.486L385.878 361.486L386.294 361.486L386.711 361.486L387.127 361.486L387.543 361.486L387.959 361.486L388.375 361.486L388.791 361.486L389.207 361.486L389.623 361.486L390.038 361.486L390.454 361.486L390.87 361.486L391.286 361.486L391.702 361.486L392.118 361.486L392.534 361.486L392.949 361.486L393.365 361.486L393.781 361.486L394.197 361.486L394.612 361.486L395.028 361.486L395.444 361.486L395.859 361.486L396.275 361.486L396.69 361.486L397.106 361.486L397.521 361.486L397.772 361.486L397.922 361.286C399.31 359.427 400.199 358.765 400.688 358.547C397.062 368.096 393.113 377.422 389.172 386.727C387.377 390.966 385.584 395.2 383.823 399.45C378.114 413.233 372.762 427.156 368.868 441.819C352.341 497.467 344.551 554.132 356.23 611.793C367.932 669.567 412.797 709.713 471.286 717.544Z" stroke="white" stroke-opacity="0.15"/>
<path d="M841.937 2051.05L155.143 2051.05L155.143 1776.95L841.937 1776.95L841.937 2051.05Z" stroke="white" stroke-opacity="0.15"/>
<path d="M841.939 273.667L155.145 273.667L155.145 -0.427551L841.939 -0.427581L841.939 273.667Z" stroke="white" stroke-opacity="0.15"/>
<path d="M119.419 2050.46L9.92578 2050.46L9.92577 1775.75L119.419 1775.75L119.419 2050.46Z" stroke="white" stroke-opacity="0.15"/>
<path d="M118.829 275.047L9.92578 275.047L9.92577 0.549286L118.829 0.549281L118.829 275.047Z" stroke="white" stroke-opacity="0.15"/>
</g>
<defs>
<clipPath id="clip0_995_5166">
<rect width="2671" height="555" fill="white" transform="translate(0 2671) rotate(-90)"/>
</clipPath>
</defs>
</svg>
