<svg width="527" height="244" viewBox="0 0 527 244" fill="none" xmlns="http://www.w3.org/2000/svg">
<g clip-path="url(#clip0_919_2826)">
<path d="M142.768 172.927C165.67 163.419 184.417 153.792 199.008 144.047C213.569 134.331 224.422 124.169 231.508 113.621C231.747 113.264 231.927 112.908 232.166 112.581H173.863V5.25913C160.528 1.78276 145.728 0 129.373 0C105.633 0 84.2255 3.68436 65.1798 11.0234C46.1342 18.3624 30.8558 28.9401 19.4045 42.697C7.92324 56.454 1.46505 72.8553 0 91.9011H79.9799C80.6077 86.1072 82.5811 80.8183 85.9297 76.0643C89.2485 71.3103 94.2118 67.4773 100.76 64.5655C107.308 61.6834 115.799 60.2275 126.234 60.2275C133.738 60.2275 140.196 61.208 145.608 63.169C151.02 65.1301 155.146 67.8933 157.956 71.3994C160.767 74.9352 162.172 79.2733 162.172 84.4432C162.172 89.1973 160.647 93.5947 157.628 97.6357C154.608 101.677 149.256 106.163 141.542 111.125C133.828 116.087 122.706 122.416 108.115 130.052L6.87677 183.773V238.414H248.042V176.315H134.546L142.768 172.898V172.927Z" fill="#F1F1F5"/>
<path d="M254.261 112.581C254.082 115.671 253.962 118.82 253.962 121.999C253.962 146.423 259.643 167.787 270.975 186.119C282.336 204.422 298.243 218.655 318.783 228.816C339.294 238.948 363.183 244.029 390.481 244.029C417.779 244.029 441.668 238.948 462.179 228.816C480.148 219.932 494.619 207.899 505.562 192.715L390.481 112.581H254.261Z" fill="#F1F1F5"/>
<path d="M526.999 122.001C526.999 97.5771 521.318 76.2138 509.987 57.8811C498.625 39.5781 482.689 25.3458 462.178 15.1841C441.667 5.05205 417.778 -0.0288086 390.48 -0.0288086V11.2323V123.813L505.562 192.658C507.086 190.518 508.581 188.319 509.957 186.061C521.318 167.758 526.969 146.365 526.969 121.941L526.999 122.001Z" fill="#F1F1F5"/>
<path d="M215.658 85.8396C215.658 78.8869 215.658 71.9341 215.658 64.9516C215.658 64.6248 215.658 64.298 215.748 64.0008C216.794 61.1484 218.678 59.1577 221.668 58.3852C224.867 57.5532 228.036 57.88 231.146 58.9794C231.505 59.0983 231.863 59.2171 232.252 59.3657V42.4295C230.697 42.3106 229.172 42.1026 227.648 42.0432C222.983 41.8352 219.366 43.7368 216.884 47.6886C216.017 49.0554 215.419 50.6005 214.731 52.0267C214.223 49.1148 213.685 46.1138 213.147 43.0534H198.197V86.731H215.658V85.7802V85.8396Z" fill="#F1F1F5"/>
<path d="M275.666 87.2064C279.254 88.0384 282.902 88.1275 286.55 87.8601C291.004 87.563 295.28 86.6716 299.346 84.7105C299.795 84.5026 299.974 84.2649 299.974 83.7597C299.974 79.7485 299.974 75.767 299.974 71.7558C299.974 71.5479 299.974 71.3102 299.944 71.0427C299.765 71.1319 299.615 71.1616 299.526 71.221C295.25 73.598 290.616 74.4597 285.772 74.3408C284.217 74.3111 282.722 73.9546 281.347 73.1821C278.208 71.4587 276.982 68.636 276.892 65.2191C276.773 59.8708 279.882 56.1567 285.025 55.711C289.3 55.3545 293.426 56.0676 297.343 57.8206C298.091 58.1475 298.778 58.5337 299.586 58.9497V58.296C299.586 53.958 299.586 49.6199 299.586 45.2819C299.586 44.7471 299.406 44.5391 298.928 44.3905C295.848 43.3803 292.709 42.7266 289.51 42.3998C285.473 41.9838 281.407 41.8055 277.4 42.6078C270.255 44.0637 264.873 47.8966 261.674 54.582C259.371 59.3954 258.953 64.5357 259.7 69.7651C260.956 78.6492 266.996 85.186 275.696 87.2361L275.666 87.2064Z" fill="#F1F1F5"/>
<path d="M319.987 87.2073C323.605 88.0392 327.252 88.1283 330.93 87.8609C335.385 87.5638 339.661 86.6724 343.697 84.7114C344.116 84.5034 344.295 84.2954 344.295 83.82C344.295 79.7791 344.295 75.7382 344.295 71.6676C344.295 71.4893 344.295 71.2813 344.235 71.0436C343.966 71.1624 343.787 71.2516 343.607 71.3407C339.003 73.7772 334.069 74.728 328.897 74.2228C326.296 73.9554 324.143 72.7669 322.678 70.5088C321.243 68.2803 320.974 65.8142 321.303 63.2292C321.781 59.4854 324.292 56.6924 327.94 55.9496C331.558 55.2068 335.116 55.7119 338.614 56.7221C340.408 57.2569 342.112 58.0889 343.876 58.7723C343.876 58.7723 343.876 58.7129 343.876 58.6534C343.876 54.1371 343.876 49.5911 343.876 45.0748C343.876 44.6291 343.667 44.5102 343.308 44.3914C340.199 43.3514 337.029 42.668 333.77 42.3412C329.734 41.9549 325.728 41.747 321.721 42.5492C314.665 43.9754 309.313 47.7192 306.114 54.256C303.692 59.1586 303.244 64.388 303.991 69.7362C305.217 78.5312 311.286 85.1571 319.927 87.1775L319.987 87.2073Z" fill="#F1F1F5"/>
<path d="M254.504 43.1719H237.193V86.7603H254.504V43.1719Z" fill="#F1F1F5"/>
<path d="M366.501 43.1431H349.19V86.7315H366.501V43.1431Z" fill="#F1F1F5"/>
<path d="M254.62 26.2061H237.278V38.3585H254.62V26.2061Z" fill="#F1F1F5"/>
<path d="M366.436 26.2061H349.094V38.3585H366.436V26.2061Z" fill="#F1F1F5"/>
</g>
<defs>
<clipPath id="clip0_919_2826">
<rect width="527" height="244" fill="white"/>
</clipPath>
</defs>
</svg>
