<svg width="400" height="400" viewBox="0 0 400 400" fill="none" xmlns="http://www.w3.org/2000/svg">
<mask id="path-1-inside-1_955_7907" fill="white">
<path fill-rule="evenodd" clip-rule="evenodd" d="M164.7 77.1799H77V329.462H179.497V324.117V203.321C179.497 201.539 179.497 199.757 180.219 197.976C186.354 181.585 197.182 170.182 214.866 165.55C233.633 160.917 252.039 162.699 270.445 169.113C271.167 169.351 271.849 169.588 272.531 169.826C273.894 170.301 275.257 170.776 276.942 171.251V73.2603C273.934 73.0227 270.927 72.7456 267.919 72.4684C261.904 71.9141 255.889 71.3599 249.874 71.1223C222.445 69.697 201.512 80.7432 186.715 103.548C183.441 108.628 180.925 114.156 178.381 119.745C176.999 122.782 175.608 125.837 174.084 128.848C171.196 112.101 167.948 94.6412 164.7 77.1817L164.7 77.1799ZM228.551 274.077H323.457V329.462H228.551V274.077Z"/>
</mask>
<path fill-rule="evenodd" clip-rule="evenodd" d="M164.7 77.1799H77V329.462H179.497V324.117V203.321C179.497 201.539 179.497 199.757 180.219 197.976C186.354 181.585 197.182 170.182 214.866 165.55C233.633 160.917 252.039 162.699 270.445 169.113C271.167 169.351 271.849 169.588 272.531 169.826C273.894 170.301 275.257 170.776 276.942 171.251V73.2603C273.934 73.0227 270.927 72.7456 267.919 72.4684C261.904 71.9141 255.889 71.3599 249.874 71.1223C222.445 69.697 201.512 80.7432 186.715 103.548C183.441 108.628 180.925 114.156 178.381 119.745C176.999 122.782 175.608 125.837 174.084 128.848C171.196 112.101 167.948 94.6412 164.7 77.1817L164.7 77.1799ZM228.551 274.077H323.457V329.462H228.551V274.077Z" fill="white"/>
<path d="M77 77.1799V76.1799H76V77.1799H77ZM164.7 77.1799L165.684 76.9998L165.534 76.1799H164.7V77.1799ZM77 329.462H76V330.462H77V329.462ZM179.497 329.462V330.462H180.497V329.462H179.497ZM180.219 197.976L181.146 198.351L181.151 198.339L181.156 198.326L180.219 197.976ZM214.866 165.55L214.626 164.579L214.619 164.581L214.613 164.582L214.866 165.55ZM270.445 169.113L270.116 170.057L270.124 170.06L270.133 170.063L270.445 169.113ZM272.531 169.826L272.202 170.77H272.202L272.531 169.826ZM276.942 171.251L276.67 172.213L277.942 172.572V171.251H276.942ZM276.942 73.2603H277.942V72.3362L277.02 72.2634L276.942 73.2603ZM267.919 72.4684L268.011 71.4727L267.919 72.4684ZM249.874 71.1223L249.822 72.121L249.834 72.1215L249.874 71.1223ZM186.715 103.548L185.876 103.004L185.875 103.007L186.715 103.548ZM178.381 119.745L179.291 120.159L178.381 119.745ZM174.084 128.848L173.098 129.018L173.611 131.994L174.976 129.3L174.084 128.848ZM164.7 77.1817L163.717 77.3618L163.717 77.3646L164.7 77.1817ZM323.457 274.077H324.457V273.077H323.457V274.077ZM228.551 274.077V273.077H227.551V274.077H228.551ZM323.457 329.462V330.462H324.457V329.462H323.457ZM228.551 329.462H227.551V330.462H228.551V329.462ZM77 78.1799H164.7V76.1799H77V78.1799ZM78 329.462V77.1799H76V329.462H78ZM179.497 328.462H77V330.462H179.497V328.462ZM178.497 324.117V329.462H180.497V324.117H178.497ZM178.497 203.321V324.117H180.497V203.321H178.497ZM179.292 197.6C178.486 199.589 178.497 201.564 178.497 203.321H180.497C180.497 201.514 180.508 199.926 181.146 198.351L179.292 197.6ZM214.613 164.582C196.568 169.309 185.514 180.977 179.282 197.625L181.156 198.326C187.195 182.192 197.795 171.055 215.119 166.517L214.613 164.582ZM270.774 168.169C252.22 161.703 233.614 159.892 214.626 164.579L215.106 166.521C233.652 161.943 251.858 163.695 270.116 170.057L270.774 168.169ZM272.86 168.881C272.179 168.644 271.489 168.404 270.758 168.163L270.133 170.063C270.845 170.297 271.519 170.532 272.202 170.77L272.86 168.881ZM277.213 170.289C275.561 169.823 274.224 169.357 272.86 168.881L272.202 170.77C273.564 171.245 274.954 171.729 276.67 172.213L277.213 170.289ZM275.942 73.2603V171.251H277.942V73.2603H275.942ZM267.827 73.4642C270.834 73.7413 273.848 74.019 276.863 74.2572L277.02 72.2634C274.02 72.0264 271.019 71.7499 268.011 71.4727L267.827 73.4642ZM249.834 72.1215C255.819 72.3579 261.808 72.9095 267.827 73.4642L268.011 71.4727C262 70.9188 255.959 70.3618 249.913 70.1231L249.834 72.1215ZM187.554 104.093C202.161 81.5801 222.758 70.7146 249.822 72.121L249.926 70.1237C222.132 68.6794 200.863 79.9063 185.876 103.004L187.554 104.093ZM179.291 120.159C181.841 114.558 184.328 109.098 187.556 104.09L185.875 103.007C182.555 108.157 180.01 113.753 177.471 119.331L179.291 120.159ZM174.976 129.3C176.511 126.267 177.91 123.193 179.291 120.159L177.471 119.331C176.087 122.371 174.705 125.407 173.191 128.396L174.976 129.3ZM163.717 77.3646C166.966 94.8254 170.212 112.278 173.098 129.018L175.069 128.678C172.181 111.923 168.931 94.4571 165.683 76.9988L163.717 77.3646ZM163.716 77.3601L163.717 77.3618L165.684 77.0015L165.684 76.9998L163.716 77.3601ZM323.457 273.077H228.551V275.077H323.457V273.077ZM324.457 329.462V274.077H322.457V329.462H324.457ZM228.551 330.462H323.457V328.462H228.551V330.462ZM227.551 274.077V329.462H229.551V274.077H227.551Z" fill="white" mask="url(#path-1-inside-1_955_7907)"/>
</svg>
