<svg width="410" height="1310" viewBox="0 0 410 1310" fill="none" xmlns="http://www.w3.org/2000/svg">
<g clip-path="url(#clip0_1052_4277)">
<path d="M126.49 1170.34C120.64 1167.66 114.931 1164.86 109.593 1161.46C78.5061 1141.53 63.4706 1113.36 65.4129 1076.42L65.4129 1076.42L65.4132 1076.41C65.738 1068.28 66.495 1060.16 67.2534 1052.03C67.6191 1048.11 67.9851 1044.18 68.3031 1040.25L201.381 1040.25C200.797 1042.23 200.215 1043.88 199.63 1045.54C199.303 1046.46 198.976 1047.39 198.645 1048.38C189.836 1073.37 187.382 1098.39 193.753 1123.9L193.755 1123.91C200.147 1148.02 215.896 1162.79 238.468 1171.14C240.996 1172.15 243.516 1172.15 245.931 1172.15L245.968 1172.15L246.292 1172.15L246.615 1172.15L246.938 1172.15L247.261 1172.15L247.584 1172.15L247.907 1172.15L248.23 1172.15L248.553 1172.15L248.877 1172.15L249.2 1172.15L249.523 1172.15L249.846 1172.15L250.169 1172.15L250.492 1172.15L250.815 1172.15L251.138 1172.15L251.462 1172.15L251.785 1172.15L252.108 1172.15L252.431 1172.15L252.754 1172.15L253.077 1172.15L253.4 1172.15L253.723 1172.15L254.046 1172.15L254.37 1172.15L254.693 1172.15L255.016 1172.15L255.339 1172.15L255.662 1172.15L255.985 1172.15L256.308 1172.15L256.631 1172.15L256.955 1172.15L257.278 1172.15L257.601 1172.15L257.924 1172.15L258.247 1172.15L258.57 1172.15L258.893 1172.15L259.216 1172.15L259.54 1172.15L259.863 1172.15L260.186 1172.15L260.509 1172.15L260.832 1172.15L261.155 1172.15L261.478 1172.15L261.801 1172.15L262.125 1172.15L262.448 1172.15L262.771 1172.15L263.094 1172.15L263.417 1172.15L263.74 1172.15L264.063 1172.15L264.386 1172.15L264.709 1172.15L265.033 1172.15L265.356 1172.15L265.679 1172.15L266.002 1172.15L266.325 1172.15L266.648 1172.15L266.971 1172.15L267.294 1172.15L267.618 1172.15L267.941 1172.15L268.264 1172.15L268.587 1172.15L268.91 1172.15L269.233 1172.15L269.556 1172.15L269.879 1172.15L270.203 1172.15L270.526 1172.15L270.849 1172.15L271.172 1172.15L271.495 1172.15L271.818 1172.15L272.141 1172.15L272.464 1172.15L272.788 1172.15L273.111 1172.15L273.434 1172.15L273.757 1172.15L274.08 1172.15L274.403 1172.15L274.726 1172.15L275.049 1172.15L275.373 1172.15L275.696 1172.15L276.019 1172.15L276.342 1172.15L276.665 1172.15L276.988 1172.15L277.311 1172.15L277.634 1172.15L277.957 1172.15L278.281 1172.15L278.604 1172.15L278.927 1172.15L279.25 1172.15L279.573 1172.15L279.896 1172.15L280.219 1172.15L280.542 1172.15L280.866 1172.15L281.189 1172.15L281.512 1172.15L281.835 1172.15L282.158 1172.15L282.481 1172.15L282.804 1172.15L283.127 1172.15L283.451 1172.15L283.774 1172.15L284.097 1172.15L284.42 1172.15L284.743 1172.15L285.066 1172.15L285.389 1172.15L285.712 1172.15L286.036 1172.15L286.359 1172.15L286.682 1172.15L287.005 1172.15L287.328 1172.15L287.651 1172.15L287.974 1172.15L288.297 1172.15L288.62 1172.15L288.944 1172.15L289.267 1172.15L289.59 1172.15L289.913 1172.15L290.236 1172.15L290.559 1172.15L290.882 1172.15L291.205 1172.15L291.529 1172.15L291.852 1172.15L292.175 1172.15L292.498 1172.15L292.821 1172.15L293.144 1172.15L293.467 1172.15L293.79 1172.15L294.114 1172.15L294.437 1172.15L294.76 1172.15L295.083 1172.15L295.406 1172.15L295.729 1172.15L296.052 1172.15L296.375 1172.15L296.699 1172.15L297.022 1172.15L297.345 1172.15L297.668 1172.15L297.991 1172.15L298.314 1172.15L298.637 1172.15L298.96 1172.15L299.284 1172.15L299.607 1172.15L299.93 1172.15L300.253 1172.15L300.576 1172.15L300.899 1172.15L301.222 1172.15L301.545 1172.15L301.868 1172.15L302.192 1172.15L302.515 1172.15L302.838 1172.15L303.161 1172.15L303.484 1172.15L303.807 1172.15L304.13 1172.15L304.453 1172.15L304.777 1172.15L305.1 1172.15L305.423 1172.15L305.746 1172.15L306.069 1172.15L306.392 1172.15L306.715 1172.15L307.038 1172.15L307.362 1172.15L307.685 1172.15L308.008 1172.15L308.331 1172.15L308.654 1172.15L308.977 1172.15L309.3 1172.15L309.623 1172.15L309.947 1172.15L310.27 1172.15L310.593 1172.15L310.916 1172.15L311.239 1172.15L311.562 1172.15L311.885 1172.15L312.208 1172.15L312.531 1172.15L312.855 1172.15L313.178 1172.15L313.501 1172.15L313.824 1172.15L314.147 1172.15L314.47 1172.15L314.793 1172.15L315.116 1172.15L315.44 1172.15L315.763 1172.15L316.086 1172.15L316.409 1172.15L316.732 1172.15L317.055 1172.15L317.378 1172.15L317.701 1172.15L318.025 1172.15L318.348 1172.15L318.671 1172.15L318.994 1172.15L319.317 1172.15L319.64 1172.15L319.963 1172.15L320.286 1172.15L320.61 1172.15L320.933 1172.15L321.256 1172.15L321.579 1172.15L321.902 1172.15L322.225 1172.15L322.548 1172.15L322.871 1172.15L323.194 1172.15L323.518 1172.15L323.841 1172.15L324.164 1172.15L324.487 1172.15L324.81 1172.15L325.133 1172.15L325.456 1172.15L325.779 1172.15L326.103 1172.15L326.426 1172.15L326.749 1172.15L327.072 1172.15L327.395 1172.15L327.718 1172.15L328.041 1172.15L328.364 1172.15L328.688 1172.15L329.011 1172.15L329.334 1172.15L329.657 1172.15L329.98 1172.15L330.303 1172.15L330.626 1172.15L330.949 1172.15L331.273 1172.15L331.596 1172.15L331.919 1172.15L332.242 1172.15L332.565 1172.15L332.888 1172.15L333.211 1172.15L333.534 1172.15L333.858 1172.15L334.181 1172.15L334.504 1172.15L334.827 1172.15L335.15 1172.15L335.473 1172.15L335.796 1172.15L336.119 1172.15L336.442 1172.15L336.766 1172.15L337.089 1172.15L337.412 1172.15L337.735 1172.15L338.058 1172.15L338.381 1172.15L338.704 1172.15L339.027 1172.15L339.351 1172.15L339.674 1172.15L339.997 1172.15L340.32 1172.15L340.643 1172.15L340.966 1172.15L341.289 1172.15L341.612 1172.15L341.936 1172.15L342.259 1172.15L342.582 1172.15L342.905 1172.15L343.228 1172.15L343.551 1172.15L343.874 1172.15L344.197 1172.15L344.521 1172.15L344.844 1172.15L345.167 1172.15L345.49 1172.15L345.813 1172.15L346.136 1172.15L346.459 1172.15L346.782 1172.15L347.105 1172.15L347.429 1172.15L347.752 1172.15L348.075 1172.15L348.398 1172.15L348.721 1172.15L349.044 1172.15L349.367 1172.15L349.69 1172.15L350.014 1172.15L350.337 1172.15L350.66 1172.15L350.983 1172.15L351.306 1172.15L351.629 1172.15L351.952 1172.15L352.275 1172.15L352.599 1172.15L352.922 1172.15L353.245 1172.15L353.568 1172.15L353.891 1172.15L354.214 1172.15L354.537 1172.15L354.86 1172.15L355.184 1172.15L355.507 1172.15L355.83 1172.15L356.153 1172.15L356.476 1172.15L356.799 1172.15L357.122 1172.15L357.445 1172.15L357.768 1172.15L358.092 1172.15L358.415 1172.15L358.738 1172.15L359.061 1172.15L359.384 1172.15L359.707 1172.15L360.03 1172.15L360.353 1172.15L360.677 1172.15L361 1172.15L361.323 1172.15L361.646 1172.15L361.969 1172.15L362.292 1172.15L362.615 1172.15L362.938 1172.15L363.262 1172.15L363.585 1172.15L363.908 1172.15L364.231 1172.15L364.554 1172.15L364.877 1172.15L365.2 1172.15L365.523 1172.15L365.847 1172.15L366.17 1172.15L366.493 1172.15L366.816 1172.15L367.139 1172.15L367.462 1172.15L367.785 1172.15L368.108 1172.15L368.432 1172.15L368.755 1172.15L369.078 1172.15L369.401 1172.15L369.724 1172.15L370.047 1172.15L370.37 1172.15L370.693 1172.15L371.016 1172.15L371.34 1172.15L371.663 1172.15L371.986 1172.15L372.309 1172.15L372.632 1172.15L372.955 1172.15L373.278 1172.15L373.601 1172.15L373.925 1172.15L374.248 1172.15L374.571 1172.15L374.894 1172.15L375.217 1172.15L375.54 1172.15L375.863 1172.15L376.186 1172.15L376.51 1172.15L376.833 1172.15L377.156 1172.15L377.479 1172.15L377.802 1172.15L378.125 1172.15L378.448 1172.15L378.771 1172.15L379.095 1172.15L379.418 1172.15L379.741 1172.15L380.064 1172.15L380.387 1172.15L380.71 1172.15L381.033 1172.15L381.356 1172.15L381.679 1172.15L382.003 1172.15L382.326 1172.15L382.649 1172.15L382.972 1172.15L383.295 1172.15L383.618 1172.15L383.941 1172.15L384.264 1172.15L384.588 1172.15L384.911 1172.15L385.234 1172.15L385.557 1172.15L385.88 1172.15L386.203 1172.15L386.526 1172.15L386.849 1172.15L387.173 1172.15L387.496 1172.15L387.819 1172.15L388.142 1172.15L388.465 1172.15L388.788 1172.15L389.111 1172.15L389.434 1172.15L389.758 1172.15L390.081 1172.15L390.404 1172.15L390.727 1172.15L391.05 1172.15L391.373 1172.15L391.696 1172.15L392.019 1172.15L392.342 1172.15L392.666 1172.15L392.989 1172.15L393.312 1172.15L393.635 1172.15L393.958 1172.15L394.281 1172.15L394.604 1172.15L394.927 1172.15L395.251 1172.15L395.574 1172.15L395.897 1172.15L396.22 1172.15L396.543 1172.15L396.866 1172.15L397.189 1172.15L397.512 1172.15L397.836 1172.15L398.159 1172.15L398.482 1172.15L398.805 1172.15L399.128 1172.15L399.451 1172.15L399.774 1172.15L400.097 1172.15L400.421 1172.15L400.744 1172.15L401.067 1172.15L401.39 1172.15L401.713 1172.15L402.036 1172.15L402.359 1172.15L402.682 1172.15L403.006 1172.15L403.329 1172.15L403.652 1172.15L403.975 1172.15L404.298 1172.15L404.621 1172.15L404.944 1172.15L405.267 1172.15L405.59 1172.15L405.914 1172.15L406.237 1172.15L406.56 1172.15L406.883 1172.15L407.206 1172.15L407.529 1172.15L407.852 1172.15L408.175 1172.15L408.499 1172.15L408.822 1172.15L409.145 1172.15L409.468 1172.15L409.791 1172.15L410.114 1172.15L410.437 1172.15L410.76 1172.15L411.084 1172.15L411.407 1172.15L418.227 1172.15L418.227 1309.89L73.7099 1309.89L73.7099 1192.1C97.4868 1187.73 121.254 1183.36 144.057 1179.47L145.562 1179.22L144.196 1178.53C140.063 1176.46 135.864 1174.58 131.701 1172.7C129.955 1171.92 128.216 1171.14 126.49 1170.34Z" stroke="#1E1F45" stroke-opacity="0.2"/>
<path d="M248.423 685.592C275.886 685.101 298.036 675.268 311.807 650.16L311.807 650.159C317.706 639.334 320.65 627.043 321.14 614.766L321.14 614.759C322.118 576.1 315.275 539.372 296.194 505.085C295.786 504.269 295.387 503.467 294.988 502.385C295.927 502.35 296.723 502.249 297.465 502.15L297.611 502.13C298.474 502.015 299.257 501.91 300.144 501.91L300.33 501.91L300.516 501.91L300.701 501.91L300.887 501.91L301.073 501.91L301.259 501.91L301.445 501.91L301.631 501.91L301.817 501.91L302.002 501.91L302.188 501.91L302.374 501.91L302.56 501.91L302.746 501.91L302.932 501.91L303.118 501.91L303.304 501.91L303.489 501.91L303.675 501.91L303.861 501.91L304.047 501.91L304.233 501.91L304.419 501.91L304.605 501.91L304.79 501.91L304.976 501.91L305.162 501.91L305.348 501.91L305.534 501.91L305.72 501.91L305.906 501.91L306.092 501.91L306.277 501.91L306.463 501.91L306.649 501.91L306.835 501.91L307.021 501.91L307.207 501.91L307.393 501.91L307.578 501.91L307.764 501.91L307.95 501.91L308.136 501.91L308.322 501.91L308.508 501.91L308.694 501.91L308.88 501.91L309.065 501.91L309.251 501.91L309.437 501.91L309.623 501.91L309.809 501.91L309.995 501.91L310.181 501.91L310.366 501.91L310.552 501.91L310.738 501.91L310.924 501.91L311.11 501.91L311.296 501.91L311.482 501.91L311.667 501.91L311.853 501.91L312.039 501.91L312.225 501.91L312.411 501.91L312.597 501.91L312.783 501.91L312.969 501.91L313.154 501.91L313.34 501.91L313.526 501.91L313.712 501.91L313.898 501.91L314.084 501.91L314.27 501.91L314.455 501.91L314.641 501.91L314.827 501.91L315.013 501.91L315.199 501.91L315.385 501.91L315.571 501.91L315.757 501.91L315.942 501.91L316.128 501.91L316.314 501.91L316.5 501.91L316.686 501.91L316.872 501.91L317.058 501.91L317.243 501.91L317.429 501.91L317.615 501.91L317.801 501.91L317.987 501.91L318.173 501.91L318.359 501.91L318.545 501.91L318.73 501.91L318.916 501.91L319.102 501.91L319.288 501.91L319.474 501.91L319.66 501.91L319.846 501.91L320.031 501.91L320.217 501.91L320.403 501.91L320.589 501.91L320.775 501.91L320.961 501.91L321.147 501.91L321.333 501.91L321.518 501.91L321.704 501.91L321.89 501.91L322.076 501.91L322.262 501.91L322.448 501.91L322.634 501.91L322.819 501.91L323.005 501.91L323.191 501.91L323.377 501.91L323.563 501.91L323.749 501.91L323.935 501.91L324.121 501.91L324.306 501.91L324.492 501.91L324.678 501.91L324.864 501.91L325.05 501.91L325.236 501.91L325.422 501.91L325.607 501.91L325.793 501.91L325.979 501.91L326.165 501.91L326.351 501.91L326.537 501.91L326.723 501.91L326.909 501.91L327.094 501.91L327.28 501.91L327.466 501.91L327.652 501.91L327.838 501.91L328.024 501.91L328.21 501.91L328.395 501.91L328.581 501.91L328.767 501.91L328.953 501.91L329.139 501.91L329.325 501.91L329.511 501.91L329.697 501.91L329.882 501.91L330.068 501.91L330.254 501.91L330.44 501.91L330.626 501.91L330.812 501.91L330.998 501.91L331.183 501.91L331.369 501.91L331.555 501.91L331.741 501.91L331.927 501.91L332.113 501.91L332.299 501.91L332.485 501.91L332.67 501.91L332.856 501.91L333.042 501.91L333.228 501.91L333.414 501.91L333.6 501.91L333.786 501.91L333.971 501.91L334.157 501.91L334.343 501.91L334.529 501.91L334.715 501.91L334.901 501.91L335.087 501.91L335.273 501.91L335.458 501.91L335.644 501.91L335.83 501.91L336.016 501.91L336.202 501.91L336.388 501.91L336.574 501.91L336.759 501.91L336.945 501.91L337.131 501.91L337.317 501.91L337.503 501.91L337.689 501.91L337.875 501.91L338.061 501.91L338.246 501.91L338.432 501.91L338.618 501.91L338.804 501.91L338.99 501.91L339.176 501.91L339.362 501.91L339.547 501.91L339.733 501.91L339.919 501.91L340.105 501.91L340.291 501.91L340.477 501.91L340.663 501.91L340.849 501.91L341.034 501.91L341.22 501.91L341.406 501.91L341.592 501.91L341.778 501.91L341.964 501.91L342.15 501.91L342.335 501.91L342.521 501.91L342.707 501.91L342.893 501.91L343.079 501.91L343.265 501.91L343.451 501.91L343.637 501.91L343.822 501.91L344.008 501.91L344.194 501.91L344.38 501.91L344.566 501.91L344.752 501.91L344.938 501.91L345.123 501.91L345.309 501.91L345.495 501.91L345.681 501.91L345.867 501.91L346.053 501.91L346.239 501.91L346.425 501.91L346.61 501.91L346.796 501.91L346.982 501.91L347.168 501.91L347.354 501.91L347.54 501.91L347.726 501.91L347.911 501.91L348.097 501.91L348.283 501.91L348.469 501.91L348.655 501.91L348.841 501.91L349.027 501.91L349.213 501.91L349.398 501.91L349.584 501.91L349.77 501.91L349.956 501.91L350.142 501.91L350.328 501.91L350.514 501.91L350.699 501.91L350.885 501.91L351.071 501.91L351.257 501.91L351.443 501.91L351.629 501.91L351.815 501.91L352.001 501.91L352.186 501.91L352.372 501.91L352.558 501.91L352.744 501.91L352.93 501.91L353.116 501.91L353.302 501.91L353.487 501.91L353.673 501.91L353.859 501.91L354.045 501.91L354.231 501.91L354.417 501.91L354.603 501.91L354.788 501.91L354.974 501.91L355.16 501.91L355.346 501.91L355.532 501.91L355.718 501.91L355.904 501.91L356.09 501.91L356.275 501.91L356.461 501.91L356.647 501.91L356.833 501.91L357.019 501.91L357.205 501.91L357.391 501.91L357.576 501.91L357.762 501.91L357.948 501.91L358.134 501.91L358.32 501.91L358.506 501.91L358.692 501.91L358.878 501.91L359.063 501.91L359.249 501.91L359.435 501.91L359.621 501.91L359.807 501.91L359.993 501.91L360.179 501.91L360.365 501.91L360.55 501.91L360.736 501.91L360.922 501.91L361.108 501.91L361.294 501.91L361.48 501.91L361.666 501.91L361.851 501.91L362.037 501.91L362.223 501.91L362.409 501.91L362.595 501.91L362.781 501.91L362.967 501.91L363.153 501.91L363.338 501.91L363.524 501.91L363.71 501.91L363.896 501.91L364.082 501.91L364.268 501.91L364.454 501.91L364.639 501.91L364.825 501.91L365.011 501.91L365.197 501.91L365.383 501.91L365.569 501.91L365.755 501.91L365.941 501.91L366.126 501.91L366.312 501.91L366.498 501.91L366.684 501.91L366.87 501.91L367.056 501.91L367.242 501.91L367.427 501.91L367.613 501.91L367.799 501.91L367.985 501.91L368.171 501.91L368.357 501.91L368.543 501.91L368.729 501.91L368.914 501.91L369.1 501.91L369.286 501.91L369.472 501.91L369.658 501.91L369.844 501.91L370.03 501.91L370.215 501.91L370.401 501.91L370.587 501.91L370.773 501.91L370.959 501.91L371.145 501.91L371.331 501.91L371.516 501.91L371.702 501.91L371.888 501.91L372.074 501.91L372.26 501.91L372.446 501.91L372.632 501.91L372.818 501.91L373.003 501.91L373.189 501.91L373.375 501.91L373.561 501.91L373.747 501.91L373.933 501.91L374.119 501.91L374.304 501.91L374.49 501.91L374.676 501.91L374.862 501.91L375.048 501.91L375.234 501.91L375.42 501.91L375.606 501.91L375.791 501.91L375.977 501.91L376.163 501.91L376.349 501.91L376.535 501.91L376.721 501.91L376.907 501.91L377.092 501.91L377.278 501.91L377.464 501.91L377.65 501.91L377.836 501.91L378.022 501.91L378.208 501.91L378.394 501.91L378.579 501.91L378.765 501.91L378.951 501.91L379.137 501.91L379.323 501.91L379.509 501.91L379.695 501.91L379.88 501.91L380.066 501.91L380.252 501.91L380.438 501.91L380.624 501.91L380.81 501.91L380.996 501.91L381.182 501.91L381.367 501.91L381.553 501.91L381.739 501.91L381.925 501.91L382.111 501.91L382.297 501.91L382.483 501.91L382.668 501.91L382.854 501.91L383.04 501.91L383.226 501.91L383.412 501.91L383.598 501.91L383.784 501.91L383.97 501.91L384.155 501.91L384.341 501.91L384.527 501.91L384.713 501.91L384.899 501.91L385.085 501.91L385.271 501.91L385.456 501.91L385.642 501.91L385.828 501.91L386.014 501.91L386.2 501.91L386.386 501.91L386.572 501.91L386.758 501.91L386.943 501.91L387.129 501.91L387.315 501.91L387.501 501.91L387.687 501.91L387.873 501.91L388.059 501.91L388.244 501.91L388.43 501.91L388.616 501.91L388.802 501.91L388.988 501.91L389.174 501.91L389.36 501.91L389.546 501.91L389.731 501.91L389.917 501.91L390.103 501.91L390.289 501.91L390.475 501.91L390.661 501.91L390.847 501.91L391.032 501.91L391.218 501.91L391.404 501.91L391.59 501.91L391.776 501.91L391.962 501.91L392.148 501.91L392.334 501.91L392.519 501.91L392.705 501.91L392.891 501.91L393.077 501.91L393.263 501.91L393.449 501.91L393.635 501.91L393.82 501.91L394.006 501.91L394.192 501.91L394.378 501.91L394.564 501.91L394.75 501.91L394.936 501.91L395.122 501.91L395.307 501.91C397.195 501.91 398.555 502.264 399.671 502.989C400.791 503.719 401.717 504.857 402.673 506.529C418.248 538.691 425.069 572.815 427.506 607.941C429.456 636.738 428.966 665.992 422.15 694.257L422.149 694.261C406.091 763.431 354.526 811.152 283.971 820.893L283.969 820.894C242.561 826.746 202.159 823.328 164.203 805.305C111.649 779.976 80.9979 737.612 69.8017 680.6L69.8014 680.598C63.472 648.919 64.9296 616.737 67.8568 584.504C70.2929 559.145 75.6518 534.27 83.448 509.879C84.1727 507.947 84.8643 506.72 85.8448 505.957C86.8154 505.201 88.1473 504.841 90.2958 504.841L90.496 504.841L90.6962 504.841L90.8964 504.841L91.0966 504.841L91.2968 504.841L91.497 504.841L91.6973 504.841L91.8975 504.841L92.0978 504.841L92.298 504.841L92.4983 504.841L92.6986 504.841L92.8989 504.841L93.0992 504.841L93.2995 504.841L93.4999 504.841L93.7002 504.841L93.9006 504.841L94.1009 504.841L94.3013 504.841L94.5017 504.841L94.7021 504.841L94.9025 504.841L95.1029 504.841L95.3033 504.841L95.5037 504.841L95.7042 504.841L95.9046 504.841L96.1051 504.841L96.3056 504.841L96.5061 504.841L96.7066 504.841L96.9071 504.841L97.1076 504.841L97.3081 504.841L97.5086 504.841L97.7092 504.841L97.9097 504.841L98.1103 504.841L98.3109 504.841L98.5114 504.841L98.712 504.841L98.9126 504.841L99.1132 504.841L99.3139 504.841L99.5145 504.841L99.7151 504.841L99.9158 504.841L100.116 504.841L100.317 504.841L100.518 504.841L100.718 504.841L100.919 504.841L101.12 504.841L101.321 504.841L101.521 504.841L101.722 504.841L101.923 504.841L102.123 504.841L102.324 504.841L102.525 504.841L102.726 504.841L102.927 504.841L103.127 504.841L103.328 504.841L103.529 504.841L103.73 504.841L103.931 504.841L104.131 504.841L104.332 504.841L104.533 504.841L104.734 504.841L104.935 504.841L105.136 504.841L105.336 504.841L105.537 504.841L105.738 504.841L105.939 504.841L106.14 504.841L106.341 504.841L106.542 504.841L106.743 504.841L106.944 504.841L107.145 504.841L107.346 504.841L107.547 504.841L107.748 504.841L107.949 504.841L108.15 504.841L108.351 504.841L108.552 504.841L108.753 504.841L108.954 504.841L109.155 504.841L109.356 504.841L109.557 504.841L109.758 504.841L109.959 504.841L110.16 504.841L110.361 504.841L110.562 504.841L110.763 504.841L110.964 504.841L111.165 504.841L111.366 504.841L111.567 504.841L111.768 504.841L111.97 504.841L112.171 504.841L112.372 504.841L112.573 504.841L112.774 504.841L112.975 504.841L113.176 504.841L113.377 504.841L113.579 504.841L113.78 504.841L113.981 504.841L114.182 504.841L114.383 504.841L114.585 504.841L114.786 504.841L114.987 504.841L115.188 504.841L115.389 504.841L115.591 504.841L115.792 504.841L115.993 504.841L116.194 504.841L116.396 504.841L116.597 504.841L116.798 504.841L116.999 504.841L117.201 504.841L117.402 504.841L117.603 504.841L117.804 504.841L118.006 504.841L118.207 504.841L118.408 504.841L118.61 504.841L118.811 504.841L119.012 504.841L119.214 504.841L119.415 504.841L119.616 504.841L119.818 504.841L120.019 504.841L120.22 504.841L120.422 504.841L120.623 504.841L120.824 504.841L121.026 504.841L121.227 504.841L121.428 504.841L121.63 504.841L121.831 504.841L122.032 504.841L122.234 504.841L122.435 504.841L122.637 504.841L122.838 504.841L123.039 504.841L123.241 504.841L123.442 504.841L123.644 504.841L123.845 504.841L124.047 504.841L124.248 504.841L124.449 504.841L124.651 504.841L124.852 504.841L125.054 504.841L125.255 504.841L125.457 504.841L125.658 504.841L125.859 504.841L126.061 504.841L126.262 504.841L126.464 504.841L126.665 504.841L126.867 504.841L127.068 504.841L127.27 504.841L127.471 504.841L127.673 504.841L127.874 504.841L128.076 504.841L128.277 504.841L128.479 504.841L128.68 504.841L128.882 504.841L129.083 504.841L129.285 504.841L129.486 504.841L129.688 504.841L129.889 504.841L130.091 504.841L130.292 504.841L130.494 504.841L130.695 504.841L130.897 504.841L131.098 504.841L131.3 504.841L131.501 504.841L131.703 504.841L131.905 504.841L132.106 504.841L132.308 504.841L132.509 504.841L132.711 504.841L132.912 504.841L133.114 504.841L133.315 504.841L133.517 504.841L133.719 504.841L133.92 504.841L134.122 504.841L134.323 504.841L134.525 504.841L134.726 504.841L134.928 504.841L135.129 504.841L135.331 504.841L135.533 504.841L135.734 504.841L135.936 504.841L136.137 504.841L136.339 504.841L136.54 504.841L136.742 504.841L136.944 504.841L137.145 504.841L137.347 504.841L137.548 504.841L137.75 504.841L137.952 504.841L138.153 504.841L138.355 504.841L138.556 504.841L138.758 504.841L138.959 504.841L139.161 504.841L139.363 504.841L139.564 504.841L139.766 504.841L139.967 504.841L140.169 504.841L140.371 504.841L140.572 504.841L140.774 504.841L140.975 504.841L141.177 504.841L141.379 504.841L141.58 504.841L141.782 504.841L141.983 504.841L142.185 504.841L142.387 504.841L142.588 504.841L142.79 504.841L142.991 504.841L143.193 504.841L143.395 504.841L143.596 504.841L143.798 504.841L143.999 504.841L144.201 504.841L144.402 504.841L144.604 504.841L144.806 504.841L145.007 504.841L145.209 504.841L145.41 504.841L145.612 504.841L145.814 504.841L146.015 504.841L146.217 504.841L146.418 504.841L146.62 504.841L146.822 504.841L147.023 504.841L147.225 504.841L147.426 504.841L147.628 504.841L147.829 504.841L148.031 504.841L148.233 504.841L148.434 504.841L148.636 504.841L148.837 504.841L149.039 504.841L149.24 504.841L149.442 504.841L149.643 504.841L149.845 504.841L150.047 504.841L150.248 504.841L150.45 504.841L150.651 504.841L150.853 504.841L151.054 504.841L151.256 504.841L151.457 504.841L151.659 504.841L151.861 504.841L152.062 504.841L152.264 504.841L152.465 504.841L152.667 504.841L152.868 504.841L153.07 504.841L153.271 504.841L153.473 504.841L153.674 504.841L153.876 504.841L154.077 504.841L154.279 504.841L154.48 504.841L154.682 504.841L154.883 504.841L155.085 504.841L155.286 504.841L155.488 504.841L155.689 504.841L155.891 504.841L156.092 504.841L156.294 504.841L156.495 504.841L156.697 504.841L156.898 504.841L157.1 504.841L157.301 504.841L157.503 504.841L157.704 504.841L157.906 504.841L158.107 504.841L158.308 504.841L158.51 504.841L158.711 504.841L158.913 504.841L159.114 504.841L159.316 504.841L159.517 504.841L159.718 504.841L159.92 504.841L160.121 504.841L160.323 504.841L160.524 504.841L160.726 504.841L160.927 504.841L161.128 504.841L161.33 504.841L161.531 504.841L161.732 504.841L161.934 504.841L162.135 504.841L162.337 504.841L162.538 504.841L162.739 504.841L162.941 504.841L163.142 504.841L163.343 504.841L163.545 504.841L163.746 504.841L163.947 504.841L164.149 504.841L164.35 504.841L164.551 504.841L164.753 504.841L164.954 504.841L165.155 504.841L165.357 504.841L165.558 504.841L165.759 504.841L165.96 504.841L166.162 504.841L166.363 504.841L166.564 504.841L166.766 504.841L166.967 504.841L167.168 504.841L167.369 504.841L167.57 504.841L167.772 504.841L167.973 504.841L168.174 504.841L168.375 504.841L168.577 504.841L168.778 504.841L168.979 504.841L169.18 504.841L169.381 504.841L169.583 504.841L169.784 504.841L169.985 504.841L170.186 504.841L170.387 504.841L170.588 504.841L170.79 504.841L170.991 504.841L171.192 504.841L171.393 504.841L171.594 504.841L171.795 504.841L171.996 504.841L172.197 504.841L172.398 504.841L172.6 504.841L172.801 504.841L173.002 504.841L173.203 504.841L173.404 504.841L173.605 504.841L173.806 504.841L174.007 504.841L174.208 504.841L174.409 504.841L174.61 504.841L174.811 504.841L175.012 504.841L175.213 504.841L175.414 504.841L175.615 504.841L175.816 504.841L176.017 504.841L176.218 504.841L176.419 504.841L176.62 504.841L176.821 504.841L177.022 504.841L177.223 504.841L177.424 504.841L177.624 504.841L177.825 504.841L178.026 504.841L178.227 504.841L178.428 504.841L178.629 504.841L178.83 504.841L179.031 504.841L179.231 504.841L179.432 504.841L179.633 504.841L179.834 504.841L180.035 504.841L180.235 504.841L180.436 504.841L180.637 504.841L180.838 504.841L181.039 504.841L181.239 504.841L181.44 504.841L181.641 504.841L181.842 504.841L182.042 504.841L182.243 504.841L182.444 504.841L182.644 504.841L182.845 504.841L183.046 504.841L183.246 504.841L183.447 504.841L183.648 504.841L183.848 504.841L184.049 504.841L184.25 504.841L184.45 504.841L184.651 504.841L184.852 504.841L185.052 504.841L185.253 504.841L185.453 504.841L185.654 504.841L185.854 504.841L186.055 504.841L186.255 504.841L186.456 504.841L186.656 504.841L186.857 504.841L187.057 504.841L187.258 504.841L187.458 504.841L187.659 504.841L187.859 504.841L188.06 504.841L188.26 504.841L188.461 504.841L188.661 504.841L188.861 504.841L189.062 504.841L189.262 504.841L189.463 504.841L189.663 504.841L189.863 504.841L190.064 504.841L190.264 504.841L190.464 504.841L190.665 504.841L190.865 504.841L191.065 504.841L191.266 504.841L191.466 504.841L191.666 504.841L191.866 504.841L192.067 504.841L192.267 504.841L192.467 504.841L192.667 504.841L192.867 504.841L193.068 504.841L193.268 504.841L197.799 504.841C197.767 504.9 197.735 504.96 197.704 505.019C194.501 510.97 191.725 516.127 189.393 521.729C175.206 553.072 169.826 585.886 172.761 620.162C174.479 640.795 182.827 657.41 196.054 668.741C209.277 680.069 227.337 686.083 248.423 685.592ZM248.423 685.592C248.423 685.592 248.423 685.592 248.423 685.592L248.414 685.093L248.425 685.592C248.425 685.592 248.424 685.592 248.423 685.592Z" stroke="#1E1F45" stroke-opacity="0.2"/>
<path d="M232.243 332.388L232.25 332.389C252.814 334.84 272.464 332.886 290.164 321.567L290.172 321.561C307.871 309.75 317.708 292.514 319.674 271.852C323.587 230.723 316.249 191.543 296.68 154.814L296.669 154.793L296.655 154.772C296.189 154.072 295.835 153.367 295.473 152.581C295.37 152.356 295.265 152.124 295.156 151.883C294.979 151.491 294.793 151.077 294.586 150.64C295.282 150.597 295.915 150.504 296.498 150.414L296.659 150.389C297.397 150.275 298.04 150.176 298.679 150.176L298.868 150.176L299.057 150.176L299.245 150.176L299.434 150.176L299.623 150.176L299.811 150.176L300 150.176L300.189 150.176L300.377 150.176L300.566 150.176L300.755 150.176L300.943 150.176L301.132 150.176L301.32 150.176L301.509 150.176L301.697 150.176L301.886 150.176L302.074 150.176L302.263 150.176L302.452 150.176L302.64 150.176L302.829 150.176L303.017 150.176L303.206 150.176L303.394 150.176L303.582 150.176L303.771 150.176L303.959 150.176L304.148 150.176L304.336 150.176L304.525 150.176L304.713 150.176L304.901 150.176L305.09 150.176L305.278 150.176L305.466 150.176L305.655 150.176L305.843 150.176L306.031 150.176L306.22 150.176L306.408 150.176L306.596 150.176L306.785 150.176L306.973 150.176L307.161 150.176L307.349 150.176L307.538 150.176L307.726 150.176L307.914 150.176L308.102 150.176L308.291 150.176L308.479 150.176L308.667 150.176L308.855 150.176L309.043 150.176L309.232 150.176L309.42 150.176L309.608 150.176L309.796 150.176L309.984 150.176L310.172 150.176L310.36 150.176L310.549 150.176L310.737 150.176L310.925 150.176L311.113 150.176L311.301 150.176L311.489 150.176L311.677 150.176L311.865 150.176L312.053 150.176L312.241 150.176L312.429 150.176L312.617 150.176L312.805 150.176L312.993 150.176L313.181 150.176L313.369 150.176L313.557 150.176L313.745 150.176L313.933 150.176L314.121 150.176L314.309 150.176L314.497 150.176L314.685 150.176L314.873 150.176L315.061 150.176L315.249 150.176L315.437 150.176L315.625 150.176L315.812 150.176L316 150.176L316.188 150.176L316.376 150.176L316.564 150.176L316.752 150.176L316.94 150.176L317.128 150.176L317.315 150.176L317.503 150.176L317.691 150.176L317.879 150.176L318.067 150.176L318.254 150.176L318.442 150.176L318.63 150.176L318.818 150.176L319.006 150.176L319.193 150.176L319.381 150.176L319.569 150.176L319.757 150.176L319.944 150.176L320.132 150.176L320.32 150.176L320.508 150.176L320.695 150.176L320.883 150.176L321.071 150.176L321.258 150.176L321.446 150.176L321.634 150.176L321.822 150.176L322.009 150.176L322.197 150.176L322.385 150.176L322.572 150.176L322.76 150.176L322.948 150.176L323.135 150.176L323.323 150.176L323.51 150.176L323.698 150.176L323.886 150.176L324.073 150.176L324.261 150.176L324.449 150.176L324.636 150.176L324.824 150.176L325.011 150.176L325.199 150.176L325.386 150.176L325.574 150.176L325.762 150.176L325.949 150.176L326.137 150.176L326.324 150.176L326.512 150.176L326.699 150.176L326.887 150.176L327.075 150.176L327.262 150.176L327.45 150.176L327.637 150.176L327.825 150.176L328.012 150.176L328.2 150.176L328.387 150.176L328.575 150.176L328.762 150.176L328.95 150.176L329.137 150.176L329.325 150.176L329.512 150.176L329.7 150.176L329.887 150.176L330.075 150.176L330.262 150.176L330.449 150.176L330.637 150.176L330.824 150.176L331.012 150.176L331.199 150.176L331.387 150.176L331.574 150.176L331.762 150.176L331.949 150.176L332.136 150.176L332.324 150.176L332.511 150.176L332.699 150.176L332.886 150.176L333.074 150.176L333.261 150.176L333.448 150.176L333.636 150.176L333.823 150.176L334.011 150.176L334.198 150.176L334.385 150.176L334.573 150.176L334.76 150.176L334.948 150.176L335.135 150.176L335.322 150.176L335.51 150.176L335.697 150.176L335.884 150.176L336.072 150.176L336.259 150.176L336.447 150.176L336.634 150.176L336.821 150.176L337.009 150.176L337.196 150.176L337.383 150.176L337.571 150.176L337.758 150.176L337.945 150.176L338.133 150.176L338.32 150.176L338.507 150.176L338.695 150.176L338.882 150.176L339.069 150.176L339.257 150.176L339.444 150.176L339.631 150.176L339.819 150.176L340.006 150.176L340.193 150.176L340.381 150.176L340.568 150.176L340.755 150.176L340.943 150.176L341.13 150.176L341.317 150.176L341.505 150.176L341.692 150.176L341.879 150.176L342.067 150.176L342.254 150.176L342.441 150.176L342.628 150.176L342.816 150.176L343.003 150.176L343.19 150.176L343.378 150.176L343.565 150.176L343.752 150.176L343.94 150.176L344.127 150.176L344.314 150.176L344.501 150.176L344.689 150.176L344.876 150.176L345.063 150.176L345.251 150.176L345.438 150.176L345.625 150.176L345.813 150.176L346 150.176L346.187 150.176L346.374 150.176L346.562 150.176L346.749 150.176L346.936 150.176L347.124 150.176L347.311 150.176L347.498 150.176L347.686 150.176L347.873 150.176L348.06 150.176L348.247 150.176L348.435 150.176L348.622 150.176L348.809 150.176L348.997 150.176L349.184 150.176L349.371 150.176L349.558 150.176L349.746 150.176L349.933 150.176L350.12 150.176L350.308 150.176L350.495 150.176L350.682 150.176L350.87 150.176L351.057 150.176L351.244 150.176L351.432 150.176L351.619 150.176L351.806 150.176L351.993 150.176L352.181 150.176L352.368 150.176L352.555 150.176L352.743 150.176L352.93 150.176L353.117 150.176L353.305 150.176L353.492 150.176L353.679 150.176L353.867 150.176L354.054 150.176L354.241 150.176L354.429 150.176L354.616 150.176L354.803 150.176L354.991 150.176L355.178 150.176L355.365 150.176L355.553 150.176L355.74 150.176L355.927 150.176L356.115 150.176L356.302 150.176L356.489 150.176L356.677 150.176L356.864 150.176L357.052 150.176L357.239 150.176L357.426 150.176L357.614 150.176L357.801 150.176L357.988 150.176L358.176 150.176L358.363 150.176L358.55 150.176L358.738 150.176L358.925 150.176L359.113 150.176L359.3 150.176L359.487 150.176L359.675 150.176L359.862 150.176L360.05 150.176L360.237 150.176L360.424 150.176L360.612 150.176L360.799 150.176L360.987 150.176L361.174 150.176L361.362 150.176L361.549 150.176L361.736 150.176L361.924 150.176L362.111 150.176L362.299 150.176L362.486 150.176L362.674 150.176L362.861 150.176L363.049 150.176L363.236 150.176L363.424 150.176L363.611 150.176L363.798 150.176L363.986 150.176L364.173 150.176L364.361 150.176L364.548 150.176L364.736 150.176L364.923 150.176L365.111 150.176L365.298 150.176L365.486 150.176L365.673 150.176L365.861 150.176L366.048 150.176L366.236 150.176L366.424 150.176L366.611 150.176L366.799 150.176L366.986 150.176L367.174 150.176L367.361 150.176L367.549 150.176L367.736 150.176L367.924 150.176L368.112 150.176L368.299 150.176L368.487 150.176L368.674 150.176L368.862 150.176L369.05 150.176L369.237 150.176L369.425 150.176L369.612 150.176L369.8 150.176L369.988 150.176L370.175 150.176L370.363 150.176L370.551 150.176L370.738 150.176L370.926 150.176L371.114 150.176L371.301 150.176L371.489 150.176L371.677 150.176L371.864 150.176L372.052 150.176L372.24 150.176L372.427 150.176L372.615 150.176L372.803 150.176L372.99 150.176L373.178 150.176L373.366 150.176L373.554 150.176L373.741 150.176L373.929 150.176L374.117 150.176L374.305 150.176L374.492 150.176L374.68 150.176L374.868 150.176L375.056 150.176L375.244 150.176L375.431 150.176L375.619 150.176L375.807 150.176L375.995 150.176L376.183 150.176L376.37 150.176L376.558 150.176L376.746 150.176L376.934 150.176L377.122 150.176L377.31 150.176L377.498 150.176L377.686 150.176L377.873 150.176L378.061 150.176L378.249 150.176L378.437 150.176L378.625 150.176L378.813 150.176L379.001 150.176L379.189 150.176L379.377 150.176L379.565 150.176L379.753 150.176L379.941 150.176L380.129 150.176L380.317 150.176L380.505 150.176L380.693 150.176L380.881 150.176L381.069 150.176L381.257 150.176L381.445 150.176L381.633 150.176L381.821 150.176L382.009 150.176L382.197 150.176L382.385 150.176L382.573 150.176L382.761 150.176L382.949 150.176L383.138 150.176L383.326 150.176L383.514 150.176L383.702 150.176L383.89 150.176L384.078 150.176L384.266 150.176L384.455 150.176L384.643 150.176L384.831 150.176L385.019 150.176L385.207 150.176L385.396 150.176L385.584 150.176L385.772 150.176L385.96 150.176L386.149 150.176L386.337 150.176L386.525 150.176L386.713 150.176L386.902 150.176L387.09 150.176L387.278 150.176L387.467 150.176L387.655 150.176L387.843 150.176L388.032 150.176L388.22 150.176L388.408 150.176L388.597 150.176L388.785 150.176L388.973 150.176L389.162 150.176L389.35 150.176L389.539 150.176L389.727 150.176L389.916 150.176L390.104 150.176L390.293 150.176L390.481 150.176L390.67 150.176L390.858 150.176L391.047 150.176L391.235 150.176L391.424 150.176L391.612 150.176L391.801 150.176L391.989 150.176L392.178 150.176L392.366 150.176L392.555 150.176L392.744 150.176L392.932 150.176L393.121 150.176L393.309 150.176L393.498 150.176L393.687 150.176L393.875 150.176L394.064 150.176L394.253 150.176L394.441 150.176L394.63 150.176L394.819 150.176C396.706 150.176 397.933 150.529 398.918 151.241C399.92 151.965 400.728 153.099 401.697 154.794C417.272 186.957 424.092 221.081 426.529 256.207C428.48 285.492 427.989 314.259 421.173 343.013L421.173 343.015C405.115 411.695 353.063 459.418 283.48 469.648C241.093 475.5 199.72 472.081 161.28 453.085L161.278 453.085C109.704 427.758 80.0223 384.908 68.8248 329.352C62.4954 297.673 63.9531 265.491 66.8802 233.747C69.3168 207.894 74.677 182.529 82.9605 158.141L82.9614 158.139C83.4484 156.676 83.9046 155.689 84.5954 155.05C85.2624 154.434 86.2179 154.084 87.8552 154.084L88.064 154.084L88.2727 154.084L88.4815 154.084L88.6903 154.084L88.8991 154.084L89.1079 154.084L89.3167 154.084L89.5255 154.084L89.7344 154.084L89.9432 154.084L90.1521 154.084L90.3609 154.084L90.5698 154.084L90.7787 154.084L90.9876 154.084L91.1965 154.084L91.4054 154.084L91.6144 154.084L91.8233 154.084L92.0322 154.084L92.2412 154.084L92.4502 154.084L92.6592 154.084L92.8682 154.084L93.0772 154.084L93.2862 154.084L93.4952 154.084L93.7042 154.084L93.9133 154.084L94.1223 154.084L94.3314 154.084L94.5405 154.084L94.7495 154.084L94.9586 154.084L95.1677 154.084L95.3768 154.084L95.586 154.084L95.7951 154.084L96.0042 154.084L96.2134 154.084L96.4225 154.084L96.6317 154.084L96.8409 154.084L97.0501 154.084L97.2593 154.084L97.4685 154.084L97.6777 154.084L97.8869 154.084L98.0962 154.084L98.3054 154.084L98.5146 154.084L98.7239 154.084L98.9332 154.084L99.1424 154.084L99.3517 154.084L99.561 154.084L99.7703 154.084L99.9796 154.084L100.189 154.084L100.398 154.084L100.608 154.084L100.817 154.084L101.026 154.084L101.236 154.084L101.445 154.084L101.654 154.084L101.864 154.084L102.073 154.084L102.283 154.084L102.492 154.084L102.701 154.084L102.911 154.084L103.12 154.084L103.33 154.084L103.539 154.084L103.749 154.084L103.958 154.084L104.168 154.084L104.377 154.084L104.587 154.084L104.796 154.084L105.006 154.084L105.215 154.084L105.425 154.084L105.634 154.084L105.844 154.084L106.053 154.084L106.263 154.084L106.472 154.084L106.682 154.084L106.892 154.084L107.101 154.084L107.311 154.084L107.52 154.084L107.73 154.084L107.94 154.084L108.149 154.084L108.359 154.084L108.568 154.084L108.778 154.084L108.988 154.084L109.197 154.084L109.407 154.084L109.617 154.084L109.826 154.084L110.036 154.084L110.246 154.084L110.455 154.084L110.665 154.084L110.875 154.084L111.084 154.084L111.294 154.084L111.504 154.084L111.714 154.084L111.923 154.084L112.133 154.084L112.343 154.084L112.553 154.084L112.762 154.084L112.972 154.084L113.182 154.084L113.392 154.084L113.601 154.084L113.811 154.084L114.021 154.084L114.231 154.084L114.441 154.084L114.65 154.084L114.86 154.084L115.07 154.084L115.28 154.084L115.49 154.084L115.7 154.084L115.909 154.084L116.119 154.084L116.329 154.084L116.539 154.084L116.749 154.084L116.959 154.084L117.169 154.084L117.379 154.084L117.588 154.084L117.798 154.084L118.008 154.084L118.218 154.084L118.428 154.084L118.638 154.084L118.848 154.084L119.058 154.084L119.268 154.084L119.478 154.084L119.688 154.084L119.897 154.084L120.107 154.084L120.317 154.084L120.527 154.084L120.737 154.084L120.947 154.084L121.157 154.084L121.367 154.084L121.577 154.084L121.787 154.084L121.997 154.084L122.207 154.084L122.417 154.084L122.627 154.084L122.837 154.084L123.047 154.084L123.257 154.084L123.467 154.084L123.677 154.084L123.887 154.084L124.097 154.084L124.307 154.084L124.517 154.084L124.727 154.084L124.937 154.084L125.147 154.084L125.357 154.084L125.567 154.084L125.777 154.084L125.987 154.084L126.198 154.084L126.408 154.084L126.618 154.084L126.828 154.084L127.038 154.084L127.248 154.084L127.458 154.084L127.668 154.084L127.878 154.084L128.088 154.084L128.298 154.084L128.508 154.084L128.718 154.084L128.929 154.084L129.139 154.084L129.349 154.084L129.559 154.084L129.769 154.084L129.979 154.084L130.189 154.084L130.399 154.084L130.609 154.084L130.819 154.084L131.03 154.084L131.24 154.084L131.45 154.084L131.66 154.084L131.87 154.084L132.08 154.084L132.29 154.084L132.5 154.084L132.711 154.084L132.921 154.084L133.131 154.084L133.341 154.084L133.551 154.084L133.761 154.084L133.971 154.084L134.182 154.084L134.392 154.084L134.602 154.084L134.812 154.084L135.022 154.084L135.232 154.084L135.442 154.084L135.653 154.084L135.863 154.084L136.073 154.084L136.283 154.084L136.493 154.084L136.703 154.084L136.914 154.084L137.124 154.084L137.334 154.084L137.544 154.084L137.754 154.084L137.964 154.084L138.175 154.084L138.385 154.084L138.595 154.084L138.805 154.084L139.015 154.084L139.225 154.084L139.436 154.084L139.646 154.084L139.856 154.084L140.066 154.084L140.276 154.084L140.486 154.084L140.697 154.084L140.907 154.084L141.117 154.084L141.327 154.084L141.537 154.084L141.747 154.084L141.958 154.084L142.168 154.084L142.378 154.084L142.588 154.084L142.798 154.084L143.008 154.084L143.219 154.084L143.429 154.084L143.639 154.084L143.849 154.084L144.059 154.084L144.269 154.084L144.48 154.084L144.69 154.084L144.9 154.084L145.11 154.084L145.32 154.084L145.53 154.084L145.741 154.084L145.951 154.084L146.161 154.084L146.371 154.084L146.581 154.084L146.791 154.084L147.002 154.084L147.212 154.084L147.422 154.084L147.632 154.084L147.842 154.084L148.052 154.084L148.263 154.084L148.473 154.084L148.683 154.084L148.893 154.084L149.103 154.084L149.313 154.084L149.523 154.084L149.734 154.084L149.944 154.084L150.154 154.084L150.364 154.084L150.574 154.084L150.784 154.084L150.994 154.084L151.204 154.084L151.415 154.084L151.625 154.084L151.835 154.084L152.045 154.084L152.255 154.084L152.465 154.084L152.675 154.084L152.885 154.084L153.096 154.084L153.306 154.084L153.516 154.084L153.726 154.084L153.936 154.084L154.146 154.084L154.356 154.084L154.566 154.084L154.776 154.084L154.986 154.084L155.196 154.084L155.407 154.084L155.617 154.084L155.827 154.084L156.037 154.084L156.247 154.084L156.457 154.084L156.667 154.084L156.877 154.084L157.087 154.084L157.297 154.084L157.507 154.084L157.717 154.084L157.927 154.084L158.137 154.084L158.347 154.084L158.557 154.084L158.767 154.084L158.977 154.084L159.187 154.084L159.397 154.084L159.607 154.084L159.817 154.084L160.027 154.084L160.237 154.084L160.447 154.084L160.657 154.084L160.867 154.084L161.077 154.084L161.287 154.084L161.497 154.084L161.707 154.084L161.917 154.084L162.127 154.084L162.337 154.084L162.547 154.084L162.757 154.084L162.967 154.084L163.177 154.084L163.387 154.084L163.597 154.084L163.807 154.084L164.017 154.084L164.227 154.084L164.437 154.084L164.647 154.084L164.856 154.084L165.066 154.084L165.276 154.084L165.486 154.084L165.696 154.084L165.906 154.084L166.116 154.084L166.326 154.084L166.535 154.084L166.745 154.084L166.955 154.084L167.165 154.084L167.375 154.084L167.585 154.084L167.795 154.084L168.004 154.084L168.214 154.084L168.424 154.084L168.634 154.084L168.844 154.084L169.053 154.084L169.263 154.084L169.473 154.084L169.683 154.084L169.893 154.084L170.102 154.084L170.312 154.084L170.522 154.084L170.732 154.084L170.941 154.084L171.151 154.084L171.361 154.084L171.571 154.084L171.78 154.084L171.99 154.084L172.2 154.084L172.409 154.084L172.619 154.084L172.829 154.084L173.039 154.084L173.248 154.084L173.458 154.084L173.668 154.084L173.877 154.084L174.087 154.084L174.296 154.084L174.506 154.084L174.716 154.084L174.925 154.084L175.135 154.084L175.345 154.084L175.554 154.084L175.764 154.084L175.973 154.084L176.183 154.084L176.393 154.084L176.602 154.084L176.812 154.084L177.021 154.084L177.231 154.084L177.44 154.084L177.65 154.084L177.859 154.084L178.069 154.084L178.278 154.084L178.488 154.084L178.697 154.084L178.907 154.084L179.116 154.084L179.326 154.084L179.535 154.084L179.745 154.084L179.954 154.084L180.164 154.084L180.373 154.084L180.582 154.084L180.792 154.084L181.001 154.084L181.211 154.084L181.42 154.084L181.629 154.084L181.839 154.084L182.048 154.084L182.258 154.084L182.467 154.084L182.676 154.084L182.886 154.084L183.095 154.084L183.304 154.084L183.513 154.084L183.723 154.084L183.932 154.084L184.141 154.084L184.351 154.084L184.56 154.084L184.769 154.084L184.978 154.084L185.188 154.084L185.397 154.084L185.606 154.084L185.815 154.084L186.024 154.084L186.234 154.084L186.443 154.084L186.652 154.084L186.861 154.084L187.07 154.084L187.279 154.084L187.489 154.084L187.698 154.084L187.907 154.084L188.116 154.084L188.325 154.084L188.534 154.084L188.743 154.084L188.952 154.084L189.161 154.084L189.37 154.084L189.579 154.084L189.788 154.084L189.997 154.084L190.206 154.084L190.415 154.084L190.624 154.084L190.833 154.084L191.042 154.084L191.251 154.084L191.46 154.084L191.669 154.084L191.878 154.084L192.087 154.084L192.296 154.084L192.505 154.084L192.714 154.084L192.922 154.084L193.131 154.084L193.34 154.084L193.549 154.084L193.758 154.084L193.967 154.084L194.175 154.084L194.384 154.084L194.593 154.084L194.802 154.084L195.011 154.084L195.219 154.084L195.469 154.084L195.619 153.884C195.864 153.557 196.074 153.31 196.252 153.123C194.522 157.605 192.659 161.99 190.798 166.371C189.896 168.495 188.994 170.617 188.108 172.75C185.24 179.654 182.546 186.637 180.585 193.995C172.277 221.884 168.355 250.304 174.233 279.232C180.133 308.274 202.761 328.453 232.243 332.388Z" stroke="#1E1F45" stroke-opacity="0.2"/>
<path d="M418.228 999.682L73.7109 999.682L73.7109 862.92L418.228 862.92L418.228 999.682Z" stroke="#1E1F45" stroke-opacity="0.2"/>
<path d="M418.228 109.605L73.7109 109.605L73.7109 -27.1563L418.228 -27.1563L418.228 109.605Z" stroke="#1E1F45" stroke-opacity="0.2"/>
<path d="M55.2646 999.389L0.757812 999.389L0.757806 862.317L55.2646 862.317L55.2646 999.389Z" stroke="#1E1F45" stroke-opacity="0.2"/>
<path d="M54.968 110.297L0.757812 110.297L0.757806 -26.6669L54.968 -26.6669L54.968 110.297Z" stroke="#1E1F45" stroke-opacity="0.2"/>
</g>
<defs>
<clipPath id="clip0_1052_4277">
<rect width="1310" height="429" fill="white" transform="translate(0 1310) rotate(-90)"/>
</clipPath>
</defs>
</svg>
