<svg width="73" height="24" viewBox="0 0 73 24" fill="none" xmlns="http://www.w3.org/2000/svg">
<path d="M12.5483 12.2672C12.5483 16.9783 9.28903 19.0524 6.17792 19.0524C2.71126 19.0524 0.0742188 16.5339 0.0742188 12.4746C0.0742188 8.20797 2.8594 5.68945 6.41496 5.68945C10.0594 5.71908 12.5483 8.38575 12.5483 12.2672ZM2.41496 12.4154C2.41496 15.2006 4.01496 17.3339 6.29644 17.3339C8.51866 17.3339 10.1779 15.2598 10.1779 12.3858C10.1779 10.2228 9.11126 7.46723 6.3557 7.46723C3.60014 7.46723 2.41496 9.98575 2.41496 12.4154Z" fill="white" fill-opacity="0.4"/>
<path d="M23.035 0.0292969V5.74782C26.7387 6.01448 29.435 8.35522 29.435 12.3552C29.435 16.5626 26.5905 18.7552 23.035 18.9923V23.97H20.9312V19.0219C17.2275 18.7849 14.5312 16.4737 14.5312 12.5034C14.5312 8.29596 17.3461 6.07374 20.9312 5.77744V0.0292969H23.035ZM20.9312 7.34782C18.3535 7.70337 16.8127 9.80707 16.8127 12.4145C16.8127 15.0515 18.3831 17.096 20.9312 17.4219V7.34782ZM23.035 17.4219C25.5831 17.0663 27.1535 14.9626 27.1535 12.3552C27.1535 9.71819 25.5831 7.70337 23.035 7.34782V17.4219Z" fill="white" fill-opacity="0.4"/>
<path d="M34.4738 6.01401V11.377C34.4738 13.4214 34.4442 14.6659 34.3553 16.5029L34.4442 16.5325C35.2146 14.9622 35.659 14.0733 36.4887 12.5918L40.459 5.98438H43.185V18.7547H40.9627V13.3622C40.9627 11.2881 41.022 10.1918 41.1109 8.14734H41.022C40.1924 9.77697 39.659 10.814 38.9183 12.1177C37.7035 14.1029 36.3109 16.5622 34.9479 18.7844H32.2812V6.01401H34.4738Z" fill="white" fill-opacity="0.4"/>
<path d="M56.0132 18.2817C55.4206 18.6076 54.0576 19.0225 52.3391 19.0225C48.4873 19.0225 45.9688 16.415 45.9688 12.5039C45.9688 8.56319 48.665 5.71875 52.8132 5.71875C54.1762 5.71875 55.391 6.0743 56.0428 6.3706L55.5095 8.17801C54.9465 7.85208 54.0873 7.58542 52.8132 7.58542C49.8799 7.58542 48.3095 9.74838 48.3095 12.415C48.3095 15.378 50.2058 17.1854 52.7539 17.1854C54.0873 17.1854 54.9465 16.8299 55.5984 16.5632L56.0132 18.2817Z" fill="white" fill-opacity="0.4"/>
<path d="M60.9345 6.01367V10.3692C61.4382 10.2507 62.1789 10.2211 63.0086 10.2211C65.7641 10.2211 68.5197 11.347 68.5197 14.4877C68.5197 15.8211 68.016 16.7692 67.1863 17.4507C65.7938 18.6359 63.7197 18.9322 62.0308 18.9322C60.7271 18.9322 59.5419 18.8433 58.5938 18.7544V6.01367H60.9345ZM60.9345 17.1544C61.3789 17.2137 61.8826 17.2729 62.5345 17.2729C64.3123 17.2729 66.2382 16.5322 66.2382 14.547C66.2382 12.5026 64.4012 11.8507 62.653 11.8507C62.0012 11.8507 61.4086 11.91 60.9345 11.9692V17.1544ZM72.4308 6.01367V18.784H70.1493V6.01367H72.4308Z" fill="white" fill-opacity="0.4"/>
</svg>
