<svg width="87" height="19" viewBox="0 0 87 19" fill="none" xmlns="http://www.w3.org/2000/svg">
<path d="M84.457 14.1885H86.5485V0.855189H84.457V14.1885ZM81.0583 13.1428C82.1041 12.3585 82.3655 11.3127 82.3655 10.0055C82.3655 8.43689 81.8426 7.39114 81.0583 6.60682C80.0126 6.08395 78.7054 5.56107 76.8753 5.56107H74.5224V0.855189H72.4309V14.1885H77.3982C78.9668 14.1885 80.0126 13.9271 81.0583 13.1428ZM76.8753 7.65257C77.9211 7.65257 78.7054 7.91401 79.2282 8.17545C79.7511 8.43689 80.0126 8.95976 80.0126 10.0055C80.0126 10.7898 79.7511 11.5741 79.2282 11.8356C78.7054 12.097 77.9211 12.3585 77.1367 12.3585H74.7838V7.65257H76.8753ZM60.9276 3.99244C60.9276 3.99244 60.9276 3.73101 60.9276 3.46957C60.9276 3.20813 60.9276 2.94669 60.9276 2.94669H65.6335V12.3585H59.359C60.1433 10.5284 60.6662 7.65257 60.9276 3.99244ZM67.725 12.3585V0.855189H58.8361V3.20813C58.8361 5.56107 58.5747 7.39114 58.3132 8.69833C58.0518 10.0055 57.5289 11.3127 57.006 12.3585H55.4374V18.1101H57.5289V14.45H67.4635V18.1101H69.555V12.3585H67.725ZM51.7773 1.90094C50.993 1.11663 49.6858 0.59375 47.5943 0.59375C46.0256 0.59375 44.7184 0.855188 43.4113 1.37806V3.46957C44.7184 2.94669 46.0256 2.68525 47.3328 2.68525C48.64 2.68525 49.4243 2.94669 49.9472 3.46957C50.4701 3.99244 50.7315 4.77676 50.7315 5.82251V6.60682C50.7315 6.60682 50.4701 6.60682 50.2086 6.60682C49.9472 6.60682 49.6858 6.60682 49.1629 6.60682C48.9015 6.60682 48.3786 6.60682 48.1171 6.60682C46.0256 6.60682 44.457 6.86826 43.4113 7.65257C42.3655 8.43689 41.8426 9.2212 41.8426 10.7898C41.8426 12.097 42.1041 13.1428 42.8884 13.9271C43.6727 14.7114 44.7184 14.9728 46.0256 14.9728C48.1171 14.9728 49.4243 14.1885 50.4701 12.8813V14.7114H52.3001V6.08395C53.0845 4.25388 52.5616 2.68525 51.7773 1.90094ZM49.9472 11.5741C49.4243 12.097 48.3786 12.6199 47.3328 12.6199C46.5485 12.6199 45.7642 12.3585 45.5028 11.8356C44.7184 11.3127 44.7184 10.7898 44.7184 10.267C44.7184 9.48264 44.9799 8.95976 45.5028 8.69833C46.0256 8.17545 47.0714 7.91401 48.3786 7.91401C49.4243 7.91401 50.2086 7.91401 50.7315 8.17545V8.95976C50.7315 10.0055 50.4701 11.0513 49.9472 11.5741ZM31.1237 11.8356C31.6466 10.0055 31.908 7.1297 31.908 3.20813V2.94669H36.8753V14.45H38.9668V0.855189H29.8165V1.6395C29.8165 5.56107 29.555 8.17545 29.2936 9.74408C29.0322 11.3127 28.2479 12.097 27.4635 12.097C27.2021 12.097 26.9407 12.097 26.6792 11.8356V13.9271C26.9407 13.9271 27.4635 14.1885 27.725 14.1885C29.555 14.45 30.6008 13.6656 31.1237 11.8356ZM14.1302 0.855189V14.1885H16.2217V7.65257L22.4962 14.45H25.372L18.5747 7.39114L24.8492 1.11663H21.9733L16.2217 7.1297V0.855189H14.1302ZM8.11714 12.3585C4.71844 12.3585 3.14982 10.5284 3.14982 7.1297C3.14982 5.56107 3.67269 4.51532 4.45701 3.73101C5.24132 2.94669 6.28707 2.68525 7.59426 2.68525C8.64001 2.68525 9.68576 2.94669 10.7315 3.20813V1.11663C9.68576 0.855189 8.37857 0.59375 7.33282 0.59375C5.24132 0.59375 3.67269 1.11663 2.3655 2.42382C1.31975 3.73101 0.796875 5.29963 0.796875 7.39114C0.796875 9.48264 1.31975 11.3127 2.3655 12.6199C3.41125 13.9271 5.24132 14.45 7.33282 14.45C8.90145 14.45 9.9472 14.1885 10.993 13.9271V11.8356C10.2086 12.3585 9.16289 12.3585 8.11714 12.3585Z" fill="white"/>
</svg>
