<svg width="138" height="39" viewBox="0 0 138 39" fill="none" xmlns="http://www.w3.org/2000/svg">
<path d="M1.35881 6.27371C2.40457 5.22795 3.97319 4.70508 5.54182 4.70508C6.0647 4.70508 6.58757 4.70508 7.11045 4.96652C7.37189 5.22795 7.89476 5.48939 8.1562 5.75083C8.41764 6.01227 8.67907 6.53514 8.94051 7.05802C8.94051 7.31946 8.94051 7.84233 8.94051 8.62665V14.9012H8.1562C7.89476 14.9012 7.89476 14.9012 7.63332 14.9012L7.37188 14.6397L7.11045 13.594C6.84901 13.8554 6.58757 14.1168 6.32613 14.1168C6.0647 14.3783 5.80326 14.3783 5.54182 14.6397C5.28038 14.6397 5.01894 14.9012 4.75751 14.9012C4.49607 14.9012 4.23463 14.9012 3.71175 14.9012C3.18888 14.9012 2.92744 14.9012 2.666 14.6397C2.40457 14.6397 1.88169 14.6397 1.62025 14.3783C1.35881 14.1168 1.35881 13.8554 1.09738 13.594C1.09738 13.0711 0.835938 12.8097 0.835938 12.2868C0.835938 12.0253 0.835937 11.5025 1.09738 11.241C1.35881 10.7182 1.88169 10.4567 2.14313 10.1953C2.666 9.93384 3.18888 9.6724 3.97319 9.41096C4.75751 9.14952 5.80326 9.14952 6.84901 9.14952V8.62665C6.84901 7.84233 6.58757 7.31946 6.32613 7.05802C6.32613 6.53514 5.80326 6.27371 5.28038 6.27371C4.75751 6.27371 4.49607 6.27371 4.23463 6.53514C3.97319 6.53514 3.71175 6.79658 3.45032 6.79658C3.18888 6.79658 3.18888 7.05802 2.92744 7.05802C2.666 7.05802 2.666 7.31946 2.40456 7.31946C2.14313 7.31946 2.14313 7.31946 2.14313 7.31946C1.88169 7.05802 1.88169 7.05802 1.88169 7.05802L1.35881 6.27371ZM6.84901 10.4567C6.32613 10.4567 5.54182 10.4567 5.01894 10.7182C4.49607 10.7182 4.23463 10.9796 3.71175 10.9796C3.45032 11.241 3.18888 11.241 3.18888 11.5025C2.92744 11.7639 2.92744 12.0253 2.92744 12.2868C2.92744 12.5482 2.92744 12.8097 2.92744 12.8097C3.18888 13.0711 3.18888 13.0711 3.45032 13.3325C3.71175 13.3325 3.71176 13.594 3.97319 13.594C4.23463 13.594 4.23463 13.594 4.49607 13.594C5.01894 13.594 5.54182 13.594 5.80326 13.3325C6.32613 13.0711 6.58757 12.8097 6.84901 12.2868V10.4567Z" fill="#F6F6F6"/>
<path d="M19.9207 4.9668V14.9014H17.8292V10.1956H13.6462V14.9014H11.5547V4.9668H13.6462V8.62693H17.8292V4.9668H19.9207Z" fill="#F6F6F6"/>
<path d="M22.2732 6.27371C23.3189 5.22795 24.6261 4.70508 26.1947 4.70508C26.7176 4.70508 27.2405 4.70508 27.7634 4.96652C28.2862 5.22795 28.5477 5.48939 28.8091 5.75083C29.0705 6.01227 29.332 6.53514 29.5934 7.05802C29.8549 7.5809 29.8549 8.10377 29.8549 8.62665V14.9012H28.8091C28.5477 14.9012 28.5477 14.9012 28.2862 14.9012L28.0248 14.6397V13.594C27.7634 13.8554 27.5019 14.1168 27.2405 14.1168C26.979 14.3783 26.7176 14.3783 26.4562 14.6397C26.1947 14.6397 25.9333 14.9012 25.6719 14.9012C25.4104 14.9012 25.149 14.9012 24.6261 14.9012C24.1032 14.9012 23.8418 14.9012 23.5803 14.6397C23.3189 14.6397 23.0575 14.3783 22.796 14.1168C22.5346 13.8554 22.2732 13.594 22.2732 13.3325C22.0117 13.0711 22.0117 12.5482 22.0117 12.2868C22.0117 12.0253 22.0117 11.5025 22.2732 11.241C22.5346 10.9796 22.796 10.4567 23.3189 10.1953C23.8418 9.93384 24.3647 9.6724 25.149 9.41096C25.9333 9.14952 26.979 9.14952 28.0248 9.14952V8.62665C28.0248 7.84233 27.7634 7.31946 27.5019 7.05802C27.2405 6.79658 26.7176 6.53514 26.1947 6.53514C25.6719 6.53514 25.4104 6.53514 25.149 6.79658C24.8875 6.79658 24.6261 7.05802 24.3647 7.05802C24.1032 7.05802 24.1032 7.31946 23.8418 7.31946C23.5803 7.31946 23.5803 7.5809 23.3189 7.5809C23.0575 7.5809 23.0575 7.5809 23.0575 7.5809L22.796 7.31946L22.2732 6.27371ZM27.7634 10.4567C26.979 10.4567 26.4562 10.4567 25.9333 10.7182C25.4104 10.7182 24.8875 10.9796 24.6261 10.9796C24.3647 11.241 24.1032 11.241 23.8418 11.5025C23.5803 11.7639 23.5803 12.0253 23.5803 12.2868C23.5803 12.5482 23.5803 12.8097 23.5803 12.8097C23.5803 13.0711 23.8418 13.0711 23.8418 13.3325C24.1032 13.3325 24.1032 13.594 24.3647 13.594C24.6261 13.594 24.6261 13.594 24.8875 13.594C25.4104 13.594 25.9333 13.594 26.1947 13.3325C26.7176 13.0711 26.979 12.8097 27.2405 12.5482V10.4567H27.7634Z" fill="#F6F6F6"/>
<path d="M41.356 14.9014H39.2644V6.53542H36.3886C36.3886 7.84261 36.1272 8.88837 36.1272 9.67268C35.8658 10.7184 35.8658 11.5027 35.6043 12.0256C35.3429 12.5485 35.0814 13.0714 34.82 13.5942C34.5586 13.8557 34.2971 14.3786 34.0357 14.3786C33.7743 14.64 33.5128 14.64 32.9899 14.9014C32.7285 14.9014 32.4671 14.9014 31.9442 14.9014C31.4213 14.9014 30.8984 14.9014 30.8984 14.64V13.3328H31.4213C31.6827 13.3328 31.9442 13.3328 32.2056 13.3328C32.4671 13.3328 32.7285 13.0714 32.7285 12.8099C33.2514 12.5485 33.2514 12.2871 33.5128 12.0256C33.7743 11.7642 33.7743 11.2413 34.0357 10.457C34.2971 9.93412 34.2971 9.1498 34.5586 8.10405C34.5586 7.31974 34.82 6.01255 34.82 4.9668H41.356V14.9014Z" fill="#F6F6F6"/>
<path d="M52.5995 4.96652V14.9012H50.508V8.62665C50.508 8.36521 50.508 8.36521 50.508 8.10377C50.508 7.84233 50.508 7.84233 50.508 7.5809C50.508 7.84233 50.508 7.84233 50.2466 8.10377C50.2466 8.10377 50.2466 8.36521 49.9852 8.36521L45.5407 14.3783L45.2793 14.6397C45.2793 14.6397 45.0178 14.9012 44.7564 14.9012H43.4492V4.96652H45.5407V11.241C45.5407 11.5025 45.5407 11.5025 45.5407 11.7639C45.5407 12.0253 45.5407 12.0253 45.5407 12.2868C46.0636 11.7639 46.325 11.5025 46.325 11.241L50.7695 5.22795L51.0309 4.96652C51.0309 4.96652 51.2924 4.70508 51.5538 4.70508H52.5995V4.96652Z" fill="#F6F6F6"/>
<path d="M63.5797 6.53542H59.9196V14.9014H57.8281V6.53542H54.168V4.9668H63.5797V6.53542Z" fill="#F6F6F6"/>
<path d="M74.0373 4.9668V14.9014H71.9458V8.62693C71.9458 8.36549 71.9458 8.36549 71.9458 8.10405C71.9458 7.84261 71.9458 7.84261 71.9458 7.58118C71.9458 7.84261 71.9458 7.84261 71.6844 8.10405C71.6844 8.10405 71.6844 8.36549 71.4229 8.36549L67.2399 14.3786L66.9785 14.64C66.9785 14.64 66.7171 14.9014 66.4556 14.9014H65.1484V4.9668H67.2399V11.2413C67.2399 11.5027 67.2399 11.5027 67.2399 11.7642C67.2399 12.0256 67.2399 12.0256 67.2399 12.2871C67.5014 12.0256 67.5014 11.7642 67.7628 11.5027L72.2073 5.48967L72.4687 5.22823C72.4687 5.22823 72.7301 4.9668 72.9916 4.9668H74.0373Z" fill="#F6F6F6"/>
<path d="M84.2335 4.9668V14.9014H82.142V10.7184C81.3577 10.9799 80.5733 10.9799 79.789 10.9799C79.0047 10.9799 78.4818 10.9799 77.959 10.7184C77.4361 10.457 76.9132 10.1956 76.6518 9.67268C76.3903 9.1498 76.1289 8.62693 76.1289 7.84261V4.9668H78.2204V7.84261C78.2204 8.36549 78.2204 8.62693 78.4818 8.88837C78.7433 9.1498 79.0047 9.41124 79.2662 9.41124C79.5276 9.41124 80.0505 9.67268 80.5733 9.41124C81.0962 9.41124 81.6191 9.41124 82.4034 9.1498V4.9668H84.2335Z" fill="#F6F6F6"/>
<path d="M88.154 9.93412C88.154 10.457 88.154 10.9799 88.4154 11.5027C88.6769 12.0256 88.6769 12.2871 88.9383 12.5485C89.4612 12.8099 89.7226 13.0714 89.9841 13.0714C90.2455 13.3328 90.7684 13.3328 91.0298 13.3328C91.5527 13.3328 91.8141 13.3328 92.0756 13.0714C92.337 13.0714 92.5984 12.8099 92.8599 12.8099C93.1213 12.8099 93.3828 12.5485 93.3828 12.5485C93.6442 12.5485 93.6442 12.2871 93.9056 12.2871C94.1671 12.2871 94.1671 12.2871 94.1671 12.5485L94.6899 13.3328C94.4285 13.5942 94.1671 13.8557 93.9056 14.1171C93.6442 14.3786 93.3828 14.3786 92.8599 14.64C92.5984 14.64 92.0756 14.9014 91.8141 14.9014C91.5527 14.9014 91.0298 14.9014 90.7684 14.9014C89.9841 14.9014 89.4612 14.9014 88.9383 14.64C88.4154 14.3786 87.8926 14.1171 87.3697 13.5942C86.8468 13.0714 86.5854 12.5485 86.3239 12.0256C86.0625 11.2413 86.0625 10.7184 86.0625 9.67268C86.0625 8.88837 86.0625 8.36549 86.3239 7.84261C86.5854 7.31974 86.8468 6.79686 87.3697 6.27399C87.8926 5.75111 88.154 5.48967 88.9383 5.22823C89.4612 4.9668 90.2455 4.9668 91.0298 4.9668C91.5527 4.9668 92.337 4.9668 92.8599 5.22823C93.3828 5.48967 93.9056 5.75111 94.1671 6.01255C94.4285 6.27399 94.9514 6.79686 94.9514 7.31974C95.2128 7.84261 95.2128 8.62693 95.2128 9.1498C95.2128 9.41124 95.2128 9.67268 95.2128 9.93412L94.9514 10.1956H88.154V9.93412ZM93.3828 8.62693C93.3828 8.36549 93.3828 7.84261 93.1213 7.58118C93.1213 7.31974 92.8599 7.0583 92.5984 6.79686C92.337 6.53542 92.0756 6.27399 91.8141 6.27399C91.5527 6.27399 91.2913 6.01255 90.7684 6.01255C89.9841 6.01255 89.4612 6.27399 88.9383 6.79686C88.4154 7.31974 88.154 7.84261 88.154 8.62693H93.3828Z" fill="#F6F6F6"/>
<path d="M104.105 6.79658C103.843 7.05802 103.843 7.05802 103.843 7.05802H103.582C103.582 7.05802 103.32 6.79658 103.059 6.79658C102.797 6.79658 102.797 6.53514 102.536 6.53514C102.275 6.53514 102.013 6.53514 101.752 6.53514C101.229 6.53514 100.967 6.53514 100.444 6.79658C100.183 7.05802 99.9216 7.31946 99.6601 7.5809C99.3987 7.84233 99.1373 8.36521 99.1373 8.62665C99.1373 9.14952 98.8758 9.6724 98.8758 10.1953C98.8758 10.7182 98.8758 11.241 99.1373 11.7639C99.1373 12.2868 99.3987 12.5482 99.6601 12.8097C99.6601 12.8097 99.9216 13.0711 100.183 13.0711C100.444 13.3325 100.967 13.3325 101.229 13.3325C101.752 13.3325 102.013 13.3325 102.275 13.0711C102.536 13.0711 102.797 12.8097 102.797 12.8097C103.059 12.8097 103.059 12.5482 103.32 12.5482L103.582 12.2868C103.843 12.2868 103.843 12.2868 103.843 12.5482L104.366 13.3325C104.105 13.594 103.843 13.8554 103.582 14.1168C103.32 14.3783 103.059 14.3783 102.536 14.6397C102.275 14.6397 101.752 14.9012 101.49 14.9012C101.229 14.9012 100.706 14.9012 100.444 14.9012C99.9216 14.9012 99.1373 14.9012 98.6144 14.6397C98.0915 14.3783 97.5686 14.1168 97.3072 13.594C96.7843 13.0711 96.5229 12.5482 96.2614 12.0253C96 11.5025 96 10.7182 96 9.93384C96 9.14952 96 8.62665 96.2614 7.84233C96.5229 7.31946 96.7843 6.79658 97.3072 6.27371C98.0915 5.75083 98.6144 5.22795 99.3987 4.96652C99.9216 4.70508 100.706 4.70508 101.49 4.70508C102.275 4.70508 102.797 4.70508 103.32 4.96652C103.843 5.22795 104.366 5.48939 104.627 6.01227L104.105 6.79658Z" fill="#F6F6F6"/>
<path d="M112.466 5.48939C112.466 5.22795 112.728 5.22795 112.989 4.96652C113.251 4.96652 113.251 4.70508 113.512 4.70508H115.081L112.728 8.36521C112.466 8.62665 112.466 8.88809 112.205 8.88809C111.943 9.14952 111.943 9.14952 111.682 9.14952C111.943 9.14952 112.205 9.41096 112.466 9.6724C112.728 9.93384 112.989 10.1953 112.989 10.4567L115.342 14.6397H113.773C113.512 14.6397 112.989 14.6397 112.989 14.3783C112.728 14.3783 112.728 14.1168 112.466 13.8554L110.898 10.9796C110.636 10.7181 110.636 10.4567 110.375 10.4567C110.113 10.4567 109.852 10.4567 109.59 10.4567H108.545V14.9012H106.453V4.96652H108.545V9.14952H109.329C109.59 9.14952 109.852 9.14952 110.113 8.88809C110.375 8.88809 110.375 8.62665 110.636 8.36521L112.466 5.48939Z" fill="#F6F6F6"/>
<path d="M125.542 4.9668V14.9014H123.45V8.62693C123.45 8.36549 123.45 8.36549 123.45 8.10405C123.45 7.84261 123.45 7.84261 123.45 7.58118C123.45 7.84261 123.45 7.84261 123.189 8.10405C123.189 8.10405 123.189 8.36549 122.927 8.36549L118.483 14.3786L118.221 14.64C118.221 14.64 117.96 14.9014 117.698 14.9014H116.914V4.9668H119.006V11.2413C119.006 11.5027 119.006 11.5027 119.006 11.7642C119.006 12.0256 119.006 12.0256 119.006 12.2871C119.267 12.0256 119.267 11.7642 119.528 11.5027L123.973 5.48967L124.234 5.22823C124.234 5.22823 124.496 4.9668 124.757 4.9668H125.542Z" fill="#F6F6F6"/>
<path d="M137.045 4.96816V14.9028H134.953V8.62829C134.953 8.36686 134.953 8.36686 134.953 8.10542C134.953 7.84398 134.953 7.84398 134.953 7.58254C134.953 7.84398 134.953 7.84398 134.692 8.10542C134.692 8.10542 134.692 8.36686 134.43 8.36686L129.986 14.3799L129.725 14.6414C129.725 14.6414 129.463 14.9028 129.202 14.9028H127.895V4.96816H129.986V11.2427C129.986 11.5041 129.986 11.5041 129.986 11.7655C129.986 12.027 129.986 12.027 129.986 12.2884C130.247 12.027 130.247 11.7655 130.509 11.5041L134.953 5.49104C134.953 5.2296 135.215 5.2296 135.215 4.96816C135.215 4.96816 135.476 4.70673 135.738 4.70673H137.045V4.96816ZM132.6 2.35378C132.862 2.35378 133.123 2.35378 133.123 2.35378C133.385 2.35378 133.385 2.09235 133.646 2.09235C133.646 2.09235 133.908 1.83091 133.908 1.56947C133.908 1.30803 133.908 1.04659 133.908 0.785156H135.215C135.476 0.785156 135.476 0.785156 135.476 1.04659C135.476 1.04659 135.476 1.30803 135.476 1.56947C135.476 1.83091 135.476 2.09235 135.215 2.35378C135.476 2.61522 135.215 2.61522 134.953 2.87666C134.692 3.1381 134.43 3.1381 133.908 3.39954C133.385 3.66097 133.123 3.39954 132.6 3.39954C132.078 3.39954 131.816 3.39954 131.293 3.1381C131.032 3.1381 130.509 2.87666 130.247 2.61522C130.247 2.61522 129.986 2.61522 129.986 2.35378C129.725 2.09235 129.725 1.83091 129.725 1.56947C129.725 1.30803 129.725 1.30803 129.725 1.04659L129.986 0.785156H131.293C131.293 1.04659 131.293 1.30803 131.293 1.56947C131.293 1.83091 131.293 1.83091 131.555 2.09235C131.555 2.09235 131.816 2.35378 132.078 2.35378C132.339 2.35378 132.339 2.35378 132.6 2.35378Z" fill="#F6F6F6"/>
<path d="M12.0747 33.4637V37.9081C12.0747 38.1695 12.0747 38.1695 11.8133 38.431C11.8133 38.431 11.5518 38.6924 11.2904 38.6924H9.9832V35.2937H1.61719V25.0977H3.70869V33.4637H8.15313V25.0977H10.2446V33.4637H12.0747Z" fill="#F6F6F6"/>
<path d="M15.2123 30.065C15.2123 30.5879 15.2123 31.1107 15.4738 31.6336C15.7352 32.1565 15.7352 32.4179 15.9966 32.6794C16.2581 32.9408 16.5195 33.2022 16.7809 33.2022C17.0424 33.4637 17.5653 33.4637 17.8267 33.4637C18.3496 33.4637 18.611 33.4637 18.8724 33.2022C19.1339 33.2022 19.3953 32.9408 19.6568 32.9408C19.9182 32.9408 20.1796 32.6794 20.1796 32.6794C20.4411 32.6794 20.4411 32.4179 20.7025 32.4179C20.964 32.4179 20.964 32.4179 20.964 32.6794L21.4868 33.4637C21.2254 33.7251 20.964 33.9865 20.7025 34.248C20.4411 34.5094 20.1796 34.5094 19.6568 34.7709C19.3953 34.7709 18.8724 35.0323 18.611 35.0323C18.3496 35.0323 17.8267 35.0323 17.5653 35.0323C16.7809 35.0323 16.2581 35.0323 15.7352 34.7709C15.2123 34.5094 14.6894 34.248 14.1666 33.7251C13.6437 33.2022 13.3823 32.6794 13.1208 32.1565C12.8594 31.3722 12.8594 30.8493 12.8594 29.8035C12.8594 29.0192 12.8594 28.4963 13.1208 27.9735C13.3823 27.4506 13.6437 26.9277 14.1666 26.4048C14.6894 25.882 14.9509 25.6205 15.7352 25.3591C16.2581 25.0977 17.0424 25.0977 17.8267 25.0977C18.3496 25.0977 19.1339 25.0977 19.6568 25.3591C20.1796 25.6205 20.7025 25.882 20.964 26.1434C21.2254 26.4048 21.7483 26.9277 21.7483 27.4506C22.0097 27.9735 22.0097 28.7578 22.0097 29.2807C22.0097 29.5421 22.0097 29.8035 22.0097 30.065L21.7483 30.3264H15.2123V30.065ZM20.1796 28.7578C20.1796 28.4963 20.1796 27.9735 19.9182 27.712C19.9182 27.4506 19.6568 27.1892 19.3953 26.9277C19.1339 26.6663 18.8724 26.4048 18.611 26.4048C18.3496 26.4048 18.0881 26.1434 17.5653 26.1434C16.7809 26.1434 16.2581 26.4048 15.7352 26.9277C15.2123 27.4506 14.9509 27.9735 14.9509 28.7578H20.1796Z" fill="#F6F6F6"/>
<path d="M32.4676 25.0977V35.0323H30.3761V30.3264H26.1931V35.0323H24.1016V25.0977H26.1931V28.7578H30.3761V25.0977H32.4676Z" fill="#F6F6F6"/>
<path d="M43.4508 26.6663H39.7907V35.0323H37.6992V26.6663H34.0391V25.0977H43.4508V26.6663Z" fill="#F6F6F6"/>
<path d="M47.111 26.4043C47.6339 25.8814 47.8953 25.62 48.4182 25.0971C48.9411 24.8357 49.464 24.5742 50.2483 24.5742C50.7712 24.5742 51.294 24.5742 51.8169 24.8357C52.3398 25.0971 52.6012 25.3585 52.8627 25.8814C53.1241 26.4043 53.3855 26.9272 53.647 27.45C53.9084 27.9729 53.9084 28.7572 53.9084 29.5415C53.9084 30.3259 53.9084 30.8487 53.647 31.633C53.3855 32.1559 53.1241 32.9402 52.8627 33.2017C52.6012 33.7245 52.0784 33.986 51.5555 34.2474C51.0326 34.5089 50.5097 34.7703 49.7254 34.7703C49.2025 34.7703 48.6797 34.7703 48.1568 34.5089C47.6339 34.2474 47.3725 33.986 47.111 33.7245V37.9076H45.0195V25.0971H46.3267C46.5882 25.0971 46.8496 25.3585 46.8496 25.62L47.111 26.4043ZM47.111 32.4174C47.3725 32.6788 47.6339 32.9402 48.1568 33.2017C48.4182 33.4631 48.9411 33.4631 49.2025 33.4631C49.9869 33.4631 50.7712 33.2017 51.0326 32.6788C51.5555 32.1559 51.8169 31.1102 51.8169 30.0644C51.8169 29.5415 51.8169 29.0187 51.5555 28.4958C51.5555 27.9729 51.294 27.7115 51.0326 27.45C50.7712 27.1886 50.5097 26.9272 50.2483 26.9272C49.9869 26.9272 49.7254 26.6657 49.2025 26.6657C48.6797 26.6657 48.1568 26.6657 47.8953 26.9272C47.6339 27.1886 47.111 27.45 46.8496 27.9729V32.4174H47.111Z" fill="#F6F6F6"/>
</svg>
