<svg width="74" height="24" viewBox="0 0 74 24" fill="none" xmlns="http://www.w3.org/2000/svg">
<path d="M10.3253 8.68664C10.0638 8.94808 10.0638 8.94808 9.80239 8.94808C9.54095 8.94808 9.54095 8.94808 9.27951 8.68664C9.27951 8.68664 9.01808 8.68664 8.75664 8.42521C8.4952 8.42521 8.23376 8.16377 7.97232 8.16377C7.71089 8.16377 7.18801 7.90233 6.66513 7.90233C6.14226 7.90233 5.35794 7.90233 5.09651 8.16377C4.57363 8.68665 4.31219 8.94808 3.78932 9.20952C3.52788 9.7324 3.26644 10.2553 3.26644 10.7781C3.005 11.5625 3.005 12.0853 3.005 12.8697C3.005 13.654 3.005 14.4383 3.26644 14.9612C3.26644 15.484 3.52788 16.0069 4.05076 16.5298C4.31219 16.7912 4.57363 17.3141 5.09651 17.5755C5.61938 17.837 6.14226 17.837 6.66513 17.837C7.18801 17.837 7.71089 17.837 7.97232 17.5755C8.23376 17.3141 8.75664 17.3141 8.75664 17.0527C9.01808 16.7912 9.27951 16.7912 9.27951 16.5298C9.80239 16.5298 9.80239 16.5298 10.0638 16.5298C10.3253 16.5298 10.3253 16.5298 10.5867 16.7912L11.371 17.837C10.8481 18.0984 10.5867 18.3598 10.3253 18.6213C9.80239 18.8827 9.54095 19.1442 9.01808 19.1442C8.4952 19.4056 8.23376 19.4056 7.71089 19.4056C7.18801 19.4056 6.66513 19.4056 6.4037 19.4056C5.61938 19.4056 4.83507 19.1442 4.05076 18.8827C3.26644 18.8827 2.48213 18.6213 1.95925 17.837C1.43638 17.3141 1.17494 16.5298 0.652063 15.7455C0.390625 14.9612 0.390625 13.9154 0.390625 12.8697C0.390625 11.8239 0.652063 11.0396 0.913501 9.99383C0.913501 9.20952 1.43638 8.68664 1.95925 7.90233C2.48213 7.37945 3.005 6.85658 3.78932 6.59514C4.57363 6.07227 5.61938 6.07227 6.66513 6.07227C7.71089 6.07227 8.4952 6.3337 9.27951 6.59514C10.0638 6.85658 10.5867 7.37945 11.1096 7.90233L10.3253 8.68664Z" fill="#F6F6F6"/>
<path d="M13.2026 8.16377C13.9869 7.37946 14.7712 6.85658 15.5555 6.59514C16.6013 6.07227 17.3856 6.07227 18.4313 6.07227C19.2156 6.07227 19.9999 6.07227 20.5228 6.3337C21.0457 6.59514 21.5686 6.85658 22.0915 7.37946C22.6143 7.90233 22.8758 8.42521 22.8758 8.94808C23.1372 9.7324 23.3986 10.2553 23.3986 11.0396V19.667H22.3529C22.0915 19.667 21.83 19.667 21.83 19.667C21.5686 19.667 21.5686 19.4056 21.5686 19.1442L21.3071 18.0984C21.0457 18.3598 20.5228 18.6213 20.2614 18.8827C19.9999 19.1442 19.4771 19.4056 19.2156 19.4056C18.9542 19.667 18.4313 19.667 18.1699 19.667C17.647 19.667 17.3856 19.9285 16.8627 19.9285C16.3398 19.9285 15.8169 19.9285 15.2941 19.667C14.5098 19.4056 13.9869 19.1442 13.7254 18.8827C13.464 18.6213 13.2026 18.3598 12.9411 17.837C12.6797 17.3141 12.6797 16.7912 12.6797 16.2683C12.6797 15.7455 12.9411 15.2226 13.2026 14.6997C13.464 14.1768 13.9869 13.654 14.5098 13.3925C15.0326 13.1311 16.0784 12.6082 17.1241 12.3468C18.1699 12.0853 19.4771 12.0853 21.0457 11.8239V11.0396C21.0457 9.99383 20.7843 9.20952 20.5228 8.68664C19.9999 8.16377 19.4771 7.90233 18.6928 7.90233C18.1699 7.90233 17.647 7.90233 17.3856 8.16377C16.3398 8.42521 16.0784 8.42521 15.8169 8.68664C15.5555 8.94808 15.2941 8.94808 15.0326 9.20952C15.0326 9.20952 14.7712 9.47096 14.5098 9.47096C14.2483 9.47096 14.2483 9.47096 13.9869 9.20952L13.7254 8.94808L13.2026 8.16377ZM20.7843 13.654C19.7385 13.654 18.9542 13.654 18.1699 13.9154C17.3856 13.9154 16.8627 14.1768 16.3398 14.4383C15.8169 14.6997 15.5555 14.9612 15.2941 15.2226C15.0326 15.484 15.0326 15.7455 15.0326 16.0069C15.0326 16.2683 15.0326 16.5298 15.2941 16.7912C15.2941 17.3141 15.5555 17.3141 15.5555 17.5755C15.8169 17.837 16.0784 17.837 16.3398 17.837C16.6013 17.837 16.8627 17.837 17.1241 17.837C17.647 17.837 17.9084 17.837 18.1699 17.837C18.4313 17.837 18.6928 17.5755 19.2156 17.5755C19.4771 17.3141 19.7385 17.3141 19.9999 17.0527C20.2614 16.7912 20.5228 16.5298 20.7843 16.2683V13.654Z" fill="#F6F6F6"/>
<path d="M29.1495 8.16377C29.411 7.90233 29.6724 7.64089 29.9338 7.37946C30.1953 7.11802 30.7182 6.85658 30.9796 6.59514C31.241 6.3337 31.7639 6.3337 32.2868 6.07227C32.5482 6.07227 33.0711 6.07227 33.594 6.07227C34.3783 6.07227 35.1626 6.3337 35.6855 6.59514C36.2084 6.85658 36.7312 7.37945 37.2541 7.90233C37.777 8.42521 38.0384 9.20952 38.2999 9.99383C38.5613 10.7781 38.5613 11.8239 38.5613 12.8697C38.5613 13.9154 38.2999 14.6997 38.0384 15.7455C37.777 16.5298 37.5156 17.3141 36.9927 17.837C36.4698 18.3598 35.9469 18.8827 35.1626 19.1442C34.3783 19.4056 33.594 19.667 32.8097 19.667C32.0254 19.667 31.241 19.4056 30.7182 19.1442C30.1953 18.8827 29.6724 18.6213 29.1495 18.0984V23.85H26.5352V6.3337H28.1038C28.3652 6.3337 28.6267 6.59514 28.8881 6.85658L29.1495 8.16377ZM29.1495 16.2683C29.6724 16.7912 29.9338 17.3141 30.4567 17.3141C30.9796 17.5755 31.5025 17.5755 32.0254 17.5755C33.0711 17.5755 34.1169 17.0527 34.6397 16.2683C35.1626 15.484 35.6855 14.1768 35.6855 12.6082C35.6855 11.8239 35.6855 11.0396 35.424 10.5167C35.1626 9.99383 35.1626 9.47096 34.9012 8.94808C34.6397 8.68664 34.3783 8.16377 33.8554 8.16377C33.3325 7.90233 33.0711 7.90233 32.5482 7.90233C31.7639 7.90233 31.241 8.16377 30.7182 8.42521C30.1953 8.68665 29.6724 9.20952 29.1495 9.7324V16.2683Z" fill="#F6F6F6"/>
<path d="M44.5706 2.15038C44.5706 2.41182 44.5706 2.67325 44.3091 2.93469C44.3091 2.93469 44.3091 3.19613 44.0477 3.45757C43.7863 3.71901 43.7863 3.719 43.5248 3.719C43.2634 3.719 43.0019 3.98044 42.7405 3.98044C42.4791 3.98044 42.2176 3.98044 41.9562 3.719L41.6948 3.45757C41.4333 3.19613 41.4333 3.19613 41.4333 2.93469C41.4333 2.67325 41.1719 2.41182 41.1719 2.15038C41.1719 1.88894 41.1719 1.6275 41.4333 1.36606C41.4333 1.10463 41.6948 0.843188 41.6948 0.843188C41.9562 0.581751 41.9562 0.581751 42.2176 0.581751C42.4791 0.581751 42.7405 0.320312 43.0019 0.320312C43.2634 0.320312 43.5248 0.320313 43.7863 0.581751C44.0477 0.581751 44.3091 0.843188 44.3091 0.843188C44.3091 1.10463 44.3091 1.10463 44.5706 1.36606C44.5706 1.6275 44.5706 1.88894 44.5706 2.15038ZM44.0477 19.6667H41.4333V6.33338H44.0477V19.6667Z" fill="#F6F6F6"/>
<path d="M52.1543 19.6667C51.1085 19.6667 50.3242 19.4053 49.5399 18.8824C49.017 18.3595 48.7556 17.3138 48.7556 16.268V8.16346H47.1869C46.9255 8.16346 46.9255 8.16346 46.9255 7.90202C46.9255 7.90202 46.6641 7.64059 46.6641 7.37915V6.59483L48.7556 6.3334L49.2784 2.41183C49.2784 2.15039 49.2784 2.15039 49.5399 2.15039H49.8013H51.1085V6.59483H54.7686V8.4249H51.1085V16.268C51.1085 16.7909 51.1085 17.3138 51.3699 17.3138C51.6314 17.5752 51.8928 17.5752 52.4157 17.5752C52.6771 17.5752 52.9386 17.5752 52.9386 17.5752C53.2 17.5752 53.2 17.5752 53.4614 17.3138L53.7229 17.0524H53.9843H54.2458C54.2458 17.0524 54.2458 17.0524 54.5072 17.3138L55.2915 18.621C54.7686 18.8824 54.2458 19.4053 53.7229 19.4053C53.2 19.6667 52.6771 19.6667 52.1543 19.6667Z" fill="#F6F6F6"/>
<path d="M57.1202 8.16377C57.9046 7.37946 58.6889 6.85658 59.4732 6.59514C60.2575 6.07227 61.3033 6.07227 62.349 6.07227C63.1333 6.07227 63.6562 6.07227 64.4405 6.3337C64.9634 6.59514 65.4863 6.85658 66.0091 7.37946C66.532 7.90233 66.7935 8.42521 66.7935 8.94808C67.0549 9.47096 67.0549 10.2553 67.0549 11.0396V19.667H66.0091C65.7477 19.667 65.4863 19.667 65.4863 19.667C65.2248 19.667 65.2248 19.4056 65.2248 19.1442L64.9634 18.0984C64.7019 18.3598 64.1791 18.6213 63.9176 18.8827C63.3948 18.8827 63.1333 19.1442 62.6104 19.1442C62.349 19.4056 61.8261 19.4056 61.5647 19.4056C61.0418 19.4056 60.7804 19.667 60.2575 19.667C59.7346 19.667 59.2118 19.667 58.6889 19.4056C58.166 19.1442 57.9046 19.1442 57.3817 18.6213C57.1203 18.3598 56.8588 17.837 56.5974 17.5755C56.3359 17.0527 56.3359 16.5298 56.3359 16.0069C56.3359 15.484 56.5974 14.9612 56.8588 14.4383C57.1202 13.9154 57.6431 13.3925 58.166 13.1311C58.6889 12.8697 59.7346 12.3468 60.7804 12.0853C61.8261 11.8239 63.1333 11.8239 64.7019 11.5625V11.0396C64.7019 9.99383 64.4405 9.20952 64.1791 8.68664C63.6562 8.16377 63.1333 7.90233 62.349 7.90233C61.8261 7.90233 61.3033 7.90233 61.0418 8.16377C60.7804 8.42521 60.2575 8.42521 59.9961 8.68664C59.7346 8.94808 59.4732 8.94808 59.2118 9.20952C58.9503 9.47096 58.6889 9.47096 58.6889 9.47096C58.4274 9.47096 58.4274 9.47096 58.166 9.20952L57.9046 8.94808L57.1202 8.16377ZM64.4405 13.654C63.3948 13.654 62.6104 13.654 61.8261 13.9154C61.0418 13.9154 60.5189 14.1768 59.9961 14.4383C59.4732 14.6997 59.2118 14.9612 58.9503 15.2226C58.6889 15.484 58.6889 15.7455 58.6889 16.2683C58.6889 16.5298 58.6889 16.7912 58.9503 17.0527C58.9503 17.3141 59.2118 17.5755 59.4732 17.5755C59.7346 17.837 59.9961 17.837 60.2575 17.837C60.5189 17.837 60.7804 17.837 61.0418 17.837C61.5647 17.837 61.8261 17.837 62.0876 17.837C62.349 17.837 62.6104 17.5755 63.1333 17.5755C63.3948 17.3141 63.6562 17.3141 63.9176 17.0527C64.1791 16.7912 64.4405 16.5298 64.7019 16.2683V13.654H64.4405Z" fill="#F6F6F6"/>
<path d="M73.0675 0.0585938H70.4531V19.405H73.0675V0.0585938Z" fill="#F6F6F6"/>
</svg>
