<svg width="136" height="35" viewBox="0 0 136 35" fill="none" xmlns="http://www.w3.org/2000/svg">
<path d="M1.01925 2.01227C1.28069 1.48939 1.80356 1.22795 2.32644 0.966516C2.84932 0.705078 3.63363 0.705078 4.41794 0.705078C4.94082 0.705078 5.46369 0.705078 5.98657 0.966516C6.50945 0.966516 6.77088 1.22795 7.03232 1.48939C7.29376 1.75083 7.5552 2.01227 7.81664 2.27371C8.07807 2.53514 8.07807 3.05802 8.07807 3.31946C8.07807 3.5809 8.07807 3.84233 8.07807 3.84233C8.07807 4.10377 7.81664 4.36521 7.81664 4.36521C7.5552 4.62665 7.29376 4.88808 7.29376 5.14952C7.03232 5.14952 6.77088 5.41096 6.50945 5.41096C7.03232 5.6724 7.5552 5.93384 7.81664 6.45671C8.07807 6.97959 8.33951 7.50246 8.33951 8.02534C8.33951 8.54822 8.33951 8.80965 8.07807 9.33253C7.81664 9.59397 7.5552 9.85541 7.03232 10.1168C6.77088 10.3783 6.24801 10.6397 5.98657 10.9012C5.46369 10.9012 4.94082 10.9012 4.41794 10.9012C4.15651 10.9012 3.89507 10.9012 3.37219 10.9012C3.11075 10.9012 2.58788 10.6397 2.32644 10.6397C2.065 10.3783 1.80356 10.3783 1.54213 10.1168C1.28069 9.85541 1.01925 9.59397 0.757812 9.33253L1.28069 8.54822L1.54213 8.28678C1.54213 8.28678 1.80356 8.28678 2.065 8.54822C2.32644 8.54822 2.32644 8.80965 2.58788 8.80965C2.84932 9.07109 3.11075 9.07109 3.37219 9.33253C3.63363 9.33253 3.89507 9.59397 4.41794 9.59397C4.67938 9.59397 4.94082 9.59397 5.20226 9.59397C5.4637 9.07109 5.72513 9.07109 5.72513 8.80965C5.98657 8.54822 5.98657 8.54822 6.24801 8.28678C6.24801 8.02534 6.50945 7.7639 6.50945 7.7639C6.50945 7.24103 6.24801 6.97959 5.98657 6.71815C5.46369 6.45671 4.94082 6.45671 4.15651 6.45671H2.84932V4.88809H3.89507C4.67938 4.88809 5.20226 4.88808 5.4637 4.62665C5.72513 4.36521 5.98657 4.10377 5.98657 3.5809C5.98657 3.31946 5.72513 2.79658 5.4637 2.79658C5.4637 2.53514 4.94082 2.27371 4.15651 2.27371C3.89507 2.27371 3.37219 2.27371 3.11075 2.27371C2.84932 2.27371 2.58788 2.53514 2.58788 2.53514C2.32644 2.53514 2.32644 2.79658 2.065 2.79658H1.80356H1.54213C1.54213 2.79658 1.28069 2.79658 1.28069 2.53514L1.01925 2.01227Z" fill="#F6F6F6"/>
<path d="M10.1713 2.27371C11.2171 1.22795 12.5243 0.705078 14.0929 0.705078C14.6158 0.705078 15.1386 0.705078 15.6615 0.966516C16.1844 1.22795 16.4458 1.48939 16.7073 1.75083C16.9687 2.01227 17.2301 2.53514 17.4916 3.05802C17.753 3.5809 17.753 4.10377 17.753 4.62665V10.9012H16.7073C16.4458 10.9012 16.4458 10.9012 16.1844 10.9012L15.9229 10.6397L15.6615 9.85541C15.4001 10.1168 15.1386 10.3783 14.8772 10.3783C14.8772 10.3783 14.6158 10.3783 14.3543 10.6397C14.0929 10.6397 13.8314 10.9012 13.57 10.9012C13.3086 10.9012 13.0471 10.9012 12.5243 10.9012C12.0014 10.9012 11.7399 10.9012 11.4785 10.6397C11.2171 10.6397 10.9556 10.3783 10.6942 10.1168C10.1713 10.1168 9.90988 9.8554 9.90988 9.59397C9.64844 9.07109 9.64844 8.80965 9.64844 8.28678C9.64844 8.02534 9.64844 7.50246 9.90988 7.24103C10.1713 6.71815 10.4328 6.45671 10.9556 6.19527C11.4785 5.93384 12.0014 5.6724 12.7857 5.41096C13.57 5.14952 14.6158 5.14952 15.6615 5.14952V4.62665C15.6615 3.84233 15.4001 3.31946 15.1386 3.05802C14.8772 2.53514 14.3543 2.27371 13.8314 2.27371C13.3086 2.27371 13.0471 2.27371 12.7857 2.53514C12.5243 2.53514 12.2628 2.79658 12.2628 2.79658C12.0014 2.79658 12.0014 3.05802 11.7399 3.05802C11.4785 3.05802 11.4785 3.31946 11.2171 3.31946C10.9556 3.31946 10.9556 3.31946 10.9556 3.31946L10.6942 3.05802L10.1713 2.27371ZM15.6615 6.45671C14.8772 6.45671 14.3543 6.45671 13.8314 6.71815C13.3086 6.71815 12.7857 6.97959 12.5243 6.97959C12.2628 7.24103 12.0014 7.24103 11.7399 7.50246C11.7399 7.7639 11.7399 8.02534 11.7399 8.28678C11.7399 8.54822 11.7399 8.80965 11.7399 8.80965C11.7399 9.07109 12.0014 9.07109 12.0014 9.33253C12.2628 9.33253 12.2628 9.33253 12.5243 9.33253C12.7857 9.33253 12.7857 9.33253 13.0471 9.33253C13.57 9.33253 14.0929 9.33253 14.3543 9.07109C14.8772 9.07109 15.4001 8.80965 15.6615 8.28678V6.45671Z" fill="#F6F6F6"/>
<path d="M26.9068 2.53542H22.2009V10.9014H20.1094V0.966797H26.9068V2.53542Z" fill="#F6F6F6"/>
<path d="M32.6584 0.705078C33.4428 0.705078 33.9656 0.705078 34.7499 0.966516C35.2728 1.22795 35.7957 1.75083 36.0571 2.01227C36.58 2.53514 36.8415 3.05802 37.1029 3.5809C37.3643 4.10377 37.3643 4.88808 37.3643 5.6724C37.3643 6.45671 37.3643 7.24103 37.1029 7.7639C36.8415 8.28678 36.58 8.80965 36.0571 9.33253C35.5343 9.8554 35.0114 10.1168 34.4885 10.3783C33.9656 10.6397 33.1813 10.6397 32.397 10.6397C31.6127 10.6397 31.0898 10.6397 30.3055 10.3783C29.7826 10.1168 29.2598 9.8554 28.7369 9.33253C28.214 8.80965 27.9526 8.28678 27.6911 7.7639C27.4297 7.24103 27.4297 6.45671 27.4297 5.6724C27.4297 4.88808 27.4297 4.10377 27.6911 3.5809C27.9526 3.05802 28.214 2.53514 28.7369 2.01227C29.5212 1.75083 30.0441 1.22795 30.5669 0.966516C31.3513 0.705078 31.8741 0.705078 32.6584 0.705078ZM32.6584 9.33253C33.4428 9.33253 34.2271 9.07109 34.7499 8.54822C35.2728 8.02534 35.5343 6.97959 35.5343 5.93384C35.5343 4.88808 35.2728 3.84233 34.7499 3.31946C34.2271 2.79658 33.7042 2.27371 32.6584 2.27371C31.8741 2.27371 31.0898 2.53514 30.5669 3.31946C30.0441 3.84233 29.7826 4.88808 29.7826 5.93384C29.7826 6.97959 30.0441 8.02534 30.5669 8.54822C31.0898 9.07109 31.6127 9.33253 32.6584 9.33253Z" fill="#F6F6F6"/>
<path d="M41.5446 2.27538C42.0675 1.7525 42.3289 1.49106 42.8518 0.968188C43.3747 0.70675 43.8976 0.445312 44.6819 0.445312C45.2048 0.445312 45.7276 0.445312 46.2505 0.70675C46.7734 0.968188 47.0348 1.22963 47.2963 1.7525C47.5577 2.27538 47.8191 2.79825 48.0806 3.32113C48.342 3.844 48.342 4.62832 48.342 5.41263C48.342 6.19695 48.342 6.71982 48.0806 7.50414C47.8191 8.02701 47.5577 8.81132 47.2963 9.07276C47.0348 9.59564 46.5119 9.85708 45.9891 10.1185C45.4662 10.38 44.9433 10.6414 44.159 10.6414C43.6361 10.6414 43.1133 10.6414 42.5904 10.38C42.0675 10.1185 41.8061 9.85708 41.5446 9.59564V13.7786H39.4531V0.968188H40.7603C41.0218 0.968188 41.2832 1.22963 41.2832 1.49106L41.5446 2.27538ZM41.5446 8.28845C41.8061 8.81132 42.3289 9.07276 42.5904 9.07276C42.8518 9.3342 43.3747 9.3342 43.6361 9.3342C44.4204 9.3342 45.2048 9.07276 45.4662 8.54989C45.9891 8.02701 46.2505 6.98126 46.2505 5.93551C46.2505 5.41263 46.2505 4.88976 45.9891 4.36688C45.9891 3.84401 45.7276 3.58257 45.4662 3.32113C45.2048 3.05969 44.9433 2.79825 44.6819 2.79825C44.4204 2.79825 44.159 2.53682 43.6361 2.53682C43.1133 2.53682 42.5904 2.53682 42.3289 2.79825C42.0675 3.05969 41.5446 3.32113 41.2832 3.844V8.28845H41.5446Z" fill="#F6F6F6"/>
<path d="M54.8775 0.705078C55.6618 0.705078 56.1847 0.705078 56.969 0.966516C57.4919 1.22795 58.0147 1.48939 58.5376 2.01227C59.0605 2.53514 59.3219 3.05802 59.5834 3.5809C59.8448 4.10377 59.8448 4.88808 59.8448 5.6724C59.8448 6.45671 59.8448 7.24103 59.5834 7.7639C59.3219 8.28678 59.0605 8.80965 58.5376 9.33253C58.0147 9.8554 57.4919 10.1168 56.969 10.3783C56.4461 10.6397 55.6618 10.6397 54.8775 10.6397C54.0932 10.6397 53.5703 10.6397 52.786 10.3783C52.2631 10.1168 51.7402 9.8554 51.2173 9.33253C50.6945 8.80965 50.433 8.28678 50.1716 7.7639C49.9102 7.24103 49.9102 6.45671 49.9102 5.6724C49.9102 4.88808 49.9102 4.10377 50.1716 3.5809C50.433 3.05802 50.6945 2.53514 51.2173 2.01227C51.7402 1.48939 52.2631 1.22795 52.786 0.966516C53.3088 0.705078 54.0932 0.705078 54.8775 0.705078ZM54.8775 9.33253C55.6618 9.33253 56.4461 9.07109 56.969 8.54822C57.4919 8.02534 57.7533 6.97959 57.7533 5.93384C57.7533 4.88808 57.4919 3.84233 56.969 3.31946C56.4461 2.79658 55.9232 2.27371 54.8775 2.27371C54.0932 2.27371 53.3088 2.53514 52.786 3.31946C52.2631 3.84233 52.0017 4.88808 52.0017 5.93384C52.0017 6.97959 52.2631 8.02534 52.786 8.54822C53.3088 9.07109 53.8317 9.33253 54.8775 9.33253Z" fill="#F6F6F6"/>
<path d="M72.3936 9.33281V13.7773C72.3936 14.0387 72.3936 14.0387 72.1322 14.3001C72.1322 14.3001 71.8707 14.5616 71.6093 14.5616H70.3021V10.9014H62.459V13.7773C62.459 14.0387 62.459 14.0387 62.1975 14.3001C62.1975 14.3001 62.1975 14.3001 61.9361 14.3001H60.6289V9.33281H60.8903C61.1518 9.33281 61.4132 9.33281 61.6747 9.33281C61.6747 9.07137 61.9361 9.07137 62.1975 8.80993C62.459 8.5485 62.7204 8.28706 62.7204 8.02562C62.9818 7.76418 62.9818 7.24131 63.2433 6.45699C63.5047 5.93412 63.5047 5.1498 63.5047 4.10405C63.5047 3.31974 63.7662 2.01255 63.7662 0.966797H70.3021V9.33281H72.3936ZM68.472 9.33281V2.53542H65.5962C65.5962 3.58118 65.3348 4.36549 65.3348 4.88837C65.3348 5.67268 65.0734 6.19555 65.0734 6.71843C64.8119 7.24131 64.8119 7.76418 64.5505 8.28706C64.289 8.80993 64.289 9.07137 64.0276 9.33281H68.472Z" fill="#F6F6F6"/>
<path d="M82.3309 0.966797V10.9014H80.2394V6.19556H76.0564V10.9014H73.9648V0.966797H76.0564V4.62693H80.2394V0.966797H82.3309Z" fill="#F6F6F6"/>
<path d="M84.6833 2.27371C85.7291 1.22795 87.0363 0.705078 88.6049 0.705078C89.1278 0.705078 89.6506 0.705078 90.1735 0.966516C90.6964 1.22795 91.2193 1.48939 91.4807 1.75083C91.7421 2.01227 92.0036 2.53514 92.265 3.05802C92.5264 3.5809 92.5265 4.10377 92.5265 4.62665V10.9012H91.4807C91.2193 10.9012 91.2193 10.9012 90.9578 10.9012L90.6964 10.6397L90.435 9.85541C90.1735 10.1168 89.9121 10.3783 89.6506 10.3783C89.3892 10.6397 89.1278 10.6397 88.8663 10.9012C88.6049 10.9012 88.3434 11.1626 88.082 11.1626C87.8206 11.1626 87.5591 11.1626 87.0363 11.1626C86.5134 11.1626 86.2519 11.1626 85.9905 10.9012C85.7291 10.9012 85.4676 10.6397 85.2062 10.3783C84.9448 10.1168 84.6833 9.8554 84.6833 9.59397C84.4219 9.33253 84.4219 8.80965 84.4219 8.54822C84.4219 8.28678 84.4219 7.7639 84.6833 7.50246C84.6833 6.71815 85.2062 6.45671 85.4676 6.19527C85.9905 5.93384 86.5134 5.6724 87.2977 5.41096C88.082 5.14952 89.1278 5.14952 90.1735 5.14952V4.62665C90.1735 3.84233 89.9121 3.31946 89.6506 3.05802C89.3892 2.79658 88.8663 2.53514 88.3434 2.53514C87.8206 2.53514 87.5591 2.53514 87.2977 2.79658C87.0363 2.79658 86.7748 3.05802 86.5134 3.05802C86.2519 3.05802 86.2519 3.31946 85.9905 3.31946C85.7291 3.31946 85.7291 3.5809 85.4676 3.5809C85.2062 3.5809 85.2062 3.5809 85.2062 3.5809L84.9448 3.31946L84.6833 2.27371ZM90.435 6.45671C89.6506 6.45671 89.1278 6.45671 88.6049 6.71815C88.082 6.71815 87.5591 6.97959 87.2977 6.97959C87.0363 7.24103 86.7748 7.24103 86.5134 7.50246C86.2519 7.7639 86.2519 8.02534 86.2519 8.28678C86.2519 8.54822 86.2519 8.80965 86.2519 8.80965C86.2519 9.07109 86.5134 9.07109 86.5134 9.33253C86.7748 9.33253 86.7748 9.59397 87.0363 9.59397C87.2977 9.59397 87.2977 9.59397 87.5591 9.59397C88.082 9.59397 88.6049 9.59397 88.8663 9.33253C89.3892 9.07109 89.6506 8.80965 89.9121 8.54822V6.45671H90.435Z" fill="#F6F6F6"/>
<path d="M101.936 0.966797V10.9014H99.8445V6.71843H99.3217C99.0602 6.71843 99.0602 6.71843 98.7988 6.71843C98.7988 6.71843 98.5374 6.71843 98.5374 6.97987L98.2759 7.24131L98.0145 7.50274L96.1844 10.1171C95.923 10.3786 95.923 10.64 95.6615 10.64C95.4001 10.64 95.1387 10.9014 94.8772 10.9014H93.3086L95.923 7.24131C96.4458 6.71843 96.9687 6.45699 97.2302 6.45699C96.7073 6.45699 96.4458 6.19556 95.923 6.19556C95.6615 5.93412 95.4001 5.93412 95.1387 5.67268C94.8772 5.41124 94.8772 5.1498 94.6158 4.88837C94.6158 4.62693 94.3543 4.36549 94.3543 4.10405C94.3543 3.84261 94.3543 3.31974 94.6158 3.0583C94.8772 2.79686 94.8772 2.27399 95.4001 2.01255C95.923 1.48967 96.1844 1.22823 96.7073 1.22823C97.2302 0.966797 97.753 0.966797 98.5374 0.966797H101.936ZM100.106 5.41124V2.27399H98.5374C98.2759 2.27399 98.0145 2.27399 97.753 2.53542C97.4916 2.53542 97.2302 2.79686 97.2302 2.79686C96.9687 3.0583 96.9687 3.0583 96.9687 3.31974C96.9687 3.58118 96.9687 3.58118 96.9687 3.84261C96.9687 4.36549 97.2302 4.62693 97.4916 4.88837C97.753 5.1498 98.2759 5.41124 98.7988 5.41124H100.106Z" fill="#F6F6F6"/>
<path d="M10.1704 21.0977V31.0323H8.07892V26.3264H3.63447V31.0323H1.54297V21.0977H3.63447V24.7578H8.07892V21.0977H10.1704Z" fill="#F6F6F6"/>
<path d="M14.0915 26.0647C14.0915 26.5876 14.0915 27.1104 14.3529 27.6333C14.6144 28.1562 14.6144 28.4176 14.8758 28.6791C15.1373 28.9405 15.3987 29.202 15.6601 29.202C15.9216 29.4634 16.4444 29.4634 16.7059 29.4634C17.2288 29.4634 17.4902 29.4634 17.7516 29.202C18.0131 29.202 18.2745 28.9405 18.5359 28.9405C18.7974 28.9405 19.0588 28.6791 19.0588 28.6791C19.3203 28.6791 19.3203 28.4176 19.5817 28.4176C19.8431 28.4176 19.8431 28.4176 19.8431 28.6791L20.366 29.4634C20.1046 29.7248 19.8431 29.9863 19.5817 30.2477C19.3203 30.5091 19.0588 30.5091 18.5359 30.7706C18.2745 30.7706 17.7516 31.032 17.4902 31.032C17.2288 31.032 16.7059 31.032 16.4444 31.032C15.6601 31.032 15.1373 31.032 14.6144 30.7706C14.0915 30.5091 13.5686 30.2477 13.0458 29.7248C12.5229 29.2019 12.2614 28.6791 12 28.1562C12.2614 27.3719 12 26.5876 12 25.8033C12 25.0189 12 24.4961 12.2614 23.9732C12.5229 23.4503 12.7843 22.9274 13.3072 22.4046C13.8301 21.8817 14.3529 21.3588 14.8758 21.0974C15.3987 20.8359 16.183 20.8359 16.9673 20.8359C17.4902 20.8359 18.2745 20.8359 18.7974 21.0974C19.3203 21.3588 19.8431 21.6203 20.1046 21.8817C20.366 22.1431 20.8889 22.666 20.8889 23.1889C21.1503 23.7118 21.1503 24.4961 21.1503 25.0189C21.1503 25.2804 21.1503 25.5418 21.1503 25.8033L20.8889 26.0647H14.0915ZM19.3203 24.7575C19.3203 24.4961 19.3203 23.9732 19.0588 23.7118C19.0588 23.4503 18.7974 23.1889 18.5359 22.9274C18.2745 22.666 18.0131 22.4046 17.7516 22.4046C17.4902 22.4046 17.2288 22.1431 16.7059 22.1431C15.9216 22.1431 15.3987 22.4046 14.8758 22.9274C14.3529 23.4503 14.0915 23.9732 14.0915 24.7575H19.3203Z" fill="#F6F6F6"/>
<path d="M33.7019 29.4642V33.9087C33.7019 34.1701 33.7019 34.1701 33.4405 34.4316C33.4405 34.4316 33.179 34.693 32.9176 34.693H31.6104V31.2943H23.7673V34.1701C23.7673 34.4316 23.7673 34.4316 23.5058 34.693C23.5058 34.693 23.2444 34.9544 22.983 34.9544H21.6758V29.9871H21.9372C22.1987 29.9871 22.4601 29.9871 22.7215 29.9871C22.983 29.9871 23.2444 29.7257 23.2444 29.4642C23.5058 29.2028 23.7673 28.9414 23.7673 28.6799C24.0287 28.4185 24.0287 27.8956 24.2902 27.1113C24.5516 26.5884 24.5516 25.8041 24.5516 24.7583C24.5516 23.974 24.813 22.6668 24.813 21.6211H31.349V29.9871H33.7019V29.4642ZM29.7804 29.4642V22.6668H26.9045C26.9045 23.7126 26.6431 24.4969 26.6431 25.0198C26.6431 25.8041 26.3817 26.327 26.3817 26.8499C26.1202 27.3727 26.1202 27.8956 25.8588 28.4185C25.5973 28.9414 25.5973 29.2028 25.3359 29.4642H29.7804Z" fill="#F6F6F6"/>
<path d="M39.1908 21.0977C39.7137 21.0977 40.2366 21.0977 40.7594 21.3591C41.2823 21.3591 41.5438 21.6205 41.8052 21.882C42.0666 22.1434 42.3281 22.4048 42.3281 22.6663C42.5895 22.9277 42.5895 23.1892 42.5895 23.712C42.5895 23.9735 42.5895 24.2349 42.5895 24.4963C42.5895 24.7578 42.3281 25.0192 42.3281 25.2807C42.0666 25.5421 42.0666 25.8035 41.8052 25.8035C41.5438 26.065 41.2823 26.065 40.7594 26.3264C41.5438 26.3264 42.0666 26.5879 42.3281 27.1107C42.8509 27.3722 42.8509 27.895 42.8509 28.6794C42.8509 29.2022 42.8509 29.7251 42.5895 29.9865C42.3281 30.248 42.0666 30.7709 41.8052 30.7709C41.5438 31.0323 41.0209 31.2937 40.498 31.2937C39.9751 31.2937 39.4523 31.5552 38.9294 31.5552H35.0078V21.0977H39.1908ZM37.3608 22.4048V25.2807H39.1908C39.4523 25.2807 39.7137 25.2807 39.9751 25.2807C40.2366 25.2807 40.498 25.0192 40.498 25.0192C40.7594 24.7578 40.7594 24.7578 40.7594 24.4963C40.7594 24.2349 41.0209 23.9735 41.0209 23.9735C41.0209 23.712 41.0209 23.712 41.0209 23.4506C41.0209 23.1892 40.7594 23.1892 40.7594 22.9277C40.498 22.9277 40.498 22.6663 40.2366 22.6663C39.9751 22.6663 39.7137 22.6663 39.4523 22.6663H37.3608V22.4048ZM39.1908 29.4637C39.7137 29.4637 40.2366 29.2022 40.498 28.9408C40.7594 28.6794 41.0209 28.4179 41.0209 27.895C41.0209 27.6336 41.0209 27.6336 41.0209 27.3722C41.0209 27.1107 40.7594 27.1107 40.7594 26.8493C40.498 26.8493 40.498 26.5879 40.2366 26.5879C39.9751 26.5879 39.7137 26.5879 39.4523 26.5879H37.3608V29.4637H39.1908Z" fill="#F6F6F6"/>
<path d="M53.83 21.0977V31.0323H51.7385V24.7578C51.7385 24.4963 51.7385 24.4963 51.7385 24.2349C51.7385 23.9735 51.7385 23.9735 51.7385 23.712C51.7385 23.9735 51.7385 23.9735 51.4771 24.2349C51.4771 24.2349 51.4771 24.4963 51.2156 24.4963L46.7712 30.5094L46.5098 30.7709C46.5098 30.7709 46.2483 31.0323 45.9869 31.0323H44.6797V21.0977H46.7712V27.3722C46.7712 27.6336 46.7712 27.6336 46.7712 27.895C46.7712 28.1565 46.7712 28.1565 46.7712 28.4179C47.0326 28.1565 47.0326 27.895 47.2941 27.6336L51.7385 21.6205C51.7385 21.3591 52 21.3591 52 21.3591C52 21.3591 52.2614 21.0977 52.5228 21.0977H53.83Z" fill="#F6F6F6"/>
<path d="M70.5618 31.0323H68.9932C68.7318 31.0323 68.2089 31.0323 68.2089 30.7709C67.9475 30.7709 67.9475 30.5094 67.686 30.248L66.1174 27.3722C65.856 27.1107 65.856 26.8493 65.5945 26.8493C65.3331 26.8493 65.0716 26.5879 64.8102 26.5879H64.0259V31.0323H61.9344V26.5879H61.1501C60.8886 26.5879 60.6272 26.5879 60.3658 26.8493C60.1043 26.8493 59.8429 27.1107 59.8429 27.3722L58.2743 30.248C58.2743 30.5094 58.0128 30.7709 57.7514 30.7709C57.4899 30.7709 57.2285 31.0323 56.9671 31.0323H55.3984L57.7514 26.8493C58.0128 26.5879 58.0128 26.3264 58.2743 26.065C58.5357 25.8035 58.7971 25.8035 59.0586 25.5421C58.7971 25.5421 58.5357 25.2807 58.5357 25.2807C58.2743 25.0192 58.2743 25.0192 58.0128 24.7578L55.6599 21.0977H57.2285C57.4899 21.0977 57.4899 21.0977 57.7514 21.3591C58.0128 21.3591 58.0128 21.6205 58.0128 21.882L59.8429 24.7578C60.1043 25.0192 60.1043 25.0192 60.3658 25.2807C60.6272 25.2807 60.8886 25.5421 61.1501 25.5421H61.9344V21.0977H64.0259V25.2807H64.8102C65.3331 25.2807 65.856 25.0192 66.1174 24.7578L67.9475 21.882C67.9475 21.6205 68.2089 21.6205 68.2089 21.3591C68.4703 21.3591 68.4703 21.0977 68.7318 21.0977H70.3004L67.9475 24.7578C67.686 25.0192 67.686 25.2807 67.4246 25.2807C67.1631 25.5421 67.1631 25.5421 66.9017 25.5421C67.1631 25.5421 67.4246 25.8035 67.686 26.065C67.9475 26.3264 68.2089 26.5879 68.2089 26.8493L70.5618 31.0323Z" fill="#F6F6F6"/>
<path d="M80.7597 21.0977V31.0323H78.6682V24.7578C78.6682 24.4963 78.6682 24.4963 78.6682 24.2349C78.6682 23.9735 78.6682 23.9735 78.6682 23.712C78.6682 23.9735 78.6682 23.9735 78.4068 24.2349C78.4068 24.2349 78.4068 24.4963 78.1453 24.4963L73.7009 30.5094L73.4394 30.7709C73.4394 30.7709 73.178 31.0323 72.9166 31.0323H71.6094V21.0977H73.7009V27.3722C73.7009 27.6336 73.7009 27.6336 73.7009 27.895C73.7009 28.1565 73.7009 28.1565 73.7009 28.4179C73.9623 28.1565 73.9623 27.895 74.2238 27.6336L78.6682 21.6205C78.6682 21.3591 78.9296 21.3591 78.9296 21.3591C78.9296 21.3591 79.1911 21.0977 79.4525 21.0977H80.7597Z" fill="#F6F6F6"/>
<path d="M94.8785 20.8359V30.7706H93.0485V24.7575C93.0485 24.4961 93.0485 24.2346 93.0485 23.9732C93.0485 23.7118 93.0485 23.4503 93.0485 23.1889L89.9112 28.9405L89.6498 29.202H89.3884H89.1269H88.8655L88.604 28.9405L85.4668 23.1889C85.4668 23.4503 85.4668 23.7118 85.4668 23.9732C85.4668 24.2346 85.4668 24.4961 85.4668 24.7575V30.7706H83.6367V20.8359H85.4668C85.7282 20.8359 85.7282 20.8359 85.9897 20.8359C86.2511 20.8359 86.2511 21.0974 86.2511 21.0974L88.8655 25.8033C88.8655 26.0647 89.1269 26.0647 89.1269 26.3261C89.1269 26.5876 89.3884 26.5876 89.3884 26.849C89.3884 26.5876 89.6498 26.5876 89.6498 26.3261C89.6498 26.0647 89.9112 26.0647 89.9112 25.8033L92.5256 21.0974C92.5256 20.8359 92.787 20.8359 92.787 20.8359C93.0485 20.8359 93.0485 20.8359 93.3099 20.8359H94.8785Z" fill="#F6F6F6"/>
<path d="M101.678 20.8359C102.463 20.8359 102.985 20.8359 103.77 21.0974C104.293 21.3588 104.816 21.6203 105.338 22.1431C105.861 22.666 106.123 23.1889 106.384 23.7118C106.646 24.2346 106.646 25.0189 106.646 25.8033C106.646 26.5876 106.646 27.3719 106.384 27.8948C106.123 28.4176 105.861 28.9405 105.338 29.4634C104.816 29.9863 104.293 30.2477 103.77 30.5091C103.247 30.7706 102.463 30.7706 101.678 30.7706C100.894 30.7706 100.371 30.7706 99.5868 30.5091C99.0639 30.2477 98.541 29.9863 98.0181 29.4634C97.4953 28.9405 97.2338 28.4176 96.9724 27.8948C96.7109 27.3719 96.7109 26.5876 96.7109 25.8033C96.7109 25.0189 96.7109 24.2346 96.9724 23.7118C97.2338 23.1889 97.4953 22.666 98.0181 22.1431C98.541 21.6203 99.0639 21.3588 99.5868 21.0974C100.11 20.8359 100.894 20.8359 101.678 20.8359ZM101.678 29.4634C102.463 29.4634 103.247 29.202 103.77 28.6791C104.293 28.1562 104.554 27.1104 104.554 26.0647C104.554 25.0189 104.293 23.9732 103.77 23.4503C103.247 22.9274 102.724 22.4046 101.678 22.4046C100.894 22.4046 100.11 22.666 99.5868 23.4503C99.0639 23.9732 98.8024 25.0189 98.8024 26.0647C98.8024 27.1104 99.0639 28.1562 99.5868 28.6791C100.11 29.202 100.633 29.4634 101.678 29.4634Z" fill="#F6F6F6"/>
<path d="M115.534 22.9283C115.273 23.1897 115.273 23.1897 115.011 23.1897H114.75C114.75 23.1897 114.489 22.9283 114.227 22.9283C113.966 22.9283 113.966 22.6668 113.704 22.6668C113.443 22.6668 113.181 22.6668 112.92 22.6668C112.397 22.6668 112.136 22.6668 111.613 22.9283C111.351 23.1897 111.09 23.4512 110.828 23.7126C110.567 23.974 110.306 24.4969 110.306 24.7583C110.306 25.2812 110.044 25.8041 110.044 26.327C110.044 26.8499 110.044 27.3727 110.306 27.8956C110.567 28.4185 110.567 28.6799 110.828 28.9414C111.09 29.2028 111.351 29.4642 111.613 29.7257C111.874 29.9871 112.397 29.9871 112.658 29.9871C113.181 29.9871 113.443 29.9871 113.704 29.7257C113.966 29.7257 114.227 29.4642 114.227 29.4642C114.489 29.4642 114.489 29.2028 114.75 29.2028L115.011 28.9414C115.273 28.9414 115.273 28.9414 115.273 29.2028L115.796 29.9871C115.534 30.2485 115.273 30.51 115.011 30.7714C114.75 31.0329 114.489 31.0329 113.966 31.2943C113.704 31.2943 113.181 31.5557 112.92 31.5557C112.658 31.5557 112.136 31.5557 111.874 31.5557C111.351 31.5557 110.567 31.5557 110.044 31.2943C109.521 31.0329 108.998 30.7714 108.737 30.2485C108.214 29.7257 107.953 29.2028 107.691 28.6799C107.43 28.157 107.43 27.3727 107.43 26.5884C107.43 25.8041 107.43 25.2812 107.691 24.4969C107.953 23.974 108.214 23.4512 108.737 22.9283C109.26 22.4054 109.521 22.144 110.306 21.8825C110.828 21.6211 111.613 21.6211 112.397 21.6211C113.181 21.6211 113.704 21.6211 114.227 21.8825C114.75 22.144 115.273 22.4054 115.796 22.9283H115.534Z" fill="#F6F6F6"/>
<path d="M126.252 22.6663H122.591V31.0323H120.5V22.6663H116.84V21.0977H126.252V22.6663Z" fill="#F6F6F6"/>
<path d="M131.742 24.7578C132.526 24.7578 133.049 24.7578 133.572 25.0192C134.095 25.2807 134.356 25.2807 134.618 25.8035C134.879 26.065 135.141 26.3264 135.141 26.8493C135.141 27.1107 135.402 27.6336 135.402 27.895C135.402 28.4179 135.402 28.6794 135.141 29.2022C134.879 29.4637 134.618 29.9865 134.356 30.248C134.095 30.5094 133.572 30.7709 133.311 30.7709C132.788 31.0323 132.265 31.0323 131.742 31.0323H127.82V21.0977H129.912V24.7578H131.742ZM131.742 29.4637C132.003 29.4637 132.265 29.4637 132.526 29.4637C132.788 29.4637 133.049 29.2022 133.049 29.2022C133.311 28.9408 133.311 28.9408 133.311 28.6794C133.311 28.4179 133.311 28.1565 133.311 28.1565C133.311 27.895 133.311 27.6336 133.311 27.6336C133.311 27.3722 133.049 27.3722 133.049 27.1107C132.788 26.8493 132.788 26.8493 132.526 26.8493C132.265 26.8493 132.003 26.8493 131.742 26.8493H129.912V29.9865H131.742V29.4637Z" fill="#F6F6F6"/>
</svg>
