<svg width="38" height="30" viewBox="0 0 38 30" fill="none" xmlns="http://www.w3.org/2000/svg">
<g clip-path="url(#clip0_1129_15444)">
<path d="M23.2929 1.16638C23.3931 1.23017 23.4934 1.28485 23.6027 1.34864C24.7692 2.05946 25.7352 2.98898 26.4915 4.12811C26.7102 4.46529 26.8469 4.84803 26.9016 5.24901C26.9472 5.56796 26.9745 5.89603 26.9654 6.21498C26.9381 6.86201 26.774 7.47258 26.528 8.06492C26.2273 8.78485 25.8263 9.4501 25.3615 10.0698C24.9332 10.6348 24.4593 11.1542 23.949 11.6372C23.1106 12.4209 22.1902 13.0953 21.1969 13.6603C20.0942 14.2891 18.946 14.7994 17.7157 15.1184C17.2418 15.246 16.7589 15.328 16.285 15.4191C15.7017 15.5285 15.1003 15.5467 14.5079 15.5285C13.624 15.492 12.7765 15.3371 11.9745 14.9361C11.1361 14.5169 10.5256 13.8972 10.1702 13.0224C9.65071 11.7739 9.39555 10.4708 9.42288 9.12203C9.42288 9.11292 9.42288 9.10381 9.432 9.08558C9.48668 9.51389 9.59603 9.89664 9.84208 10.2429C10.161 10.6986 10.6076 10.972 11.127 11.1451C11.5006 11.2727 11.8834 11.3365 12.2661 11.3638C12.9952 11.4185 13.706 11.3547 14.4168 11.2089C16.5037 10.7988 18.381 9.89664 20.1124 8.68461C20.8688 8.15605 21.5705 7.5546 22.2084 6.88023C22.8646 6.18765 23.4296 5.43127 23.8214 4.55642C24.0493 4.03698 24.2133 3.4902 24.1859 2.91608C24.1586 2.25083 23.8852 1.69494 23.3749 1.26662C23.3476 1.2484 23.3202 1.22106 23.302 1.20283C23.2838 1.17549 23.2929 1.16638 23.2929 1.16638Z" fill="#EAEAEE"/>
<path d="M18.2348 -2.60989e-05C18.5993 -0.0091391 18.9547 0.0273129 19.2919 0.164008C19.6838 0.318929 19.9754 0.56498 20.0574 1.0024C20.1121 1.31225 20.0574 1.61298 19.9481 1.90459C19.7749 2.36024 19.5106 2.77033 19.2008 3.13485C18.1346 4.40155 16.8041 5.28551 15.3186 5.95988C14.6807 6.25149 14.0246 6.46109 13.332 6.6069C12.8855 6.69803 12.4298 6.72537 11.9833 6.69803C11.5914 6.67069 11.2178 6.57045 10.908 6.31528C10.6892 6.13302 10.5799 5.89609 10.5525 5.6227C10.507 5.14882 10.671 4.72051 10.8988 4.31042C11.1996 3.76364 11.5914 3.29888 12.0197 2.85234C13.2956 1.53096 14.8265 0.65611 16.6127 0.227799C17.1321 0.100217 17.6516 0.0181999 18.1892 0.0090869C18.2075 -2.6099e-05 18.2257 -2.60989e-05 18.2348 -2.60989e-05Z" fill="#EAEAEE"/>
<path d="M1.14805 25.0971C1.23918 24.9695 1.32119 24.842 1.42144 24.7235C1.83152 24.2405 2.35096 23.9762 2.97065 23.8942C3.75437 23.794 4.46518 23.9671 5.06664 24.4774C5.58608 24.9149 5.86858 25.4799 5.97794 26.136C6.12375 27.0473 5.99616 27.913 5.50406 28.7059C5.03019 29.4714 4.31937 29.8723 3.4263 29.9726C2.86129 30.0364 2.31451 29.9726 1.79507 29.7447C1.06603 29.4258 0.61038 28.8517 0.327877 28.1226C0.109165 27.5485 0.0180352 26.9471 -0.000190778 26.3365C-0.0184168 25.5163 0.0271482 24.6961 0.209408 23.8942C0.33699 23.3565 0.537476 22.8462 0.892883 22.4088C1.35765 21.8438 1.96822 21.5522 2.67903 21.4428C3.55388 21.3061 4.43784 21.1968 5.31269 21.0692C5.34003 21.0692 5.36737 21.0692 5.41293 21.0601C5.44938 21.5066 5.47672 21.9531 5.51318 22.4088C5.29446 22.4361 5.07575 22.4726 4.85704 22.4999C4.13711 22.6002 3.41719 22.6913 2.70637 22.8098C2.28717 22.8827 1.90443 23.0467 1.61281 23.3748C1.36676 23.6573 1.24829 24.0036 1.19361 24.3681C1.15716 24.5959 1.13893 24.8328 1.1116 25.0698C1.12982 25.088 1.13893 25.0971 1.14805 25.0971ZM4.7568 26.7557C4.74768 26.6737 4.74768 26.5734 4.73857 26.4823C4.66567 25.9173 4.40139 25.489 3.85461 25.2976C3.19847 25.0698 2.55145 25.1153 1.92265 25.3978C1.6766 25.5072 1.467 25.6803 1.32119 25.9264C1.30297 25.9629 1.27563 26.0084 1.27563 26.0449C1.2574 26.4367 1.24829 26.8195 1.33031 27.2113C1.44878 27.7855 1.72217 28.2411 2.26895 28.4963C2.69726 28.6968 3.15291 28.7059 3.59944 28.5874C4.06421 28.4598 4.38316 28.1682 4.57454 27.7217C4.71123 27.4118 4.74768 27.102 4.7568 26.7557Z" fill="#EAEAEE"/>
<path d="M7.2627 23.8214C7.67278 23.8214 8.07375 23.8214 8.49295 23.8214C8.49295 25.1792 8.49295 26.5462 8.49295 27.904C8.50206 27.904 8.51118 27.904 8.52029 27.9131C8.53852 27.8858 8.55674 27.8676 8.57497 27.8402C9.35869 26.5371 10.1333 25.2339 10.9079 23.9308C10.9535 23.8488 11.0081 23.8214 11.1084 23.8214C11.4911 23.8305 11.8739 23.8214 12.2657 23.8214C12.2657 25.8445 12.2657 27.8585 12.2657 29.8724C11.8556 29.8724 11.4547 29.8724 11.0355 29.8724C11.0355 28.4873 11.0355 27.1112 11.0355 25.726C11.0264 25.726 11.0173 25.726 11.0081 25.7169C10.8806 25.9265 10.753 26.1361 10.6345 26.3548C9.96014 27.494 9.28578 28.6331 8.62053 29.7813C8.57497 29.8542 8.53852 29.8816 8.44739 29.8816C8.10109 29.8724 7.74568 29.8816 7.39939 29.8816C7.36294 29.8816 7.31737 29.8816 7.28092 29.8816C7.2627 27.8494 7.2627 25.8445 7.2627 23.8214Z" fill="#EAEAEE"/>
<path d="M27.4301 27.904C27.4848 27.8129 27.5395 27.7217 27.5941 27.6306C28.3414 26.3912 29.0796 25.1428 29.8268 23.9034C29.8633 23.8305 29.9089 23.8123 29.9909 23.8123C30.3827 23.8123 30.7655 23.8123 31.1664 23.8123C31.1664 25.8353 31.1664 27.8493 31.1664 29.8724C30.7564 29.8724 30.3554 29.8724 29.9362 29.8724C29.9362 28.4872 29.9362 27.102 29.9362 25.726C29.9271 25.726 29.918 25.7169 29.9089 25.7169C29.8906 25.7533 29.8633 25.7807 29.8451 25.8171C29.0705 27.1294 28.2959 28.4417 27.5212 29.7539C27.4666 29.8451 27.4119 29.8815 27.3025 29.8815C26.9198 29.8724 26.5462 29.8815 26.1543 29.8815C26.1543 27.8584 26.1543 25.8445 26.1543 23.8214C26.5644 23.8214 26.9745 23.8214 27.3937 23.8214C27.3937 25.1883 27.3937 26.5462 27.3937 27.904C27.4119 27.904 27.421 27.904 27.4301 27.904Z" fill="#EAEAEE"/>
<path d="M23.2839 28.9246C23.2657 28.952 23.2475 28.9884 23.2292 29.0158C22.965 29.4441 22.6278 29.7904 22.1266 29.9179C21.7438 30.0091 21.352 30.0091 20.9692 29.8997C20.3495 29.7266 20.0123 29.2983 19.9121 28.6695C19.8665 28.4143 19.8665 28.1591 19.9212 27.9131C20.0123 27.503 20.2675 27.2023 20.5956 26.9653C20.9601 26.7011 21.3702 26.5188 21.7894 26.3548C22.2177 26.1816 22.646 26.0085 23.0743 25.8353C23.211 25.7806 23.2201 25.7533 23.1837 25.6075C23.1016 25.2794 22.8829 25.0789 22.5549 25.0151C22.2177 24.9514 21.8805 24.9514 21.5524 25.0607C21.2699 25.161 21.1059 25.3614 21.0512 25.6531C21.0512 25.6713 21.0421 25.6895 21.033 25.7077C20.6411 25.7077 20.2493 25.7077 19.8574 25.7077C19.9212 24.9422 20.3131 24.1403 21.2517 23.8213C21.9261 23.5935 22.6095 23.6209 23.2748 23.876C23.9309 24.1221 24.2863 24.6324 24.3684 25.3068C24.423 25.726 24.3957 26.1452 24.4048 26.5735C24.4048 26.8104 24.3957 27.0382 24.3957 27.2752C24.3957 27.6124 24.3866 27.9495 24.3957 28.2776C24.4048 28.5966 24.5506 28.7424 24.8696 28.7515C24.9242 28.7515 24.9698 28.7515 25.0336 28.7606C25.0336 29.1433 25.0336 29.5261 25.0336 29.9271C24.8969 29.9271 24.7693 29.9362 24.6326 29.9271C24.423 29.8997 24.2043 29.8815 24.0038 29.8177C23.612 29.6992 23.4024 29.4076 23.3295 29.0158C23.3204 28.9884 23.3204 28.9611 23.3204 28.9429C23.3112 28.9429 23.3021 28.9337 23.2839 28.9246ZM23.1928 26.6464C23.1837 26.6464 23.1746 26.6464 23.1654 26.6555C22.6825 26.856 22.1904 27.0565 21.7074 27.2752C21.5524 27.3481 21.4066 27.4483 21.2699 27.5577C20.9601 27.8128 20.951 28.4963 21.5342 28.6512C21.9534 28.7606 22.3635 28.7424 22.7645 28.5783C22.9012 28.5237 23.0105 28.4234 23.129 28.3323C23.1563 28.3141 23.1837 28.2594 23.1837 28.2229C23.1928 27.6944 23.1928 27.1658 23.1928 26.6464Z" fill="#EAEAEE"/>
<path d="M33.964 26.0723C34.7659 26.0723 35.5588 26.0723 36.3607 26.0723C36.3607 25.325 36.3607 24.5686 36.3607 23.8123C36.7526 23.8123 37.1353 23.8123 37.518 23.8123C37.518 25.8262 37.518 27.8402 37.518 29.8633C37.1353 29.8633 36.7617 29.8633 36.3607 29.8633C36.3607 29.0249 36.3607 28.1865 36.3607 27.339C35.5496 27.339 34.7568 27.339 33.9549 27.339C33.9549 28.1865 33.9549 29.0158 33.9549 29.8633C33.5357 29.8633 33.1347 29.8633 32.7246 29.8633C32.7246 27.8493 32.7246 25.8353 32.7246 23.8123C33.1347 23.8123 33.5448 23.8123 33.964 23.8123C33.964 24.5777 33.964 25.325 33.964 26.0723Z" fill="#EAEAEE"/>
<path d="M13.3408 28.4417C13.4866 28.4599 13.6051 28.469 13.7327 28.4781C14.0061 28.4963 14.1974 28.3688 14.2886 28.1318C14.3797 27.8858 14.4708 27.6306 14.4982 27.3663C14.562 26.7102 14.5893 26.0632 14.6166 25.407C14.6349 24.8967 14.6349 24.3864 14.6349 23.876C14.6349 23.8578 14.6349 23.8396 14.644 23.8123C15.938 23.8123 17.2321 23.8123 18.5443 23.8123C18.5443 25.8262 18.5443 27.8402 18.5443 29.8633C18.1343 29.8633 17.7333 29.8633 17.3141 29.8633C17.3141 28.2776 17.3141 26.7011 17.3141 25.1063C16.7673 25.1063 16.2296 25.1063 15.6646 25.1063C15.6646 25.4161 15.6737 25.726 15.6646 26.0267C15.6282 26.9289 15.5826 27.8311 15.3639 28.7151C15.2819 29.0613 15.1452 29.3803 14.8627 29.6172C14.4253 29.9818 13.9332 30.0364 13.4046 29.8633C13.3773 29.8542 13.3408 29.8086 13.3408 29.7813C13.3408 29.3438 13.3408 28.8973 13.3408 28.4417Z" fill="#EAEAEE"/>
<path d="M14.1338 17.4604C14.5803 17.6518 15.0451 17.7976 15.5281 17.8796C15.7924 17.9252 16.0657 17.9525 16.3391 17.9799C16.5761 17.9981 16.813 18.0072 17.0499 18.0072C17.7517 18.0072 18.4351 17.9161 19.1186 17.7612C20.1484 17.5333 21.1235 17.1688 22.0621 16.6949C22.9005 16.2666 23.6933 15.7654 24.4315 15.1731C24.8689 14.8177 25.2881 14.444 25.68 14.0339C26.5639 13.0953 27.293 12.0473 27.7395 10.8171C27.9035 10.3614 28.022 9.89664 28.0676 9.40454C28.2498 10.1336 27.6575 12.5121 26.9922 13.7514C26.2723 15.1093 25.279 16.2211 24.0123 17.0868C20.7772 19.2739 16.8768 19.0734 14.1338 17.4604Z" fill="#EAEAEE"/>
<path d="M26.7832 21.6069C26.8288 21.6069 26.8652 21.6069 26.9017 21.6069C27.166 21.6069 27.4302 21.6069 27.6854 21.6069C27.7218 21.6069 27.7765 21.6342 27.7765 21.6616C27.8768 22.0079 28.1137 22.1719 28.4509 22.1992C28.6149 22.2175 28.7972 22.1992 28.9612 22.1719C29.2164 22.1354 29.3713 21.9714 29.4624 21.7345C29.4807 21.6889 29.4989 21.6433 29.508 21.5978C29.8269 21.5978 30.155 21.5978 30.4831 21.5978C30.4466 21.9714 30.3373 22.3086 30.1277 22.6093C29.9181 22.9009 29.6356 23.0923 29.2893 23.1926C28.861 23.311 28.4235 23.3201 27.9952 23.1926C27.3118 23.0012 26.9564 22.5091 26.8105 21.8438C26.8014 21.78 26.7923 21.698 26.7832 21.6069Z" fill="#EAEAEE"/>
</g>
<defs>
<clipPath id="clip0_1129_15444">
<rect width="37.5182" height="30" fill="white"/>
</clipPath>
</defs>
</svg>
