<svg width="663" height="244" viewBox="0 0 663 244" fill="none" xmlns="http://www.w3.org/2000/svg">
<path d="M0 66.6247H58.8204C60.9989 78.496 63.1774 90.3674 65.1139 101.754C68.0186 95.9397 70.1972 89.8829 73.586 84.5529C83.5104 69.0474 97.5498 61.5369 115.946 62.506C121.998 62.7483 128.049 63.4751 134.101 63.9596V130.585C132.406 130.1 131.196 129.616 129.744 129.131C117.399 124.77 105.054 123.559 92.4666 126.708C80.6057 129.858 73.3439 137.611 69.2289 148.755C68.7448 149.967 68.7448 151.178 68.7448 152.389C68.7448 179.766 68.7448 207.143 68.7448 234.52V238.154H0V66.6247Z" fill="#1F1F45"/>
<path d="M399.398 128.889C396.251 127.193 393.589 125.739 390.684 124.528C375.192 117.502 358.974 114.837 342.03 116.291C321.697 117.987 309.352 132.765 309.836 153.601C310.078 167.168 314.92 178.07 327.265 184.854C332.59 187.761 338.641 189.215 344.693 189.457C363.816 189.942 381.97 186.55 398.914 177.101C399.398 176.859 399.882 176.617 400.609 176.375C400.609 177.586 400.851 178.313 400.851 179.282C400.851 195.03 400.851 210.777 400.851 226.525C400.851 228.463 400.124 229.432 398.43 230.401C382.454 238.154 365.51 241.546 348.082 242.757C333.8 243.726 319.277 243.484 305.237 240.092C270.865 232.097 247.143 206.416 242.302 171.287C239.397 150.694 241.092 130.585 250.048 111.688C262.635 85.522 283.694 70.2588 312.015 64.6866C327.749 61.537 343.725 62.2638 359.701 63.7175C372.288 64.9288 384.633 67.5938 396.736 71.4702C398.672 72.197 399.398 72.9238 399.398 75.1043C399.398 92.0634 399.398 109.265 399.398 126.224V128.889Z" fill="#1F1F45"/>
<path d="M573.921 128.162C566.902 125.497 560.366 122.105 553.104 120.167C539.307 116.049 525.268 114.11 510.986 117.018C496.705 119.925 486.78 131.07 484.844 145.606C483.633 155.781 484.602 165.472 490.169 174.194C495.978 182.916 504.45 187.761 514.617 188.731C534.95 190.669 554.315 187.035 572.469 177.344C573.195 176.859 573.921 176.617 574.89 176.132C574.89 177.101 575.132 177.828 575.132 178.555C575.132 194.545 575.132 210.293 575.132 226.283C575.132 228.221 574.406 228.948 572.711 229.917C556.735 237.67 539.791 241.062 522.363 242.273C507.839 243.242 493.558 243 479.276 239.608C445.146 231.613 421.424 205.69 416.341 171.045C413.436 149.967 415.131 129.374 424.571 110.234C437.158 84.5531 458.459 69.7745 486.054 64.2022C501.788 61.0526 517.764 61.7794 533.497 63.2331C546.327 64.4445 558.914 67.1095 571.017 71.2281C572.469 71.7126 573.195 72.1972 573.195 73.8931C573.195 91.579 573.195 109.507 573.195 127.193C574.163 127.92 573.921 128.162 573.921 128.162Z" fill="#1F1F45"/>
<path d="M221.968 66.625H153.707V238.154H221.968V66.625Z" fill="#1F1F45"/>
<path d="M663.001 66.625H594.74V238.154H663.001V66.625Z" fill="#1F1F45"/>
<path d="M222.21 0H153.949V47.7278H222.21V0Z" fill="#1F1F45"/>
<path d="M662.757 0H594.496V47.7278H662.757V0Z" fill="#1F1F45"/>
</svg>
