<svg width="109" height="50" viewBox="0 0 109 50" fill="none" xmlns="http://www.w3.org/2000/svg">
<g clip-path="url(#clip0_1129_11301)">
<path d="M29.2818 35.4359C33.9792 33.4876 37.8241 31.5149 40.8167 29.5178C43.8031 27.5268 46.0292 25.4445 47.4825 23.283C47.5316 23.2099 47.5684 23.1369 47.6174 23.0699H35.6594V1.07769C32.9244 0.365319 29.8889 0 26.5345 0C21.6655 0 17.2747 0.754993 13.3685 2.25889C9.46216 3.76279 6.32855 5.93035 3.97987 8.74939C1.62506 11.5684 0.300484 14.9294 0 18.8322H16.4039C16.5327 17.6449 16.9375 16.5611 17.6243 15.5869C18.305 14.6128 19.3229 13.8273 20.6659 13.2306C22.0089 12.64 23.7505 12.3417 25.8906 12.3417C27.4299 12.3417 28.7544 12.5426 29.8644 12.9445C30.9743 13.3463 31.8206 13.9126 32.397 14.631C32.9735 15.3556 33.2617 16.2445 33.2617 17.3039C33.2617 18.2781 32.9489 19.1793 32.3296 20.0073C31.7102 20.8354 30.6125 21.7548 29.0304 22.7716C27.4483 23.7884 25.167 25.0852 22.1745 26.65L1.41043 37.6583V48.8553H50.8737V36.1301H27.5954L29.2818 35.4299V35.4359Z" fill="#F1F1F5"/>
<path fill-rule="evenodd" clip-rule="evenodd" d="M104.599 11.8609C106.923 15.6176 108.088 19.9954 108.088 25.0002L108.082 24.988C108.082 29.9929 106.923 34.3767 104.593 38.1274C104.311 38.5901 104.004 39.0407 103.691 39.479L103.571 39.4073L103.691 39.4909C101.447 42.6022 98.4789 45.0681 94.7934 46.8886C90.5866 48.9649 85.6869 50.006 80.0881 50.006C74.4893 50.006 69.5895 48.9649 65.3828 46.8886C61.1699 44.8063 57.9075 41.8898 55.5772 38.1392C53.253 34.3825 52.0879 30.0048 52.0879 24.9999C52.0879 24.3484 52.1124 23.703 52.1492 23.0698H80.0879V2.30174V-0.00585938C85.6867 -0.00585938 90.5864 1.0353 94.7932 3.11153C99 5.19385 102.268 8.11031 104.599 11.8609Z" fill="#F1F1F5"/>
<path d="M44.2317 17.5901C44.2317 16.1654 44.2317 14.7406 44.2317 13.3098C44.2317 13.2428 44.2317 13.1759 44.2501 13.115C44.4647 12.5305 44.851 12.1225 45.4643 11.9642C46.1204 11.7937 46.7704 11.8607 47.4082 12.086C47.4818 12.1103 47.5554 12.1347 47.6351 12.1651V8.69461C47.3162 8.67026 47.0035 8.62763 46.6907 8.61546C45.7341 8.57284 44.9921 8.96251 44.4831 9.7723C44.3053 10.0524 44.1826 10.369 44.0416 10.6612C43.9373 10.0646 43.8269 9.4496 43.7165 8.82247H40.6504V17.7728H44.2317V17.578V17.5901Z" fill="#F1F1F5"/>
<path d="M56.5394 17.8702C57.2753 18.0407 58.0234 18.059 58.7716 18.0042C59.6853 17.9433 60.5622 17.7606 61.3962 17.3588C61.4882 17.3161 61.525 17.2674 61.525 17.1639C61.525 16.342 61.525 15.5261 61.525 14.7041C61.525 14.6615 61.525 14.6128 61.5189 14.558C61.4821 14.5763 61.4514 14.5823 61.433 14.5945C60.5561 15.0816 59.6056 15.2582 58.6122 15.2338C58.2933 15.2277 57.9867 15.1547 57.7046 14.9964C57.0607 14.6432 56.8093 14.0648 56.7909 13.3646C56.7663 12.2687 57.4041 11.5076 58.4588 11.4162C59.3358 11.3432 60.182 11.4893 60.9854 11.8485C61.1387 11.9155 61.2797 11.9947 61.4453 12.0799V11.946C61.4453 11.057 61.4453 10.1681 61.4453 9.27913C61.4453 9.16953 61.4085 9.12691 61.3104 9.09647C60.6787 8.88945 60.0349 8.7555 59.3787 8.68853C58.5508 8.60329 57.7168 8.56675 56.8951 8.73115C55.4295 9.02949 54.3257 9.81493 53.6695 11.1849C53.1973 12.1712 53.1115 13.2246 53.2648 14.2962C53.5223 16.1167 54.7611 17.4562 56.5456 17.8763L56.5394 17.8702Z" fill="#F1F1F5"/>
<path d="M65.6297 17.8703C66.3717 18.0408 67.1198 18.0591 67.8741 18.0043C68.7878 17.9434 69.6647 17.7607 70.4926 17.3589C70.5784 17.3163 70.6152 17.2736 70.6152 17.1762C70.6152 16.3482 70.6152 15.5201 70.6152 14.686C70.6152 14.6494 70.6152 14.6068 70.603 14.5581C70.5478 14.5825 70.511 14.6007 70.4742 14.619C69.5298 15.1183 68.518 15.3131 67.4571 15.2096C66.9236 15.1548 66.482 14.9112 66.1816 14.4485C65.8872 13.9919 65.832 13.4865 65.8995 12.9568C65.9976 12.1896 66.5127 11.6173 67.2609 11.4651C68.0029 11.3129 68.7326 11.4164 69.4501 11.6234C69.818 11.733 70.1676 11.9035 70.5294 12.0435C70.5294 12.0435 70.5294 12.0313 70.5294 12.0191C70.5294 11.0937 70.5294 10.1621 70.5294 9.23662C70.5294 9.14529 70.4865 9.12094 70.4129 9.09658C69.7751 8.88348 69.1251 8.74344 68.4567 8.67646C67.6288 8.59731 66.8071 8.55469 65.9853 8.71909C64.5381 9.01134 63.4404 9.77851 62.7843 11.118C62.2875 12.1226 62.1956 13.1942 62.3489 14.2902C62.6003 16.0924 63.8452 17.4502 65.6174 17.8642L65.6297 17.8703Z" fill="#F1F1F5"/>
<path d="M52.199 8.84668H48.6484V17.7787H52.199V8.84668Z" fill="#F1F1F5"/>
<path d="M75.1698 8.84082H71.6191V17.7729H75.1698V8.84082Z" fill="#F1F1F5"/>
<path d="M52.2228 5.37012H48.666V7.86038H52.2228V5.37012Z" fill="#F1F1F5"/>
<path d="M75.1564 5.37012H71.5996V7.86038H75.1564V5.37012Z" fill="#F1F1F5"/>
</g>
<defs>
<clipPath id="clip0_1129_11301">
<rect width="108.088" height="50" fill="white"/>
</clipPath>
</defs>
</svg>
